<?xml version="1.0" encoding="utf-8"?>
<!-- Generator: Adobe Illustrator 19.0.0, SVG Export Plug-In . SVG Version: 6.00 Build 0)  -->
<svg version="1.1" id="Layer_1" xmlns="http://www.w3.org/2000/svg" xmlns:xlink="http://www.w3.org/1999/xlink" x="0px" y="0px"
	 viewBox="0 0 281 147.6" style="enable-background:new 0 0 281 147.6;" xml:space="preserve">
<style type="text/css">
	.st0{fill:none;stroke:#000000;stroke-width:2;stroke-linecap:round;stroke-linejoin:round;stroke-miterlimit:10;}
	.st1{fill:none;stroke:#000000;stroke-width:1.5;stroke-linecap:round;stroke-linejoin:round;stroke-miterlimit:10;}
	.st2{fill:none;stroke:#000000;stroke-width:0.72;stroke-linecap:round;stroke-linejoin:round;stroke-miterlimit:10;}
	.st3{fill:none;stroke:#000000;stroke-width:1.5;stroke-linecap:round;stroke-miterlimit:10;}
</style>
<g id="XMLID_1_">
</g>
<g id="XMLID_2_">
</g>
<g id="XMLID_91_">
	<path id="XMLID_92_" d="M98.6,114.6c-0.8,0-1.4,0.3-1.9,0.9s-0.7,1.4-0.7,2.4c0,1.1,0.2,1.8,0.7,2.4s1.1,0.8,1.9,0.8
		c0.4,0,0.7,0,1.1-0.1s0.7-0.2,1.1-0.3v1.2c-0.7,0.3-1.4,0.4-2.3,0.4c-1.3,0-2.2-0.4-2.9-1.1s-1-1.8-1-3.3c0-0.9,0.2-1.7,0.5-2.3
		s0.8-1.2,1.4-1.5s1.3-0.5,2.2-0.5c0.9,0,1.7,0.2,2.4,0.6l-0.5,1.2c-0.3-0.1-0.6-0.3-0.9-0.4S99,114.6,98.6,114.6z"/>
	<path id="XMLID_94_" d="M106.2,114.6c-0.8,0-1.4,0.3-1.9,0.9s-0.7,1.4-0.7,2.4c0,1.1,0.2,1.8,0.7,2.4s1.1,0.8,1.9,0.8
		c0.4,0,0.7,0,1.1-0.1s0.7-0.2,1.1-0.3v1.2c-0.7,0.3-1.4,0.4-2.3,0.4c-1.3,0-2.2-0.4-2.9-1.1s-1-1.8-1-3.3c0-0.9,0.2-1.7,0.5-2.3
		s0.8-1.2,1.4-1.5s1.3-0.5,2.2-0.5c0.9,0,1.7,0.2,2.4,0.6l-0.5,1.2c-0.3-0.1-0.6-0.3-0.9-0.4S106.6,114.6,106.2,114.6z"/>
	<path id="XMLID_96_" d="M115.4,117.2c0,1.7-0.3,2.9-1,3.8s-1.7,1.2-3.1,1.2c-0.5,0-0.9,0-1.1-0.1v-1.2c0.3,0.1,0.7,0.1,1,0.1
		c0.9,0,1.6-0.2,2.1-0.8s0.7-1.3,0.8-2.4H114c-0.2,0.4-0.5,0.6-0.8,0.8s-0.7,0.2-1.1,0.2c-0.8,0-1.4-0.2-1.8-0.7s-0.7-1.1-0.7-1.9
		c0-0.9,0.3-1.6,0.8-2.1s1.2-0.8,2.1-0.8c0.6,0,1.1,0.1,1.6,0.4s0.8,0.7,1,1.3S115.4,116.4,115.4,117.2z M112.4,114.5
		c-0.5,0-0.8,0.2-1.1,0.5s-0.4,0.7-0.4,1.3c0,0.5,0.1,0.9,0.4,1.2s0.6,0.4,1.1,0.4c0.5,0,0.9-0.1,1.2-0.4s0.5-0.6,0.5-1
		c0-0.3-0.1-0.7-0.2-1s-0.3-0.5-0.6-0.7S112.7,114.5,112.4,114.5z"/>
	<path id="XMLID_99_" d="M122.2,117.8c0,1.5-0.2,2.6-0.7,3.3s-1.2,1.1-2.2,1.1c-1,0-1.7-0.4-2.2-1.1s-0.7-1.8-0.7-3.3
		c0-1.5,0.2-2.6,0.7-3.3s1.2-1.1,2.2-1.1c1,0,1.7,0.4,2.2,1.1S122.2,116.3,122.2,117.8z M117.8,117.8c0,1.2,0.1,2,0.4,2.5
		s0.6,0.8,1.2,0.8s0.9-0.3,1.2-0.8s0.4-1.3,0.4-2.5c0-1.1-0.1-2-0.4-2.5s-0.6-0.8-1.2-0.8s-0.9,0.3-1.2,0.8S117.8,116.6,117.8,117.8
		z"/>
	<path id="XMLID_102_" d="M82.3,133.2c0-1,0.2-2,0.5-2.9s0.7-1.7,1.3-2.4h1.2c-0.5,0.7-1,1.6-1.2,2.5s-0.4,1.8-0.4,2.8
		s0.1,1.9,0.4,2.8s0.7,1.7,1.2,2.4h-1.2c-0.6-0.7-1-1.4-1.3-2.3S82.3,134.2,82.3,133.2z"/>
	<path id="XMLID_104_" d="M92,131.6c0,1.7-0.3,2.9-1,3.8s-1.7,1.2-3.1,1.2c-0.5,0-0.9,0-1.1-0.1v-1.2c0.3,0.1,0.7,0.1,1,0.1
		c0.9,0,1.6-0.2,2.1-0.8s0.7-1.3,0.8-2.4h-0.1c-0.2,0.4-0.5,0.6-0.8,0.8s-0.7,0.2-1.1,0.2c-0.8,0-1.4-0.2-1.8-0.7s-0.7-1.1-0.7-1.9
		c0-0.9,0.3-1.6,0.8-2.1s1.2-0.8,2.1-0.8c0.6,0,1.1,0.1,1.6,0.4s0.8,0.7,1,1.3S92,130.8,92,131.6z M89,128.9c-0.5,0-0.8,0.2-1.1,0.5
		s-0.4,0.7-0.4,1.3c0,0.5,0.1,0.9,0.4,1.2s0.6,0.4,1.1,0.4c0.5,0,0.9-0.1,1.2-0.4s0.5-0.6,0.5-1c0-0.3-0.1-0.7-0.2-1
		s-0.3-0.5-0.6-0.7S89.3,128.9,89,128.9z"/>
	<path id="XMLID_107_" d="M98.9,132.2c0,1.5-0.2,2.6-0.7,3.3s-1.2,1.1-2.2,1.1c-1,0-1.7-0.4-2.2-1.1s-0.7-1.8-0.7-3.3
		c0-1.5,0.2-2.6,0.7-3.3s1.2-1.1,2.2-1.1c1,0,1.7,0.4,2.2,1.1S98.9,130.7,98.9,132.2z M94.4,132.2c0,1.2,0.1,2,0.4,2.5
		s0.6,0.8,1.2,0.8s0.9-0.3,1.2-0.8s0.4-1.3,0.4-2.5c0-1.1-0.1-2-0.4-2.5s-0.6-0.8-1.2-0.8s-0.9,0.3-1.2,0.8S94.4,131,94.4,132.2z"/>
	<path id="XMLID_110_" d="M101.7,136.5h-1.4v-9.1h1.4V136.5z"/>
	<path id="XMLID_112_" d="M107,129.9c0.8,0,1.4,0.3,1.9,0.9s0.7,1.4,0.7,2.5c0,1.1-0.2,1.9-0.7,2.5s-1.1,0.9-1.9,0.9
		c-0.8,0-1.5-0.3-1.9-0.9H105l-0.3,0.8h-1v-9.1h1.4v2.2c0,0.2,0,0.4,0,0.7s0,0.5,0,0.6h0.1C105.5,130.2,106.2,129.9,107,129.9z
		 M106.7,131c-0.6,0-1,0.2-1.2,0.5s-0.4,0.9-0.4,1.6v0.1c0,0.8,0.1,1.4,0.4,1.7s0.7,0.5,1.2,0.5c0.5,0,0.9-0.2,1.1-0.6
		s0.4-0.9,0.4-1.7C108.2,131.7,107.7,131,106.7,131z"/>
	<path id="XMLID_117_" d="M115.5,134.6c0,0.6-0.2,1.1-0.7,1.5s-1.1,0.5-2,0.5c-0.9,0-1.6-0.1-2.1-0.4V135c0.8,0.4,1.5,0.5,2.1,0.5
		c0.8,0,1.3-0.3,1.3-0.8c0-0.2,0-0.3-0.1-0.4s-0.2-0.2-0.5-0.3s-0.5-0.2-0.9-0.4c-0.7-0.3-1.3-0.6-1.5-0.9s-0.4-0.7-0.4-1.1
		c0-0.6,0.2-1,0.7-1.3s1.1-0.5,1.8-0.5c0.8,0,1.5,0.2,2.2,0.5l-0.4,1c-0.7-0.3-1.3-0.4-1.8-0.4c-0.7,0-1.1,0.2-1.1,0.6
		c0,0.2,0.1,0.4,0.3,0.5s0.6,0.3,1.2,0.6c0.5,0.2,0.9,0.4,1.2,0.6s0.4,0.4,0.5,0.6S115.5,134.3,115.5,134.6z"/>
	<path id="XMLID_119_" d="M120.6,127.9l-3.2,8.6h-1.3l3.2-8.6H120.6z"/>
	<path id="XMLID_121_" d="M126.1,134.6c0,0.6-0.2,1.1-0.7,1.5s-1.1,0.5-2,0.5c-0.9,0-1.6-0.1-2.1-0.4V135c0.8,0.4,1.5,0.5,2.1,0.5
		c0.8,0,1.3-0.3,1.3-0.8c0-0.2,0-0.3-0.1-0.4s-0.2-0.2-0.5-0.3s-0.5-0.2-0.9-0.4c-0.7-0.3-1.3-0.6-1.5-0.9s-0.4-0.7-0.4-1.1
		c0-0.6,0.2-1,0.7-1.3s1.1-0.5,1.8-0.5c0.8,0,1.5,0.2,2.2,0.5l-0.4,1c-0.7-0.3-1.3-0.4-1.8-0.4c-0.7,0-1.1,0.2-1.1,0.6
		c0,0.2,0.1,0.4,0.3,0.5s0.6,0.3,1.2,0.6c0.5,0.2,0.9,0.4,1.2,0.6s0.4,0.4,0.5,0.6S126.1,134.3,126.1,134.6z"/>
	<path id="XMLID_123_" d="M130.8,131h-1.6v5.4h-1.4V131h-1.1v-0.6l1.1-0.4v-0.4c0-0.8,0.2-1.3,0.5-1.7s0.9-0.6,1.6-0.6
		c0.5,0,1,0.1,1.4,0.2l-0.4,1c-0.3-0.1-0.7-0.2-1-0.2c-0.3,0-0.5,0.1-0.7,0.3s-0.2,0.5-0.2,0.9v0.4h1.6V131z"/>
	<path id="XMLID_125_" d="M134.2,133.2c0,1-0.2,2-0.5,2.9s-0.7,1.7-1.3,2.3h-1.2c0.5-0.7,1-1.5,1.2-2.4s0.4-1.8,0.4-2.8
		c0-1-0.1-1.9-0.4-2.8s-0.7-1.7-1.2-2.5h1.2c0.6,0.7,1,1.5,1.3,2.4S134.2,132.2,134.2,133.2z"/>
</g>
<line id="XMLID_40_" class="st0" x1="1" y1="70.1" x2="205.2" y2="70.1"/>
<polyline id="XMLID_39_" class="st0" points="192.6,16.3 13.7,16.3 1,70.1 "/>
<path id="XMLID_38_" class="st1" d="M51,58.3c0-0.5-0.4-1-1-1c-0.5,0-1,0.4-1,1c0,0.5,0.4,1,1,1C50.6,59.3,51,58.9,51,58.3"/>
<path id="XMLID_36_" class="st1" d="M157.1,58.3c0-0.5-0.4-1-1-1c-0.5,0-1,0.4-1,1c0,0.5,0.4,1,1,1
	C156.7,59.3,157.1,58.9,157.1,58.3"/>
<line id="XMLID_35_" class="st1" x1="192.6" y1="16.3" x2="229.3" y2="16.3"/>
<line id="XMLID_34_" class="st1" x1="205.5" y1="70.1" x2="229" y2="70.1"/>
<line id="XMLID_33_" class="st2" x1="226.1" y1="22.6" x2="226.1" y2="63.7"/>
<g id="XMLID_79_">
	<path id="XMLID_80_" d="M253.6,35.5c-0.3-0.1-0.6-0.3-0.7-0.5s-0.2-0.5-0.2-0.8c0-0.5,0.2-0.8,0.5-1.2s0.8-0.5,1.3-0.5
		c0.6,0,1,0.2,1.3,0.5c0.3,0.3,0.5,0.7,0.5,1.2c0,0.3-0.1,0.5-0.2,0.8c-0.2,0.2-0.4,0.4-0.7,0.5c0.4,0.1,0.7,0.3,0.9,0.6
		s0.3,0.6,0.3,1c0,0.5-0.2,1-0.6,1.4c-0.4,0.4-0.9,0.6-1.5,0.6s-1.1-0.2-1.5-0.6c-0.4-0.4-0.6-0.8-0.6-1.4c0-0.4,0.1-0.8,0.3-1
		S253.2,35.6,253.6,35.5z M253.2,37.1c0,0.2,0.1,0.4,0.2,0.6c0.1,0.2,0.3,0.4,0.5,0.5c0.2,0.1,0.4,0.2,0.7,0.2
		c0.4,0,0.7-0.1,0.9-0.4c0.2-0.2,0.4-0.5,0.4-0.9c0-0.4-0.1-0.7-0.4-0.9c-0.2-0.2-0.6-0.4-0.9-0.4c-0.4,0-0.7,0.1-0.9,0.4
		C253.3,36.4,253.2,36.7,253.2,37.1z M253.5,34.1c0,0.3,0.1,0.5,0.3,0.7c0.2,0.2,0.4,0.3,0.8,0.3c0.3,0,0.5-0.1,0.7-0.3
		s0.3-0.4,0.3-0.7c0-0.3-0.1-0.5-0.3-0.7s-0.4-0.3-0.7-0.3c-0.3,0-0.5,0.1-0.7,0.3C253.5,33.6,253.5,33.9,253.5,34.1z"/>
	<path id="XMLID_84_" d="M257.8,38.9V38h0.9v0.9H257.8z"/>
	<path id="XMLID_86_" d="M259.8,37.2l0.8-0.1c0.1,0.4,0.2,0.7,0.4,0.9c0.2,0.2,0.5,0.3,0.8,0.3c0.4,0,0.7-0.1,1-0.4
		c0.3-0.3,0.4-0.7,0.4-1.1c0-0.4-0.1-0.8-0.4-1s-0.6-0.4-1-0.4c-0.3,0-0.5,0.1-0.7,0.2c-0.2,0.1-0.4,0.3-0.5,0.4l-0.7-0.1l0.6-3.3
		h3.1v0.7h-2.5l-0.3,1.7c0.4-0.3,0.8-0.4,1.2-0.4c0.6,0,1,0.2,1.4,0.6c0.4,0.4,0.6,0.9,0.6,1.5c0,0.6-0.2,1.1-0.5,1.5
		c-0.4,0.5-1,0.8-1.7,0.8c-0.6,0-1-0.2-1.4-0.5C260,38.2,259.8,37.8,259.8,37.2z"/>
	<path id="XMLID_88_" d="M265,34.8l-0.2-1.2v-1h0.9v1l-0.2,1.2H265z M266.4,34.8l-0.2-1.2v-1h0.9v1l-0.2,1.2H266.4z"/>
</g>
<g id="XMLID_58_">
	<path id="XMLID_59_" d="M240.3,51.4c-0.4-0.5-0.8-1.2-1.1-1.9s-0.4-1.5-0.4-2.3c0-0.7,0.1-1.3,0.3-2c0.3-0.7,0.7-1.5,1.2-2.2h0.6
		c-0.3,0.6-0.6,1-0.7,1.3c-0.2,0.4-0.3,0.8-0.4,1.2c-0.1,0.5-0.2,1.1-0.2,1.6c0,1.4,0.4,2.8,1.3,4.2H240.3z"/>
	<path id="XMLID_61_" d="M245.6,48.8v0.7h-4.2c0-0.2,0-0.4,0.1-0.5c0.1-0.3,0.3-0.6,0.5-0.8c0.2-0.3,0.6-0.6,1-1
		c0.7-0.6,1.2-1,1.4-1.3c0.2-0.3,0.4-0.6,0.4-0.9c0-0.3-0.1-0.6-0.3-0.8c-0.2-0.2-0.5-0.3-0.9-0.3c-0.4,0-0.7,0.1-0.9,0.3
		s-0.3,0.5-0.3,0.9l-0.8-0.1c0.1-0.6,0.3-1.1,0.6-1.4s0.8-0.5,1.4-0.5c0.6,0,1.1,0.2,1.4,0.5s0.5,0.8,0.5,1.3c0,0.3-0.1,0.5-0.2,0.7
		c-0.1,0.2-0.3,0.5-0.5,0.8c-0.2,0.3-0.6,0.6-1.2,1.1c-0.5,0.4-0.8,0.7-0.9,0.8s-0.2,0.3-0.3,0.4H245.6z"/>
	<path id="XMLID_63_" d="M249.4,49.5h-0.8v-5c-0.2,0.2-0.4,0.4-0.7,0.5c-0.3,0.2-0.6,0.3-0.8,0.4v-0.8c0.4-0.2,0.8-0.5,1.1-0.7
		c0.3-0.3,0.6-0.6,0.7-0.8h0.5V49.5z"/>
	<path id="XMLID_65_" d="M251.4,47.9l0.8-0.1c0.1,0.4,0.2,0.7,0.4,0.9c0.2,0.2,0.5,0.3,0.8,0.3c0.4,0,0.7-0.1,1-0.4
		c0.3-0.3,0.4-0.7,0.4-1.1c0-0.4-0.1-0.8-0.4-1s-0.6-0.4-1-0.4c-0.3,0-0.5,0.1-0.7,0.2c-0.2,0.1-0.4,0.3-0.5,0.4l-0.7-0.1l0.6-3.3
		h3.1V44h-2.5l-0.3,1.7c0.4-0.3,0.8-0.4,1.2-0.4c0.6,0,1,0.2,1.4,0.6c0.4,0.4,0.6,0.9,0.6,1.5c0,0.6-0.2,1.1-0.5,1.5
		c-0.4,0.5-1,0.8-1.7,0.8c-0.6,0-1-0.2-1.4-0.5C251.7,48.8,251.5,48.4,251.4,47.9z"/>
	<path id="XMLID_67_" d="M256.8,49.5v-0.9h0.9v0.9H256.8z"/>
	<path id="XMLID_69_" d="M258.9,48l0.7-0.1c0.1,0.4,0.2,0.6,0.4,0.8c0.2,0.2,0.4,0.2,0.7,0.2c0.2,0,0.4-0.1,0.6-0.2s0.3-0.3,0.4-0.4
		c0.1-0.2,0.2-0.4,0.3-0.7c0.1-0.3,0.1-0.6,0.1-1c0,0,0-0.1,0-0.2c-0.2,0.2-0.4,0.4-0.6,0.6c-0.3,0.2-0.6,0.2-0.9,0.2
		c-0.5,0-1-0.2-1.3-0.6c-0.4-0.4-0.5-0.9-0.5-1.5c0-0.6,0.2-1.2,0.6-1.6c0.4-0.4,0.9-0.6,1.4-0.6c0.4,0,0.8,0.1,1.1,0.3
		c0.3,0.2,0.6,0.5,0.8,0.9c0.2,0.4,0.3,1,0.3,1.8c0,0.8-0.1,1.5-0.3,1.9s-0.4,0.8-0.8,1.1s-0.8,0.4-1.2,0.4c-0.5,0-0.9-0.1-1.2-0.4
		C259.1,48.9,259,48.5,258.9,48z M262.1,45.2c0-0.4-0.1-0.8-0.4-1.1s-0.5-0.4-0.9-0.4c-0.3,0-0.6,0.1-0.9,0.4
		c-0.3,0.3-0.4,0.6-0.4,1.1c0,0.4,0.1,0.7,0.4,1s0.5,0.4,0.9,0.4c0.4,0,0.7-0.1,0.9-0.4S262.1,45.7,262.1,45.2z"/>
	<path id="XMLID_72_" d="M263.9,49.5v-4.6h0.7v0.6c0.1-0.2,0.3-0.4,0.6-0.5c0.2-0.1,0.5-0.2,0.8-0.2c0.3,0,0.6,0.1,0.8,0.2
		c0.2,0.1,0.4,0.3,0.5,0.6c0.4-0.5,0.8-0.8,1.4-0.8c0.5,0,0.8,0.1,1,0.4c0.2,0.3,0.4,0.6,0.4,1.2v3.1h-0.8v-2.9c0-0.3,0-0.5-0.1-0.7
		c-0.1-0.1-0.1-0.2-0.3-0.3c-0.1-0.1-0.3-0.1-0.5-0.1c-0.3,0-0.6,0.1-0.8,0.3c-0.2,0.2-0.3,0.6-0.3,1v2.7h-0.8v-3
		c0-0.3-0.1-0.6-0.2-0.8c-0.1-0.2-0.3-0.3-0.6-0.3c-0.2,0-0.4,0.1-0.6,0.2s-0.3,0.3-0.4,0.5c-0.1,0.2-0.1,0.5-0.1,1v2.4H263.9z"/>
	<path id="XMLID_75_" d="M271.3,49.5v-4.6h0.7v0.6c0.1-0.2,0.3-0.4,0.6-0.5c0.2-0.1,0.5-0.2,0.8-0.2c0.3,0,0.6,0.1,0.8,0.2
		c0.2,0.1,0.4,0.3,0.5,0.6c0.4-0.5,0.8-0.8,1.4-0.8c0.5,0,0.8,0.1,1,0.4c0.2,0.3,0.4,0.6,0.4,1.2v3.1h-0.8v-2.9c0-0.3,0-0.5-0.1-0.7
		c-0.1-0.1-0.1-0.2-0.3-0.3c-0.1-0.1-0.3-0.1-0.5-0.1c-0.3,0-0.6,0.1-0.8,0.3c-0.2,0.2-0.3,0.6-0.3,1v2.7H274v-3
		c0-0.3-0.1-0.6-0.2-0.8c-0.1-0.2-0.3-0.3-0.6-0.3c-0.2,0-0.4,0.1-0.6,0.2s-0.3,0.3-0.4,0.5c-0.1,0.2-0.1,0.5-0.1,1v2.4H271.3z"/>
	<path id="XMLID_77_" d="M279.2,51.4h-0.6c0.9-1.4,1.3-2.8,1.3-4.2c0-0.5-0.1-1.1-0.2-1.6c-0.1-0.4-0.2-0.8-0.4-1.2
		c-0.1-0.3-0.3-0.7-0.7-1.3h0.6c0.5,0.7,0.9,1.4,1.2,2.2c0.2,0.6,0.3,1.3,0.3,2c0,0.8-0.1,1.5-0.4,2.3
		C279.9,50.2,279.6,50.8,279.2,51.4z"/>
</g>
<polygon id="XMLID_29_" points="225.1,22.6 227.2,22.6 226.1,16.3 "/>
<polygon id="XMLID_26_" class="st3" points="225.1,59.7 227.2,59.7 226.1,66.1 "/>
<line id="XMLID_23_" class="st1" x1="205.2" y1="76.4" x2="205.2" y2="97.1"/>
<line id="XMLID_6_" class="st1" x1="7.4" y1="76.4" x2="7.4" y2="97.1"/>
<line id="XMLID_22_" class="st1" x1="7.4" y1="93.9" x2="78.9" y2="93.9"/>
<line id="XMLID_21_" class="st1" x1="198.9" y1="93.9" x2="127.4" y2="93.9"/>
<polygon id="XMLID_20_" points="198.9,92.9 198.9,95 205.2,93.9 "/>
<polygon id="XMLID_19_" class="st3" points="194.9,92.9 194.9,95 201.2,93.9 "/>
<polygon id="XMLID_7_" class="st3" points="17.1,95.2 17.1,92.7 10.1,93.9 "/>
<g id="XMLID_45_">
	<path id="XMLID_46_" d="M93.3,90.1l0.8-0.1c0.1,0.4,0.2,0.8,0.5,1s0.5,0.3,0.8,0.3c0.4,0,0.7-0.1,0.9-0.4c0.3-0.3,0.4-0.6,0.4-0.9
		c0-0.4-0.1-0.7-0.4-0.9s-0.5-0.3-0.9-0.3c-0.1,0-0.3,0-0.5,0.1l0.1-0.7c0.1,0,0.1,0,0.1,0c0.3,0,0.6-0.1,0.9-0.3
		c0.3-0.2,0.4-0.4,0.4-0.8c0-0.3-0.1-0.5-0.3-0.7c-0.2-0.2-0.4-0.3-0.7-0.3c-0.3,0-0.6,0.1-0.8,0.3c-0.2,0.2-0.3,0.5-0.4,0.9
		l-0.8-0.1c0.1-0.5,0.3-0.9,0.6-1.2c0.3-0.3,0.8-0.4,1.3-0.4c0.3,0,0.7,0.1,1,0.2s0.5,0.4,0.7,0.6c0.2,0.3,0.2,0.5,0.2,0.8
		c0,0.3-0.1,0.5-0.2,0.7c-0.1,0.2-0.4,0.4-0.7,0.5c0.4,0.1,0.7,0.3,0.9,0.5s0.3,0.6,0.3,1c0,0.6-0.2,1-0.6,1.4
		c-0.4,0.4-0.9,0.6-1.5,0.6c-0.6,0-1-0.2-1.4-0.5S93.4,90.6,93.3,90.1z"/>
	<path id="XMLID_48_" d="M101.1,91.8h-0.8v-5c-0.2,0.2-0.4,0.4-0.7,0.5c-0.3,0.2-0.6,0.3-0.8,0.4V87c0.4-0.2,0.8-0.5,1.1-0.7
		c0.3-0.3,0.6-0.6,0.7-0.8h0.5V91.8z"/>
	<path id="XMLID_50_" d="M103.6,91.8v-0.9h0.9v0.9H103.6z"/>
	<path id="XMLID_52_" d="M109.6,87l-0.8,0.1c-0.1-0.3-0.2-0.5-0.3-0.7c-0.2-0.2-0.5-0.3-0.8-0.3c-0.2,0-0.5,0.1-0.7,0.2
		c-0.2,0.2-0.4,0.4-0.6,0.8c-0.1,0.3-0.2,0.8-0.2,1.5c0.2-0.3,0.4-0.5,0.7-0.6c0.3-0.1,0.6-0.2,0.9-0.2c0.5,0,1,0.2,1.3,0.6
		s0.5,0.9,0.5,1.5c0,0.4-0.1,0.8-0.3,1.1c-0.2,0.3-0.4,0.6-0.7,0.8c-0.3,0.2-0.6,0.3-1,0.3c-0.6,0-1.2-0.2-1.6-0.7
		c-0.4-0.5-0.6-1.3-0.6-2.4c0-1.2,0.2-2.1,0.7-2.7c0.4-0.5,0.9-0.7,1.6-0.7c0.5,0,0.9,0.1,1.2,0.4C109.4,86.1,109.6,86.5,109.6,87z
		 M106.5,89.7c0,0.3,0.1,0.5,0.2,0.8c0.1,0.2,0.3,0.4,0.5,0.6c0.2,0.1,0.4,0.2,0.6,0.2c0.3,0,0.6-0.1,0.8-0.4
		c0.2-0.3,0.4-0.6,0.4-1.1c0-0.4-0.1-0.8-0.3-1s-0.5-0.4-0.9-0.4c-0.4,0-0.6,0.1-0.9,0.4S106.5,89.3,106.5,89.7z"/>
	<path id="XMLID_55_" d="M110.8,87.7l-0.2-1.2v-1h0.9v1l-0.2,1.2H110.8z M112.2,87.7l-0.2-1.2v-1h0.9v1l-0.2,1.2H112.2z"/>
</g>
<g id="XMLID_8_">
	<path id="XMLID_9_" d="M86.3,99c-0.3-0.1-0.6-0.3-0.7-0.5s-0.2-0.5-0.2-0.8c0-0.5,0.2-0.8,0.5-1.2c0.3-0.3,0.8-0.5,1.3-0.5
		c0.6,0,1,0.2,1.3,0.5c0.3,0.3,0.5,0.7,0.5,1.2c0,0.3-0.1,0.5-0.2,0.8c-0.2,0.2-0.4,0.4-0.7,0.5c0.4,0.1,0.7,0.3,0.9,0.6
		s0.3,0.6,0.3,1c0,0.5-0.2,1-0.6,1.4c-0.4,0.4-0.9,0.6-1.5,0.6s-1.1-0.2-1.5-0.6s-0.6-0.8-0.6-1.4c0-0.4,0.1-0.8,0.3-1
		C85.6,99.2,85.9,99.1,86.3,99z M85.9,100.6c0,0.2,0.1,0.4,0.2,0.6c0.1,0.2,0.3,0.4,0.5,0.5c0.2,0.1,0.4,0.2,0.7,0.2
		c0.4,0,0.7-0.1,0.9-0.4c0.2-0.2,0.4-0.5,0.4-0.9c0-0.4-0.1-0.7-0.4-0.9c-0.2-0.2-0.6-0.4-0.9-0.4c-0.4,0-0.7,0.1-0.9,0.4
		C86,99.9,85.9,100.2,85.9,100.6z M86.2,97.6c0,0.3,0.1,0.5,0.3,0.7c0.2,0.2,0.4,0.3,0.8,0.3c0.3,0,0.5-0.1,0.7-0.3s0.3-0.4,0.3-0.7
		c0-0.3-0.1-0.5-0.3-0.7s-0.4-0.3-0.7-0.3c-0.3,0-0.5,0.1-0.7,0.3C86.3,97.1,86.2,97.4,86.2,97.6z"/>
	<path id="XMLID_13_" d="M90.1,99.3c0-0.7,0.1-1.4,0.2-1.8c0.2-0.5,0.4-0.8,0.7-1.1c0.3-0.2,0.7-0.4,1.1-0.4c0.3,0,0.6,0.1,0.9,0.2
		c0.3,0.1,0.5,0.3,0.6,0.6c0.2,0.3,0.3,0.6,0.4,0.9c0.1,0.4,0.1,0.9,0.1,1.5c0,0.7-0.1,1.3-0.2,1.8c-0.2,0.5-0.4,0.8-0.7,1.1
		s-0.7,0.4-1.2,0.4c-0.6,0-1.1-0.2-1.4-0.7C90.3,101.3,90.1,100.5,90.1,99.3z M90.9,99.3c0,1,0.1,1.7,0.4,2.1
		c0.2,0.3,0.5,0.5,0.9,0.5s0.7-0.2,0.9-0.5s0.4-1,0.4-2.1c0-1-0.1-1.7-0.4-2.1s-0.5-0.5-0.9-0.5c-0.4,0-0.6,0.2-0.9,0.5
		C91,97.5,90.9,98.2,90.9,99.3z"/>
	<path id="XMLID_18_" d="M99.1,101.6v0.7h-4.2c0-0.2,0-0.4,0.1-0.5c0.1-0.3,0.3-0.6,0.5-0.8c0.2-0.3,0.6-0.6,1-1
		c0.7-0.6,1.2-1,1.4-1.3c0.2-0.3,0.4-0.6,0.4-0.9c0-0.3-0.1-0.6-0.3-0.8c-0.2-0.2-0.5-0.3-0.9-0.3c-0.4,0-0.7,0.1-0.9,0.3
		s-0.3,0.5-0.3,0.9L95,97.9c0.1-0.6,0.3-1.1,0.6-1.4s0.8-0.5,1.4-0.5c0.6,0,1.1,0.2,1.4,0.5s0.5,0.8,0.5,1.3c0,0.3-0.1,0.5-0.2,0.7
		c-0.1,0.2-0.3,0.5-0.5,0.8c-0.2,0.3-0.6,0.6-1.2,1.1c-0.5,0.4-0.8,0.7-0.9,0.8s-0.2,0.3-0.3,0.4H99.1z"/>
	<path id="XMLID_25_" d="M100.3,102.4v-0.9h0.9v0.9H100.3z"/>
	<path id="XMLID_28_" d="M106.4,97.6l-0.8,0.1c-0.1-0.3-0.2-0.5-0.3-0.7c-0.2-0.2-0.5-0.3-0.8-0.3c-0.2,0-0.5,0.1-0.7,0.2
		c-0.2,0.2-0.4,0.4-0.6,0.8c-0.1,0.3-0.2,0.8-0.2,1.5c0.2-0.3,0.4-0.5,0.7-0.6c0.3-0.1,0.6-0.2,0.9-0.2c0.5,0,1,0.2,1.3,0.6
		s0.5,0.9,0.5,1.5c0,0.4-0.1,0.8-0.3,1.1c-0.2,0.3-0.4,0.6-0.7,0.8c-0.3,0.2-0.6,0.3-1,0.3c-0.6,0-1.2-0.2-1.6-0.7
		c-0.4-0.5-0.6-1.3-0.6-2.4c0-1.2,0.2-2.1,0.7-2.7c0.4-0.5,0.9-0.7,1.6-0.7c0.5,0,0.9,0.1,1.2,0.4C106.1,96.7,106.3,97.1,106.4,97.6
		z M103.2,100.3c0,0.3,0.1,0.5,0.2,0.8c0.1,0.2,0.3,0.4,0.5,0.6c0.2,0.1,0.4,0.2,0.6,0.2c0.3,0,0.6-0.1,0.8-0.4
		c0.2-0.3,0.4-0.6,0.4-1.1c0-0.4-0.1-0.8-0.3-1s-0.5-0.4-0.9-0.4c-0.4,0-0.6,0.1-0.9,0.4S103.2,99.9,103.2,100.3z"/>
	<path id="XMLID_41_" d="M107.5,102.4v-4.6h0.7v0.6c0.1-0.2,0.3-0.4,0.6-0.5c0.2-0.1,0.5-0.2,0.8-0.2c0.3,0,0.6,0.1,0.8,0.2
		c0.2,0.1,0.4,0.3,0.5,0.6c0.4-0.5,0.8-0.8,1.4-0.8c0.5,0,0.8,0.1,1,0.4c0.2,0.3,0.4,0.6,0.4,1.2v3.1h-0.8v-2.9c0-0.3,0-0.5-0.1-0.7
		c-0.1-0.1-0.1-0.2-0.3-0.3c-0.1-0.1-0.3-0.1-0.5-0.1c-0.3,0-0.6,0.1-0.8,0.3c-0.2,0.2-0.3,0.6-0.3,1v2.7h-0.8v-3
		c0-0.3-0.1-0.6-0.2-0.8c-0.1-0.2-0.3-0.3-0.6-0.3c-0.2,0-0.4,0.1-0.6,0.2s-0.3,0.3-0.4,0.5c-0.1,0.2-0.1,0.5-0.1,1v2.4H107.5z"/>
	<path id="XMLID_43_" d="M114.9,102.4v-4.6h0.7v0.6c0.1-0.2,0.3-0.4,0.6-0.5c0.2-0.1,0.5-0.2,0.8-0.2c0.3,0,0.6,0.1,0.8,0.2
		c0.2,0.1,0.4,0.3,0.5,0.6c0.4-0.5,0.8-0.8,1.4-0.8c0.5,0,0.8,0.1,1,0.4c0.2,0.3,0.4,0.6,0.4,1.2v3.1h-0.8v-2.9c0-0.3,0-0.5-0.1-0.7
		c-0.1-0.1-0.1-0.2-0.3-0.3c-0.1-0.1-0.3-0.1-0.5-0.1c-0.3,0-0.6,0.1-0.8,0.3c-0.2,0.2-0.3,0.6-0.3,1v2.7h-0.8v-3
		c0-0.3-0.1-0.6-0.2-0.8c-0.1-0.2-0.3-0.3-0.6-0.3c-0.2,0-0.4,0.1-0.6,0.2s-0.3,0.3-0.4,0.5c-0.1,0.2-0.1,0.5-0.1,1v2.4H114.9z"/>
</g>
<polyline id="XMLID_5_" class="st0" points="216.7,1 241.2,38.9 205.2,70.1 192.6,16.3 216.7,1 51,1 13.5,16.3 "/>
</svg>
