<?xml version="1.0" encoding="utf-8"?>
<!-- Generator: Adobe Illustrator 19.0.0, SVG Export Plug-In . SVG Version: 6.00 Build 0)  -->
<svg version="1.1" id="Layer_1" xmlns="http://www.w3.org/2000/svg" xmlns:xlink="http://www.w3.org/1999/xlink" x="0px" y="0px"
	 viewBox="0 0 137 82" style="enable-background:new 0 0 137 82;" xml:space="preserve">
<style type="text/css">
	.st0{fill:none;stroke:#000000;stroke-width:2;stroke-miterlimit:10;}
</style>
<g id="XMLID_1_">
</g>
<g id="XMLID_2_">
</g>
<polygon class="st0" points="35.7,35 93.7,35 125.9,17 93.7,1 35.7,1 7.1,16 "/>
<polyline class="st0" points="7.1,16 1.1,59 27.7,81 104.7,81 135.9,57 125.9,16 "/>
<line class="st0" x1="35.7" y1="35" x2="28.7" y2="80"/>
<line class="st0" x1="93.7" y1="35" x2="103.7" y2="80"/>
<g>
	<path d="M67,70.4c-2.2,0-3.9-1.8-3.9-3.9c0-2.2,1.8-3.9,3.9-3.9s3.9,1.8,3.9,3.9C71,68.6,69.2,70.4,67,70.4z M67,64.5
		c-1.1,0-1.9,0.9-1.9,1.9s0.9,1.9,1.9,1.9s1.9-0.9,1.9-1.9S68.1,64.5,67,64.5z"/>
</g>
</svg>
