<?xml version="1.0" encoding="utf-8"?>
<!-- Generator: Adobe Illustrator 19.0.0, SVG Export Plug-In . SVG Version: 6.00 Build 0)  -->
<svg version="1.1" id="Capa_1" xmlns="http://www.w3.org/2000/svg" xmlns:xlink="http://www.w3.org/1999/xlink" x="0px" y="0px"
	 viewBox="-896 -196 953.7 953.8" style="enable-background:new -896 -196 953.7 953.8;" xml:space="preserve">
<style type="text/css">
	.st0{fill:#FFFFFF;}
</style>
<g>
	<path class="st0" d="M-148.6-132.6h-190.3l28.5-38.1c5.3-7,3.8-16.9-3.2-22.2c-7-5.2-17-3.8-22.2,3.2l-42.8,57.1h-77.4l-27.3-54.7
		c-3.9-7.8-13.4-11-21.3-7.1c-7.8,3.9-11,13.4-7.1,21.3l20.3,40.5h-196.4c-26.2,0-47.6,21.3-47.6,47.6v792.9
		c0,26.2,21.3,47.6,47.6,47.6h539.2c26.2,0,47.6-21.3,47.6-47.6V-85C-101-111.2-122.3-132.6-148.6-132.6z M-132.7,707.9
		c0,8.8-7.1,15.9-15.9,15.9h-539.2c-8.7,0-15.9-7.1-15.9-15.9V-85c0-8.8,7.1-15.9,15.9-15.9h212.2l15.9,31.7
		c-13.3,11.6-21.9,28.5-21.9,47.6c0,35,28.5,63.4,63.4,63.4c35,0,63.4-28.5,63.4-63.4S-383.2-85-418.2-85c-4.6,0-9,0.5-13.3,1.4
		l-8.7-17.3h291.5c8.8,0,15.9,7.1,15.9,15.9V707.9z M-444.6-39l12.3,24.5c2.8,5.6,8.4,8.8,14.2,8.8c2.4,0,4.8-0.5,7.1-1.7
		c7.8-3.9,11-13.4,7.1-21.3l-12.2-24.4c16.6,1,29.8,14.7,29.8,31.5c0,17.5-14.2,31.7-31.7,31.7c-17.5,0-31.7-14.2-31.7-31.7
		C-449.9-28-447.9-34-444.6-39z"/>
	<path class="st0" d="M-418.2,168.7c-113.7,0-206.2,92.5-206.2,206.2c0,38.6,10.9,74.7,29.4,105.6l-1.2,0.4l13.2,17.6
		c0.3,0.5,0.7,0.8,1.1,1.3c4.1,5.3,8.4,10.5,13,15.4c0.8,0.9,1.6,1.8,2.5,2.7c4.8,5,9.9,9.8,15.2,14.3c0.6,0.5,1.1,1,1.7,1.5
		c5.4,4.5,11.1,8.7,17,12.6c3,2,6.2,3.8,9.3,5.6c3,1.8,6,3.6,9.1,5.3c3.5,1.8,7.1,3.5,10.7,5.1c3,1.4,6.1,2.7,9.2,3.9
		c3.6,1.4,7.2,2.8,10.9,4c3.5,1.2,7,2.2,10.5,3.1c3.4,0.9,6.8,1.9,10.3,2.6c4.4,1,8.8,1.6,13.3,2.3c2.8,0.4,5.6,1,8.5,1.3
		c7.4,0.8,14.9,1.3,22.6,1.3c7.6,0,15.2-0.5,22.6-1.3c2.9-0.3,5.6-0.9,8.5-1.3c4.5-0.7,8.9-1.4,13.3-2.3c3.5-0.8,6.9-1.7,10.3-2.6
		c3.6-1,7.1-2,10.5-3.1c3.7-1.2,7.3-2.6,10.9-4c3.1-1.2,6.1-2.6,9.2-3.9c3.6-1.6,7.2-3.3,10.7-5.1c3.1-1.6,6.1-3.5,9.1-5.3
		c3.1-1.9,6.2-3.6,9.3-5.6c5.9-3.9,11.6-8.1,17-12.6c0.6-0.5,1.1-1,1.7-1.5c5.3-4.5,10.4-9.3,15.2-14.3c0.8-0.9,1.6-1.8,2.5-2.7
		c4.6-4.9,8.9-10,13-15.4c0.3-0.5,0.8-0.8,1.1-1.3l13.2-17.6l-1.2-0.4c18.6-30.9,29.4-67,29.4-105.6
		C-212,261.2-304.5,168.7-418.2,168.7z M-466.1,448c-10.1-11.8-15.5-26-15.5-41v-63.9c0-35,28.5-63.4,63.4-63.4
		c35,0,63.4,28.5,63.4,63.4V407c0,15-5.3,29.1-15.5,41l-15.3,17.9l92.1,30.7c-3.5,3.6-7.2,6.9-10.9,10.2c-0.8,0.7-1.5,1.4-2.2,2
		c-2.5,2.1-5.1,4-7.7,5.9c-2.1,1.6-4.2,3.3-6.4,4.8c-0.3,0.2-0.5,0.3-0.8,0.5c-27.7,18.5-60.9,29.4-96.7,29.4s-69-10.8-96.7-29.4
		c-0.3-0.2-0.5-0.3-0.8-0.5c-2.2-1.5-4.2-3.2-6.4-4.8c-2.6-2-5.2-3.8-7.7-5.9c-0.8-0.7-1.5-1.4-2.2-2c-3.7-3.3-7.4-6.6-10.9-10.2
		l92.1-30.7L-466.1,448z M-272.3,470.2l-61.2-20.4c6.8-13.3,10.5-28,10.5-42.8v-63.9c0-52.5-42.7-95.2-95.2-95.2
		s-95.2,42.7-95.2,95.2V407c0,14.9,3.6,29.5,10.5,42.8l-61.2,20.4c-18-27.4-28.5-60.2-28.5-95.3c0-96.2,78.3-174.4,174.4-174.4
		s174.4,78.3,174.4,174.4C-243.7,410.1-254.3,442.8-272.3,470.2z"/>
	<circle class="st0" cx="-177.1" cy="105.3" r="15.9"/>
	<circle class="st0" cx="-478.4" cy="105.3" r="15.9"/>
	<circle class="st0" cx="-599" cy="105.3" r="15.9"/>
	<circle class="st0" cx="-659.2" cy="105.3" r="15.9"/>
	<circle class="st0" cx="-538.7" cy="105.3" r="15.9"/>
	<circle class="st0" cx="-418.2" cy="105.3" r="15.9"/>
	<circle class="st0" cx="-237.4" cy="105.3" r="15.9"/>
	<circle class="st0" cx="-297.6" cy="105.3" r="15.9"/>
	<circle class="st0" cx="-357.9" cy="105.3" r="15.9"/>
	<circle class="st0" cx="-659.2" cy="660.3" r="15.9"/>
	<circle class="st0" cx="-538.7" cy="660.3" r="15.9"/>
	<circle class="st0" cx="-237.4" cy="660.3" r="15.9"/>
	<circle class="st0" cx="-297.6" cy="660.3" r="15.9"/>
	<circle class="st0" cx="-177.1" cy="660.3" r="15.9"/>
	<circle class="st0" cx="-418.2" cy="660.3" r="15.9"/>
	<circle class="st0" cx="-478.4" cy="660.3" r="15.9"/>
	<circle class="st0" cx="-357.9" cy="660.3" r="15.9"/>
	<circle class="st0" cx="-599" cy="660.3" r="15.9"/>
</g>
</svg>
