<?xml version="1.0" encoding="utf-8"?>
<!-- Generator: Adobe Illustrator 19.0.0, SVG Export Plug-In . SVG Version: 6.00 Build 0)  -->
<svg version="1.1" id="Layer_1" xmlns="http://www.w3.org/2000/svg" xmlns:xlink="http://www.w3.org/1999/xlink" x="0px" y="0px"
	 viewBox="-444 -196 953.7 953.8" style="enable-background:new -444 -196 953.7 953.8;" xml:space="preserve">
<style type="text/css">
	.st0{fill:#FFFFFF;}
</style>
<g>
	<g>
		<path class="st0" d="M406.7,56c-55.7,0-101.1,45.3-101.1,101.1c0,20.3,6.1,39.2,16.4,55.1L212.9,321.4
			c-15.9-10.4-34.8-16.4-55.1-16.4c-21.1,0-40.6,6.5-56.8,17.6L-9.4,212.2C1,196.3,7,177.4,7,157.1C7,101.3-38.3,56-94,56
			s-101.1,45.3-101.1,101.1c0,20.3,6,39.2,16.4,55.1l-109.2,109.2c-15.9-10.4-34.8-16.4-55.1-16.4c-55.7,0-101.1,45.3-101.1,101.1
			s45.3,101.1,101.1,101.1s101.1-45.3,101.1-101.1c0-20.3-6.1-39.2-16.4-55.1l109.2-109.2c15.9,10.4,34.8,16.4,55.1,16.4
			c20.3,0,39.2-6.1,55.1-16.4L72,352.6c-9.7,15.5-15.3,33.8-15.3,53.4c0,55.7,45.3,101.1,101.1,101.1S258.8,461.7,258.8,406
			c0-20.3-6-39.2-16.4-55.1l109.2-109.2c15.9,10.4,34.8,16.4,55.1,16.4c55.7,0,101.1-45.3,101.1-101.1
			C507.8,101.3,462.4,56,406.7,56z M-342.9,465.3c-32.7,0-59.3-26.6-59.3-59.3c0-32.7,26.6-59.3,59.3-59.3
			c32.7,0,59.3,26.6,59.3,59.3C-283.7,438.7-310.3,465.3-342.9,465.3z M-94,216.3c-32.7,0-59.3-26.6-59.3-59.3
			c0-32.7,26.6-59.3,59.3-59.3s59.3,26.6,59.3,59.3S-61.3,216.3-94,216.3z M157.8,465.3c-32.7,0-59.3-26.6-59.3-59.3
			s26.6-59.3,59.3-59.3c32.7,0,59.3,26.6,59.3,59.3C217.1,438.7,190.5,465.3,157.8,465.3z M406.7,216.3c-32.7,0-59.3-26.6-59.3-59.3
			c0-32.7,26.6-59.3,59.3-59.3c32.7,0,59.3,26.6,59.3,59.3S439.4,216.3,406.7,216.3z"/>
	</g>
</g>
<g>
	<g>
		<path class="st0" d="M-46.2,297.7c-4.4-4.4-11.5-4.4-15.9,0L-85,320.6c-4.4,4.4-4.4,11.5,0,15.9c2.2,2.2,5.1,3.3,7.9,3.3
			s5.8-1.1,7.9-3.3l22.9-22.9C-41.8,309.2-41.8,302.1-46.2,297.7z"/>
	</g>
</g>
<g>
	<g>
		<path class="st0" d="M151,225.9c-4.4-4.4-11.5-4.4-15.9,0l-22.9,22.9c-4.4,4.4-4.4,11.5,0,15.9c2.2,2.2,5.1,3.3,7.9,3.3
			c2.9,0,5.8-1.1,7.9-3.3l22.9-22.9C155.3,237.4,155.3,230.3,151,225.9z"/>
	</g>
</g>
</svg>
