<?xml version="1.0" encoding="utf-8"?>
<!-- Generator: Adobe Illustrator 19.0.0, SVG Export Plug-In . SVG Version: 6.00 Build 0)  -->
<svg version="1.1" id="Layer_1" xmlns="http://www.w3.org/2000/svg" xmlns:xlink="http://www.w3.org/1999/xlink" x="0px" y="0px"
	 viewBox="0 0 26.7 26.7" style="enable-background:new 0 0 26.7 26.7;" xml:space="preserve">
<g>
	<path d="M16.7,15.6c1.4-1.6,2.2-3.8,2.2-6.1c0-5.2-4.2-9.5-9.5-9.5C4.2,0,0,4.2,0,9.5c0,5.2,4.2,9.5,9.5,9.5c2.3,0,4.4-0.8,6.1-2.2
		l9.8,9.8c0.2,0.2,0.4,0.2,0.6,0.2c0.2,0,0.4-0.1,0.6-0.2c0.3-0.3,0.3-0.8,0-1.1L16.7,15.6z M9.5,17.3c-4.3,0-7.9-3.5-7.9-7.9
		s3.5-7.9,7.9-7.9c4.3,0,7.9,3.5,7.9,7.9S13.8,17.3,9.5,17.3z"/>
	<path d="M9.5,17.3"/>
</g>
</svg>
