<?xml version="1.0" encoding="utf-8"?>
<!-- Generator: Adobe Illustrator 19.2.1, SVG Export Plug-In . SVG Version: 6.00 Build 0)  -->
<svg version="1.1" id="Layer_1" xmlns="http://www.w3.org/2000/svg" xmlns:xlink="http://www.w3.org/1999/xlink" x="0px" y="0px"
	 viewBox="0 0 864 288" style="enable-background:new 0 0 864 288;" xml:space="preserve">
<style type="text/css">
	.st0{display:none;fill:#020202;stroke:#000000;stroke-miterlimit:10;}
	.st1{fill:#FFFFFF;}
	.st2{fill-rule:evenodd;clip-rule:evenodd;fill:#FFFFFF;}
</style>
<rect class="st0" width="864" height="288"/>
<g>
	<path class="st1" d="M97.8,169.3c-23.6,0-59-16.6-59-56.7c0-40.1,42.9-51,59-51c13.3,0,71.6,0,92.3,0l12.8-16.5h-98.8
		c-12.2,0-23.5,1.6-33.9,4.9c-10.4,3.2-19.3,7.9-26.9,13.9C35.9,69.8,30,77,25.7,85.4c-4.3,8.3-6.4,17.6-6.4,27.6
		c0,10.1,2.1,19.4,6.4,28c4.3,8.6,10.2,16.1,17.7,22.3c7.5,6.3,16.5,11.2,26.9,14.8c10.4,3.6,21.7,5.4,33.9,5.4h70.8l11.4-14.5
		C171.4,169.1,118.1,169.3,97.8,169.3z"/>
	<path class="st1" d="M87.7,145.6c-5.1-1.6-9.4-3.8-13.2-6.7c-3.7-2.9-6.6-6.4-8.6-10.4c-2-4.1-3.1-8.6-3.1-13.6
		c0-5,1.1-9.5,3.2-13.7c2.1-4.1,5-7.7,8.6-10.7c3.6-3,8-5.3,13.1-6.9c5.1-1.7,10.5-2.5,16.4-2.5h70.8l11.3-14.5
		c-22.1,0-72.8,0-85.4,0c-16.2,0-56,9.9-56,45.7c0,37.5,36.1,51.4,54,51.4c16.4,0,81.2,0,91.7,0l12.4-15.7h-98.8
		C98.3,147.9,92.8,147.1,87.7,145.6z"/>
</g>
<g>
	<path class="st1" d="M186.4,138h70.8l11.3-14.5c-22.1,0-72.8,0-85.4,0c-11.8,0-36,5.3-48.4,21.9h25c3-2,6.4-3.6,10.2-4.8
		C175,138.8,180.5,138,186.4,138z"/>
	<path class="st1" d="M127.5,145.3c12.6-20.5,40.2-26.8,52.5-26.8c13.3,0,71.6,0,92.3,0l12.8-16.5h-98.8c-12.2,0-23.5,1.6-33.9,4.9
		c-10.4,3.2-19.3,7.9-26.9,13.9c-7.5,6-13.4,13.2-17.7,21.5c-0.5,1-1,2-1.5,3.1H127.5z"/>
	<path class="st1" d="M180.1,226.2c-19.7,0-47.7-11.6-56.4-38.8h-19.8c1,3.6,2.4,7.1,4,10.5c4.3,8.6,10.2,16.1,17.7,22.3
		c7.5,6.3,16.5,11.2,26.9,14.8c10.4,3.6,21.7,5.4,33.9,5.4h70.8l11.4-14.5C253.6,225.9,200.3,226.2,180.1,226.2z"/>
	<path class="st1" d="M170,202.4c-5.1-1.6-9.4-3.8-13.2-6.7c-3-2.4-5.5-5.1-7.4-8.3h-19c9.3,23.8,36.1,33.1,50.7,33.1
		c16.4,0,81.2,0,91.7,0l12.4-15.7h-98.8C180.5,204.8,175,204,170,202.4z"/>
</g>
<path class="st2" d="M246.8,168.8h-19.6c-1,1-2.1,2-3.3,2.7c-5.1,3-1,17.2-1,19.6s17.1,5.8,17.1,5.8l13.1-17.6L246.8,168.8z"/>
<path class="st2" d="M240.9,158.8l8.7,3.4l7.6,11.5l12.6-16.9l-7.5-8.4c0,0-14.8,6.8-23,10.3C240.2,158.8,240.9,158.8,240.9,158.8z"
	/>
<g>
	<path class="st2" d="M184,184.2l-5.4,12.6H240l-5.2-13.9c0,0-11.6-4.7-15.4-4.3C215.7,178.9,184,184.2,184,184.2z"/>
</g>
<g>
	<polygon class="st2" points="250.6,163.8 262.2,148.4 210.9,148.4 199.3,163.8 	"/>
	<polygon class="st2" points="195.6,168.8 183.9,184.2 235.2,184.2 246.9,168.8 	"/>
</g>
<g>
	<path class="st1" d="M354.4,114.3c-2,0-3.8-0.3-5.5-0.8c-1.7-0.5-3.1-1.3-4.4-2.2c-1.2-1-2.2-2.1-2.9-3.5c-0.7-1.3-1-2.8-1-4.5
		s0.3-3.2,1-4.5c0.7-1.4,1.7-2.5,2.9-3.5c1.2-1,2.7-1.7,4.3-2.3c1.7-0.5,3.5-0.8,5.5-0.8h23.5l9.3-11.9h-32.8
		c-4.1,0-7.8,0.5-11.3,1.6c-3.4,1.1-6.4,2.6-8.9,4.6c-2.5,2-4.5,4.4-5.9,7.1c-1.4,2.8-2.1,5.8-2.1,9.1s0.7,6.4,2.1,9.3
		c1.4,2.9,3.4,5.3,5.9,7.4c2.5,2.1,5.5,3.7,8.9,4.9c3.4,1.2,7.2,1.8,11.3,1.8h23.5l9.3-11.8H354.4z"/>
	<path class="st1" d="M464,126.1l-29.2-41.5c-1-1.5-2.3-2.7-3.7-3.7c-1.5-1-3.3-1.5-5.5-1.5c-2.3,0-4.2,0.5-5.7,1.6
		c-1.5,1.1-2.7,2.2-3.7,3.6l-30,41.5h17.1l22-30.4l8.4,12.1c0.8,1.1,1.6,2.3,2.5,3.5c0.9,1.3,1.6,2.3,2.3,3.1
		c-1.1-0.1-2.4-0.1-4-0.1c-1.5,0-3,0-4.4,0h-11.7l-8.7,11.8H464z"/>
	<path class="st1" d="M524.3,101.3c0.8-0.5,1.4-1.2,2-2c0.6-0.8,1.1-1.7,1.4-2.8c0.4-1.1,0.6-2.3,0.6-3.6c0-2.1-0.4-3.9-1.3-5.5
		c-0.9-1.6-2.1-2.9-3.7-4c-1.6-1.1-3.5-1.9-5.8-2.4c-2.3-0.5-4.8-0.8-7.6-0.8h-31l-9.8,11.9h41.4c1,0,2,0.2,2.8,0.6
		c0.8,0.4,1.3,1.2,1.3,2.3c0,1.2-0.4,2-1.2,2.4c-0.8,0.4-1.8,0.7-2.8,0.7h-41.4v27.9h41.1c3.7,0,6.7-0.3,9.2-1
		c2.4-0.7,4.4-1.6,5.8-2.8c1.4-1.2,2.5-2.6,3.1-4.2c0.6-1.6,0.9-3.4,0.9-5.3c0-2.7-0.7-5-2.1-6.7c-1.4-1.7-3.2-2.9-5.2-3.5
		C522.8,102.3,523.6,101.9,524.3,101.3z M510.4,108c1.6,0,2.7,0.3,3.4,0.8c0.7,0.5,1,1.3,1,2.3c0,1.1-0.3,1.9-1,2.4
		c-0.7,0.5-1.8,0.8-3.4,0.8h-26.6V108H510.4z"/>
	<path class="st1" d="M551.1,114.3V80.3h-14.5v45.8h41.3l9.4-11.8H551.1z"/>
	<path class="st1" d="M606.7,114.3v-6.2h28.7l8.3-10.4h-37.1v-5.5h30.3l9.4-11.9h-54.2v45.8h45l9.3-11.8H606.7z"/>
</g>
<g>
	<path class="st1" d="M343.5,161.3c1.2-1,2.7-1.7,4.3-2.3c1.7-0.5,3.5-0.8,5.5-0.8h23.5l9.3-11.9h-32.8c-4.1,0-7.8,0.5-11.3,1.6
		c-3.4,1.1-6.4,2.6-8.9,4.6c-2.5,2-4.5,4.4-5.9,7.1c-1.4,2.8-2.1,5.8-2.1,9.1c0,3.3,0.7,6.4,2.1,9.3c1.4,2.9,3.4,5.3,5.9,7.4
		c2.5,2.1,5.5,3.7,8.9,4.9c3.4,1.2,7.2,1.8,11.3,1.8h23.5l9.3-11.8h-32.8c-2,0-3.8-0.3-5.5-0.8c-1.7-0.5-3.1-1.3-4.4-2.2
		c-1.2-1-2.2-2.1-2.9-3.5c-0.7-1.3-1-2.8-1-4.5s0.3-3.2,1-4.5C341.3,163.4,342.3,162.2,343.5,161.3z"/>
	<path class="st1" d="M449.4,151.1c-5.7-3.8-14.3-5.7-25.6-5.7c-11.4,0-20,1.9-25.7,5.7c-5.7,3.8-8.5,9.8-8.5,18
		c0,8.2,2.8,14.2,8.5,18c5.7,3.8,14.2,5.7,25.7,5.7c11.4,0,20-1.9,25.7-5.7c5.7-3.8,8.5-9.8,8.5-18
		C458,160.9,455.1,154.9,449.4,151.1z M442.5,175.1c-0.7,1.5-1.8,2.7-3.4,3.6c-1.6,0.9-3.6,1.5-6.1,1.7c-2.5,0.3-5.6,0.4-9.2,0.4
		c-3.6,0-6.7-0.1-9.2-0.4c-2.5-0.3-4.6-0.9-6.1-1.7c-1.6-0.9-2.7-2.1-3.4-3.6c-0.7-1.5-1-3.5-1-6c0-2.5,0.4-4.5,1-6
		c0.7-1.5,1.8-2.7,3.4-3.6c1.6-0.8,3.6-1.4,6.1-1.7c2.5-0.3,5.6-0.4,9.2-0.4c3.6,0,6.7,0.1,9.2,0.4c2.5,0.3,4.6,0.9,6.1,1.7
		c1.6,0.8,2.7,2,3.4,3.6c0.7,1.5,1,3.5,1,6C443.6,171.6,443.2,173.6,442.5,175.1z"/>
	<path class="st1" d="M507.5,173.1l-28.7-25.2c-1.2-1.1-2.2-1.7-3.1-2c-0.9-0.3-1.8-0.4-2.7-0.4c-1,0-2,0.2-3,0.5
		c-1,0.3-1.8,0.8-2.5,1.5c-0.7,0.7-1.3,1.6-1.7,2.7c-0.4,1.1-0.7,2.4-0.7,3.9v38h13.1v-26.9l28.7,25.2c1.1,1.1,2.1,1.7,3,2
		c0.9,0.3,1.8,0.4,2.8,0.4c1,0,2-0.2,3-0.5c1-0.3,1.8-0.8,2.6-1.5c0.7-0.7,1.3-1.6,1.7-2.7c0.4-1.1,0.7-2.4,0.7-3.9v-38h-13.2V173.1
		z"/>
	<path class="st1" d="M546.1,161.3c1.2-1,2.7-1.7,4.3-2.3c1.7-0.5,3.5-0.8,5.5-0.8h23.5l9.3-11.9h-32.8c-4.1,0-7.8,0.5-11.3,1.6
		c-3.4,1.1-6.4,2.6-8.9,4.6c-2.5,2-4.5,4.4-5.9,7.1c-1.4,2.8-2.1,5.8-2.1,9.1c0,3.3,0.7,6.4,2.1,9.3c1.4,2.9,3.4,5.3,5.9,7.4
		c2.5,2.1,5.5,3.7,8.9,4.9c3.4,1.2,7.2,1.8,11.3,1.8h23.5l9.3-11.8h-32.8c-2,0-3.8-0.3-5.5-0.8c-1.7-0.5-3.1-1.3-4.4-2.2
		c-1.2-1-2.2-2.1-2.9-3.5c-0.7-1.3-1-2.8-1-4.5s0.3-3.2,1-4.5C544,163.4,544.9,162.2,546.1,161.3z"/>
	<path class="st1" d="M647.6,179.4c-1-0.9-1.9-1.7-2.7-2.3c1.9-0.4,3.6-1,5.1-1.9c1.5-0.9,2.8-2,3.8-3.3c1-1.3,1.9-2.7,2.4-4.3
		c0.6-1.6,0.8-3.3,0.8-5.1c0-3.3-0.8-6-2.3-8.1c-1.5-2.1-3.4-3.8-5.8-5c-2.3-1.2-4.9-2.1-7.8-2.6c-2.8-0.5-5.6-0.7-8.3-0.7H603
		l-9.4,11.9h40.7c2.5,0,4.5,0.4,5.9,1.3c1.4,0.9,2.1,2.2,2.1,4c0,1.6-0.8,2.9-2.3,3.8c-1.5,0.9-3.4,1.4-5.7,1.4h-40.7v23.4h14.5
		v-12.1h22.2l10.4,12.1h19.4l-8.6-8.9C649.9,181.6,648.6,180.3,647.6,179.4z"/>
	<polygon class="st1" points="801.6,180.3 801.6,174 830.3,174 838.6,163.6 801.6,163.6 801.6,158.1 831.9,158.1 841.2,146.2 
		787.1,146.2 787.1,146.2 729.5,146.2 729.5,146.3 665.3,146.2 665.3,192.1 710.3,192.1 719.6,180.3 679.8,180.3 679.8,174 
		708.5,174 716.9,163.6 679.8,163.6 679.8,158.1 730.2,158.2 730.3,158.1 742.1,158.1 742.1,192.1 756.6,192.1 756.6,158.1 
		787.1,158.2 787.1,192.1 832.1,192.1 841.4,180.3 	"/>
</g>
<path class="st2" d="M845.9,124.4c0,0-2.2,1.6-4.2,3.9c-1.5,1.7-2.9,4.1-2.9,4.1s0-3.1-0.8-5.4c-1.1-3.3-3.2-6.1-3.2-6.1
	s0.9,4,0.8,7.6c-0.1,2.7-1.1,5.1-1.1,5.1s-1.9-3-2.4-6.3c-0.6-3.6,0.3-7.6,0.3-7.6s-3.2,4.8-3.7,8c-0.2,1.2-0.2,2.5-0.1,3.6
	c0.4,1.9,0.6,3.2,0.6,3.2s-0.4-1.4-0.6-3.2c-0.4-1.9-1-4.3-1.8-6.3c-1.5-3.7-3.7-6.1-3.7-6.1s1.6,5.2,1.3,9.3
	c-0.2,3.3-2.4,5.6-2.4,5.6s-1-2.8-1.1-5.4c-0.1-1.9,0.8-3.9,0.8-3.9s-2,2.2-3.2,4.6c-0.7,1.5-1.1,3.1-1.2,4
	c-0.1,0.4-0.1,0.6-0.1,0.6s0-0.2,0.1-0.6c0.2-1.4,0.5-4.9-0.4-7.6c-1-3.1-4-5.1-4-5.1s2,4.5,1.6,7.8c-0.5,3.8-3.4,6.3-3.4,6.3
	s-0.9-1.8-1.1-3.9c-0.1-2.3,0.5-4.9,0.5-4.9s-1.2,1-2.2,4.1c-0.3,0.8-0.5,1.8-0.7,2.7c-0.1,1.7-0.3,3-0.3,3c-0.1-0.1,0-1.4,0.3-3
	c0.1-1.8-0.1-4-0.8-5.8c-2.2-5.1-6.1-5.1-6.1-5.1s4.4,2.8,3.7,6.6c-0.7,3.8-2.7,6.6-2.7,6.6s-1.5-2.3-1.6-4.9
	c-0.1-2.2,1.3-4.6,1.3-4.6s-2,2-2.9,4.6c-0.6,1.5-0.6,3.6-0.5,4.5c0,0.2,0,0.4,0,0.4c0,0,0-0.2,0-0.4c-0.1-0.9-0.4-3-1.4-4.3
	c-0.6-0.8-1.1-1.5-1.6-2.1c0.9-2.1,1.7-3.6,1.7-3.6s-1.2,0.9-2.7,2.3c-0.3-0.4-0.5-0.6-0.5-0.6s0.1,0.3,0.3,0.8
	c-0.5,0.4-0.9,0.9-1.4,1.4c-0.3,0.3-0.6,0.7-0.9,1.1c-0.1-0.1-0.2-0.1-0.2-0.1s0,0.1,0.1,0.3c-1.1,1.4-1.9,2.9-1.9,2.9
	s0-3.1-0.8-5.4c-1.1-3.3-3.2-6.1-3.2-6.1s0.9,4,0.8,7.6c-0.1,2.7-1.1,5.1-1.1,5.1s-1.9-3-2.4-6.3c-0.6-3.6,0.3-7.6,0.3-7.6
	s-3.2,4.8-3.7,8c-0.2,1.2-0.2,2.5-0.1,3.6c0.4,1.9,0.6,3.2,0.6,3.2s-0.4-1.4-0.6-3.2c-0.4-1.9-1-4.3-1.8-6.3
	c-1.5-3.7-3.7-6.1-3.7-6.1s1.6,5.2,1.3,9.3c-0.2,3.3-2.4,5.6-2.4,5.6s-1-2.8-1.1-5.4c-0.1-1.9,0.8-3.9,0.8-3.9s-2,2.2-3.2,4.6
	c-0.7,1.5-1.1,3.1-1.2,4c-0.1,0.4-0.1,0.6-0.1,0.6s0-0.2,0.1-0.6c0.2-1.4,0.5-4.9-0.4-7.6c-1-3.1-4-5.1-4-5.1s2,4.5,1.6,7.8
	c-0.5,3.8-3.5,6.3-3.5,6.3s-0.9-1.8-1.1-3.9c-0.1-2.3,0.5-4.9,0.5-4.9s-1.2,1-2.2,4.1c-0.3,0.8-0.5,1.8-0.7,2.7
	c-0.1,1.7-0.3,3-0.3,3c-0.1-0.1,0-1.4,0.3-3c0.1-1.8-0.1-4-0.8-5.8c-2.2-5.1-6.1-5.1-6.1-5.1s4.4,2.8,3.7,6.6
	c-0.7,3.8-2.7,6.6-2.7,6.6s-1.5-2.3-1.6-4.9c-0.1-2.2,1.3-4.6,1.3-4.6s-2,2-2.9,4.6c-0.6,1.5-0.6,3.6-0.5,4.5c0,0.2,0,0.4,0,0.4
	c0,0,0-0.2,0-0.4c0-0.5-0.2-1.3-0.4-2.2c0.2-1.6,0.5-3,0.5-3s-0.6,0.5-1.2,1.3c-0.1-0.1-0.2-0.3-0.3-0.4c-0.5-0.7-1-1.3-1.5-1.9
	c0.4-1.2,0.8-2.1,0.8-2.1s-0.5,0.6-1.2,1.6c-0.7-0.9-1.2-1.6-1.2-1.6s0.4,0.9,0.8,2.1c-0.4,0.6-0.9,1.2-1.5,1.9
	c-0.1,0.1-0.2,0.3-0.3,0.4c-0.6-0.8-1.2-1.3-1.2-1.3s0.3,1.4,0.5,3c-0.3,0.9-0.4,1.7-0.4,2.2c0,0.3,0,0.4,0,0.4c0,0,0-0.2,0-0.4
	c0-0.9,0-2.9-0.5-4.5c-1-2.7-2.9-4.6-2.9-4.6s1.4,2.5,1.3,4.6c-0.1,2.6-1.6,4.9-1.6,4.9s-2-2.8-2.7-6.6c-0.7-3.8,3.7-6.6,3.7-6.6
	s-3.9,0-6.1,5.1c-0.8,1.8-0.9,4-0.8,5.8c0.3,1.6,0.4,3,0.3,3c0,0-0.2-1.3-0.3-3c-0.2-0.9-0.4-1.8-0.7-2.7c-1-3.1-2.2-4.1-2.2-4.1
	s0.7,2.6,0.5,4.9c-0.1,2.1-1.1,3.9-1.1,3.9s-3-2.6-3.4-6.3c-0.4-3.3,1.6-7.8,1.6-7.8s-3,2-4,5.1c-0.9,2.8-0.6,6.2-0.4,7.6
	c0.1,0.4,0.1,0.6,0.1,0.6s0-0.2-0.1-0.6c-0.2-0.9-0.5-2.5-1.2-4c-1.2-2.5-3.2-4.6-3.2-4.6s0.9,2,0.8,3.9c-0.1,2.6-1.1,5.4-1.1,5.4
	s-2.2-2.3-2.4-5.6c-0.3-4.1,1.3-9.3,1.3-9.3s-2.3,2.4-3.7,6.1c-0.8,2-1.4,4.4-1.8,6.3c-0.2,1.8-0.6,3.2-0.6,3.2s0.2-1.4,0.6-3.2
	c0.1-1.1,0.1-2.4-0.1-3.6c-0.5-3.3-3.7-8-3.7-8s0.8,3.9,0.3,7.6c-0.5,3.3-2.4,6.3-2.4,6.3s-1-2.5-1.1-5.1c-0.1-3.5,0.8-7.6,0.8-7.6
	s-2,2.8-3.2,6.1c-0.8,2.2-0.8,5.4-0.8,5.4s-0.8-1.5-1.9-2.9c0-0.2,0.1-0.3,0.1-0.3s-0.1,0.1-0.2,0.1c-0.3-0.4-0.6-0.8-0.9-1.1
	c-0.5-0.5-0.9-1-1.4-1.4c0.2-0.5,0.3-0.8,0.3-0.8s-0.2,0.2-0.5,0.6c-1.5-1.4-2.7-2.3-2.7-2.3s0.8,1.6,1.7,3.6
	c-0.5,0.6-1,1.3-1.6,2.1c-1,1.3-1.3,3.4-1.4,4.3c0,0.3,0,0.4,0,0.4c0,0,0-0.2,0-0.4c0-0.9,0-2.9-0.5-4.5c-1-2.7-2.9-4.6-2.9-4.6
	s1.4,2.5,1.3,4.6c-0.1,2.6-1.6,4.9-1.6,4.9s-2-2.8-2.7-6.6c-0.7-3.8,3.7-6.6,3.7-6.6s-3.9,0-6.1,5.1c-0.8,1.8-0.9,4-0.8,5.8
	c0.3,1.6,0.4,3,0.3,3c0,0-0.2-1.3-0.3-3c-0.2-0.9-0.4-1.8-0.7-2.7c-1-3.1-2.2-4.1-2.2-4.1s0.7,2.6,0.5,4.9c-0.1,2.1-1.1,3.9-1.1,3.9
	s-3-2.6-3.5-6.3c-0.4-3.3,1.6-7.8,1.6-7.8s-3,2-4,5.1c-0.9,2.8-0.6,6.2-0.4,7.6c0.1,0.4,0.1,0.6,0.1,0.6s0-0.2-0.1-0.6
	c-0.2-0.9-0.5-2.5-1.2-4c-1.2-2.5-3.2-4.6-3.2-4.6s0.9,2,0.8,3.9c-0.1,2.6-1.1,5.4-1.1,5.4s-2.2-2.3-2.4-5.6
	c-0.3-4.1,1.3-9.3,1.3-9.3s-2.3,2.4-3.7,6.1c-0.8,2-1.4,4.4-1.8,6.3c-0.2,1.8-0.6,3.2-0.6,3.2s0.2-1.4,0.6-3.2
	c0.1-1.1,0.1-2.4-0.1-3.6c-0.5-3.3-3.7-8-3.7-8s0.8,3.9,0.3,7.6c-0.5,3.3-2.4,6.3-2.4,6.3s-1-2.5-1.1-5.1c-0.1-3.5,0.8-7.6,0.8-7.6
	s-2,2.8-3.2,6.1c-0.8,2.2-0.8,5.4-0.8,5.4s-1.4-2.5-2.9-4.1c-2-2.3-4.2-3.9-4.2-3.9s1.8,3.4,2.9,6.8c0.7,2.2,1.1,4.3,1.2,5.5H329.1
	v3h512.7v-3h0c0.2-1.2,0.5-3.3,1.2-5.5C844,127.9,845.9,124.4,845.9,124.4z M794.6,129.1c0.1,0.6,0.3,1.2,0.3,1.9
	c0.1,1.8-0.8,3.9-0.8,3.9s0.1-1.6-0.5-2.9c0.1-0.3,0.2-0.5,0.2-0.8C794.1,130.5,794.3,129.8,794.6,129.1z M745.8,131
	c0,0.5,0,1.1-0.1,1.6c-0.1-0.5-0.2-1.1-0.1-1.6c0-0.4,0.1-0.7,0.1-1C745.7,130.3,745.8,130.7,745.8,131z M697.5,131.2
	c0.1,0.3,0.2,0.5,0.2,0.8c-0.6,1.3-0.5,2.9-0.5,2.9s-0.9-2.1-0.8-3.9c0-0.7,0.2-1.3,0.3-1.9C697,129.8,697.3,130.5,697.5,131.2z"/>
</svg>
