<?xml version="1.0" encoding="utf-8"?>
<!-- Generator: Adobe Illustrator 19.2.1, SVG Export Plug-In . SVG Version: 6.00 Build 0)  -->
<svg version="1.1" id="Layer_1" xmlns="http://www.w3.org/2000/svg" xmlns:xlink="http://www.w3.org/1999/xlink" x="0px" y="0px"
	 viewBox="0 0 238.5 126.3" style="enable-background:new 0 0 238.5 126.3;" xml:space="preserve">
<g>
</g>
<g>
	<g>
		<g>
			<path d="M140.8,62.6H0.5l17.9-42.5h105.2L141.2,62C141.4,62.3,141.1,62.6,140.8,62.6z M2,61.6h138l-17.1-40.5H19.1L2,61.6z"/>
		</g>
	</g>
	<g>
		<g>
			<path d="M140.2,62l-17.5-41.6L153.3,0L184,28.7l-42.7,33.7C140.9,62.6,140.4,62.5,140.2,62z M123.9,20.8L141,61.3l41.5-32.7
				L153.2,1.3L123.9,20.8z"/>
		</g>
	</g>
	<g>
		<g>
			<path d="M123.4,21.1H18.9c-0.6,0-0.8-0.8-0.3-1l37.4-20h97.1c0.5,0,0.7,0.6,0.3,0.9L123.4,21.1z M20.8,20.1h102.3l28.5-19H56.4
				L20.8,20.1z"/>
		</g>
	</g>
</g>
<g>
	<g>
		<path d="M71,47.2c-1.9,0-3.4-1.5-3.4-3.4c0-1.9,1.5-3.4,3.4-3.4s3.4,1.5,3.4,3.4C74.4,45.7,72.9,47.2,71,47.2z M71,41.4
			c-1.3,0-2.4,1.1-2.4,2.4s1.1,2.4,2.4,2.4s2.4-1.1,2.4-2.4S72.3,41.4,71,41.4z"/>
	</g>
</g>
<g>
	<g>
		<g>
			<path d="M140.8,62.6H0.5l17.9-42.5h105.2L141.2,62C141.4,62.3,141.1,62.6,140.8,62.6z M2,61.6h138l-17.1-40.5H19.1L2,61.6z"/>
		</g>
	</g>
	<g>
		<g>
			<path d="M140.2,62l-17.5-41.6L153.3,0L184,28.7l-42.7,33.7C140.9,62.6,140.4,62.5,140.2,62z M123.9,20.8L141,61.3l41.5-32.7
				L153.2,1.3L123.9,20.8z"/>
		</g>
	</g>
	<g>
		<g>
			<path d="M123.4,21.1H18.9c-0.6,0-0.8-0.8-0.3-1l37.4-20h97.1c0.5,0,0.7,0.6,0.3,0.9L123.4,21.1z M20.8,20.1h102.3l28.5-19H56.4
				L20.8,20.1z"/>
		</g>
	</g>
</g>
<g>
	<g>
		<path d="M71,47.2c-1.9,0-3.4-1.5-3.4-3.4c0-1.9,1.5-3.4,3.4-3.4s3.4,1.5,3.4,3.4C74.4,45.7,72.9,47.2,71,47.2z M71,41.4
			c-1.3,0-2.4,1.1-2.4,2.4s1.1,2.4,2.4,2.4s2.4-1.1,2.4-2.4S72.3,41.4,71,41.4z"/>
	</g>
</g>
<g id="XMLID_70_">
	<path id="XMLID_71_" d="M65.3,75.7h-1v-4.1c0-0.5,0-0.9,0-1.2c-0.1,0.1-0.2,0.1-0.2,0.2c-0.1,0.1-0.4,0.4-1,0.8l-0.5-0.7l1.9-1.5
		h0.9V75.7z"/>
	<path id="XMLID_73_" d="M69.6,71.7c0.6,0,1.2,0.2,1.5,0.5s0.6,0.8,0.6,1.4c0,0.7-0.2,1.2-0.6,1.6c-0.4,0.4-1,0.6-1.8,0.6
		c-0.7,0-1.3-0.1-1.7-0.3v-0.9c0.2,0.1,0.5,0.2,0.8,0.3s0.6,0.1,0.9,0.1c0.5,0,0.8-0.1,1.1-0.3c0.2-0.2,0.4-0.5,0.4-0.9
		c0-0.8-0.5-1.2-1.5-1.2c-0.1,0-0.3,0-0.5,0c-0.2,0-0.4,0.1-0.5,0.1l-0.5-0.3l0.2-3.1h3.3v0.9h-2.4l-0.1,1.6c0.1,0,0.2,0,0.4-0.1
		S69.4,71.7,69.6,71.7z"/>
	<path id="XMLID_75_" d="M72.7,75.2c0-0.2,0.1-0.4,0.2-0.5c0.1-0.1,0.3-0.2,0.5-0.2c0.2,0,0.4,0.1,0.5,0.2C74,74.8,74,75,74,75.2
		c0,0.2-0.1,0.4-0.2,0.5c-0.1,0.1-0.3,0.2-0.5,0.2s-0.4-0.1-0.5-0.2S72.7,75.4,72.7,75.2z"/>
	<path id="XMLID_77_" d="M77.2,71.7c0.6,0,1.2,0.2,1.5,0.5s0.6,0.8,0.6,1.4c0,0.7-0.2,1.2-0.6,1.6c-0.4,0.4-1,0.6-1.8,0.6
		c-0.7,0-1.3-0.1-1.7-0.3v-0.9c0.2,0.1,0.5,0.2,0.8,0.3s0.6,0.1,0.9,0.1c0.5,0,0.8-0.1,1.1-0.3c0.2-0.2,0.4-0.5,0.4-0.9
		c0-0.8-0.5-1.2-1.5-1.2c-0.1,0-0.3,0-0.5,0c-0.2,0-0.4,0.1-0.5,0.1l-0.5-0.3l0.2-3.1h3.3v0.9h-2.4l-0.1,1.6c0.1,0,0.2,0,0.4-0.1
		S77,71.7,77.2,71.7z"/>
	<path id="XMLID_79_" d="M81.4,69.4c-0.2,0.6-0.4,1.3-0.8,2.1h-0.7c0.2-0.8,0.3-1.6,0.4-2.2L81.4,69.4L81.4,69.4z M83.2,69.4
		c-0.2,0.6-0.4,1.3-0.8,2.1h-0.8c0.2-0.8,0.4-1.5,0.5-2.2L83.2,69.4L83.2,69.4z"/>
	<path id="XMLID_82_" d="M50,84.1c0-0.8,0.1-1.5,0.3-2.2c0.2-0.7,0.6-1.3,1-1.8h0.9c-0.4,0.6-0.7,1.2-0.9,1.9
		c-0.2,0.7-0.3,1.4-0.3,2.1c0,0.7,0.1,1.4,0.3,2.1s0.5,1.3,0.9,1.8h-0.9c-0.4-0.5-0.8-1.1-1-1.7C50.1,85.6,50,84.8,50,84.1z"/>
	<path id="XMLID_84_" d="M57,81.6c0,0.4-0.1,0.7-0.4,1c-0.2,0.3-0.6,0.5-1,0.5v0c0.5,0.1,0.9,0.2,1.2,0.5c0.3,0.3,0.4,0.6,0.4,1
		c0,0.6-0.2,1.1-0.7,1.4c-0.4,0.3-1.1,0.5-1.9,0.5c-0.7,0-1.3-0.1-1.8-0.3v-0.9c0.3,0.1,0.6,0.2,0.9,0.3s0.6,0.1,0.9,0.1
		c0.5,0,0.9-0.1,1.1-0.3c0.2-0.2,0.4-0.5,0.4-0.9c0-0.3-0.1-0.6-0.4-0.8s-0.7-0.2-1.3-0.2h-0.6v-0.8h0.6c1,0,1.5-0.4,1.5-1.1
		c0-0.3-0.1-0.5-0.3-0.6c-0.2-0.1-0.4-0.2-0.8-0.2c-0.2,0-0.5,0-0.7,0.1c-0.2,0.1-0.5,0.2-0.8,0.4l-0.5-0.7c0.6-0.4,1.3-0.7,2.1-0.7
		c0.6,0,1.2,0.1,1.5,0.4S57,81.1,57,81.6z"/>
	<path id="XMLID_86_" d="M62.3,82.9c0,1.3-0.3,2.2-0.8,2.8c-0.5,0.6-1.3,0.9-2.3,0.9c-0.4,0-0.7,0-0.8-0.1v-0.9
		c0.3,0.1,0.5,0.1,0.8,0.1c0.7,0,1.2-0.2,1.6-0.6s0.5-1,0.6-1.8h-0.1c-0.2,0.3-0.4,0.5-0.6,0.6c-0.2,0.1-0.5,0.2-0.9,0.2
		c-0.6,0-1-0.2-1.3-0.5S58,82.8,58,82.2c0-0.7,0.2-1.2,0.6-1.6c0.4-0.4,0.9-0.6,1.5-0.6c0.5,0,0.9,0.1,1.2,0.3s0.6,0.5,0.8,1
		C62.3,81.8,62.3,82.3,62.3,82.9z M60.1,80.9c-0.4,0-0.6,0.1-0.8,0.3c-0.2,0.2-0.3,0.6-0.3,1c0,0.4,0.1,0.7,0.3,0.9
		c0.2,0.2,0.4,0.3,0.8,0.3c0.3,0,0.6-0.1,0.9-0.3s0.4-0.5,0.4-0.7c0-0.3-0.1-0.5-0.2-0.7c-0.1-0.2-0.2-0.4-0.4-0.5
		C60.6,81,60.3,80.9,60.1,80.9z"/>
	<path id="XMLID_89_" d="M67.3,81.6c0,0.4-0.1,0.7-0.4,1c-0.2,0.3-0.6,0.5-1,0.5v0c0.5,0.1,0.9,0.2,1.2,0.5c0.3,0.3,0.4,0.6,0.4,1
		c0,0.6-0.2,1.1-0.7,1.4c-0.4,0.3-1.1,0.5-1.9,0.5c-0.7,0-1.3-0.1-1.8-0.3v-0.9c0.3,0.1,0.6,0.2,0.9,0.3s0.6,0.1,0.9,0.1
		c0.5,0,0.9-0.1,1.1-0.3c0.2-0.2,0.4-0.5,0.4-0.9c0-0.3-0.1-0.6-0.4-0.8s-0.7-0.2-1.3-0.2h-0.6v-0.8h0.6c1,0,1.5-0.4,1.5-1.1
		c0-0.3-0.1-0.5-0.3-0.6c-0.2-0.1-0.4-0.2-0.8-0.2c-0.2,0-0.5,0-0.7,0.1c-0.2,0.1-0.5,0.2-0.8,0.4l-0.5-0.7c0.6-0.4,1.3-0.7,2.1-0.7
		c0.6,0,1.2,0.1,1.5,0.4S67.3,81.1,67.3,81.6z"/>
	<path id="XMLID_91_" d="M68.5,86c0-0.2,0.1-0.4,0.2-0.5c0.1-0.1,0.3-0.2,0.5-0.2c0.2,0,0.4,0.1,0.5,0.2c0.1,0.1,0.2,0.3,0.2,0.5
		c0,0.2-0.1,0.4-0.2,0.5c-0.1,0.1-0.3,0.2-0.5,0.2s-0.4-0.1-0.5-0.2S68.5,86.2,68.5,86z"/>
	<path id="XMLID_93_" d="M71.5,86.5L74,81h-3.3v-0.9h4.4v0.7l-2.5,5.7H71.5z"/>
	<path id="XMLID_95_" d="M80.3,86.5h-1v-3c0-0.4-0.1-0.6-0.2-0.8c-0.1-0.2-0.4-0.3-0.7-0.3c-0.4,0-0.7,0.1-0.9,0.4
		c-0.2,0.3-0.3,0.7-0.3,1.3v2.4h-1v-4.9H77l0.1,0.6h0.1c0.1-0.2,0.3-0.4,0.6-0.5c0.3-0.1,0.5-0.2,0.8-0.2c0.7,0,1.2,0.3,1.5,0.8h0.1
		c0.1-0.2,0.3-0.4,0.6-0.6s0.6-0.2,0.9-0.2c0.6,0,1,0.1,1.3,0.4c0.3,0.3,0.4,0.7,0.4,1.3v3.2h-1v-3c0-0.4-0.1-0.6-0.2-0.8
		c-0.1-0.2-0.4-0.3-0.7-0.3c-0.4,0-0.7,0.1-0.9,0.4c-0.2,0.3-0.3,0.6-0.3,1.2V86.5z"/>
	<path id="XMLID_97_" d="M88.9,86.5h-1v-3c0-0.4-0.1-0.6-0.2-0.8c-0.1-0.2-0.4-0.3-0.7-0.3c-0.4,0-0.7,0.1-0.9,0.4
		c-0.2,0.3-0.3,0.7-0.3,1.3v2.4h-1v-4.9h0.8l0.1,0.6h0.1c0.1-0.2,0.3-0.4,0.6-0.5c0.3-0.1,0.5-0.2,0.8-0.2c0.7,0,1.2,0.3,1.5,0.8
		h0.1c0.1-0.2,0.3-0.4,0.6-0.6s0.6-0.2,0.9-0.2c0.6,0,1,0.1,1.3,0.4c0.3,0.3,0.4,0.7,0.4,1.3v3.2h-1v-3c0-0.4-0.1-0.6-0.2-0.8
		c-0.1-0.2-0.4-0.3-0.7-0.3c-0.4,0-0.7,0.1-0.9,0.4c-0.2,0.3-0.3,0.6-0.3,1.2V86.5z"/>
	<path id="XMLID_99_" d="M95.2,84.1c0,0.8-0.1,1.5-0.3,2.2c-0.2,0.7-0.6,1.2-1,1.7H93c0.4-0.5,0.7-1.2,0.9-1.8
		c0.2-0.7,0.3-1.4,0.3-2.1c0-0.7-0.1-1.4-0.3-2.1c-0.2-0.7-0.5-1.3-0.9-1.9h0.9c0.4,0.5,0.8,1.1,1,1.8
		C95.1,82.6,95.2,83.3,95.2,84.1z"/>
</g>
<g>
	<line id="XMLID_68_" x1="0.5" y1="71.6" x2="0.5" y2="93.6"/>
	<rect id="XMLID_69_" y="71.6" width="1" height="22"/>
</g>
<g>
	<g>
		<path d="M44.6,83.6c-15.3,0-29.3,0-44.1,0"/>
	</g>
	<g>
		<path d="M141.3,83.6c-13.2,0-26.4,0-39.5,0"/>
	</g>
	<g>
		<path d="M45.4,82.6H0.5v2h44.9C45.4,83.9,45.4,83.2,45.4,82.6z"/>
	</g>
	<g>
		<path d="M100.3,82.6c0,0.7,0,1.3,0,2h40.9v-2H100.3z"/>
	</g>
</g>
<g>
	<line id="XMLID_2_" x1="141.5" y1="71.6" x2="141.5" y2="93.6"/>
	<rect id="XMLID_67_" x="141" y="71.6" width="1" height="22"/>
</g>
<g id="XMLID_37_">
	<path id="XMLID_38_" d="M212.7,36.2h-0.9v1.4h-1v-1.4h-2.9v-0.8l2.9-4.2h1v4.2h0.9V36.2z M210.9,35.3v-1.6c0-0.6,0-1,0-1.4h0
		c-0.1,0.2-0.2,0.4-0.4,0.7l-1.6,2.3H210.9z"/>
	<path id="XMLID_41_" d="M213.5,37c0-0.2,0.1-0.4,0.2-0.5c0.1-0.1,0.3-0.2,0.5-0.2c0.2,0,0.4,0.1,0.5,0.2c0.1,0.1,0.2,0.3,0.2,0.5
		c0,0.2-0.1,0.4-0.2,0.5c-0.1,0.1-0.3,0.2-0.5,0.2s-0.4-0.1-0.5-0.2S213.5,37.2,213.5,37z"/>
	<path id="XMLID_43_" d="M217.9,33.6c0.6,0,1.2,0.2,1.5,0.5s0.6,0.8,0.6,1.4c0,0.7-0.2,1.2-0.6,1.6c-0.4,0.4-1,0.6-1.8,0.6
		c-0.7,0-1.3-0.1-1.7-0.3v-0.9c0.2,0.1,0.5,0.2,0.8,0.3s0.6,0.1,0.9,0.1c0.5,0,0.8-0.1,1.1-0.3c0.2-0.2,0.4-0.5,0.4-0.9
		c0-0.8-0.5-1.2-1.5-1.2c-0.1,0-0.3,0-0.5,0c-0.2,0-0.4,0.1-0.5,0.1l-0.5-0.3l0.2-3.1h3.3v0.9h-2.4l-0.1,1.6c0.1,0,0.2,0,0.4-0.1
		S217.7,33.6,217.9,33.6z"/>
	<path id="XMLID_45_" d="M222.1,31.2c-0.2,0.6-0.4,1.3-0.8,2.1h-0.7c0.2-0.8,0.3-1.6,0.4-2.2L222.1,31.2L222.1,31.2z M224,31.2
		c-0.2,0.6-0.4,1.3-0.8,2.1h-0.8c0.2-0.8,0.4-1.5,0.5-2.2L224,31.2L224,31.2z"/>
	<path id="XMLID_48_" d="M193.3,45.9c0-0.8,0.1-1.5,0.3-2.2c0.2-0.7,0.6-1.3,1-1.8h0.9c-0.4,0.6-0.7,1.2-0.9,1.9
		c-0.2,0.7-0.3,1.4-0.3,2.1c0,0.7,0.1,1.4,0.3,2.1s0.5,1.3,0.9,1.8h-0.9c-0.4-0.5-0.8-1.1-1-1.7C193.4,47.4,193.3,46.7,193.3,45.9z"
		/>
	<path id="XMLID_50_" d="M199.2,48.4h-1v-4.1c0-0.5,0-0.9,0-1.2c-0.1,0.1-0.2,0.1-0.2,0.2c-0.1,0.1-0.4,0.4-1,0.8l-0.5-0.7l1.9-1.5
		h0.9V48.4z"/>
	<path id="XMLID_52_" d="M204.4,48.4h-1v-4.1c0-0.5,0-0.9,0-1.2c-0.1,0.1-0.2,0.1-0.2,0.2c-0.1,0.1-0.4,0.4-1,0.8l-0.5-0.7l1.9-1.5
		h0.9V48.4z"/>
	<path id="XMLID_54_" d="M211,47h-0.9v1.4h-1V47h-2.9v-0.8l2.9-4.2h1v4.2h0.9V47z M209.2,46.1v-1.6c0-0.6,0-1,0-1.4h0
		c-0.1,0.2-0.2,0.4-0.4,0.7l-1.6,2.3H209.2z"/>
	<path id="XMLID_57_" d="M211.8,47.8c0-0.2,0.1-0.4,0.2-0.5c0.1-0.1,0.3-0.2,0.5-0.2c0.2,0,0.4,0.1,0.5,0.2c0.1,0.1,0.2,0.3,0.2,0.5
		c0,0.2-0.1,0.4-0.2,0.5c-0.1,0.1-0.3,0.2-0.5,0.2s-0.4-0.1-0.5-0.2S211.8,48,211.8,47.8z"/>
	<path id="XMLID_59_" d="M218.2,43.4c0,0.4-0.1,0.7-0.4,1c-0.2,0.3-0.6,0.5-1,0.5v0c0.5,0.1,0.9,0.2,1.2,0.5c0.3,0.3,0.4,0.6,0.4,1
		c0,0.6-0.2,1.1-0.7,1.4c-0.4,0.3-1.1,0.5-1.9,0.5c-0.7,0-1.3-0.1-1.8-0.3v-0.9c0.3,0.1,0.6,0.2,0.9,0.3s0.6,0.1,0.9,0.1
		c0.5,0,0.9-0.1,1.1-0.3c0.2-0.2,0.4-0.5,0.4-0.9c0-0.3-0.1-0.6-0.4-0.8s-0.7-0.2-1.3-0.2H215v-0.8h0.6c1,0,1.5-0.4,1.5-1.1
		c0-0.3-0.1-0.5-0.3-0.6c-0.2-0.1-0.4-0.2-0.8-0.2c-0.2,0-0.5,0-0.7,0.1c-0.2,0.1-0.5,0.2-0.8,0.4l-0.5-0.7c0.6-0.4,1.3-0.7,2.1-0.7
		c0.6,0,1.2,0.1,1.5,0.4S218.2,42.9,218.2,43.4z"/>
	<path id="XMLID_61_" d="M223.6,48.4h-1v-3c0-0.4-0.1-0.6-0.2-0.8c-0.1-0.2-0.4-0.3-0.7-0.3c-0.4,0-0.7,0.1-0.9,0.4
		c-0.2,0.3-0.3,0.7-0.3,1.3v2.4h-1v-4.9h0.8l0.1,0.6h0.1c0.1-0.2,0.3-0.4,0.6-0.5c0.3-0.1,0.5-0.2,0.8-0.2c0.7,0,1.2,0.3,1.5,0.8
		h0.1c0.1-0.2,0.3-0.4,0.6-0.6s0.6-0.2,0.9-0.2c0.6,0,1,0.1,1.3,0.4c0.3,0.3,0.4,0.7,0.4,1.3v3.2h-1v-3c0-0.4-0.1-0.6-0.2-0.8
		c-0.1-0.2-0.4-0.3-0.7-0.3c-0.4,0-0.7,0.1-0.9,0.4c-0.2,0.3-0.3,0.6-0.3,1.2V48.4z"/>
	<path id="XMLID_63_" d="M232.3,48.4h-1v-3c0-0.4-0.1-0.6-0.2-0.8c-0.1-0.2-0.4-0.3-0.7-0.3c-0.4,0-0.7,0.1-0.9,0.4
		c-0.2,0.3-0.3,0.7-0.3,1.3v2.4h-1v-4.9h0.8l0.1,0.6h0.1c0.1-0.2,0.3-0.4,0.6-0.5c0.3-0.1,0.5-0.2,0.8-0.2c0.7,0,1.2,0.3,1.5,0.8
		h0.1c0.1-0.2,0.3-0.4,0.6-0.6s0.6-0.2,0.9-0.2c0.6,0,1,0.1,1.3,0.4c0.3,0.3,0.4,0.7,0.4,1.3v3.2h-1v-3c0-0.4-0.1-0.6-0.2-0.8
		c-0.1-0.2-0.4-0.3-0.7-0.3c-0.4,0-0.7,0.1-0.9,0.4c-0.2,0.3-0.3,0.6-0.3,1.2V48.4z"/>
	<path id="XMLID_65_" d="M238.5,45.9c0,0.8-0.1,1.5-0.3,2.2c-0.2,0.7-0.6,1.2-1,1.7h-0.9c0.4-0.5,0.7-1.2,0.9-1.8
		c0.2-0.7,0.3-1.4,0.3-2.1c0-0.7-0.1-1.4-0.3-2.1c-0.2-0.7-0.5-1.3-0.9-1.9h0.9c0.4,0.5,0.8,1.1,1,1.8
		C238.4,44.4,238.5,45.1,238.5,45.9z"/>
</g>
<g>
	<line id="XMLID_35_" x1="143.8" y1="62.5" x2="215.2" y2="62.5"/>
	<rect id="XMLID_36_" x="143.8" y="62" width="71.4" height="1"/>
</g>
<g>
	<g>
		<path d="M214.2,49.9c0,4.5,0,8.6,0,12.9"/>
	</g>
	<g>
		<path d="M214.2,21.5c0,3.9,0,7.7,0,11.6"/>
	</g>
	<g>
		<path d="M214,54.6v8.2h1.3v-8.2C214.9,54.6,214.4,54.6,214,54.6z"/>
	</g>
	<g>
		<path d="M214.1,29.1c0.4,0,0.8,0,1.3,0v-7.6h-1.3V29.1z"/>
	</g>
</g>
<g>
	<line id="XMLID_1_" x1="125.6" y1="21.5" x2="215.2" y2="21.5"/>
	<rect id="XMLID_34_" x="125.6" y="21" width="89.6" height="1"/>
</g>
<g id="XMLID_4_">
	<path id="XMLID_5_" d="M60.2,102.5c-0.8,0-1.4,0.3-1.9,0.9s-0.7,1.4-0.7,2.4c0,1.1,0.2,1.8,0.7,2.4s1.1,0.8,1.9,0.8
		c0.4,0,0.7,0,1.1-0.1s0.7-0.2,1.1-0.3v1.2c-0.7,0.3-1.4,0.4-2.3,0.4c-1.3,0-2.2-0.4-2.9-1.1s-1-1.8-1-3.3c0-0.9,0.2-1.7,0.5-2.3
		s0.8-1.2,1.4-1.5s1.3-0.5,2.2-0.5c0.9,0,1.7,0.2,2.4,0.6l-0.5,1.2c-0.3-0.1-0.6-0.3-0.9-0.4S60.6,102.5,60.2,102.5z"/>
	<path id="XMLID_7_" d="M67.8,102.5c-0.8,0-1.4,0.3-1.9,0.9s-0.7,1.4-0.7,2.4c0,1.1,0.2,1.8,0.7,2.4s1.1,0.8,1.9,0.8
		c0.4,0,0.7,0,1.1-0.1s0.7-0.2,1.1-0.3v1.2c-0.7,0.3-1.4,0.4-2.3,0.4c-1.3,0-2.2-0.4-2.9-1.1s-1-1.8-1-3.3c0-0.9,0.2-1.7,0.5-2.3
		s0.8-1.2,1.4-1.5s1.3-0.5,2.2-0.5c0.9,0,1.7,0.2,2.4,0.6l-0.5,1.2c-0.3-0.1-0.6-0.3-0.9-0.4S68.2,102.5,67.8,102.5z"/>
	<path id="XMLID_9_" d="M76.7,103.4c0,0.5-0.2,1-0.5,1.4s-0.8,0.6-1.3,0.7v0c0.7,0.1,1.2,0.3,1.5,0.6s0.5,0.8,0.5,1.4
		c0,0.8-0.3,1.5-0.9,1.9s-1.4,0.7-2.5,0.7c-0.9,0-1.8-0.2-2.4-0.5v-1.2c0.4,0.2,0.7,0.3,1.2,0.4s0.8,0.1,1.2,0.1
		c0.7,0,1.2-0.1,1.5-0.4s0.5-0.6,0.5-1.1c0-0.5-0.2-0.8-0.5-1s-0.9-0.3-1.7-0.3h-0.7v-1.1h0.8c1.4,0,2.1-0.5,2.1-1.4
		c0-0.4-0.1-0.7-0.4-0.8s-0.6-0.3-1.1-0.3c-0.3,0-0.6,0-0.9,0.1s-0.7,0.3-1.1,0.5l-0.7-1c0.8-0.6,1.7-0.9,2.7-0.9
		c0.9,0,1.5,0.2,2,0.6S76.7,102.8,76.7,103.4z"/>
	<path id="XMLID_11_" d="M81,104.7c0.9,0,1.5,0.2,2.1,0.7s0.8,1.1,0.8,1.9c0,0.9-0.3,1.6-0.9,2.1s-1.4,0.8-2.4,0.8
		c-1,0-1.7-0.2-2.3-0.5v-1.2c0.3,0.2,0.7,0.3,1.1,0.4s0.8,0.1,1.1,0.1c0.6,0,1.1-0.1,1.4-0.4s0.5-0.7,0.5-1.2c0-1-0.7-1.5-2-1.5
		c-0.2,0-0.4,0-0.7,0.1S79.2,106,79,106l-0.6-0.4l0.3-4.2h4.5v1.2h-3.2l-0.2,2.1c0.1,0,0.3-0.1,0.5-0.1S80.7,104.7,81,104.7z"/>
	<path id="XMLID_13_" d="M44,121.1c0-1,0.2-2,0.5-2.9s0.7-1.7,1.3-2.4h1.2c-0.5,0.7-1,1.6-1.2,2.5s-0.4,1.8-0.4,2.8s0.1,1.9,0.4,2.8
		s0.7,1.7,1.2,2.4h-1.2c-0.6-0.7-1-1.4-1.3-2.3S44,122.2,44,121.1z"/>
	<path id="XMLID_15_" d="M53.3,117.8c0,0.5-0.2,1-0.5,1.4s-0.8,0.6-1.3,0.7v0c0.7,0.1,1.2,0.3,1.5,0.6s0.5,0.8,0.5,1.4
		c0,0.8-0.3,1.5-0.9,1.9s-1.4,0.7-2.5,0.7c-0.9,0-1.8-0.2-2.4-0.5v-1.2c0.4,0.2,0.7,0.3,1.2,0.4s0.8,0.1,1.2,0.1
		c0.7,0,1.2-0.1,1.5-0.4s0.5-0.6,0.5-1.1c0-0.5-0.2-0.8-0.5-1s-0.9-0.3-1.7-0.3h-0.7v-1.1h0.8c1.4,0,2.1-0.5,2.1-1.4
		c0-0.4-0.1-0.7-0.4-0.8s-0.6-0.3-1.1-0.3c-0.3,0-0.6,0-0.9,0.1s-0.7,0.3-1.1,0.5l-0.7-1c0.8-0.6,1.7-0.9,2.7-0.9
		c0.9,0,1.5,0.2,2,0.6S53.3,117.2,53.3,117.8z"/>
	<path id="XMLID_17_" d="M57.6,119.1c0.9,0,1.5,0.2,2.1,0.7s0.8,1.1,0.8,1.9c0,0.9-0.3,1.6-0.9,2.1s-1.4,0.8-2.4,0.8
		c-1,0-1.7-0.2-2.3-0.5v-1.2c0.3,0.2,0.7,0.3,1.1,0.4s0.8,0.1,1.1,0.1c0.6,0,1.1-0.1,1.4-0.4s0.5-0.7,0.5-1.2c0-1-0.7-1.5-2-1.5
		c-0.2,0-0.4,0-0.7,0.1s-0.5,0.1-0.7,0.1L55,120l0.3-4.2h4.5v1.2h-3.2l-0.2,2.1c0.1,0,0.3-0.1,0.5-0.1S57.3,119.1,57.6,119.1z"/>
	<path id="XMLID_19_" d="M63.4,124.4H62v-9.1h1.4V124.4z"/>
	<path id="XMLID_21_" d="M68.6,117.8c0.8,0,1.4,0.3,1.9,0.9s0.7,1.4,0.7,2.5c0,1.1-0.2,1.9-0.7,2.5s-1.1,0.9-1.9,0.9
		c-0.8,0-1.5-0.3-1.9-0.9h-0.1l-0.3,0.8h-1v-9.1h1.4v2.2c0,0.2,0,0.4,0,0.7s0,0.5,0,0.6h0.1C67.1,118.1,67.8,117.8,68.6,117.8z
		 M68.3,118.9c-0.6,0-1,0.2-1.2,0.5s-0.4,0.9-0.4,1.6v0.1c0,0.8,0.1,1.4,0.4,1.7s0.7,0.5,1.2,0.5c0.5,0,0.9-0.2,1.1-0.6
		s0.4-0.9,0.4-1.7C69.8,119.7,69.3,118.9,68.3,118.9z"/>
	<path id="XMLID_24_" d="M77.2,122.6c0,0.6-0.2,1.1-0.7,1.5s-1.1,0.5-2,0.5c-0.9,0-1.6-0.1-2.1-0.4V123c0.8,0.4,1.5,0.5,2.1,0.5
		c0.8,0,1.3-0.3,1.3-0.8c0-0.2,0-0.3-0.1-0.4s-0.2-0.2-0.5-0.3s-0.5-0.3-0.9-0.4c-0.7-0.3-1.3-0.6-1.5-0.9s-0.4-0.7-0.4-1.1
		c0-0.6,0.2-1,0.7-1.3s1.1-0.5,1.8-0.5c0.8,0,1.5,0.2,2.2,0.5l-0.4,1c-0.7-0.3-1.3-0.4-1.8-0.4c-0.7,0-1.1,0.2-1.1,0.6
		c0,0.2,0.1,0.4,0.3,0.5s0.6,0.3,1.2,0.6c0.5,0.2,0.9,0.4,1.2,0.6s0.4,0.4,0.5,0.6S77.2,122.3,77.2,122.6z"/>
	<path id="XMLID_26_" d="M82.2,115.9l-3.2,8.6h-1.3l3.2-8.6H82.2z"/>
	<path id="XMLID_28_" d="M87.7,122.6c0,0.6-0.2,1.1-0.7,1.5s-1.1,0.5-2,0.5c-0.9,0-1.6-0.1-2.1-0.4V123c0.8,0.4,1.5,0.5,2.1,0.5
		c0.8,0,1.3-0.3,1.3-0.8c0-0.2,0-0.3-0.1-0.4s-0.2-0.2-0.5-0.3s-0.5-0.3-0.9-0.4c-0.7-0.3-1.3-0.6-1.5-0.9s-0.4-0.7-0.4-1.1
		c0-0.6,0.2-1,0.7-1.3s1.1-0.5,1.8-0.5c0.8,0,1.5,0.2,2.2,0.5l-0.4,1c-0.7-0.3-1.3-0.4-1.8-0.4c-0.7,0-1.1,0.2-1.1,0.6
		c0,0.2,0.1,0.4,0.3,0.5s0.6,0.3,1.2,0.6c0.5,0.2,0.9,0.4,1.2,0.6s0.4,0.4,0.5,0.6S87.7,122.3,87.7,122.6z"/>
	<path id="XMLID_30_" d="M92.4,119h-1.6v5.4h-1.4V119h-1.1v-0.6l1.1-0.4v-0.4c0-0.8,0.2-1.3,0.5-1.7s0.9-0.6,1.6-0.6
		c0.5,0,1,0.1,1.4,0.2l-0.4,1c-0.3-0.1-0.7-0.2-1-0.2c-0.3,0-0.5,0.1-0.7,0.3s-0.2,0.5-0.2,0.9v0.4h1.6V119z"/>
	<path id="XMLID_32_" d="M95.9,121.1c0,1-0.2,2-0.5,2.9s-0.7,1.7-1.3,2.3h-1.2c0.5-0.7,1-1.5,1.2-2.4s0.4-1.8,0.4-2.8
		c0-1-0.1-1.9-0.4-2.8s-0.7-1.7-1.2-2.5h1.2c0.6,0.7,1,1.5,1.3,2.4S95.9,120.1,95.9,121.1z"/>
</g>
</svg>
