<?xml version="1.0" encoding="utf-8"?>
<!-- Generator: Adobe Illustrator 19.0.0, SVG Export Plug-In . SVG Version: 6.00 Build 0)  -->
<svg version="1.1" id="Layer_1" xmlns="http://www.w3.org/2000/svg" xmlns:xlink="http://www.w3.org/1999/xlink" x="0px" y="0px"
	 viewBox="0 0 185 63.8" style="enable-background:new 0 0 185 63.8;" xml:space="preserve">
<style type="text/css">
	.st0{stroke:#000000;stroke-miterlimit:10;}
</style>
<g id="XMLID_1_">
	<g id="XMLID_4_">
		<g id="XMLID_5_">
			<path id="XMLID_6_" class="st0" d="M141.1,63.3H0.8l17.9-42.5h105.2l17.7,41.9C141.6,62.9,141.4,63.3,141.1,63.3z M2.3,62.3h138
				l-17.1-40.5H19.3L2.3,62.3z"/>
		</g>
	</g>
	<g id="XMLID_9_">
		<g id="XMLID_10_">
			<path id="XMLID_11_" class="st0" d="M140.4,62.7l-17.5-41.6l30.7-20.4l30.7,28.7L141.6,63C141.2,63.3,140.6,63.1,140.4,62.7z
				 M124.1,21.5L141.2,62l41.5-32.7L153.5,1.9L124.1,21.5z"/>
		</g>
	</g>
	<g id="XMLID_14_">
		<g id="XMLID_15_">
			<path id="XMLID_16_" class="st0" d="M123.7,21.8H19.2c-0.6,0-0.8-0.8-0.3-1l37.4-20h97.1c0.5,0,0.7,0.6,0.3,0.9L123.7,21.8z
				 M21,20.8h102.3l28.5-19H56.6L21,20.8z"/>
		</g>
	</g>
</g>
<g id="XMLID_2_">
	<g id="XMLID_19_">
		<path id="XMLID_20_" d="M71.3,47.9c-1.9,0-3.4-1.5-3.4-3.4c0-1.9,1.5-3.4,3.4-3.4s3.4,1.5,3.4,3.4C74.7,46.3,73.1,47.9,71.3,47.9z
			 M71.3,42c-1.3,0-2.4,1.1-2.4,2.4s1.1,2.4,2.4,2.4s2.4-1.1,2.4-2.4S72.6,42,71.3,42z"/>
	</g>
</g>
<g id="XMLID_3_">
	<g id="XMLID_23_">
		<g id="XMLID_24_">
			<path id="XMLID_25_" class="st0" d="M141.1,63.3H0.8l17.9-42.5h105.2l17.7,41.9C141.6,62.9,141.4,63.3,141.1,63.3z M2.3,62.3h138
				l-17.1-40.5H19.3L2.3,62.3z"/>
		</g>
	</g>
	<g id="XMLID_28_">
		<g id="XMLID_29_">
			<path id="XMLID_30_" class="st0" d="M140.4,62.7l-17.5-41.6l30.7-20.4l30.7,28.7L141.6,63C141.2,63.3,140.6,63.1,140.4,62.7z
				 M124.1,21.5L141.2,62l41.5-32.7L153.5,1.9L124.1,21.5z"/>
		</g>
	</g>
	<g id="XMLID_33_">
		<g id="XMLID_34_">
			<path id="XMLID_35_" class="st0" d="M123.7,21.8H19.2c-0.6,0-0.8-0.8-0.3-1l37.4-20h97.1c0.5,0,0.7,0.6,0.3,0.9L123.7,21.8z
				 M21,20.8h102.3l28.5-19H56.6L21,20.8z"/>
		</g>
	</g>
</g>
<g id="XMLID_38_">
	<g id="XMLID_39_">
		<path id="XMLID_40_" class="st0" d="M71.3,47.9c-1.9,0-3.4-1.5-3.4-3.4c0-1.9,1.5-3.4,3.4-3.4s3.4,1.5,3.4,3.4
			C74.7,46.3,73.1,47.9,71.3,47.9z M71.3,42c-1.3,0-2.4,1.1-2.4,2.4s1.1,2.4,2.4,2.4s2.4-1.1,2.4-2.4S72.6,42,71.3,42z"/>
	</g>
</g>
</svg>
