<?xml version="1.0" encoding="utf-8"?>
<!-- Generator: Adobe Illustrator 19.2.1, SVG Export Plug-In . SVG Version: 6.00 Build 0)  -->
<svg version="1.1" id="Layer_1" xmlns="http://www.w3.org/2000/svg" xmlns:xlink="http://www.w3.org/1999/xlink" x="0px" y="0px"
	 viewBox="0 0 284.6 146.4" style="enable-background:new 0 0 284.6 146.4;" xml:space="preserve">
<g>
</g>
<g>
</g>
<g>
	<g>
		<path d="M123.8,22.7H19.1c-1,0-1.4-1.3-0.5-1.8L56.9,0h96.8c0.9,0,1.3,1.2,0.5,1.7L123.8,22.7z M23.1,20.7h100.1L150.3,2H57.4
			L23.1,20.7z"/>
	</g>
</g>
<g>
	<g>
		<path d="M141.1,73.2l-18.8-51.9l30.5-21c0.5-0.3,1.2-0.2,1.5,0.2l30.5,38l-41.7,35.3C142.5,74.4,141.4,74.1,141.1,73.2z
			 M124.7,22.1l17.9,49.6l39.5-33.4L153.3,2.4L124.7,22.1z"/>
	</g>
</g>
<g>
	<g>
		<path d="M142,74.3H0.1l18-52.7c0.2-0.6,0.8-1,1.4-1h104.7l18.8,52.2C143.3,73.6,142.8,74.3,142,74.3z M2.9,72.3h137.8l-17.9-49.7
			H19.9L2.9,72.3z"/>
	</g>
</g>
<g>
	<g>
		<path d="M71.3,57.9c-2.2,0-3.9-1.8-3.9-3.9s1.8-3.9,3.9-3.9s3.9,1.8,3.9,3.9S73.4,57.9,71.3,57.9z M71.3,52.1
			c-1.1,0-1.9,0.9-1.9,1.9c0,1.1,0.9,1.9,1.9,1.9s1.9-0.9,1.9-1.9C73.2,52.9,72.3,52.1,71.3,52.1z"/>
	</g>
</g>
<g id="XMLID_85_">
	<path id="XMLID_86_" d="M65.3,86.6h-1v-4.1c0-0.5,0-0.9,0-1.2c-0.1,0.1-0.2,0.1-0.2,0.2c-0.1,0.1-0.4,0.4-1,0.8l-0.5-0.7l1.9-1.5
		h0.9V86.6z"/>
	<path id="XMLID_88_" d="M69.6,82.6c0.6,0,1.2,0.2,1.5,0.5c0.4,0.3,0.6,0.8,0.6,1.4c0,0.7-0.2,1.2-0.6,1.6c-0.4,0.4-1,0.6-1.8,0.6
		c-0.7,0-1.3-0.1-1.7-0.3v-0.9c0.2,0.1,0.5,0.2,0.8,0.3c0.3,0.1,0.6,0.1,0.9,0.1c0.5,0,0.8-0.1,1.1-0.3c0.2-0.2,0.4-0.5,0.4-0.9
		c0-0.8-0.5-1.2-1.5-1.2c-0.1,0-0.3,0-0.5,0s-0.4,0.1-0.5,0.1l-0.5-0.3l0.2-3.1h3.3v0.9h-2.4l-0.1,1.6c0.1,0,0.2,0,0.4-0.1
		C69.2,82.6,69.4,82.6,69.6,82.6z"/>
	<path id="XMLID_90_" d="M72.7,86c0-0.2,0.1-0.4,0.2-0.5c0.1-0.1,0.3-0.2,0.5-0.2c0.2,0,0.4,0.1,0.5,0.2S74,85.8,74,86
		c0,0.2-0.1,0.4-0.2,0.5c-0.1,0.1-0.3,0.2-0.5,0.2s-0.4-0.1-0.5-0.2C72.8,86.4,72.7,86.3,72.7,86z"/>
	<path id="XMLID_92_" d="M77.2,82.6c0.6,0,1.2,0.2,1.5,0.5c0.4,0.3,0.6,0.8,0.6,1.4c0,0.7-0.2,1.2-0.6,1.6c-0.4,0.4-1,0.6-1.8,0.6
		c-0.7,0-1.3-0.1-1.7-0.3v-0.9c0.2,0.1,0.5,0.2,0.8,0.3c0.3,0.1,0.6,0.1,0.9,0.1c0.5,0,0.8-0.1,1.1-0.3c0.2-0.2,0.4-0.5,0.4-0.9
		c0-0.8-0.5-1.2-1.5-1.2c-0.1,0-0.3,0-0.5,0s-0.4,0.1-0.5,0.1l-0.5-0.3l0.2-3.1h3.3v0.9h-2.4l-0.1,1.6c0.1,0,0.2,0,0.4-0.1
		C76.8,82.6,77,82.6,77.2,82.6z"/>
	<path id="XMLID_94_" d="M81.4,80.3c-0.2,0.6-0.4,1.3-0.8,2.1h-0.7c0.2-0.8,0.3-1.6,0.4-2.2L81.4,80.3L81.4,80.3z M83.2,80.3
		c-0.2,0.6-0.4,1.3-0.8,2.1h-0.8c0.2-0.8,0.4-1.5,0.5-2.2L83.2,80.3L83.2,80.3z"/>
	<path id="XMLID_97_" d="M50,94.9c0-0.8,0.1-1.5,0.3-2.2c0.2-0.7,0.6-1.3,1-1.8h0.9c-0.4,0.6-0.7,1.2-0.9,1.9s-0.3,1.4-0.3,2.1
		c0,0.7,0.1,1.4,0.3,2.1c0.2,0.7,0.5,1.3,0.9,1.8h-0.9c-0.4-0.5-0.8-1.1-1-1.7S50,95.7,50,94.9z"/>
	<path id="XMLID_99_" d="M57,92.4c0,0.4-0.1,0.7-0.4,1c-0.2,0.3-0.6,0.5-1,0.5v0c0.5,0.1,0.9,0.2,1.2,0.5s0.4,0.6,0.4,1
		c0,0.6-0.2,1.1-0.7,1.4c-0.4,0.3-1.1,0.5-1.9,0.5c-0.7,0-1.3-0.1-1.8-0.3v-0.9c0.3,0.1,0.6,0.2,0.9,0.3c0.3,0.1,0.6,0.1,0.9,0.1
		c0.5,0,0.9-0.1,1.1-0.3c0.2-0.2,0.4-0.5,0.4-0.9c0-0.3-0.1-0.6-0.4-0.8c-0.3-0.2-0.7-0.2-1.3-0.2h-0.6v-0.8h0.6
		c1,0,1.5-0.4,1.5-1.1c0-0.3-0.1-0.5-0.3-0.6c-0.2-0.1-0.4-0.2-0.8-0.2c-0.2,0-0.5,0-0.7,0.1c-0.2,0.1-0.5,0.2-0.8,0.4l-0.5-0.7
		c0.6-0.4,1.3-0.7,2.1-0.7c0.6,0,1.2,0.1,1.5,0.4C56.8,91.6,57,92,57,92.4z"/>
	<path id="XMLID_115_" d="M62.3,93.7c0,1.3-0.3,2.2-0.8,2.8c-0.5,0.6-1.3,0.9-2.3,0.9c-0.4,0-0.7,0-0.8-0.1v-0.9
		c0.3,0.1,0.5,0.1,0.8,0.1c0.7,0,1.2-0.2,1.6-0.6c0.3-0.4,0.5-1,0.6-1.8h-0.1c-0.2,0.3-0.4,0.5-0.6,0.6s-0.5,0.2-0.9,0.2
		c-0.6,0-1-0.2-1.3-0.5c-0.3-0.4-0.5-0.8-0.5-1.5c0-0.7,0.2-1.2,0.6-1.6c0.4-0.4,0.9-0.6,1.5-0.6c0.5,0,0.9,0.1,1.2,0.3
		s0.6,0.5,0.8,1C62.3,92.6,62.3,93.1,62.3,93.7z M60.1,91.7c-0.4,0-0.6,0.1-0.8,0.3c-0.2,0.2-0.3,0.6-0.3,1c0,0.4,0.1,0.7,0.3,0.9
		c0.2,0.2,0.4,0.3,0.8,0.3c0.3,0,0.6-0.1,0.9-0.3c0.2-0.2,0.4-0.5,0.4-0.7c0-0.3-0.1-0.5-0.2-0.7c-0.1-0.2-0.2-0.4-0.4-0.5
		C60.6,91.8,60.3,91.7,60.1,91.7z"/>
	<path id="XMLID_118_" d="M67.3,92.4c0,0.4-0.1,0.7-0.4,1c-0.2,0.3-0.6,0.5-1,0.5v0c0.5,0.1,0.9,0.2,1.2,0.5s0.4,0.6,0.4,1
		c0,0.6-0.2,1.1-0.7,1.4c-0.4,0.3-1.1,0.5-1.9,0.5c-0.7,0-1.3-0.1-1.8-0.3v-0.9c0.3,0.1,0.6,0.2,0.9,0.3c0.3,0.1,0.6,0.1,0.9,0.1
		c0.5,0,0.9-0.1,1.1-0.3c0.2-0.2,0.4-0.5,0.4-0.9c0-0.3-0.1-0.6-0.4-0.8c-0.3-0.2-0.7-0.2-1.3-0.2h-0.6v-0.8h0.6
		c1,0,1.5-0.4,1.5-1.1c0-0.3-0.1-0.5-0.3-0.6c-0.2-0.1-0.4-0.2-0.8-0.2c-0.2,0-0.5,0-0.7,0.1c-0.2,0.1-0.5,0.2-0.8,0.4l-0.5-0.7
		c0.6-0.4,1.3-0.7,2.1-0.7c0.6,0,1.2,0.1,1.5,0.4C67.1,91.6,67.3,92,67.3,92.4z"/>
	<path id="XMLID_120_" d="M68.5,96.8c0-0.2,0.1-0.4,0.2-0.5c0.1-0.1,0.3-0.2,0.5-0.2c0.2,0,0.4,0.1,0.5,0.2c0.1,0.1,0.2,0.3,0.2,0.5
		c0,0.2-0.1,0.4-0.2,0.5s-0.3,0.2-0.5,0.2s-0.4-0.1-0.5-0.2C68.5,97.2,68.5,97.1,68.5,96.8z"/>
	<path id="XMLID_122_" d="M71.5,97.4l2.5-5.5h-3.3V91h4.4v0.7l-2.5,5.7H71.5z"/>
	<path id="XMLID_124_" d="M80.3,97.4h-1v-3c0-0.4-0.1-0.7-0.2-0.8c-0.1-0.2-0.4-0.3-0.7-0.3c-0.4,0-0.7,0.1-0.9,0.4
		c-0.2,0.3-0.3,0.7-0.3,1.3v2.4h-1v-4.9H77l0.1,0.6h0.1c0.1-0.2,0.3-0.4,0.6-0.5c0.3-0.1,0.5-0.2,0.8-0.2c0.7,0,1.2,0.3,1.5,0.8h0.1
		c0.1-0.2,0.3-0.4,0.6-0.6s0.6-0.2,0.9-0.2c0.6,0,1,0.1,1.3,0.4s0.4,0.7,0.4,1.3v3.2h-1v-3c0-0.4-0.1-0.7-0.2-0.8
		c-0.1-0.2-0.4-0.3-0.7-0.3c-0.4,0-0.7,0.1-0.9,0.4s-0.3,0.6-0.3,1.2V97.4z"/>
	<path id="XMLID_126_" d="M88.9,97.4h-1v-3c0-0.4-0.1-0.7-0.2-0.8c-0.1-0.2-0.4-0.3-0.7-0.3c-0.4,0-0.7,0.1-0.9,0.4
		c-0.2,0.3-0.3,0.7-0.3,1.3v2.4h-1v-4.9h0.8l0.1,0.6h0.1c0.1-0.2,0.3-0.4,0.6-0.5c0.3-0.1,0.5-0.2,0.8-0.2c0.7,0,1.2,0.3,1.5,0.8
		h0.1c0.1-0.2,0.3-0.4,0.6-0.6s0.6-0.2,0.9-0.2c0.6,0,1,0.1,1.3,0.4c0.3,0.3,0.4,0.7,0.4,1.3v3.2h-1v-3c0-0.4-0.1-0.7-0.2-0.8
		c-0.1-0.2-0.4-0.3-0.7-0.3c-0.4,0-0.7,0.1-0.9,0.4c-0.2,0.3-0.3,0.6-0.3,1.2V97.4z"/>
	<path id="XMLID_128_" d="M95.2,94.9c0,0.8-0.1,1.5-0.3,2.2c-0.2,0.7-0.6,1.2-1,1.7H93c0.4-0.5,0.7-1.2,0.9-1.8
		c0.2-0.7,0.3-1.4,0.3-2.1s-0.1-1.4-0.3-2.1S93.4,91.5,93,91h0.9c0.4,0.5,0.8,1.1,1,1.8C95.1,93.4,95.2,94.2,95.2,94.9z"/>
</g>
<g>
	<g>
		<path d="M44.6,94.4c-15.3,0-29.3,0-44.1,0"/>
	</g>
	<g>
		<path d="M141.3,94.4c-13.2,0-26.4,0-39.5,0"/>
	</g>
	<g>
		<path d="M45.4,93.4H0.5v2h44.9C45.4,94.8,45.4,94.1,45.4,93.4z"/>
	</g>
	<g>
		<path d="M100.3,93.4c0,0.7,0,1.3,0,2h40.9v-2H100.3z"/>
	</g>
</g>
<g>
	<line id="XMLID_83_" x1="0.5" y1="82.4" x2="0.5" y2="104.4"/>
	<rect id="XMLID_84_" y="82.4" width="1" height="22"/>
</g>
<g>
	<line id="XMLID_2_" x1="141.5" y1="82.4" x2="141.5" y2="104.4"/>
	<rect id="XMLID_82_" x="141" y="82.4" width="1" height="22"/>
</g>
<g id="XMLID_53_">
	<path id="XMLID_54_" d="M216.1,41.4c0.6,0,1.2,0.2,1.5,0.5s0.6,0.8,0.6,1.4c0,0.7-0.2,1.2-0.6,1.6c-0.4,0.4-1,0.6-1.8,0.6
		c-0.7,0-1.3-0.1-1.7-0.3v-0.9c0.2,0.1,0.5,0.2,0.8,0.3s0.6,0.1,0.9,0.1c0.5,0,0.8-0.1,1.1-0.3c0.2-0.2,0.4-0.5,0.4-0.9
		c0-0.8-0.5-1.2-1.5-1.2c-0.1,0-0.3,0-0.5,0c-0.2,0-0.4,0.1-0.5,0.1l-0.5-0.3l0.2-3.1h3.3v0.9h-2.4l-0.1,1.6c0.1,0,0.2,0,0.4-0.1
		C215.7,41.4,215.8,41.4,216.1,41.4z"/>
	<path id="XMLID_56_" d="M219.2,44.9c0-0.2,0.1-0.4,0.2-0.5c0.1-0.1,0.3-0.2,0.5-0.2c0.2,0,0.4,0.1,0.5,0.2c0.1,0.1,0.2,0.3,0.2,0.5
		c0,0.2-0.1,0.4-0.2,0.5c-0.1,0.1-0.3,0.2-0.5,0.2s-0.4-0.1-0.5-0.2S219.2,45.1,219.2,44.9z"/>
	<path id="XMLID_58_" d="M223.7,41.4c0.6,0,1.2,0.2,1.5,0.5s0.6,0.8,0.6,1.4c0,0.7-0.2,1.2-0.6,1.6c-0.4,0.4-1,0.6-1.8,0.6
		c-0.7,0-1.3-0.1-1.7-0.3v-0.9c0.2,0.1,0.5,0.2,0.8,0.3s0.6,0.1,0.9,0.1c0.5,0,0.8-0.1,1.1-0.3c0.2-0.2,0.4-0.5,0.4-0.9
		c0-0.8-0.5-1.2-1.5-1.2c-0.1,0-0.3,0-0.5,0c-0.2,0-0.4,0.1-0.5,0.1l-0.5-0.3L222,39h3.3v0.9h-2.4l-0.1,1.6c0.1,0,0.2,0,0.4-0.1
		C223.3,41.4,223.5,41.4,223.7,41.4z"/>
	<path id="XMLID_60_" d="M227.9,39.1c-0.2,0.6-0.4,1.3-0.8,2.1h-0.7c0.2-0.8,0.3-1.6,0.4-2.2L227.9,39.1L227.9,39.1z M229.7,39.1
		c-0.2,0.6-0.4,1.3-0.8,2.1h-0.8c0.2-0.8,0.4-1.5,0.5-2.2L229.7,39.1L229.7,39.1z"/>
	<path id="XMLID_63_" d="M199,53.8c0-0.8,0.1-1.5,0.3-2.2c0.2-0.7,0.6-1.3,1-1.8h0.9c-0.4,0.6-0.7,1.2-0.9,1.9
		c-0.2,0.7-0.3,1.4-0.3,2.1c0,0.7,0.1,1.4,0.3,2.1s0.5,1.3,0.9,1.8h-0.9c-0.4-0.5-0.8-1.1-1-1.7C199.1,55.2,199,54.5,199,53.8z"/>
	<path id="XMLID_65_" d="M205,56.2h-1v-4.1c0-0.5,0-0.9,0-1.2c-0.1,0.1-0.2,0.1-0.2,0.2c-0.1,0.1-0.4,0.4-1,0.8l-0.5-0.7l1.9-1.5
		h0.9V56.2z"/>
	<path id="XMLID_67_" d="M211.2,51.3c0,0.4-0.1,0.7-0.4,1c-0.2,0.3-0.6,0.5-1,0.5v0c0.5,0.1,0.9,0.2,1.2,0.5c0.3,0.3,0.4,0.6,0.4,1
		c0,0.6-0.2,1.1-0.7,1.4c-0.4,0.3-1.1,0.5-1.9,0.5c-0.7,0-1.3-0.1-1.8-0.3V55c0.3,0.1,0.6,0.2,0.9,0.3s0.6,0.1,0.9,0.1
		c0.5,0,0.9-0.1,1.1-0.3c0.2-0.2,0.4-0.5,0.4-0.9c0-0.3-0.1-0.6-0.4-0.8s-0.7-0.2-1.3-0.2H208v-0.8h0.6c1,0,1.5-0.4,1.5-1.1
		c0-0.3-0.1-0.5-0.3-0.6c-0.2-0.1-0.4-0.2-0.8-0.2c-0.2,0-0.5,0-0.7,0.1c-0.2,0.1-0.5,0.2-0.8,0.4l-0.5-0.7c0.6-0.4,1.3-0.7,2.1-0.7
		c0.6,0,1.2,0.1,1.5,0.4S211.2,50.8,211.2,51.3z"/>
	<path id="XMLID_69_" d="M216.5,52.5c0,1.3-0.3,2.2-0.8,2.8c-0.5,0.6-1.3,0.9-2.3,0.9c-0.4,0-0.7,0-0.8-0.1v-0.9
		c0.3,0.1,0.5,0.1,0.8,0.1c0.7,0,1.2-0.2,1.6-0.6s0.5-1,0.6-1.8h-0.1c-0.2,0.3-0.4,0.5-0.6,0.6c-0.2,0.1-0.5,0.2-0.9,0.2
		c-0.6,0-1-0.2-1.3-0.5s-0.5-0.8-0.5-1.5c0-0.7,0.2-1.2,0.6-1.6c0.4-0.4,0.9-0.6,1.5-0.6c0.5,0,0.9,0.1,1.2,0.3
		c0.3,0.2,0.6,0.5,0.8,1C216.5,51.4,216.5,51.9,216.5,52.5z M214.3,50.6c-0.4,0-0.6,0.1-0.8,0.3c-0.2,0.2-0.3,0.6-0.3,1
		c0,0.4,0.1,0.7,0.3,0.9c0.2,0.2,0.4,0.3,0.8,0.3c0.3,0,0.6-0.1,0.9-0.3s0.4-0.5,0.4-0.7c0-0.3-0.1-0.5-0.2-0.7
		c-0.1-0.2-0.2-0.4-0.4-0.5C214.7,50.6,214.5,50.6,214.3,50.6z"/>
	<path id="XMLID_72_" d="M217.5,55.7c0-0.2,0.1-0.4,0.2-0.5c0.1-0.1,0.3-0.2,0.5-0.2c0.2,0,0.4,0.1,0.5,0.2c0.1,0.1,0.2,0.3,0.2,0.5
		c0,0.2-0.1,0.4-0.2,0.5c-0.1,0.1-0.3,0.2-0.5,0.2s-0.4-0.1-0.5-0.2S217.5,55.9,217.5,55.7z"/>
	<path id="XMLID_74_" d="M220.5,56.2l2.5-5.5h-3.3v-0.9h4.4v0.7l-2.5,5.7H220.5z"/>
	<path id="XMLID_76_" d="M229.4,56.2h-1v-3c0-0.4-0.1-0.6-0.2-0.8c-0.1-0.2-0.4-0.3-0.7-0.3c-0.4,0-0.7,0.1-0.9,0.4
		c-0.2,0.3-0.3,0.7-0.3,1.3v2.4h-1v-4.9h0.8l0.1,0.6h0.1c0.1-0.2,0.3-0.4,0.6-0.5c0.3-0.1,0.5-0.2,0.8-0.2c0.7,0,1.2,0.3,1.5,0.8
		h0.1c0.1-0.2,0.3-0.4,0.6-0.6s0.6-0.2,0.9-0.2c0.6,0,1,0.1,1.3,0.4c0.3,0.3,0.4,0.7,0.4,1.3v3.2h-1v-3c0-0.4-0.1-0.6-0.2-0.8
		c-0.1-0.2-0.4-0.3-0.7-0.3c-0.4,0-0.7,0.1-0.9,0.4c-0.2,0.3-0.3,0.6-0.3,1.2V56.2z"/>
	<path id="XMLID_78_" d="M238,56.2h-1v-3c0-0.4-0.1-0.6-0.2-0.8c-0.1-0.2-0.4-0.3-0.7-0.3c-0.4,0-0.7,0.1-0.9,0.4
		c-0.2,0.3-0.3,0.7-0.3,1.3v2.4h-1v-4.9h0.8l0.1,0.6h0.1c0.1-0.2,0.3-0.4,0.6-0.5c0.3-0.1,0.5-0.2,0.8-0.2c0.7,0,1.2,0.3,1.5,0.8
		h0.1c0.1-0.2,0.3-0.4,0.6-0.6s0.6-0.2,0.9-0.2c0.6,0,1,0.1,1.3,0.4c0.3,0.3,0.4,0.7,0.4,1.3v3.2h-1v-3c0-0.4-0.1-0.6-0.2-0.8
		c-0.1-0.2-0.4-0.3-0.7-0.3c-0.4,0-0.7,0.1-0.9,0.4c-0.2,0.3-0.3,0.6-0.3,1.2V56.2z"/>
	<path id="XMLID_80_" d="M244.3,53.8c0,0.8-0.1,1.5-0.3,2.2c-0.2,0.7-0.6,1.2-1,1.7H242c0.4-0.5,0.7-1.2,0.9-1.8
		c0.2-0.7,0.3-1.4,0.3-2.1c0-0.7-0.1-1.4-0.3-2.1c-0.2-0.7-0.5-1.3-0.9-1.9h0.9c0.4,0.5,0.8,1.1,1,1.8
		C244.1,52.3,244.3,53,244.3,53.8z"/>
</g>
<g>
	<line id="XMLID_51_" x1="149.8" y1="73.4" x2="221.2" y2="73.4"/>
	<rect id="XMLID_52_" x="149.8" y="72.9" width="71.4" height="1"/>
</g>
<g>
	<g>
		<path d="M220.2,57.6c0,5.6,0,10.7,0,16.1"/>
	</g>
	<g>
		<path d="M220.2,22.4c0,4.8,0,9.6,0,14.4"/>
	</g>
	<g>
		<path d="M220,63.5v10.2h1.3V63.5C220.9,63.5,220.4,63.5,220,63.5z"/>
	</g>
	<g>
		<path d="M220.1,31.8c0.4,0,0.8,0,1.3,0v-9.4h-1.3V31.8z"/>
	</g>
</g>
<g>
	<line id="XMLID_1_" x1="131.6" y1="22.4" x2="221.2" y2="22.4"/>
	<rect id="XMLID_50_" x="131.6" y="21.9" width="89.6" height="1"/>
</g>
<g id="XMLID_18_">
	<path id="XMLID_19_" d="M61.9,113.4c-0.8,0-1.4,0.3-1.9,0.9s-0.7,1.4-0.7,2.4c0,1.1,0.2,1.8,0.7,2.4s1.1,0.8,1.9,0.8
		c0.4,0,0.7,0,1.1-0.1s0.7-0.2,1.1-0.3v1.2c-0.7,0.3-1.4,0.4-2.3,0.4c-1.3,0-2.2-0.4-2.9-1.1s-1-1.8-1-3.3c0-0.9,0.2-1.7,0.5-2.3
		s0.8-1.2,1.4-1.5s1.3-0.5,2.2-0.5c0.9,0,1.7,0.2,2.4,0.6l-0.5,1.2c-0.3-0.1-0.6-0.3-0.9-0.4S62.3,113.4,61.9,113.4z"/>
	<path id="XMLID_21_" d="M69.5,113.4c-0.8,0-1.4,0.3-1.9,0.9s-0.7,1.4-0.7,2.4c0,1.1,0.2,1.8,0.7,2.4s1.1,0.8,1.9,0.8
		c0.4,0,0.7,0,1.1-0.1s0.7-0.2,1.1-0.3v1.2c-0.7,0.3-1.4,0.4-2.3,0.4c-1.3,0-2.2-0.4-2.9-1.1s-1-1.8-1-3.3c0-0.9,0.2-1.7,0.5-2.3
		s0.8-1.2,1.4-1.5s1.3-0.5,2.2-0.5c0.9,0,1.7,0.2,2.4,0.6l-0.5,1.2c-0.3-0.1-0.6-0.3-0.9-0.4S69.9,113.4,69.5,113.4z"/>
	<path id="XMLID_23_" d="M79,119h-1.2v1.9h-1.3V119h-3.9v-1.1l3.9-5.7h1.3v5.6H79V119z M76.5,117.9v-2.2c0-0.8,0-1.4,0.1-1.9h0
		c-0.1,0.3-0.3,0.6-0.5,0.9l-2.1,3.1H76.5z"/>
	<path id="XMLID_26_" d="M82.7,115.5c0.9,0,1.5,0.2,2.1,0.7s0.8,1.1,0.8,1.9c0,0.9-0.3,1.6-0.9,2.1s-1.4,0.8-2.4,0.8
		c-1,0-1.7-0.2-2.3-0.5v-1.2c0.3,0.2,0.7,0.3,1.1,0.4s0.8,0.1,1.1,0.1c0.6,0,1.1-0.1,1.4-0.4s0.5-0.7,0.5-1.2c0-1-0.7-1.5-2-1.5
		c-0.2,0-0.4,0-0.7,0.1s-0.5,0.1-0.7,0.1l-0.6-0.4l0.3-4.2h4.5v1.2h-3.2l-0.2,2.1c0.1,0,0.3-0.1,0.5-0.1S82.4,115.5,82.7,115.5z"/>
	<path id="XMLID_28_" d="M45.7,132c0-1,0.2-2,0.5-2.9s0.7-1.7,1.3-2.4h1.2c-0.5,0.7-1,1.6-1.2,2.5S47,131,47,132s0.1,1.9,0.4,2.8
		s0.7,1.7,1.2,2.4h-1.2c-0.6-0.7-1-1.4-1.3-2.3S45.7,133,45.7,132z"/>
	<path id="XMLID_30_" d="M55.6,133.4h-1.2v1.9h-1.3v-1.9h-3.9v-1.1l3.9-5.7h1.3v5.6h1.2V133.4z M53.1,132.3v-2.2
		c0-0.8,0-1.4,0.1-1.9h0c-0.1,0.3-0.3,0.6-0.5,0.9l-2.1,3.1H53.1z"/>
	<path id="XMLID_33_" d="M59.3,129.9c0.9,0,1.5,0.2,2.1,0.7s0.8,1.1,0.8,1.9c0,0.9-0.3,1.6-0.9,2.1s-1.4,0.8-2.4,0.8
		c-1,0-1.7-0.2-2.3-0.5v-1.2c0.3,0.2,0.7,0.3,1.1,0.4s0.8,0.1,1.1,0.1c0.6,0,1.1-0.1,1.4-0.4s0.5-0.7,0.5-1.2c0-1-0.7-1.5-2-1.5
		c-0.2,0-0.4,0-0.7,0.1s-0.5,0.1-0.7,0.1l-0.6-0.4l0.3-4.2h4.5v1.2h-3.2l-0.2,2.1c0.1,0,0.3-0.1,0.5-0.1S59,129.9,59.3,129.9z"/>
	<path id="XMLID_35_" d="M65.1,135.3h-1.4v-9.1h1.4V135.3z"/>
	<path id="XMLID_37_" d="M70.3,128.7c0.8,0,1.4,0.3,1.9,0.9s0.7,1.4,0.7,2.5c0,1.1-0.2,1.9-0.7,2.5s-1.1,0.9-1.9,0.9
		c-0.8,0-1.5-0.3-1.9-0.9h-0.1l-0.3,0.8h-1v-9.1h1.4v2.2c0,0.2,0,0.4,0,0.7s0,0.5,0,0.6h0.1C68.8,129,69.5,128.7,70.3,128.7z
		 M70,129.8c-0.6,0-1,0.2-1.2,0.5s-0.4,0.9-0.4,1.6v0.1c0,0.8,0.1,1.4,0.4,1.7s0.7,0.5,1.2,0.5c0.5,0,0.9-0.2,1.1-0.6
		s0.4-0.9,0.4-1.7C71.5,130.5,71,129.8,70,129.8z"/>
	<path id="XMLID_40_" d="M78.9,133.4c0,0.6-0.2,1.1-0.7,1.5s-1.1,0.5-2,0.5c-0.9,0-1.6-0.1-2.1-0.4v-1.2c0.8,0.4,1.5,0.5,2.1,0.5
		c0.8,0,1.3-0.3,1.3-0.8c0-0.2,0-0.3-0.1-0.4s-0.2-0.2-0.5-0.3s-0.5-0.3-0.9-0.4c-0.7-0.3-1.3-0.6-1.5-0.9s-0.4-0.7-0.4-1.1
		c0-0.6,0.2-1,0.7-1.3s1.1-0.5,1.8-0.5c0.8,0,1.5,0.2,2.2,0.5l-0.4,1c-0.7-0.3-1.3-0.4-1.8-0.4c-0.7,0-1.1,0.2-1.1,0.6
		c0,0.2,0.1,0.4,0.3,0.5s0.6,0.3,1.2,0.6c0.5,0.2,0.9,0.4,1.2,0.6s0.4,0.4,0.5,0.6C78.8,132.8,78.9,133.1,78.9,133.4z"/>
	<path id="XMLID_42_" d="M83.9,126.7l-3.2,8.6h-1.3l3.2-8.6H83.9z"/>
	<path id="XMLID_44_" d="M89.4,133.4c0,0.6-0.2,1.1-0.7,1.5c-0.5,0.3-1.1,0.5-2,0.5c-0.9,0-1.6-0.1-2.1-0.4v-1.2
		c0.8,0.4,1.5,0.5,2.1,0.5c0.8,0,1.3-0.3,1.3-0.8c0-0.2,0-0.3-0.1-0.4s-0.2-0.2-0.5-0.3s-0.5-0.3-0.9-0.4c-0.7-0.3-1.3-0.6-1.5-0.9
		s-0.4-0.7-0.4-1.1c0-0.6,0.2-1,0.7-1.3s1.1-0.5,1.8-0.5c0.8,0,1.5,0.2,2.2,0.5l-0.4,1c-0.7-0.3-1.3-0.4-1.8-0.4
		c-0.7,0-1.1,0.2-1.1,0.6c0,0.2,0.1,0.4,0.3,0.5s0.6,0.3,1.2,0.6c0.5,0.2,0.9,0.4,1.2,0.6s0.4,0.4,0.5,0.6S89.4,133.1,89.4,133.4z"
		/>
	<path id="XMLID_46_" d="M94.1,129.8h-1.6v5.4h-1.4v-5.4h-1.1v-0.6l1.1-0.4v-0.4c0-0.8,0.2-1.3,0.5-1.7s0.9-0.6,1.6-0.6
		c0.5,0,1,0.1,1.4,0.2l-0.4,1c-0.3-0.1-0.7-0.2-1-0.2c-0.3,0-0.5,0.1-0.7,0.3s-0.2,0.5-0.2,0.9v0.4h1.6V129.8z"/>
	<path id="XMLID_48_" d="M97.6,132c0,1-0.2,2-0.5,2.9s-0.7,1.7-1.3,2.3h-1.2c0.5-0.7,1-1.5,1.2-2.4s0.4-1.8,0.4-2.8
		c0-1-0.1-1.9-0.4-2.8s-0.7-1.7-1.2-2.5h1.2c0.6,0.7,1,1.5,1.3,2.4S97.6,131,97.6,132z"/>
</g>
</svg>
