<?xml version="1.0" encoding="utf-8"?>
<!-- Generator: Adobe Illustrator 19.0.0, SVG Export Plug-In . SVG Version: 6.00 Build 0)  -->
<svg version="1.1" id="Layer_1" xmlns="http://www.w3.org/2000/svg" xmlns:xlink="http://www.w3.org/1999/xlink" x="0px" y="0px"
	 viewBox="0 0 184.8 74.3" style="enable-background:new 0 0 184.8 74.3;" xml:space="preserve">
<g id="XMLID_1_">
</g>
<g id="XMLID_2_">
	<g id="XMLID_5_">
		<path id="XMLID_6_" d="M123.7,22.7H19c-1,0-1.4-1.3-0.5-1.8L56.8,0h96.8c0.9,0,1.3,1.2,0.5,1.7L123.7,22.7z M23,20.7h100.1
			L150.2,2H57.3L23,20.7z"/>
	</g>
</g>
<g id="XMLID_3_">
	<g id="XMLID_9_">
		<path id="XMLID_10_" d="M141,73.2l-18.8-51.9l30.5-21c0.5-0.3,1.2-0.2,1.5,0.2l30.5,38l-41.7,35.3C142.4,74.4,141.3,74.1,141,73.2
			z M124.6,22.1l17.9,49.6L182,38.2L153.2,2.4L124.6,22.1z"/>
	</g>
</g>
<g id="XMLID_4_">
	<g id="XMLID_13_">
		<path id="XMLID_14_" d="M141.9,74.3H0l18-52.7c0.2-0.6,0.8-1,1.4-1h104.7l18.8,52.2C143.2,73.6,142.7,74.3,141.9,74.3z M2.8,72.3
			h137.8l-17.9-49.7H19.8L2.8,72.3z"/>
	</g>
</g>
<g id="XMLID_17_">
	<g id="XMLID_18_">
		<path id="XMLID_19_" d="M71.1,57.9c-2.2,0-3.9-1.8-3.9-3.9s1.8-3.9,3.9-3.9s3.9,1.8,3.9,3.9S73.3,57.9,71.1,57.9z M71.1,52.1
			c-1.1,0-1.9,0.9-1.9,1.9c0,1.1,0.9,1.9,1.9,1.9s1.9-0.9,1.9-1.9C73.1,52.9,72.2,52.1,71.1,52.1z"/>
	</g>
</g>
</svg>
