<?xml version="1.0" encoding="utf-8"?>
<!-- Generator: Adobe Illustrator 19.2.1, SVG Export Plug-In . SVG Version: 6.00 Build 0)  -->
<svg version="1.1" id="Layer_1" xmlns="http://www.w3.org/2000/svg" xmlns:xlink="http://www.w3.org/1999/xlink" x="0px" y="0px"
	 viewBox="0 0 284.6 170.6" style="enable-background:new 0 0 284.6 170.6;" xml:space="preserve">
<g>
</g>
<g>
</g>
<g>
</g>
<g>
	<path id="XMLID_148_" d="M141.2,99.8H0.4l0.1-0.6l18.6-76.7h103.5L141.2,99.8z M1.7,98.8h138.2l-18-75.3H20L1.7,98.8z"/>
</g>
<g>
	<g>
		<path d="M140.8,100.6l-18.8-79l30.5-21.3c0.5-0.3,1.2-0.2,1.5,0.3l41.1,57l-52.7,43.6C141.9,101.6,141,101.3,140.8,100.6z
			 M124.3,22.4l18.1,76.1l50-41.4L152.9,2.4L124.3,22.4z"/>
	</g>
</g>
<g>
	<g>
		<path d="M123.5,23H18.8c-1,0-1.4-1.3-0.5-1.9L55.2,0H153c1,0,1.4,1.3,0.6,1.9L123.5,23z M22.6,21h100.3L150,2H55.7L22.6,21z"/>
	</g>
</g>
<g>
	<g>
		<path d="M70.9,84.9c-2.2,0-3.9-1.8-3.9-3.9c0-2.2,1.8-3.9,3.9-3.9s3.9,1.8,3.9,3.9C74.8,83.2,73,84.9,70.9,84.9z M70.9,79.1
			c-1.1,0-1.9,0.9-1.9,1.9s0.9,1.9,1.9,1.9s1.9-0.9,1.9-1.9S71.9,79.1,70.9,79.1z"/>
	</g>
</g>
<g id="XMLID_116_">
	<path id="XMLID_117_" d="M65.3,110.7h-1v-4.1c0-0.5,0-0.9,0-1.2c-0.1,0.1-0.2,0.1-0.2,0.2c-0.1,0.1-0.4,0.4-1,0.8l-0.5-0.7l1.9-1.5
		h0.9V110.7z"/>
	<path id="XMLID_119_" d="M69.6,106.7c0.6,0,1.2,0.2,1.5,0.5s0.6,0.8,0.6,1.4c0,0.7-0.2,1.2-0.6,1.6c-0.4,0.4-1,0.6-1.8,0.6
		c-0.7,0-1.3-0.1-1.7-0.3v-0.9c0.2,0.1,0.5,0.2,0.8,0.3c0.3,0.1,0.6,0.1,0.9,0.1c0.5,0,0.8-0.1,1.1-0.3c0.2-0.2,0.4-0.5,0.4-0.9
		c0-0.8-0.5-1.2-1.5-1.2c-0.1,0-0.3,0-0.5,0c-0.2,0-0.4,0.1-0.5,0.1l-0.5-0.3l0.2-3.1h3.3v0.9h-2.4l-0.1,1.6c0.1,0,0.2,0,0.4-0.1
		S69.4,106.7,69.6,106.7z"/>
	<path id="XMLID_121_" d="M72.7,110.2c0-0.2,0.1-0.4,0.2-0.5c0.1-0.1,0.3-0.2,0.5-0.2c0.2,0,0.4,0.1,0.5,0.2
		c0.1,0.1,0.2,0.3,0.2,0.5c0,0.2-0.1,0.4-0.2,0.5c-0.1,0.1-0.3,0.2-0.5,0.2s-0.4-0.1-0.5-0.2S72.7,110.4,72.7,110.2z"/>
	<path id="XMLID_123_" d="M77.2,106.7c0.6,0,1.2,0.2,1.5,0.5s0.6,0.8,0.6,1.4c0,0.7-0.2,1.2-0.6,1.6c-0.4,0.4-1,0.6-1.8,0.6
		c-0.7,0-1.3-0.1-1.7-0.3v-0.9c0.2,0.1,0.5,0.2,0.8,0.3c0.3,0.1,0.6,0.1,0.9,0.1c0.5,0,0.8-0.1,1.1-0.3c0.2-0.2,0.4-0.5,0.4-0.9
		c0-0.8-0.5-1.2-1.5-1.2c-0.1,0-0.3,0-0.5,0c-0.2,0-0.4,0.1-0.5,0.1l-0.5-0.3l0.2-3.1h3.3v0.9h-2.4l-0.1,1.6c0.1,0,0.2,0,0.4-0.1
		S77,106.7,77.2,106.7z"/>
	<path id="XMLID_125_" d="M81.4,104.4c-0.2,0.6-0.4,1.3-0.8,2.1h-0.7c0.2-0.8,0.3-1.6,0.4-2.2L81.4,104.4L81.4,104.4z M83.2,104.4
		c-0.2,0.6-0.4,1.3-0.8,2.1h-0.8c0.2-0.8,0.4-1.5,0.5-2.2L83.2,104.4L83.2,104.4z"/>
	<path id="XMLID_128_" d="M50,119.1c0-0.8,0.1-1.5,0.3-2.2c0.2-0.7,0.6-1.3,1-1.8h0.9c-0.4,0.6-0.7,1.2-0.9,1.9
		c-0.2,0.7-0.3,1.4-0.3,2.1c0,0.7,0.1,1.4,0.3,2.1s0.5,1.3,0.9,1.8h-0.9c-0.4-0.5-0.8-1.1-1-1.7C50.1,120.5,50,119.8,50,119.1z"/>
	<path id="XMLID_131_" d="M57,116.6c0,0.4-0.1,0.7-0.4,1c-0.2,0.3-0.6,0.5-1,0.5v0c0.5,0.1,0.9,0.2,1.2,0.5c0.3,0.3,0.4,0.6,0.4,1
		c0,0.6-0.2,1.1-0.7,1.4c-0.4,0.3-1.1,0.5-1.9,0.5c-0.7,0-1.3-0.1-1.8-0.3v-0.9c0.3,0.1,0.6,0.2,0.9,0.3s0.6,0.1,0.9,0.1
		c0.5,0,0.9-0.1,1.1-0.3c0.2-0.2,0.4-0.5,0.4-0.9c0-0.3-0.1-0.6-0.4-0.8c-0.3-0.2-0.7-0.2-1.3-0.2h-0.6v-0.8h0.6
		c1,0,1.5-0.4,1.5-1.1c0-0.3-0.1-0.5-0.3-0.6c-0.2-0.1-0.4-0.2-0.8-0.2c-0.2,0-0.5,0-0.7,0.1c-0.2,0.1-0.5,0.2-0.8,0.4l-0.5-0.7
		c0.6-0.4,1.3-0.7,2.1-0.7c0.6,0,1.2,0.1,1.5,0.4S57,116.1,57,116.6z"/>
	<path id="XMLID_133_" d="M62.4,117.8c0,1.3-0.3,2.2-0.8,2.8c-0.5,0.6-1.3,0.9-2.3,0.9c-0.4,0-0.7,0-0.8-0.1v-0.9
		c0.3,0.1,0.5,0.1,0.8,0.1c0.7,0,1.2-0.2,1.6-0.6s0.5-1,0.6-1.8h-0.1c-0.2,0.3-0.4,0.5-0.6,0.6c-0.2,0.1-0.5,0.2-0.9,0.2
		c-0.6,0-1-0.2-1.3-0.5c-0.3-0.4-0.5-0.8-0.5-1.5c0-0.7,0.2-1.2,0.6-1.6c0.4-0.4,0.9-0.6,1.5-0.6c0.5,0,0.9,0.1,1.2,0.3
		s0.6,0.5,0.8,1C62.3,116.7,62.4,117.3,62.4,117.8z M60.1,115.9c-0.4,0-0.6,0.1-0.8,0.3c-0.2,0.2-0.3,0.6-0.3,1
		c0,0.4,0.1,0.7,0.3,0.9c0.2,0.2,0.4,0.3,0.8,0.3c0.3,0,0.6-0.1,0.9-0.3c0.2-0.2,0.4-0.5,0.4-0.7c0-0.3-0.1-0.5-0.2-0.7
		c-0.1-0.2-0.2-0.4-0.4-0.5C60.6,115.9,60.3,115.9,60.1,115.9z"/>
	<path id="XMLID_136_" d="M67.3,116.6c0,0.4-0.1,0.7-0.4,1c-0.2,0.3-0.6,0.5-1,0.5v0c0.5,0.1,0.9,0.2,1.2,0.5c0.3,0.3,0.4,0.6,0.4,1
		c0,0.6-0.2,1.1-0.7,1.4c-0.4,0.3-1.1,0.5-1.9,0.5c-0.7,0-1.3-0.1-1.8-0.3v-0.9c0.3,0.1,0.6,0.2,0.9,0.3s0.6,0.1,0.9,0.1
		c0.5,0,0.9-0.1,1.1-0.3c0.2-0.2,0.4-0.5,0.4-0.9c0-0.3-0.1-0.6-0.4-0.8c-0.3-0.2-0.7-0.2-1.3-0.2h-0.6v-0.8h0.6
		c1,0,1.5-0.4,1.5-1.1c0-0.3-0.1-0.5-0.3-0.6c-0.2-0.1-0.4-0.2-0.8-0.2c-0.2,0-0.5,0-0.7,0.1c-0.2,0.1-0.5,0.2-0.8,0.4l-0.5-0.7
		c0.6-0.4,1.3-0.7,2.1-0.7c0.6,0,1.2,0.1,1.5,0.4C67.1,115.7,67.3,116.1,67.3,116.6z"/>
	<path id="XMLID_138_" d="M68.5,121c0-0.2,0.1-0.4,0.2-0.5c0.1-0.1,0.3-0.2,0.5-0.2c0.2,0,0.4,0.1,0.5,0.2c0.1,0.1,0.2,0.3,0.2,0.5
		c0,0.2-0.1,0.4-0.2,0.5c-0.1,0.1-0.3,0.2-0.5,0.2s-0.4-0.1-0.5-0.2S68.5,121.2,68.5,121z"/>
	<path id="XMLID_140_" d="M71.5,121.5L74,116h-3.3v-0.9h4.4v0.7l-2.5,5.7H71.5z"/>
	<path id="XMLID_142_" d="M80.3,121.5h-1v-3c0-0.4-0.1-0.6-0.2-0.8c-0.1-0.2-0.4-0.3-0.7-0.3c-0.4,0-0.7,0.1-0.9,0.4
		c-0.2,0.3-0.3,0.7-0.3,1.3v2.4h-1v-4.9H77l0.1,0.6h0.1c0.1-0.2,0.3-0.4,0.6-0.5c0.3-0.1,0.5-0.2,0.8-0.2c0.7,0,1.2,0.3,1.5,0.8h0.1
		c0.1-0.2,0.3-0.4,0.6-0.6c0.3-0.1,0.6-0.2,0.9-0.2c0.6,0,1,0.1,1.3,0.4c0.3,0.3,0.4,0.7,0.4,1.3v3.2h-1v-3c0-0.4-0.1-0.6-0.2-0.8
		c-0.1-0.2-0.4-0.3-0.7-0.3c-0.4,0-0.7,0.1-0.9,0.4c-0.2,0.3-0.3,0.6-0.3,1.2V121.5z"/>
	<path id="XMLID_144_" d="M88.9,121.5h-1v-3c0-0.4-0.1-0.6-0.2-0.8c-0.1-0.2-0.4-0.3-0.7-0.3c-0.4,0-0.7,0.1-0.9,0.4
		c-0.2,0.3-0.3,0.7-0.3,1.3v2.4h-1v-4.9h0.8l0.1,0.6h0.1c0.1-0.2,0.3-0.4,0.6-0.5c0.3-0.1,0.5-0.2,0.8-0.2c0.7,0,1.2,0.3,1.5,0.8
		h0.1c0.1-0.2,0.3-0.4,0.6-0.6c0.3-0.1,0.6-0.2,0.9-0.2c0.6,0,1,0.1,1.3,0.4c0.3,0.3,0.4,0.7,0.4,1.3v3.2h-1v-3
		c0-0.4-0.1-0.6-0.2-0.8c-0.1-0.2-0.4-0.3-0.7-0.3c-0.4,0-0.7,0.1-0.9,0.4c-0.2,0.3-0.3,0.6-0.3,1.2V121.5z"/>
	<path id="XMLID_146_" d="M95.2,119.1c0,0.8-0.1,1.5-0.3,2.2c-0.2,0.7-0.6,1.2-1,1.7H93c0.4-0.5,0.7-1.2,0.9-1.8
		c0.2-0.7,0.3-1.4,0.3-2.1c0-0.7-0.1-1.4-0.3-2.1c-0.2-0.7-0.5-1.3-0.9-1.9h0.9c0.4,0.5,0.8,1.1,1,1.8
		C95.1,117.6,95.2,118.3,95.2,119.1z"/>
</g>
<g>
	<path d="M44.6,118.6c-15.3,0-29.3,0-44.1,0"/>
</g>
<g>
	<path d="M141.3,118.6c-13.2,0-26.4,0-39.5,0"/>
</g>
<g>
	<path d="M0.5,119.6h44.9c0-0.7,0-1.3,0-2H0.5"/>
</g>
<g>
	<path d="M100.3,117.6c0,0.7,0,1.3,0,2h40.9v-2H100.3z"/>
</g>
<g id="XMLID_20_">
	<line id="XMLID_100_" x1="0.5" y1="106.6" x2="0.5" y2="128.6"/>
	<rect id="XMLID_115_" x="0" y="106.6" width="1" height="22"/>
</g>
<g>
	<line id="XMLID_2_" x1="141.5" y1="106.6" x2="141.5" y2="128.6"/>
	<rect id="XMLID_99_" x="141" y="106.6" width="1" height="22"/>
</g>
<g id="XMLID_68_">
	<path id="XMLID_69_" d="M216,51.6c0.6,0,1.1,0.1,1.4,0.4c0.4,0.3,0.5,0.7,0.5,1.1c0,0.7-0.4,1.2-1.2,1.6c0.5,0.3,0.9,0.5,1.1,0.8
		c0.2,0.3,0.3,0.6,0.3,0.9c0,0.5-0.2,1-0.6,1.3s-0.9,0.5-1.6,0.5c-0.7,0-1.2-0.1-1.6-0.4s-0.6-0.7-0.6-1.3c0-0.4,0.1-0.7,0.3-1
		c0.2-0.3,0.5-0.5,1-0.8c-0.4-0.2-0.7-0.5-0.8-0.7s-0.3-0.6-0.3-0.9c0-0.5,0.2-0.8,0.5-1.1C215,51.7,215.5,51.6,216,51.6z
		 M214.9,56.4c0,0.3,0.1,0.5,0.3,0.7c0.2,0.2,0.5,0.3,0.9,0.3c0.4,0,0.7-0.1,0.9-0.3c0.2-0.2,0.3-0.4,0.3-0.7c0-0.2-0.1-0.5-0.3-0.7
		s-0.5-0.4-0.9-0.5l-0.1-0.1c-0.4,0.2-0.7,0.4-0.8,0.6C214.9,56,214.9,56.2,214.9,56.4z M216,52.4c-0.3,0-0.5,0.1-0.7,0.2
		c-0.2,0.1-0.3,0.3-0.3,0.6c0,0.2,0,0.3,0.1,0.4c0.1,0.1,0.2,0.2,0.3,0.3c0.1,0.1,0.3,0.2,0.6,0.4c0.4-0.2,0.6-0.3,0.7-0.5
		c0.1-0.2,0.2-0.4,0.2-0.6c0-0.2-0.1-0.4-0.3-0.6C216.6,52.5,216.3,52.4,216,52.4z"/>
	<path id="XMLID_73_" d="M219.2,57.6c0-0.2,0.1-0.4,0.2-0.5c0.1-0.1,0.3-0.2,0.5-0.2c0.2,0,0.4,0.1,0.5,0.2c0.1,0.1,0.2,0.3,0.2,0.5
		c0,0.2-0.1,0.4-0.2,0.5c-0.1,0.1-0.3,0.2-0.5,0.2s-0.4-0.1-0.5-0.2S219.2,57.8,219.2,57.6z"/>
	<path id="XMLID_75_" d="M223.7,54.1c0.6,0,1.2,0.2,1.5,0.5s0.6,0.8,0.6,1.4c0,0.7-0.2,1.2-0.6,1.6c-0.4,0.4-1,0.6-1.8,0.6
		c-0.7,0-1.3-0.1-1.7-0.3v-0.9c0.2,0.1,0.5,0.2,0.8,0.3s0.6,0.1,0.9,0.1c0.5,0,0.8-0.1,1.1-0.3c0.2-0.2,0.4-0.5,0.4-0.9
		c0-0.8-0.5-1.2-1.5-1.2c-0.1,0-0.3,0-0.5,0c-0.2,0-0.4,0.1-0.5,0.1l-0.5-0.3l0.2-3.1h3.3v0.9h-2.4l-0.1,1.6c0.1,0,0.2,0,0.4-0.1
		C223.3,54.1,223.5,54.1,223.7,54.1z"/>
	<path id="XMLID_77_" d="M227.9,51.8c-0.2,0.6-0.4,1.3-0.8,2.1h-0.7c0.2-0.8,0.3-1.6,0.4-2.2L227.9,51.8L227.9,51.8z M229.7,51.8
		c-0.2,0.6-0.4,1.3-0.8,2.1h-0.8c0.2-0.8,0.4-1.5,0.5-2.2L229.7,51.8L229.7,51.8z"/>
	<path id="XMLID_80_" d="M199,66.5c0-0.8,0.1-1.5,0.3-2.2c0.2-0.7,0.6-1.3,1-1.8h0.9c-0.4,0.6-0.7,1.2-0.9,1.9
		c-0.2,0.7-0.3,1.4-0.3,2.1c0,0.7,0.1,1.4,0.3,2.1s0.5,1.3,0.9,1.8h-0.9c-0.4-0.5-0.8-1.1-1-1.7C199.1,67.9,199,67.2,199,66.5z"/>
	<path id="XMLID_82_" d="M206.3,68.9h-4.4v-0.8l1.7-1.7c0.5-0.5,0.8-0.9,1-1.1c0.2-0.2,0.3-0.4,0.3-0.6s0.1-0.4,0.1-0.6
		c0-0.3-0.1-0.5-0.3-0.7c-0.2-0.2-0.4-0.3-0.7-0.3c-0.2,0-0.5,0-0.7,0.1c-0.2,0.1-0.5,0.3-0.8,0.5l-0.6-0.7c0.4-0.3,0.7-0.5,1-0.6
		s0.7-0.2,1.1-0.2c0.6,0,1.1,0.2,1.4,0.5c0.4,0.3,0.5,0.7,0.5,1.3c0,0.3-0.1,0.6-0.2,0.8c-0.1,0.3-0.3,0.5-0.5,0.8
		c-0.2,0.3-0.6,0.7-1.1,1.1l-1.1,1.1v0h3V68.9z"/>
	<path id="XMLID_84_" d="M210.1,68.9h-1v-4.1c0-0.5,0-0.9,0-1.2c-0.1,0.1-0.2,0.1-0.2,0.2c-0.1,0.1-0.4,0.4-1,0.8l-0.5-0.7l1.9-1.5
		h0.9V68.9z"/>
	<path id="XMLID_86_" d="M214.4,64.9c0.6,0,1.2,0.2,1.5,0.5s0.6,0.8,0.6,1.4c0,0.7-0.2,1.2-0.6,1.6c-0.4,0.4-1,0.6-1.8,0.6
		c-0.7,0-1.3-0.1-1.7-0.3v-0.9c0.2,0.1,0.5,0.2,0.8,0.3s0.6,0.1,0.9,0.1c0.5,0,0.8-0.1,1.1-0.3c0.2-0.2,0.4-0.5,0.4-0.9
		c0-0.8-0.5-1.2-1.5-1.2c-0.1,0-0.3,0-0.5,0c-0.2,0-0.4,0.1-0.5,0.1l-0.5-0.3l0.2-3.1h3.3v0.9h-2.4l-0.1,1.6c0.1,0,0.2,0,0.4-0.1
		C214,64.9,214.2,64.9,214.4,64.9z"/>
	<path id="XMLID_88_" d="M217.5,68.4c0-0.2,0.1-0.4,0.2-0.5c0.1-0.1,0.3-0.2,0.5-0.2c0.2,0,0.4,0.1,0.5,0.2c0.1,0.1,0.2,0.3,0.2,0.5
		c0,0.2-0.1,0.4-0.2,0.5c-0.1,0.1-0.3,0.2-0.5,0.2s-0.4-0.1-0.5-0.2S217.5,68.6,217.5,68.4z"/>
	<path id="XMLID_90_" d="M224.2,65.2c0,1.3-0.3,2.2-0.8,2.8c-0.5,0.6-1.3,0.9-2.3,0.9c-0.4,0-0.7,0-0.8-0.1v-0.9
		c0.3,0.1,0.5,0.1,0.8,0.1c0.7,0,1.2-0.2,1.6-0.6s0.5-1,0.6-1.8h-0.1c-0.2,0.3-0.4,0.5-0.6,0.6c-0.2,0.1-0.5,0.2-0.9,0.2
		c-0.6,0-1-0.2-1.3-0.5s-0.5-0.8-0.5-1.5c0-0.7,0.2-1.2,0.6-1.6c0.4-0.4,0.9-0.6,1.5-0.6c0.5,0,0.9,0.1,1.2,0.3s0.6,0.5,0.8,1
		C224.1,64.1,224.2,64.6,224.2,65.2z M221.9,63.3c-0.4,0-0.6,0.1-0.8,0.3c-0.2,0.2-0.3,0.6-0.3,1c0,0.4,0.1,0.7,0.3,0.9
		c0.2,0.2,0.4,0.3,0.8,0.3c0.3,0,0.6-0.1,0.9-0.3s0.4-0.5,0.4-0.7c0-0.3-0.1-0.5-0.2-0.7c-0.1-0.2-0.2-0.4-0.4-0.5
		C222.4,63.3,222.1,63.3,221.9,63.3z"/>
	<path id="XMLID_93_" d="M229.4,68.9h-1v-3c0-0.4-0.1-0.6-0.2-0.8c-0.1-0.2-0.4-0.3-0.7-0.3c-0.4,0-0.7,0.1-0.9,0.4
		c-0.2,0.3-0.3,0.7-0.3,1.3v2.4h-1v-4.9h0.8l0.1,0.6h0.1c0.1-0.2,0.3-0.4,0.6-0.5c0.3-0.1,0.5-0.2,0.8-0.2c0.7,0,1.2,0.3,1.5,0.8
		h0.1c0.1-0.2,0.3-0.4,0.6-0.6s0.6-0.2,0.9-0.2c0.6,0,1,0.1,1.3,0.4c0.3,0.3,0.4,0.7,0.4,1.3v3.2h-1v-3c0-0.4-0.1-0.6-0.2-0.8
		c-0.1-0.2-0.4-0.3-0.7-0.3c-0.4,0-0.7,0.1-0.9,0.4c-0.2,0.3-0.3,0.6-0.3,1.2V68.9z"/>
	<path id="XMLID_95_" d="M238,68.9h-1v-3c0-0.4-0.1-0.6-0.2-0.8c-0.1-0.2-0.4-0.3-0.7-0.3c-0.4,0-0.7,0.1-0.9,0.4
		c-0.2,0.3-0.3,0.7-0.3,1.3v2.4h-1v-4.9h0.8l0.1,0.6h0.1c0.1-0.2,0.3-0.4,0.6-0.5c0.3-0.1,0.5-0.2,0.8-0.2c0.7,0,1.2,0.3,1.5,0.8
		h0.1c0.1-0.2,0.3-0.4,0.6-0.6s0.6-0.2,0.9-0.2c0.6,0,1,0.1,1.3,0.4c0.3,0.3,0.4,0.7,0.4,1.3v3.2h-1v-3c0-0.4-0.1-0.6-0.2-0.8
		c-0.1-0.2-0.4-0.3-0.7-0.3c-0.4,0-0.7,0.1-0.9,0.4c-0.2,0.3-0.3,0.6-0.3,1.2V68.9z"/>
	<path id="XMLID_97_" d="M244.3,66.5c0,0.8-0.1,1.5-0.3,2.2c-0.2,0.7-0.6,1.2-1,1.7H242c0.4-0.5,0.7-1.2,0.9-1.8
		c0.2-0.7,0.3-1.4,0.3-2.1c0-0.7-0.1-1.4-0.3-2.1c-0.2-0.7-0.5-1.3-0.9-1.9h0.9c0.4,0.5,0.8,1.1,1,1.8
		C244.1,65,244.3,65.7,244.3,66.5z"/>
</g>
<g>
	<line id="XMLID_66_" x1="150.8" y1="99.6" x2="222.2" y2="99.6"/>
	<rect id="XMLID_67_" x="150.8" y="99.1" width="71.4" height="1"/>
</g>
<g>
	<g>
		<path d="M221,73.9v26h1.3v-26C221.9,73.9,221.4,73.9,221,73.9z"/>
	</g>
	<g>
		<path d="M221.1,45.6c0.4,0,0.8,0,1.2,0v-23h-1.2V45.6z"/>
	</g>
</g>
<g>
	<line id="XMLID_1_" x1="132.6" y1="22.6" x2="222.2" y2="22.6"/>
	<rect id="XMLID_65_" x="132.6" y="22.1" width="89.6" height="1"/>
</g>
<g id="XMLID_33_">
	<path id="XMLID_34_" d="M61.2,137.5c-0.8,0-1.4,0.3-1.9,0.9s-0.7,1.4-0.7,2.4c0,1.1,0.2,1.8,0.7,2.4s1.1,0.8,1.9,0.8
		c0.4,0,0.7,0,1.1-0.1s0.7-0.2,1.1-0.3v1.2c-0.7,0.3-1.4,0.4-2.3,0.4c-1.3,0-2.2-0.4-2.9-1.1s-1-1.8-1-3.3c0-0.9,0.2-1.7,0.5-2.3
		s0.8-1.2,1.4-1.5s1.3-0.5,2.2-0.5c0.9,0,1.7,0.2,2.4,0.6l-0.5,1.2c-0.3-0.1-0.6-0.3-0.9-0.4S61.6,137.5,61.2,137.5z"/>
	<path id="XMLID_36_" d="M68.8,137.5c-0.8,0-1.4,0.3-1.9,0.9s-0.7,1.4-0.7,2.4c0,1.1,0.2,1.8,0.7,2.4s1.1,0.8,1.9,0.8
		c0.4,0,0.7,0,1.1-0.1s0.7-0.2,1.1-0.3v1.2c-0.7,0.3-1.4,0.4-2.3,0.4c-1.3,0-2.2-0.4-2.9-1.1s-1-1.8-1-3.3c0-0.9,0.2-1.7,0.5-2.3
		s0.8-1.2,1.4-1.5s1.3-0.5,2.2-0.5c0.9,0,1.7,0.2,2.4,0.6l-0.5,1.2c-0.3-0.1-0.6-0.3-0.9-0.4S69.2,137.5,68.8,137.5z"/>
	<path id="XMLID_38_" d="M73.1,145l3.4-7.3h-4.5v-1.2H78v1l-3.4,7.6H73.1z"/>
	<path id="XMLID_40_" d="M84.8,140.7c0,1.5-0.2,2.6-0.7,3.3s-1.2,1.1-2.2,1.1c-1,0-1.7-0.4-2.2-1.1s-0.7-1.8-0.7-3.3
		c0-1.5,0.2-2.6,0.7-3.3s1.2-1.1,2.2-1.1c1,0,1.7,0.4,2.2,1.1S84.8,139.3,84.8,140.7z M80.4,140.7c0,1.2,0.1,2,0.4,2.5
		s0.6,0.8,1.2,0.8s0.9-0.3,1.2-0.8c0.2-0.5,0.4-1.3,0.4-2.5c0-1.1-0.1-2-0.4-2.5c-0.2-0.5-0.6-0.8-1.2-0.8s-0.9,0.3-1.2,0.8
		S80.4,139.6,80.4,140.7z"/>
	<path id="XMLID_43_" d="M44.9,156.1c0-1,0.2-2,0.5-2.9s0.7-1.7,1.3-2.4h1.2c-0.5,0.7-1,1.6-1.2,2.5s-0.4,1.8-0.4,2.8
		s0.1,1.9,0.4,2.8s0.7,1.7,1.2,2.4h-1.2c-0.6-0.7-1-1.4-1.3-2.3C45.1,158.1,44.9,157.1,44.9,156.1z"/>
	<path id="XMLID_45_" d="M49.8,159.4l3.4-7.3h-4.5v-1.2h5.9v1l-3.4,7.6H49.8z"/>
	<path id="XMLID_47_" d="M61.5,155.1c0,1.5-0.2,2.6-0.7,3.3s-1.2,1.1-2.2,1.1c-1,0-1.7-0.4-2.2-1.1s-0.7-1.8-0.7-3.3
		c0-1.5,0.2-2.6,0.7-3.3s1.2-1.1,2.2-1.1c1,0,1.7,0.4,2.2,1.1S61.5,153.7,61.5,155.1z M57,155.1c0,1.2,0.1,2,0.4,2.5
		s0.6,0.8,1.2,0.8s0.9-0.3,1.2-0.8s0.4-1.3,0.4-2.5c0-1.1-0.1-2-0.4-2.5s-0.6-0.8-1.2-0.8s-0.9,0.3-1.2,0.8S57,154,57,155.1z"/>
	<path id="XMLID_50_" d="M64.3,159.4H63v-9.1h1.4V159.4z"/>
	<path id="XMLID_52_" d="M69.6,152.8c0.8,0,1.4,0.3,1.9,0.9s0.7,1.4,0.7,2.5c0,1.1-0.2,1.9-0.7,2.5s-1.1,0.9-1.9,0.9
		c-0.8,0-1.5-0.3-1.9-0.9h-0.1l-0.3,0.8h-1v-9.1h1.4v2.2c0,0.2,0,0.4,0,0.7s0,0.5,0,0.6h0.1C68.1,153.1,68.8,152.8,69.6,152.8z
		 M69.3,153.9c-0.6,0-1,0.2-1.2,0.5s-0.4,0.9-0.4,1.6v0.1c0,0.8,0.1,1.4,0.4,1.7s0.7,0.5,1.2,0.5c0.5,0,0.9-0.2,1.1-0.6
		s0.4-0.9,0.4-1.7C70.8,154.7,70.3,153.9,69.3,153.9z"/>
	<path id="XMLID_55_" d="M78.1,157.6c0,0.6-0.2,1.1-0.7,1.5s-1.1,0.5-2,0.5c-0.9,0-1.6-0.1-2.1-0.4v-1.2c0.8,0.4,1.5,0.5,2.1,0.5
		c0.8,0,1.3-0.3,1.3-0.8c0-0.2,0-0.3-0.1-0.4s-0.2-0.2-0.5-0.3s-0.5-0.3-0.9-0.4c-0.7-0.3-1.3-0.6-1.5-0.9s-0.4-0.7-0.4-1.1
		c0-0.6,0.2-1,0.7-1.3s1.1-0.5,1.8-0.5c0.8,0,1.5,0.2,2.2,0.5l-0.4,1c-0.7-0.3-1.3-0.4-1.8-0.4c-0.7,0-1.1,0.2-1.1,0.6
		c0,0.2,0.1,0.4,0.3,0.5s0.6,0.3,1.2,0.6c0.5,0.2,0.9,0.4,1.2,0.6s0.4,0.4,0.5,0.6S78.1,157.3,78.1,157.6z"/>
	<path id="XMLID_57_" d="M83.2,150.8l-3.2,8.6h-1.3l3.2-8.6H83.2z"/>
	<path id="XMLID_59_" d="M88.7,157.6c0,0.6-0.2,1.1-0.7,1.5s-1.1,0.5-2,0.5c-0.9,0-1.6-0.1-2.1-0.4v-1.2c0.8,0.4,1.5,0.5,2.1,0.5
		c0.8,0,1.3-0.3,1.3-0.8c0-0.2,0-0.3-0.1-0.4s-0.2-0.2-0.5-0.3s-0.5-0.3-0.9-0.4c-0.7-0.3-1.3-0.6-1.5-0.9s-0.4-0.7-0.4-1.1
		c0-0.6,0.2-1,0.7-1.3s1.1-0.5,1.8-0.5c0.8,0,1.5,0.2,2.2,0.5l-0.4,1c-0.7-0.3-1.3-0.4-1.8-0.4c-0.7,0-1.1,0.2-1.1,0.6
		c0,0.2,0.1,0.4,0.3,0.5s0.6,0.3,1.2,0.6c0.5,0.2,0.9,0.4,1.2,0.6s0.4,0.4,0.5,0.6S88.7,157.3,88.7,157.6z"/>
	<path id="XMLID_61_" d="M93.4,154h-1.6v5.4h-1.4V154h-1.1v-0.6l1.1-0.4v-0.4c0-0.8,0.2-1.3,0.5-1.7s0.9-0.6,1.6-0.6
		c0.5,0,1,0.1,1.4,0.2l-0.4,1c-0.3-0.1-0.7-0.2-1-0.2c-0.3,0-0.5,0.1-0.7,0.3s-0.2,0.5-0.2,0.9v0.4h1.6V154z"/>
	<path id="XMLID_63_" d="M96.8,156.1c0,1-0.2,2-0.5,2.9s-0.7,1.7-1.3,2.3h-1.2c0.5-0.7,1-1.5,1.2-2.4s0.4-1.8,0.4-2.8
		c0-1-0.1-1.9-0.4-2.8s-0.7-1.7-1.2-2.5h1.2c0.6,0.7,1,1.5,1.3,2.4S96.8,155.1,96.8,156.1z"/>
</g>
</svg>
