<?xml version="1.0" encoding="utf-8"?>
<!-- Generator: Adobe Illustrator 19.0.0, SVG Export Plug-In . SVG Version: 6.00 Build 0)  -->
<svg version="1.1" id="Layer_1" xmlns="http://www.w3.org/2000/svg" xmlns:xlink="http://www.w3.org/1999/xlink" x="0px" y="0px"
	 viewBox="0 0 194.4 101.3" style="enable-background:new 0 0 194.4 101.3;" xml:space="preserve">
<style type="text/css">
	.st0{stroke:#000000;stroke-miterlimit:10;}
</style>
<g id="XMLID_1_">
</g>
<g id="XMLID_2_">
</g>
<g id="XMLID_6_">
	<path id="XMLID_148_" class="st0" d="M141.4,99.8H0.6l0.1-0.6l18.6-76.7h103.5L141.4,99.8z M1.9,98.8h138.2l-18-75.3h-102L1.9,98.8
		z"/>
</g>
<g id="XMLID_5_">
	<g id="XMLID_8_">
		<path id="XMLID_9_" d="M140,100.6l-18.8-79l30.5-21.3c0.5-0.3,1.2-0.2,1.5,0.3l41.1,57l-52.7,43.6
			C141.1,101.6,140.2,101.3,140,100.6z M123.5,22.4l18.1,76.1l50-41.4L152.1,2.4L123.5,22.4z"/>
	</g>
</g>
<g id="XMLID_3_">
	<g id="XMLID_12_">
		<path id="XMLID_13_" d="M123.6,23H19c-1,0-1.4-1.3-0.5-1.9L55.4,0h97.8c1,0,1.4,1.3,0.6,1.9L123.6,23z M22.8,21H123l27.1-19H55.9
			L22.8,21z"/>
	</g>
</g>
<g id="XMLID_7_">
	<g id="XMLID_16_">
		<path id="XMLID_17_" d="M71.1,84.9c-2.2,0-3.9-1.8-3.9-3.9c0-2.2,1.8-3.9,3.9-3.9S75,78.8,75,81C75,83.2,73.2,84.9,71.1,84.9z
			 M71.1,79.1c-1.1,0-1.9,0.9-1.9,1.9s0.9,1.9,1.9,1.9S73,82.1,73,81S72.1,79.1,71.1,79.1z"/>
	</g>
</g>
</svg>
