<?xml version="1.0" encoding="utf-8"?>
<!-- Generator: Adobe Illustrator 21.0.2, SVG Export Plug-In . SVG Version: 6.00 Build 0)  -->
<svg version="1.1" id="Layer_1" xmlns="http://www.w3.org/2000/svg" xmlns:xlink="http://www.w3.org/1999/xlink" x="0px" y="0px"
	 viewBox="0 0 281 147.6" style="enable-background:new 0 0 281 147.6;" xml:space="preserve">
<g id="XMLID_1_">
</g>
<g id="XMLID_2_">
</g>
<g id="XMLID_73_">
	<path d="M101.9,121.2c-0.4,0.2-1.2,0.4-2.1,0.4c-2.3,0-4-1.4-4-4.1c0-2.5,1.7-4.2,4.2-4.2c1,0,1.6,0.2,1.9,0.4l-0.3,0.9
		c-0.4-0.2-1-0.3-1.6-0.3c-1.9,0-3.2,1.2-3.2,3.3c0,2,1.1,3.3,3.1,3.3c0.6,0,1.3-0.1,1.7-0.3L101.9,121.2z"/>
	<path d="M108.6,121.2c-0.4,0.2-1.2,0.4-2.1,0.4c-2.3,0-4-1.4-4-4.1c0-2.5,1.7-4.2,4.2-4.2c1,0,1.6,0.2,1.9,0.4l-0.3,0.9
		c-0.4-0.2-1-0.3-1.6-0.3c-1.9,0-3.2,1.2-3.2,3.3c0,2,1.1,3.3,3.1,3.3c0.6,0,1.3-0.1,1.7-0.3L108.6,121.2z"/>
	<path d="M110.1,120.7c0.2,0,0.5,0,0.9,0c0.6-0.1,1.2-0.3,1.6-0.8c0.5-0.5,0.9-1.2,1-2.1h0c-0.4,0.5-1.1,0.8-1.8,0.8
		c-1.4,0-2.3-1.1-2.3-2.4c0-1.5,1.1-2.8,2.7-2.8c1.6,0,2.6,1.3,2.6,3.3c0,1.7-0.6,2.9-1.3,3.7c-0.6,0.6-1.4,0.9-2.3,1
		c-0.4,0.1-0.7,0.1-1,0.1V120.7z M110.5,116.2c0,1,0.6,1.7,1.5,1.7c0.7,0,1.3-0.3,1.5-0.8c0.1-0.1,0.1-0.2,0.1-0.4
		c0-1.3-0.5-2.4-1.6-2.4C111.1,114.3,110.5,115.1,110.5,116.2z"/>
	<path d="M120.8,117.5c0,2.7-1,4.1-2.7,4.1c-1.5,0-2.6-1.4-2.6-4c0-2.6,1.1-4.1,2.7-4.1C119.9,113.5,120.8,115,120.8,117.5z
		 M116.6,117.6c0,2,0.6,3.2,1.6,3.2c1.1,0,1.6-1.3,1.6-3.3c0-1.9-0.5-3.2-1.6-3.2C117.3,114.4,116.6,115.5,116.6,117.6z"/>
	<path d="M87.9,127.5c-0.9,1.2-1.5,2.7-1.5,4.9c0,2.1,0.7,3.7,1.5,4.9h-0.8c-0.8-1-1.6-2.5-1.6-4.9c0-2.4,0.8-3.9,1.6-4.9H87.9z"/>
	<path d="M89.3,135.1c0.2,0,0.5,0,0.9,0c0.6-0.1,1.2-0.3,1.6-0.8c0.5-0.5,0.9-1.2,1-2.1h0c-0.4,0.5-1.1,0.8-1.8,0.8
		c-1.4,0-2.3-1.1-2.3-2.4c0-1.5,1.1-2.8,2.7-2.8c1.6,0,2.6,1.3,2.6,3.3c0,1.7-0.6,2.9-1.3,3.7c-0.6,0.6-1.4,0.9-2.3,1
		c-0.4,0.1-0.7,0.1-1,0.1V135.1z M89.7,130.6c0,1,0.6,1.7,1.5,1.7c0.7,0,1.3-0.3,1.5-0.8c0.1-0.1,0.1-0.2,0.1-0.4
		c0-1.3-0.5-2.4-1.6-2.4C90.3,128.7,89.7,129.5,89.7,130.6z"/>
	<path d="M100,131.9c0,2.7-1,4.1-2.7,4.1c-1.5,0-2.6-1.4-2.6-4c0-2.6,1.1-4.1,2.7-4.1C99.1,127.9,100,129.4,100,131.9z M95.8,132
		c0,2,0.6,3.2,1.6,3.2c1.1,0,1.6-1.3,1.6-3.3c0-1.9-0.5-3.2-1.6-3.2C96.4,128.8,95.8,129.9,95.8,132z"/>
	<path d="M101.3,127.4h1.1v8.5h-1.1V127.4z"/>
	<path d="M104.1,135.9c0-0.4,0-1,0-1.5v-7h1v3.6h0c0.4-0.6,1-1.1,2-1.1c1.4,0,2.5,1.2,2.4,3c0,2.1-1.3,3.1-2.6,3.1
		c-0.8,0-1.5-0.3-1.9-1.1h0l0,1H104.1z M105.2,133.5c0,0.1,0,0.3,0,0.4c0.2,0.7,0.8,1.2,1.6,1.2c1.1,0,1.8-0.9,1.8-2.2
		c0-1.2-0.6-2.2-1.7-2.2c-0.7,0-1.4,0.5-1.6,1.3c0,0.1-0.1,0.3-0.1,0.4V133.5z"/>
	<path d="M110.8,134.8c0.3,0.2,0.9,0.4,1.4,0.4c0.8,0,1.1-0.4,1.1-0.9c0-0.5-0.3-0.8-1.1-1.1c-1-0.4-1.5-0.9-1.5-1.6
		c0-0.9,0.8-1.7,2-1.7c0.6,0,1.1,0.2,1.4,0.4l-0.3,0.8c-0.2-0.1-0.6-0.3-1.2-0.3c-0.6,0-1,0.4-1,0.8c0,0.5,0.3,0.7,1.1,1
		c1,0.4,1.5,0.9,1.5,1.8c0,1-0.8,1.7-2.2,1.7c-0.6,0-1.2-0.2-1.6-0.4L110.8,134.8z"/>
	<path d="M114.8,136.4l3.3-8.7h0.8l-3.4,8.7H114.8z"/>
	<path d="M119.7,134.8c0.3,0.2,0.9,0.4,1.4,0.4c0.8,0,1.1-0.4,1.1-0.9c0-0.5-0.3-0.8-1.1-1.1c-1-0.4-1.5-0.9-1.5-1.6
		c0-0.9,0.8-1.7,2-1.7c0.6,0,1.1,0.2,1.4,0.4l-0.3,0.8c-0.2-0.1-0.6-0.3-1.2-0.3c-0.6,0-1,0.4-1,0.8c0,0.5,0.3,0.7,1.1,1
		c1,0.4,1.5,0.9,1.5,1.8c0,1-0.8,1.7-2.2,1.7c-0.6,0-1.2-0.2-1.6-0.4L119.7,134.8z"/>
	<path d="M124.7,135.9v-5h-0.8v-0.8h0.8v-0.3c0-0.8,0.2-1.6,0.7-2c0.4-0.4,0.9-0.5,1.4-0.5c0.4,0,0.7,0.1,0.9,0.2l-0.1,0.8
		c-0.2-0.1-0.4-0.1-0.7-0.1c-0.9,0-1.1,0.8-1.1,1.7v0.3h1.4v0.8h-1.4v5H124.7z"/>
	<path d="M128.7,137.3c0.9-1.2,1.5-2.7,1.5-4.9c0-2.1-0.6-3.7-1.5-4.9h0.8c0.8,1,1.6,2.5,1.6,4.9c0,2.4-0.8,3.9-1.6,4.9H128.7z"/>
</g>
<g id="XMLID_40_">
	<path d="M205.2,71.1H1c-0.6,0-1-0.4-1-1s0.4-1,1-1h204.2c0.6,0,1,0.4,1,1S205.8,71.1,205.2,71.1z"/>
</g>
<g id="XMLID_39_">
	<path d="M1,71.1c-0.1,0-0.2,0-0.2,0c-0.5-0.1-0.9-0.7-0.7-1.2L12.7,16c0.1-0.5,0.5-0.8,1-0.8h178.9c0.6,0,1,0.4,1,1s-0.4,1-1,1
		H14.5L2,70.3C1.9,70.8,1.5,71.1,1,71.1z"/>
</g>
<g id="XMLID_38_">
	<path d="M50.1,60c-0.9,0-1.7-0.8-1.7-1.7c0-0.9,0.8-1.7,1.7-1.7s1.7,0.8,1.7,1.7C51.8,59.3,51,60,50.1,60z M50.1,58.1
		c-0.1,0-0.2,0.1-0.2,0.2c0,0.2,0.4,0.2,0.4,0C50.3,58.2,50.2,58.1,50.1,58.1z"/>
</g>
<g id="XMLID_36_">
	<path d="M156.1,60c-0.9,0-1.7-0.8-1.7-1.7c0-0.9,0.8-1.7,1.7-1.7c0.9,0,1.7,0.8,1.7,1.7C157.8,59.3,157.1,60,156.1,60z M156.1,58.1
		c-0.1,0-0.2,0.1-0.2,0.2c0,0.2,0.4,0.2,0.4,0C156.3,58.2,156.3,58.1,156.1,58.1z"/>
</g>
<g id="XMLID_35_">
	<path d="M229.3,17h-36.7c-0.4,0-0.8-0.3-0.8-0.8s0.3-0.8,0.8-0.8h36.7c0.4,0,0.8,0.3,0.8,0.8S229.7,17,229.3,17z"/>
</g>
<g id="XMLID_34_">
	<path d="M229,70.8h-23.5c-0.4,0-0.8-0.3-0.8-0.8s0.3-0.8,0.8-0.8H229c0.4,0,0.8,0.3,0.8,0.8S229.4,70.8,229,70.8z"/>
</g>
<g id="XMLID_33_">
	<path d="M226.1,64.1c-0.2,0-0.4-0.2-0.4-0.4V22.6c0-0.2,0.2-0.4,0.4-0.4s0.4,0.2,0.4,0.4v41.1C226.4,63.9,226.3,64.1,226.1,64.1z"
		/>
</g>
<g id="XMLID_31_">
	<path d="M253.6,35.5c-0.3-0.1-0.6-0.3-0.7-0.5s-0.2-0.5-0.2-0.8c0-0.5,0.2-0.8,0.5-1.2s0.8-0.5,1.3-0.5c0.6,0,1,0.2,1.3,0.5
		c0.3,0.3,0.5,0.7,0.5,1.2c0,0.3-0.1,0.5-0.2,0.8c-0.2,0.2-0.4,0.4-0.7,0.5c0.4,0.1,0.7,0.3,0.9,0.6s0.3,0.6,0.3,1
		c0,0.5-0.2,1-0.6,1.4c-0.4,0.4-0.9,0.6-1.5,0.6s-1.1-0.2-1.5-0.6c-0.4-0.4-0.6-0.8-0.6-1.4c0-0.4,0.1-0.8,0.3-1
		S253.2,35.6,253.6,35.5z M253.2,37.1c0,0.2,0.1,0.4,0.2,0.6c0.1,0.2,0.3,0.4,0.5,0.5c0.2,0.1,0.4,0.2,0.7,0.2
		c0.4,0,0.7-0.1,0.9-0.4c0.2-0.2,0.4-0.5,0.4-0.9c0-0.4-0.1-0.7-0.4-0.9c-0.2-0.2-0.6-0.4-0.9-0.4c-0.4,0-0.7,0.1-0.9,0.4
		C253.3,36.4,253.2,36.7,253.2,37.1z M253.5,34.1c0,0.3,0.1,0.5,0.3,0.7c0.2,0.2,0.4,0.3,0.8,0.3c0.3,0,0.5-0.1,0.7-0.3
		s0.3-0.4,0.3-0.7c0-0.3-0.1-0.5-0.3-0.7s-0.4-0.3-0.7-0.3c-0.3,0-0.5,0.1-0.7,0.3C253.5,33.6,253.5,33.9,253.5,34.1z"/>
	<path d="M257.8,38.9V38h0.9v0.9H257.8z"/>
	<path d="M259.8,37.2l0.8-0.1c0.1,0.4,0.2,0.7,0.4,0.9c0.2,0.2,0.5,0.3,0.8,0.3c0.4,0,0.7-0.1,1-0.4c0.3-0.3,0.4-0.7,0.4-1.1
		c0-0.4-0.1-0.8-0.4-1s-0.6-0.4-1-0.4c-0.3,0-0.5,0.1-0.7,0.2c-0.2,0.1-0.4,0.3-0.5,0.4l-0.7-0.1l0.6-3.3h3.1v0.7h-2.5l-0.3,1.7
		c0.4-0.3,0.8-0.4,1.2-0.4c0.6,0,1,0.2,1.4,0.6c0.4,0.4,0.6,0.9,0.6,1.5c0,0.6-0.2,1.1-0.5,1.5c-0.4,0.5-1,0.8-1.7,0.8
		c-0.6,0-1-0.2-1.4-0.5C260,38.2,259.8,37.8,259.8,37.2z"/>
	<path d="M265,34.8l-0.2-1.2v-1h0.9v1l-0.2,1.2H265z M266.4,34.8l-0.2-1.2v-1h0.9v1l-0.2,1.2H266.4z"/>
</g>
<g id="XMLID_30_">
	<path d="M240.3,51.4c-0.4-0.5-0.8-1.2-1.1-1.9s-0.4-1.5-0.4-2.3c0-0.7,0.1-1.3,0.3-2c0.3-0.7,0.7-1.5,1.2-2.2h0.6
		c-0.3,0.6-0.6,1-0.7,1.3c-0.2,0.4-0.3,0.8-0.4,1.2c-0.1,0.5-0.2,1.1-0.2,1.6c0,1.4,0.4,2.8,1.3,4.2H240.3z"/>
	<path d="M245.6,48.8v0.7h-4.2c0-0.2,0-0.4,0.1-0.5c0.1-0.3,0.3-0.6,0.5-0.8c0.2-0.3,0.6-0.6,1-1c0.7-0.6,1.2-1,1.4-1.3
		c0.2-0.3,0.4-0.6,0.4-0.9c0-0.3-0.1-0.6-0.3-0.8c-0.2-0.2-0.5-0.3-0.9-0.3c-0.4,0-0.7,0.1-0.9,0.3s-0.3,0.5-0.3,0.9l-0.8-0.1
		c0.1-0.6,0.3-1.1,0.6-1.4s0.8-0.5,1.4-0.5c0.6,0,1.1,0.2,1.4,0.5s0.5,0.8,0.5,1.3c0,0.3-0.1,0.5-0.2,0.7c-0.1,0.2-0.3,0.5-0.5,0.8
		c-0.2,0.3-0.6,0.6-1.2,1.1c-0.5,0.4-0.8,0.7-0.9,0.8s-0.2,0.3-0.3,0.4H245.6z"/>
	<path d="M249.4,49.5h-0.8v-5c-0.2,0.2-0.4,0.4-0.7,0.5c-0.3,0.2-0.6,0.3-0.8,0.4v-0.8c0.4-0.2,0.8-0.5,1.1-0.7
		c0.3-0.3,0.6-0.6,0.7-0.8h0.5V49.5z"/>
	<path d="M251.4,47.9l0.8-0.1c0.1,0.4,0.2,0.7,0.4,0.9c0.2,0.2,0.5,0.3,0.8,0.3c0.4,0,0.7-0.1,1-0.4c0.3-0.3,0.4-0.7,0.4-1.1
		c0-0.4-0.1-0.8-0.4-1s-0.6-0.4-1-0.4c-0.3,0-0.5,0.1-0.7,0.2c-0.2,0.1-0.4,0.3-0.5,0.4l-0.7-0.1l0.6-3.3h3.1V44h-2.5l-0.3,1.7
		c0.4-0.3,0.8-0.4,1.2-0.4c0.6,0,1,0.2,1.4,0.6c0.4,0.4,0.6,0.9,0.6,1.5c0,0.6-0.2,1.1-0.5,1.5c-0.4,0.5-1,0.8-1.7,0.8
		c-0.6,0-1-0.2-1.4-0.5C251.7,48.8,251.5,48.4,251.4,47.9z"/>
	<path d="M256.8,49.5v-0.9h0.9v0.9H256.8z"/>
	<path d="M258.9,48l0.7-0.1c0.1,0.4,0.2,0.6,0.4,0.8c0.2,0.2,0.4,0.2,0.7,0.2c0.2,0,0.4-0.1,0.6-0.2s0.3-0.3,0.4-0.4
		c0.1-0.2,0.2-0.4,0.3-0.7c0.1-0.3,0.1-0.6,0.1-1c0,0,0-0.1,0-0.2c-0.2,0.2-0.4,0.4-0.6,0.6c-0.3,0.2-0.6,0.2-0.9,0.2
		c-0.5,0-1-0.2-1.3-0.6c-0.4-0.4-0.5-0.9-0.5-1.5c0-0.6,0.2-1.2,0.6-1.6c0.4-0.4,0.9-0.6,1.4-0.6c0.4,0,0.8,0.1,1.1,0.3
		c0.3,0.2,0.6,0.5,0.8,0.9c0.2,0.4,0.3,1,0.3,1.8c0,0.8-0.1,1.5-0.3,1.9s-0.4,0.8-0.8,1.1s-0.8,0.4-1.2,0.4c-0.5,0-0.9-0.1-1.2-0.4
		C259.1,48.9,259,48.5,258.9,48z M262.1,45.3c0-0.4-0.1-0.8-0.4-1.1s-0.5-0.4-0.9-0.4c-0.3,0-0.6,0.1-0.9,0.4
		c-0.3,0.3-0.4,0.6-0.4,1.1c0,0.4,0.1,0.7,0.4,1s0.5,0.4,0.9,0.4c0.4,0,0.7-0.1,0.9-0.4S262.1,45.7,262.1,45.3z"/>
	<path d="M263.9,49.5v-4.6h0.7v0.6c0.1-0.2,0.3-0.4,0.6-0.5c0.2-0.1,0.5-0.2,0.8-0.2c0.3,0,0.6,0.1,0.8,0.2c0.2,0.1,0.4,0.3,0.5,0.6
		c0.4-0.5,0.8-0.8,1.4-0.8c0.5,0,0.8,0.1,1,0.4c0.2,0.3,0.4,0.6,0.4,1.2v3.1h-0.8v-2.9c0-0.3,0-0.5-0.1-0.7
		c-0.1-0.1-0.1-0.2-0.3-0.3c-0.1-0.1-0.3-0.1-0.5-0.1c-0.3,0-0.6,0.1-0.8,0.3c-0.2,0.2-0.3,0.6-0.3,1v2.7h-0.8v-3
		c0-0.3-0.1-0.6-0.2-0.8c-0.1-0.2-0.3-0.3-0.6-0.3c-0.2,0-0.4,0.1-0.6,0.2s-0.3,0.3-0.4,0.5c-0.1,0.2-0.1,0.5-0.1,1v2.4H263.9z"/>
	<path d="M271.3,49.5v-4.6h0.7v0.6c0.1-0.2,0.3-0.4,0.6-0.5c0.2-0.1,0.5-0.2,0.8-0.2c0.3,0,0.6,0.1,0.8,0.2c0.2,0.1,0.4,0.3,0.5,0.6
		c0.4-0.5,0.8-0.8,1.4-0.8c0.5,0,0.8,0.1,1,0.4c0.2,0.3,0.4,0.6,0.4,1.2v3.1h-0.8v-2.9c0-0.3,0-0.5-0.1-0.7
		c-0.1-0.1-0.1-0.2-0.3-0.3c-0.1-0.1-0.3-0.1-0.5-0.1c-0.3,0-0.6,0.1-0.8,0.3c-0.2,0.2-0.3,0.6-0.3,1v2.7H274v-3
		c0-0.3-0.1-0.6-0.2-0.8c-0.1-0.2-0.3-0.3-0.6-0.3c-0.2,0-0.4,0.1-0.6,0.2s-0.3,0.3-0.4,0.5c-0.1,0.2-0.1,0.5-0.1,1v2.4H271.3z"/>
	<path d="M279.2,51.4h-0.6c0.9-1.4,1.3-2.8,1.3-4.2c0-0.5-0.1-1.1-0.2-1.6c-0.1-0.4-0.2-0.8-0.4-1.2c-0.1-0.3-0.3-0.7-0.7-1.3h0.6
		c0.5,0.7,0.9,1.4,1.2,2.2c0.2,0.6,0.3,1.3,0.3,2c0,0.8-0.1,1.5-0.4,2.3C279.9,50.2,279.6,50.8,279.2,51.4z"/>
</g>
<g id="XMLID_29_">
	<polygon points="225.1,22.6 227.2,22.6 226.1,16.3 	"/>
</g>
<g id="XMLID_26_">
	<path d="M226.1,70.7L224.2,59h3.9L226.1,70.7z M226,60.5l0.2,1l0.2-1H226z"/>
</g>
<g id="XMLID_23_">
	<path d="M205.2,97.9c-0.4,0-0.8-0.3-0.8-0.8V76.4c0-0.4,0.3-0.8,0.8-0.8s0.8,0.3,0.8,0.8v20.7C205.9,97.5,205.6,97.9,205.2,97.9z"
		/>
</g>
<g id="XMLID_6_">
	<path d="M7.4,97.9c-0.4,0-0.8-0.3-0.8-0.8V76.4c0-0.4,0.3-0.8,0.8-0.8s0.8,0.3,0.8,0.8v20.7C8.1,97.5,7.8,97.9,7.4,97.9z"/>
</g>
<g id="XMLID_22_">
	<path d="M78.9,94.7H7.4c-0.4,0-0.8-0.3-0.8-0.8s0.3-0.8,0.8-0.8h71.5c0.4,0,0.8,0.3,0.8,0.8S79.3,94.7,78.9,94.7z"/>
</g>
<g id="XMLID_21_">
	<path d="M198.9,94.7h-71.5c-0.4,0-0.8-0.3-0.8-0.8s0.3-0.8,0.8-0.8h71.5c0.4,0,0.8,0.3,0.8,0.8S199.3,94.7,198.9,94.7z"/>
</g>
<g id="XMLID_20_">
	<polygon points="198.9,92.9 198.9,95 205.2,93.9 	"/>
</g>
<g id="XMLID_19_">
	<path d="M194.2,95.9v-4l11.4,2L194.2,95.9z M195.7,93.7v0.4l1.1-0.2L195.7,93.7z"/>
</g>
<g id="XMLID_7_">
	<path d="M17.8,96.1L5.7,93.9l12.1-2.1V96.1z M14.5,93.9l1.9,0.3v-0.7L14.5,93.9z"/>
</g>
<g id="XMLID_17_">
	<path d="M93.3,90.1l0.8-0.1c0.1,0.4,0.2,0.8,0.5,1s0.5,0.3,0.8,0.3c0.4,0,0.7-0.1,0.9-0.4c0.3-0.3,0.4-0.6,0.4-0.9
		c0-0.4-0.1-0.7-0.4-0.9s-0.5-0.3-0.9-0.3c-0.1,0-0.3,0-0.5,0.1l0.1-0.7c0.1,0,0.1,0,0.1,0c0.3,0,0.6-0.1,0.9-0.3
		c0.3-0.2,0.4-0.4,0.4-0.8c0-0.3-0.1-0.5-0.3-0.7c-0.2-0.2-0.4-0.3-0.7-0.3c-0.3,0-0.6,0.1-0.8,0.3c-0.2,0.2-0.3,0.5-0.4,0.9
		l-0.8-0.1c0.1-0.5,0.3-0.9,0.6-1.2c0.3-0.3,0.8-0.4,1.3-0.4c0.3,0,0.7,0.1,1,0.2s0.5,0.4,0.7,0.6c0.2,0.3,0.2,0.5,0.2,0.8
		c0,0.3-0.1,0.5-0.2,0.7c-0.1,0.2-0.4,0.4-0.7,0.5c0.4,0.1,0.7,0.3,0.9,0.5s0.3,0.6,0.3,1c0,0.6-0.2,1-0.6,1.4
		c-0.4,0.4-0.9,0.6-1.5,0.6c-0.6,0-1-0.2-1.4-0.5S93.4,90.6,93.3,90.1z"/>
	<path d="M101.1,91.8h-0.8v-5c-0.2,0.2-0.4,0.4-0.7,0.5c-0.3,0.2-0.6,0.3-0.8,0.4V87c0.4-0.2,0.8-0.5,1.1-0.7
		c0.3-0.3,0.6-0.6,0.7-0.8h0.5V91.8z"/>
	<path d="M103.6,91.8v-0.9h0.9v0.9H103.6z"/>
	<path d="M109.6,87l-0.8,0.1c-0.1-0.3-0.2-0.5-0.3-0.7c-0.2-0.2-0.5-0.3-0.8-0.3c-0.2,0-0.5,0.1-0.7,0.2c-0.2,0.2-0.4,0.4-0.6,0.8
		c-0.1,0.3-0.2,0.8-0.2,1.5c0.2-0.3,0.4-0.5,0.7-0.6c0.3-0.1,0.6-0.2,0.9-0.2c0.5,0,1,0.2,1.3,0.6s0.5,0.9,0.5,1.5
		c0,0.4-0.1,0.8-0.3,1.1c-0.2,0.3-0.4,0.6-0.7,0.8c-0.3,0.2-0.6,0.3-1,0.3c-0.6,0-1.2-0.2-1.6-0.7c-0.4-0.5-0.6-1.3-0.6-2.4
		c0-1.2,0.2-2.1,0.7-2.7c0.4-0.5,0.9-0.7,1.6-0.7c0.5,0,0.9,0.1,1.2,0.4C109.4,86.1,109.6,86.5,109.6,87z M106.5,89.7
		c0,0.3,0.1,0.5,0.2,0.8c0.1,0.2,0.3,0.4,0.5,0.6c0.2,0.1,0.4,0.2,0.6,0.2c0.3,0,0.6-0.1,0.8-0.4c0.2-0.3,0.4-0.6,0.4-1.1
		c0-0.4-0.1-0.8-0.3-1s-0.5-0.4-0.9-0.4c-0.4,0-0.6,0.1-0.9,0.4S106.5,89.3,106.5,89.7z"/>
	<path d="M110.8,87.7l-0.2-1.2v-1h0.9v1l-0.2,1.2H110.8z M112.2,87.7l-0.2-1.2v-1h0.9v1l-0.2,1.2H112.2z"/>
</g>
<g id="XMLID_3_">
	<path d="M86.3,99c-0.3-0.1-0.6-0.3-0.7-0.5s-0.2-0.5-0.2-0.8c0-0.5,0.2-0.8,0.5-1.2c0.3-0.3,0.8-0.5,1.3-0.5c0.6,0,1,0.2,1.3,0.5
		c0.3,0.3,0.5,0.7,0.5,1.2c0,0.3-0.1,0.5-0.2,0.8c-0.2,0.2-0.4,0.4-0.7,0.5c0.4,0.1,0.7,0.3,0.9,0.6s0.3,0.6,0.3,1
		c0,0.5-0.2,1-0.6,1.4c-0.4,0.4-0.9,0.6-1.5,0.6s-1.1-0.2-1.5-0.6s-0.6-0.8-0.6-1.4c0-0.4,0.1-0.8,0.3-1
		C85.6,99.2,85.9,99.1,86.3,99z M85.9,100.6c0,0.2,0.1,0.4,0.2,0.6c0.1,0.2,0.3,0.4,0.5,0.5c0.2,0.1,0.4,0.2,0.7,0.2
		c0.4,0,0.7-0.1,0.9-0.4c0.2-0.2,0.4-0.5,0.4-0.9c0-0.4-0.1-0.7-0.4-0.9c-0.2-0.2-0.6-0.4-0.9-0.4c-0.4,0-0.7,0.1-0.9,0.4
		C86,99.9,85.9,100.2,85.9,100.6z M86.2,97.6c0,0.3,0.1,0.5,0.3,0.7c0.2,0.2,0.4,0.3,0.8,0.3c0.3,0,0.5-0.1,0.7-0.3s0.3-0.4,0.3-0.7
		c0-0.3-0.1-0.5-0.3-0.7s-0.4-0.3-0.7-0.3c-0.3,0-0.5,0.1-0.7,0.3C86.3,97.1,86.2,97.4,86.2,97.6z"/>
	<path d="M90.1,99.3c0-0.7,0.1-1.4,0.2-1.8c0.2-0.5,0.4-0.8,0.7-1.1c0.3-0.2,0.7-0.4,1.1-0.4c0.3,0,0.6,0.1,0.9,0.2
		c0.3,0.1,0.5,0.3,0.6,0.6c0.2,0.3,0.3,0.6,0.4,0.9c0.1,0.4,0.1,0.9,0.1,1.5c0,0.7-0.1,1.3-0.2,1.8c-0.2,0.5-0.4,0.8-0.7,1.1
		s-0.7,0.4-1.2,0.4c-0.6,0-1.1-0.2-1.4-0.7C90.3,101.3,90.1,100.5,90.1,99.3z M90.9,99.3c0,1,0.1,1.7,0.4,2.1
		c0.2,0.3,0.5,0.5,0.9,0.5s0.7-0.2,0.9-0.5s0.4-1,0.4-2.1c0-1-0.1-1.7-0.4-2.1s-0.5-0.5-0.9-0.5c-0.4,0-0.6,0.2-0.9,0.5
		C91,97.5,90.9,98.2,90.9,99.3z"/>
	<path d="M99.1,101.6v0.7h-4.2c0-0.2,0-0.4,0.1-0.5c0.1-0.3,0.3-0.6,0.5-0.8c0.2-0.3,0.6-0.6,1-1c0.7-0.6,1.2-1,1.4-1.3
		c0.2-0.3,0.4-0.6,0.4-0.9c0-0.3-0.1-0.6-0.3-0.8c-0.2-0.2-0.5-0.3-0.9-0.3c-0.4,0-0.7,0.1-0.9,0.3s-0.3,0.5-0.3,0.9L95,97.9
		c0.1-0.6,0.3-1.1,0.6-1.4s0.8-0.5,1.4-0.5c0.6,0,1.1,0.2,1.4,0.5s0.5,0.8,0.5,1.3c0,0.3-0.1,0.5-0.2,0.7c-0.1,0.2-0.3,0.5-0.5,0.8
		c-0.2,0.3-0.6,0.6-1.2,1.1c-0.5,0.4-0.8,0.7-0.9,0.8s-0.2,0.3-0.3,0.4H99.1z"/>
	<path d="M100.3,102.4v-0.9h0.9v0.9H100.3z"/>
	<path d="M106.4,97.6l-0.8,0.1c-0.1-0.3-0.2-0.5-0.3-0.7c-0.2-0.2-0.5-0.3-0.8-0.3c-0.2,0-0.5,0.1-0.7,0.2c-0.2,0.2-0.4,0.4-0.6,0.8
		c-0.1,0.3-0.2,0.8-0.2,1.5c0.2-0.3,0.4-0.5,0.7-0.6c0.3-0.1,0.6-0.2,0.9-0.2c0.5,0,1,0.2,1.3,0.6s0.5,0.9,0.5,1.5
		c0,0.4-0.1,0.8-0.3,1.1c-0.2,0.3-0.4,0.6-0.7,0.8c-0.3,0.2-0.6,0.3-1,0.3c-0.6,0-1.2-0.2-1.6-0.7c-0.4-0.5-0.6-1.3-0.6-2.4
		c0-1.2,0.2-2.1,0.7-2.7c0.4-0.5,0.9-0.7,1.6-0.7c0.5,0,0.9,0.1,1.2,0.4C106.1,96.7,106.3,97.1,106.4,97.6z M103.2,100.3
		c0,0.3,0.1,0.5,0.2,0.8c0.1,0.2,0.3,0.4,0.5,0.6c0.2,0.1,0.4,0.2,0.6,0.2c0.3,0,0.6-0.1,0.8-0.4c0.2-0.3,0.4-0.6,0.4-1.1
		c0-0.4-0.1-0.8-0.3-1s-0.5-0.4-0.9-0.4c-0.4,0-0.6,0.1-0.9,0.4S103.2,99.9,103.2,100.3z"/>
	<path d="M107.5,102.4v-4.6h0.7v0.6c0.1-0.2,0.3-0.4,0.6-0.5c0.2-0.1,0.5-0.2,0.8-0.2c0.3,0,0.6,0.1,0.8,0.2
		c0.2,0.1,0.4,0.3,0.5,0.6c0.4-0.5,0.8-0.8,1.4-0.8c0.5,0,0.8,0.1,1,0.4c0.2,0.3,0.4,0.6,0.4,1.2v3.1h-0.8v-2.9c0-0.3,0-0.5-0.1-0.7
		c-0.1-0.1-0.1-0.2-0.3-0.3c-0.1-0.1-0.3-0.1-0.5-0.1c-0.3,0-0.6,0.1-0.8,0.3c-0.2,0.2-0.3,0.6-0.3,1v2.7h-0.8v-3
		c0-0.3-0.1-0.6-0.2-0.8c-0.1-0.2-0.3-0.3-0.6-0.3c-0.2,0-0.4,0.1-0.6,0.2s-0.3,0.3-0.4,0.5c-0.1,0.2-0.1,0.5-0.1,1v2.4H107.5z"/>
	<path d="M114.9,102.4v-4.6h0.7v0.6c0.1-0.2,0.3-0.4,0.6-0.5c0.2-0.1,0.5-0.2,0.8-0.2c0.3,0,0.6,0.1,0.8,0.2
		c0.2,0.1,0.4,0.3,0.5,0.6c0.4-0.5,0.8-0.8,1.4-0.8c0.5,0,0.8,0.1,1,0.4c0.2,0.3,0.4,0.6,0.4,1.2v3.1h-0.8v-2.9c0-0.3,0-0.5-0.1-0.7
		c-0.1-0.1-0.1-0.2-0.3-0.3c-0.1-0.1-0.3-0.1-0.5-0.1c-0.3,0-0.6,0.1-0.8,0.3c-0.2,0.2-0.3,0.6-0.3,1v2.7h-0.8v-3
		c0-0.3-0.1-0.6-0.2-0.8c-0.1-0.2-0.3-0.3-0.6-0.3c-0.2,0-0.4,0.1-0.6,0.2s-0.3,0.3-0.4,0.5c-0.1,0.2-0.1,0.5-0.1,1v2.4H114.9z"/>
</g>
<g id="XMLID_5_">
	<path d="M205.2,71.1c-0.1,0-0.2,0-0.3,0c-0.3-0.1-0.6-0.4-0.7-0.7l-12.6-53.8c-0.1-0.4,0.1-0.8,0.4-1.1L213.3,2H51.2L13.9,17.2
		c-0.5,0.2-1.1,0-1.3-0.5c-0.2-0.5,0-1.1,0.5-1.3L50.6,0.1C50.7,0,50.9,0,51,0h165.7c0.1,0,0.1,0,0.1,0c0.1,0,0.2,0,0.2,0.1l0,0
		c0,0,0,0,0,0c0.2,0.1,0.3,0.2,0.4,0.3c0,0,0,0.1,0.1,0.1l24.5,37.9c0.3,0.4,0.2,1-0.2,1.3l-36,31.2C205.7,71,205.4,71.1,205.2,71.1
		z M193.7,16.7l12.1,51.5l34.1-29.5L216.4,2.4L193.7,16.7z"/>
</g>
</svg>
