<?xml version="1.0" encoding="utf-8"?>
<!-- Generator: Adobe Illustrator 19.0.0, SVG Export Plug-In . SVG Version: 6.00 Build 0)  -->
<svg version="1.1" id="Layer_1" xmlns="http://www.w3.org/2000/svg" xmlns:xlink="http://www.w3.org/1999/xlink" x="0px" y="0px"
	 viewBox="0 0 242.2 71.1" style="enable-background:new 0 0 242.2 71.1;" xml:space="preserve">
<style type="text/css">
	.st0{fill:none;stroke:#000000;stroke-width:2;stroke-linecap:round;stroke-linejoin:round;stroke-miterlimit:10;}
	.st1{fill:none;stroke:#000000;stroke-width:1.5;stroke-linecap:round;stroke-linejoin:round;stroke-miterlimit:10;}
</style>
<g id="XMLID_1_">
</g>
<g id="XMLID_2_">
</g>
<line id="XMLID_40_" class="st0" x1="1" y1="70.1" x2="205.2" y2="70.1"/>
<polyline id="XMLID_39_" class="st0" points="192.6,16.3 13.7,16.3 1,70.1 "/>
<path id="XMLID_38_" class="st1" d="M51,58.3c0-0.5-0.4-1-1-1c-0.5,0-1,0.4-1,1c0,0.5,0.4,1,1,1C50.6,59.3,51,58.9,51,58.3"/>
<path id="XMLID_36_" class="st1" d="M157.1,58.3c0-0.5-0.4-1-1-1c-0.5,0-1,0.4-1,1c0,0.5,0.4,1,1,1
	C156.7,59.3,157.1,58.9,157.1,58.3"/>
<polyline id="XMLID_5_" class="st0" points="216.7,1 241.2,38.9 205.2,70.1 192.6,16.3 216.7,1 51,1 13.5,16.3 "/>
</svg>
