<?xml version="1.0" encoding="utf-8"?>
<!-- Generator: Adobe Illustrator 19.2.1, SVG Export Plug-In . SVG Version: 6.00 Build 0)  -->
<svg version="1.1" id="Layer_1" xmlns="http://www.w3.org/2000/svg" xmlns:xlink="http://www.w3.org/1999/xlink" x="0px" y="0px"
	 viewBox="0 0 286.1 187.4" style="enable-background:new 0 0 286.1 187.4;" xml:space="preserve">
<style type="text/css">
	.st0{stroke:#000000;stroke-miterlimit:10;}
</style>
<g>
</g>
<g>
</g>
<g>
</g>
<g>
	<path d="M143.3,121.5H0L35.8,15.7l78.2,0.4l30.3,104.3C144.4,121,143.9,121.5,143.3,121.5z M2.5,119.5H142l-29-102.4l-75.6,0.6
		L2.5,119.5z"/>
</g>
<g>
	<path d="M142.3,120.8L113.2,16.7l21.6-16c0.5-0.3,1.2-0.2,1.5,0.3l60.3,76.7l-52.7,43.6C143.3,121.8,142.5,121.5,142.3,120.8z
		 M115,15.7l28.9,103l50-41.4L135.2,1.6L115,15.7z"/>
</g>
<g id="XMLID_61_">
	<path id="XMLID_62_" d="M113.1,17.1H36.2c-0.7,0-1-1-0.4-1.4L62.9,0.2h71.8c0.7,0,1,1,0.4,1.4L113.1,17.1z M39,15.6h73.6l19.9-14
		H63.3L39,15.6z"/>
</g>
<g>
	<path d="M72.4,105.1c-2.2,0-3.9-1.8-3.9-3.9c0-2.2,1.8-3.9,3.9-3.9s3.9,1.8,3.9,3.9C76.3,103.4,74.5,105.1,72.4,105.1z M72.4,99.3
		c-1.1,0-1.9,0.9-1.9,1.9s0.9,1.9,1.9,1.9s1.9-0.9,1.9-1.9S73.4,99.3,72.4,99.3z"/>
</g>
<g>
	<path d="M67.1,125.4L67.1,125.4l-1,0.5l-0.2-0.6l1.3-0.7h0.7v5.9h-0.8V125.4z"/>
	<path d="M73.5,125.3h-2.2l-0.2,1.5c0.1,0,0.3,0,0.5,0c0.5,0,0.9,0.1,1.3,0.3c0.5,0.3,0.8,0.8,0.8,1.5c0,1.1-0.9,2-2.2,2
		c-0.6,0-1.2-0.2-1.5-0.4l0.2-0.6c0.2,0.1,0.7,0.3,1.3,0.3c0.7,0,1.4-0.5,1.4-1.3c0-0.8-0.5-1.3-1.7-1.3c-0.3,0-0.6,0-0.8,0.1
		l0.4-2.8h2.8V125.3z"/>
	<path d="M74.7,130c0-0.3,0.2-0.6,0.5-0.6c0.3,0,0.5,0.2,0.5,0.6c0,0.3-0.2,0.6-0.5,0.6C74.9,130.6,74.7,130.3,74.7,130z"/>
	<path d="M80,125.3h-2.2l-0.2,1.5c0.1,0,0.3,0,0.5,0c0.5,0,0.9,0.1,1.3,0.3c0.5,0.3,0.8,0.8,0.8,1.5c0,1.1-0.9,2-2.2,2
		c-0.6,0-1.2-0.2-1.5-0.4l0.2-0.6c0.2,0.1,0.7,0.3,1.3,0.3c0.7,0,1.4-0.5,1.4-1.3c0-0.8-0.5-1.3-1.7-1.3c-0.3,0-0.6,0-0.8,0.1
		l0.4-2.8H80V125.3z"/>
	<path d="M82.4,124.3c-0.2,0.8-0.6,1.7-0.8,2.1l-0.5,0.1c0.2-0.5,0.4-1.5,0.5-2.1L82.4,124.3z M83.7,124.3c-0.2,0.8-0.6,1.7-0.8,2.1
		l-0.5,0.1c0.2-0.5,0.4-1.5,0.5-2.1L83.7,124.3z"/>
	<path d="M56.2,135c-0.7,0.9-1.1,2.1-1.1,3.7c0,1.6,0.5,2.8,1.1,3.7h-0.6c-0.6-0.7-1.2-1.9-1.2-3.7c0-1.8,0.6-2.9,1.2-3.7H56.2z"/>
	<path d="M57,140.4c0.2,0.1,0.7,0.4,1.3,0.4c1,0,1.3-0.6,1.3-1.1c0-0.8-0.7-1.2-1.5-1.2h-0.4v-0.6h0.4c0.6,0,1.3-0.3,1.3-1
		c0-0.5-0.3-0.9-1-0.9c-0.5,0-0.9,0.2-1.2,0.4l-0.2-0.6c0.3-0.2,0.9-0.5,1.5-0.5c1.2,0,1.7,0.7,1.7,1.4c0,0.6-0.4,1.1-1.1,1.4v0
		c0.7,0.1,1.3,0.7,1.3,1.5c0,0.9-0.7,1.8-2.1,1.8c-0.7,0-1.2-0.2-1.5-0.4L57,140.4z"/>
	<path d="M61.9,140.7c0.2,0,0.4,0,0.6,0c0.5-0.1,0.9-0.3,1.2-0.6c0.4-0.4,0.7-0.9,0.8-1.6h0c-0.3,0.4-0.8,0.6-1.4,0.6
		c-1.1,0-1.7-0.8-1.7-1.8c0-1.1,0.8-2.1,2-2.1s1.9,1,1.9,2.5c0,1.3-0.4,2.2-1,2.7c-0.5,0.4-1.1,0.7-1.7,0.8c-0.3,0-0.5,0.1-0.7,0
		V140.7z M62.2,137.4c0,0.7,0.4,1.2,1.1,1.2c0.5,0,0.9-0.3,1.2-0.6c0-0.1,0.1-0.2,0.1-0.3c0-1-0.4-1.8-1.2-1.8
		C62.6,135.9,62.2,136.5,62.2,137.4z"/>
	<path d="M66.2,140.4c0.2,0.1,0.7,0.4,1.3,0.4c1,0,1.3-0.6,1.3-1.1c0-0.8-0.7-1.2-1.5-1.2h-0.4v-0.6h0.4c0.6,0,1.3-0.3,1.3-1
		c0-0.5-0.3-0.9-1-0.9c-0.5,0-0.9,0.2-1.2,0.4l-0.2-0.6c0.3-0.2,0.9-0.5,1.5-0.5c1.2,0,1.7,0.7,1.7,1.4c0,0.6-0.4,1.1-1.1,1.4v0
		c0.7,0.1,1.3,0.7,1.3,1.5c0,0.9-0.7,1.8-2.1,1.8c-0.7,0-1.2-0.2-1.5-0.4L66.2,140.4z"/>
	<path d="M70.7,140.8c0-0.3,0.2-0.6,0.5-0.6c0.3,0,0.5,0.2,0.5,0.6c0,0.3-0.2,0.6-0.5,0.6C70.9,141.4,70.7,141.1,70.7,140.8z"/>
	<path d="M76.3,135.4v0.5l-2.5,5.3h-0.8l2.5-5.2v0h-2.9v-0.7H76.3z"/>
	<path d="M77.4,138.1c0-0.5,0-0.8,0-1.2H78l0,0.7h0c0.2-0.4,0.6-0.8,1.4-0.8c0.6,0,1,0.4,1.2,0.9h0c0.1-0.2,0.3-0.4,0.5-0.6
		c0.3-0.2,0.5-0.3,1-0.3c0.6,0,1.4,0.4,1.4,1.9v2.6h-0.8v-2.5c0-0.8-0.3-1.3-0.9-1.3c-0.5,0-0.8,0.3-0.9,0.7c0,0.1-0.1,0.3-0.1,0.4
		v2.7h-0.8v-2.6c0-0.7-0.3-1.2-0.9-1.2c-0.5,0-0.9,0.4-1,0.8c0,0.1-0.1,0.3-0.1,0.4v2.6h-0.8V138.1z"/>
	<path d="M84.9,138.1c0-0.5,0-0.8,0-1.2h0.7l0,0.7h0c0.2-0.4,0.6-0.8,1.4-0.8c0.6,0,1,0.4,1.2,0.9h0c0.1-0.2,0.3-0.4,0.5-0.6
		c0.3-0.2,0.5-0.3,1-0.3c0.6,0,1.4,0.4,1.4,1.9v2.6h-0.8v-2.5c0-0.8-0.3-1.3-0.9-1.3c-0.5,0-0.8,0.3-0.9,0.7c0,0.1-0.1,0.3-0.1,0.4
		v2.7h-0.8v-2.6c0-0.7-0.3-1.2-0.9-1.2c-0.5,0-0.9,0.4-1,0.8c0,0.1-0.1,0.3-0.1,0.4v2.6h-0.8V138.1z"/>
	<path d="M91.9,142.4c0.6-0.9,1.1-2.1,1.1-3.7c0-1.6-0.5-2.8-1.1-3.7h0.6c0.6,0.7,1.2,1.9,1.2,3.7c0,1.8-0.6,2.9-1.2,3.7H91.9z"/>
</g>
<g>
	<path d="M46,138.8c-15.3,0-29.3,0-44.1,0"/>
	<path d="M142.7,138.8c-13.2,0-26.4,0-39.5,0"/>
	<path d="M46.9,137.8H2v2h44.9C46.9,139.1,46.9,138.4,46.9,137.8z"/>
	<path d="M101.8,137.8c0,0.7,0,1.3,0,2h40.9v-2H101.8z"/>
</g>
<line id="XMLID_71_" class="st0" x1="2.5" y1="126.5" x2="2.5" y2="148.5"/>
<line class="st0" x1="143" y1="126.8" x2="143" y2="148.8"/>
<g>
	<path d="M216.7,56.4c0-0.7,0.4-1.3,1.2-1.6l0,0c-0.6-0.3-0.9-0.8-0.9-1.3c0-0.9,0.8-1.6,1.8-1.6c1.1,0,1.7,0.7,1.7,1.4
		c0,0.5-0.2,1-1,1.4v0c0.7,0.3,1.2,0.8,1.2,1.5c0,1-0.9,1.7-2,1.7C217.4,58,216.7,57.2,216.7,56.4z M219.8,56.3
		c0-0.7-0.5-1.1-1.3-1.3c-0.7,0.2-1.1,0.6-1.1,1.2c0,0.6,0.4,1.1,1.2,1.1C219.4,57.4,219.8,56.9,219.8,56.3z M217.7,53.4
		c0,0.6,0.4,0.9,1.1,1.1c0.5-0.2,0.9-0.5,0.9-1.1c0-0.5-0.3-1-1-1C218,52.5,217.7,52.9,217.7,53.4z"/>
	<path d="M221.4,57.4c0-0.3,0.2-0.6,0.5-0.6s0.5,0.2,0.5,0.6c0,0.3-0.2,0.6-0.5,0.6C221.7,58,221.4,57.7,221.4,57.4z"/>
	<path d="M226.7,52.7h-2.2l-0.2,1.5c0.1,0,0.3,0,0.5,0c0.5,0,0.9,0.1,1.3,0.3c0.5,0.3,0.8,0.8,0.8,1.5c0,1.1-0.9,2-2.2,2
		c-0.6,0-1.2-0.2-1.5-0.4l0.2-0.6c0.2,0.1,0.7,0.3,1.3,0.3c0.7,0,1.4-0.5,1.4-1.3c0-0.8-0.5-1.3-1.7-1.3c-0.3,0-0.6,0-0.8,0.1
		l0.4-2.8h2.8V52.7z"/>
	<path d="M229.1,51.7c-0.2,0.8-0.6,1.7-0.8,2.1l-0.5,0.1c0.2-0.5,0.4-1.5,0.5-2.1L229.1,51.7z M230.4,51.7c-0.2,0.8-0.6,1.7-0.8,2.1
		l-0.5,0.1c0.2-0.5,0.4-1.5,0.5-2.1L230.4,51.7z"/>
	<path d="M205.3,62.4c-0.7,0.9-1.1,2.1-1.1,3.7c0,1.6,0.5,2.8,1.1,3.7h-0.6c-0.6-0.7-1.2-1.9-1.2-3.7c0-1.8,0.6-2.9,1.2-3.7H205.3z"
		/>
	<path d="M205.8,68.7v-0.5l0.6-0.6c1.5-1.4,2.2-2.2,2.2-3.1c0-0.6-0.3-1.1-1.2-1.1c-0.5,0-1,0.3-1.2,0.5l-0.3-0.6
		c0.4-0.3,1-0.6,1.7-0.6c1.3,0,1.8,0.9,1.8,1.7c0,1.1-0.8,2-2,3.1L207,68v0h2.6v0.7H205.8z"/>
	<path d="M212.2,63.6L212.2,63.6l-1,0.5l-0.2-0.6l1.3-0.7h0.7v5.9h-0.8V63.6z"/>
	<path d="M218.6,63.5h-2.2l-0.2,1.5c0.1,0,0.3,0,0.5,0c0.5,0,0.9,0.1,1.3,0.3c0.5,0.3,0.8,0.8,0.8,1.5c0,1.1-0.9,2-2.2,2
		c-0.6,0-1.2-0.2-1.5-0.4l0.2-0.6c0.2,0.1,0.7,0.3,1.3,0.3c0.7,0,1.4-0.5,1.4-1.3c0-0.8-0.5-1.3-1.7-1.3c-0.3,0-0.6,0-0.8,0.1
		l0.4-2.8h2.8V63.5z"/>
	<path d="M219.8,68.2c0-0.3,0.2-0.6,0.5-0.6c0.3,0,0.5,0.2,0.5,0.6c0,0.3-0.2,0.6-0.5,0.6C220,68.8,219.8,68.5,219.8,68.2z"/>
	<path d="M222,68.1c0.2,0,0.4,0,0.6,0c0.5-0.1,0.9-0.3,1.2-0.6c0.4-0.4,0.7-0.9,0.8-1.6h0c-0.3,0.4-0.8,0.6-1.4,0.6
		c-1.1,0-1.7-0.8-1.7-1.8c0-1.1,0.8-2.1,2-2.1s1.9,1,1.9,2.5c0,1.3-0.4,2.2-1,2.7c-0.5,0.4-1.1,0.7-1.7,0.8c-0.3,0-0.5,0.1-0.7,0
		V68.1z M222.3,64.7c0,0.7,0.4,1.2,1.1,1.2c0.5,0,0.9-0.3,1.2-0.6c0-0.1,0.1-0.2,0.1-0.3c0-1-0.4-1.8-1.2-1.8
		C222.8,63.3,222.3,63.9,222.3,64.7z"/>
	<path d="M226.4,65.5c0-0.5,0-0.8,0-1.2h0.7l0,0.7h0c0.2-0.4,0.6-0.8,1.4-0.8c0.6,0,1,0.4,1.2,0.9h0c0.1-0.2,0.3-0.4,0.5-0.6
		c0.3-0.2,0.5-0.3,1-0.3c0.6,0,1.4,0.4,1.4,1.9v2.6h-0.8v-2.5c0-0.8-0.3-1.3-0.9-1.3c-0.5,0-0.8,0.3-0.9,0.7c0,0.1-0.1,0.3-0.1,0.4
		v2.7h-0.8v-2.6c0-0.7-0.3-1.2-0.9-1.2c-0.5,0-0.9,0.4-1,0.8c0,0.1-0.1,0.3-0.1,0.4v2.6h-0.8V65.5z"/>
	<path d="M233.9,65.5c0-0.5,0-0.8,0-1.2h0.7l0,0.7h0c0.2-0.4,0.6-0.8,1.4-0.8c0.6,0,1,0.4,1.2,0.9h0c0.1-0.2,0.3-0.4,0.5-0.6
		c0.3-0.2,0.5-0.3,1-0.3c0.6,0,1.4,0.4,1.4,1.9v2.6h-0.8v-2.5c0-0.8-0.3-1.3-0.9-1.3c-0.5,0-0.8,0.3-0.9,0.7c0,0.1-0.1,0.3-0.1,0.4
		v2.7h-0.8v-2.6c0-0.7-0.3-1.2-0.9-1.2c-0.5,0-0.9,0.4-1,0.8c0,0.1-0.1,0.3-0.1,0.4v2.6h-0.8V65.5z"/>
	<path d="M241,69.8c0.6-0.9,1.1-2.1,1.1-3.7c0-1.6-0.5-2.8-1.1-3.7h0.6c0.6,0.7,1.2,1.9,1.2,3.7c0,1.8-0.6,2.9-1.2,3.7H241z"/>
</g>
<line class="st0" x1="152.3" y1="119.8" x2="223.7" y2="119.8"/>
<g>
	<path id="XMLID_70_" d="M222.4,74.1v46h1.3v-46C223.3,74.1,222.9,74.1,222.4,74.1z"/>
	<path id="XMLID_68_" d="M222.5,45.8c0.4,0,0.8,0,1.2,0l-0.6-45.3h-1.3L222.5,45.8z"/>
</g>
<line id="XMLID_64_" class="st0" x1="138.8" y1="0.5" x2="223.2" y2="0.5"/>
<g>
	<path d="M65.7,161c-0.4,0.2-1.2,0.4-2.1,0.4c-2.3,0-4-1.4-4-4.1c0-2.5,1.7-4.2,4.2-4.2c1,0,1.6,0.2,1.9,0.4l-0.3,0.9
		c-0.4-0.2-1-0.3-1.6-0.3c-1.9,0-3.2,1.2-3.2,3.3c0,2,1.1,3.3,3.1,3.3c0.6,0,1.3-0.1,1.7-0.3L65.7,161z"/>
	<path d="M72.4,161c-0.4,0.2-1.2,0.4-2.1,0.4c-2.3,0-4-1.4-4-4.1c0-2.5,1.7-4.2,4.2-4.2c1,0,1.6,0.2,1.9,0.4l-0.3,0.9
		c-0.4-0.2-1-0.3-1.6-0.3c-1.9,0-3.2,1.2-3.2,3.3c0,2,1.1,3.3,3.1,3.3c0.6,0,1.3-0.1,1.7-0.3L72.4,161z"/>
	<path d="M74,160.5c0.2,0,0.5,0,0.9,0c0.6-0.1,1.2-0.3,1.6-0.8c0.5-0.5,0.9-1.2,1-2.1h0c-0.4,0.5-1.1,0.8-1.8,0.8
		c-1.4,0-2.3-1.1-2.3-2.4c0-1.5,1.1-2.8,2.7-2.8c1.6,0,2.6,1.3,2.6,3.3c0,1.7-0.6,2.9-1.3,3.7c-0.6,0.6-1.4,0.9-2.3,1
		c-0.4,0.1-0.7,0.1-1,0.1V160.5z M74.4,156c0,1,0.6,1.7,1.5,1.7c0.7,0,1.3-0.3,1.5-0.8c0.1-0.1,0.1-0.2,0.1-0.4
		c0-1.3-0.5-2.4-1.6-2.4C75,154.2,74.4,154.9,74.4,156z"/>
	<path d="M84.7,157.3c0,2.7-1,4.1-2.7,4.1c-1.5,0-2.6-1.4-2.6-4c0-2.6,1.1-4.1,2.7-4.1C83.8,153.4,84.7,154.8,84.7,157.3z
		 M80.5,157.4c0,2,0.6,3.2,1.6,3.2c1.1,0,1.6-1.3,1.6-3.3c0-1.9-0.5-3.2-1.6-3.2C81.1,154.2,80.5,155.3,80.5,157.4z"/>
	<path d="M51.7,167.4c-0.9,1.2-1.5,2.7-1.5,4.9c0,2.1,0.7,3.7,1.5,4.9h-0.8c-0.8-1-1.6-2.5-1.6-4.9c0-2.4,0.8-3.9,1.6-4.9H51.7z"/>
	<path d="M53.1,174.9c0.2,0,0.5,0,0.9,0c0.6-0.1,1.2-0.3,1.6-0.8c0.5-0.5,0.9-1.2,1-2.1h0c-0.4,0.5-1.1,0.8-1.8,0.8
		c-1.4,0-2.3-1.1-2.3-2.4c0-1.5,1.1-2.8,2.7-2.8c1.6,0,2.6,1.3,2.6,3.3c0,1.7-0.6,2.9-1.3,3.7c-0.6,0.6-1.4,0.9-2.3,1
		c-0.4,0.1-0.7,0.1-1,0.1V174.9z M53.5,170.4c0,1,0.6,1.7,1.5,1.7c0.7,0,1.3-0.3,1.5-0.8c0.1-0.1,0.1-0.2,0.1-0.4
		c0-1.3-0.5-2.4-1.6-2.4C54.1,168.6,53.5,169.3,53.5,170.4z"/>
	<path d="M63.9,171.7c0,2.7-1,4.1-2.7,4.1c-1.5,0-2.6-1.4-2.6-4c0-2.6,1.1-4.1,2.7-4.1C62.9,167.8,63.9,169.2,63.9,171.7z
		 M59.6,171.8c0,2,0.6,3.2,1.6,3.2c1.1,0,1.6-1.3,1.6-3.3c0-1.9-0.5-3.2-1.6-3.2C60.3,168.6,59.6,169.7,59.6,171.8z"/>
	<path d="M65.2,167.2h1.1v8.5h-1.1V167.2z"/>
	<path d="M67.9,175.7c0-0.4,0-1,0-1.5v-7h1v3.6h0c0.4-0.6,1-1.1,2-1.1c1.4,0,2.5,1.2,2.4,3c0,2.1-1.3,3.1-2.6,3.1
		c-0.8,0-1.5-0.3-1.9-1.1h0l0,1H67.9z M69,173.4c0,0.1,0,0.3,0,0.4c0.2,0.7,0.8,1.2,1.6,1.2c1.1,0,1.8-0.9,1.8-2.2
		c0-1.2-0.6-2.2-1.7-2.2c-0.7,0-1.4,0.5-1.6,1.3c0,0.1-0.1,0.3-0.1,0.4V173.4z"/>
	<path d="M74.7,174.6c0.3,0.2,0.9,0.4,1.4,0.4c0.8,0,1.1-0.4,1.1-0.9c0-0.5-0.3-0.8-1.1-1.1c-1-0.4-1.5-0.9-1.5-1.6
		c0-0.9,0.8-1.7,2-1.7c0.6,0,1.1,0.2,1.4,0.4l-0.3,0.8c-0.2-0.1-0.6-0.3-1.2-0.3c-0.6,0-1,0.4-1,0.8c0,0.5,0.3,0.7,1.1,1
		c1,0.4,1.5,0.9,1.5,1.8c0,1-0.8,1.7-2.2,1.7c-0.6,0-1.2-0.2-1.6-0.4L74.7,174.6z"/>
	<path d="M78.7,176.2l3.3-8.7h0.8l-3.4,8.7H78.7z"/>
	<path d="M83.5,174.6c0.3,0.2,0.9,0.4,1.4,0.4c0.8,0,1.1-0.4,1.1-0.9c0-0.5-0.3-0.8-1.1-1.1c-1-0.4-1.5-0.9-1.5-1.6
		c0-0.9,0.8-1.7,2-1.7c0.6,0,1.1,0.2,1.4,0.4l-0.3,0.8c-0.2-0.1-0.6-0.3-1.2-0.3c-0.6,0-1,0.4-1,0.8c0,0.5,0.3,0.7,1.1,1
		c1,0.4,1.5,0.9,1.5,1.8c0,1-0.8,1.7-2.2,1.7c-0.6,0-1.2-0.2-1.6-0.4L83.5,174.6z"/>
	<path d="M88.5,175.7v-5h-0.8v-0.8h0.8v-0.3c0-0.8,0.2-1.6,0.7-2c0.4-0.4,0.9-0.5,1.4-0.5c0.4,0,0.7,0.1,0.9,0.2l-0.1,0.8
		c-0.2-0.1-0.4-0.1-0.7-0.1c-0.9,0-1.1,0.8-1.1,1.7v0.3H91v0.8h-1.4v5H88.5z"/>
	<path d="M92.5,177.1c0.9-1.2,1.5-2.7,1.5-4.9c0-2.1-0.6-3.7-1.5-4.9h0.8c0.8,1,1.6,2.5,1.6,4.9c0,2.4-0.8,3.9-1.6,4.9H92.5z"/>
</g>
</svg>
