<?xml version="1.0" encoding="utf-8"?>
<!-- Generator: Adobe Illustrator 21.0.2, SVG Export Plug-In . SVG Version: 6.00 Build 0)  -->
<svg version="1.1" id="Layer_1" xmlns="http://www.w3.org/2000/svg" xmlns:xlink="http://www.w3.org/1999/xlink" x="0px" y="0px"
	 viewBox="0 0 286.1 187.4" style="enable-background:new 0 0 286.1 187.4;" xml:space="preserve">
<style type="text/css">
	.st0{fill:none;}
	.st1{font-family:'OpenSans-Semibold';}
	.st2{font-size:12px;}
	.st3{fill:none;stroke:#000000;stroke-width:1.5;stroke-linecap:round;stroke-linejoin:round;stroke-miterlimit:10;}
	.st4{fill:none;stroke:#000000;stroke-width:0.72;stroke-linecap:round;stroke-linejoin:round;stroke-miterlimit:10;}
	.st5{font-family:'ArialMT';}
	.st6{font-size:8.8458px;}
	.st7{fill:none;stroke:#000000;stroke-width:1.5;stroke-linecap:round;stroke-miterlimit:10;}
</style>
<g id="XMLID_1_">
</g>
<g id="XMLID_2_">
</g>
<rect id="XMLID_16_" x="68.6" y="152.8" class="st0" width="102" height="34.7"/>
<text id="XMLID_73_" transform="matrix(1 0 0 1 106.5257 161.2781)"><tspan x="0" y="0" class="st1 st2">CC90</tspan><tspan x="-9.8" y="14.4" class="st1 st2">(90lbs/sf)</tspan></text>
<line id="XMLID_40_" class="st3" x1="12.4" y1="109.9" x2="216.5" y2="109.9"/>
<polyline id="XMLID_39_" class="st3" points="203.9,56.1 25.1,56.1 12.4,109.9 "/>
<path id="XMLID_38_" class="st3" d="M62.4,98.1c0-0.5-0.4-1-1-1c-0.5,0-1,0.4-1,1c0,0.5,0.4,1,1,1C61.9,99.1,62.4,98.7,62.4,98.1"/>
<line id="XMLID_37_" class="st3" x1="203.9" y1="56.1" x2="216.5" y2="109.9"/>
<path id="XMLID_36_" class="st3" d="M168.4,98.1c0-0.5-0.4-1-1-1c-0.5,0-1,0.4-1,1c0,0.5,0.4,1,1,1C168,99.1,168.4,98.7,168.4,98.1"
	/>
<line id="XMLID_35_" class="st3" x1="210.3" y1="56.1" x2="230.6" y2="56.1"/>
<line id="XMLID_34_" class="st3" x1="222.9" y1="109.9" x2="230.6" y2="109.9"/>
<line id="XMLID_33_" class="st4" x1="227.4" y1="62.4" x2="227.4" y2="103.5"/>
<text id="XMLID_31_" transform="matrix(1 0 0 1 253.3958 78.6948)" class="st5 st6">8.5&quot;</text>
<text id="XMLID_30_" transform="matrix(1 0 0 1 239.6016 89.3153)" class="st5 st6">(215.9mm)</text>
<polygon id="XMLID_29_" points="226.4,62.4 228.5,62.4 227.4,56.1 "/>
<polygon id="XMLID_27_" points="226.4,103.5 228.5,103.5 227.4,109.9 "/>
<polygon id="XMLID_26_" class="st7" points="226.4,103.5 228.5,103.5 227.4,109.9 "/>
<line id="XMLID_23_" class="st3" x1="216.5" y1="116.2" x2="216.5" y2="136.9"/>
<line id="XMLID_6_" class="st3" x1="18.7" y1="116.2" x2="18.7" y2="136.9"/>
<line id="XMLID_22_" class="st3" x1="18.7" y1="133.8" x2="90.2" y2="133.8"/>
<line id="XMLID_21_" class="st3" x1="210.3" y1="133.8" x2="138.8" y2="133.8"/>
<polygon id="XMLID_20_" points="210.3,132.7 210.3,134.8 216.5,133.8 "/>
<polygon id="XMLID_19_" class="st7" points="210.3,132.7 210.3,134.8 216.5,133.8 "/>
<text id="XMLID_17_" transform="matrix(1 0 0 1 104.2861 131.5758)" class="st5 st6">31.6&quot;</text>
<text id="XMLID_3_" transform="matrix(1 0 0 1 96.1184 142.194)" class="st5 st6">802.6mm</text>
</svg>
