<?xml version="1.0" encoding="utf-8"?>
<!-- Generator: Adobe Illustrator 19.2.1, SVG Export Plug-In . SVG Version: 6.00 Build 0)  -->
<svg version="1.1" id="Layer_1" xmlns="http://www.w3.org/2000/svg" xmlns:xlink="http://www.w3.org/1999/xlink" x="0px" y="0px"
	 viewBox="0 0 1000 1000" style="enable-background:new 0 0 1000 1000;" xml:space="preserve">
<style type="text/css">
	.st0{fill:#FFFFFF;}
</style>
<g>
	<path class="st0" d="M499.9,23C236.9,23,23,236.9,23,499.9c0,262.9,213.9,476.9,476.8,476.9c262.9,0,476.9-213.9,476.9-476.9
		C976.7,236.9,762.8,23,499.9,23L499.9,23z M499.9,875.2c-207,0-375.4-168.4-375.4-375.4c0-207,168.4-375.4,375.4-375.4
		c207,0,375.4,168.4,375.4,375.4C875.3,706.9,706.9,875.2,499.9,875.2L499.9,875.2z M499.9,875.2"/>
	<path class="st0" d="M748.4,485.1H534.1V227.5c0-21.7-17.5-39.3-39.3-39.3c-21.7,0-39.3,17.6-39.3,39.3v296.9
		c0,21.7,17.6,39.3,39.3,39.3h253.5c21.7,0,39.3-17.5,39.3-39.3C787.7,502.7,770.1,485.1,748.4,485.1L748.4,485.1z M748.4,485.1"/>
</g>
</svg>
