<?xml version="1.0" encoding="utf-8"?>
<!-- Generator: Adobe Illustrator 19.2.1, SVG Export Plug-In . SVG Version: 6.00 Build 0)  -->
<svg version="1.1" id="Layer_1" xmlns="http://www.w3.org/2000/svg" xmlns:xlink="http://www.w3.org/1999/xlink" x="0px" y="0px"
	 viewBox="0 0 110 110" style="enable-background:new 0 0 110 110;" xml:space="preserve">
<style type="text/css">
	.st0{fill:#106B27;}
</style>
<g>
	<path class="st0" d="M55.9,0.5H55c-29.5,0-54,24-54.5,53.6c-0.5,30,23.4,55,53.6,55.5H55c29.5,0,53.9-24,54.5-53.6
		C110,25.9,86,1.1,55.9,0.5z M55,105.6h-0.9C26.2,105.1,4,81.9,4.4,54.1C4.9,26.7,27.7,4.4,55,4.4h0.9C83.8,4.9,106,28,105.6,55.9
		C105.1,83.3,82.3,105.6,55,105.6z"/>
	<path class="st0" d="M77.1,40l-27,26.1L33.2,48.5c-0.8-0.8-2.1-0.8-2.7,0c-0.8,0.8-0.8,2.1,0,2.8l18.2,19c0.3,0.3,0.8,0.8,1.4,0.6
		c0.5,0,0.9-0.2,1.4-0.5l28.3-27.3c0.8-0.8,0.8-2.1,0-2.7C79,39.4,77.9,39.4,77.1,40z"/>
</g>
</svg>
