<?xml version="1.0" encoding="utf-8"?>
<!-- Generator: Adobe Illustrator 19.2.1, SVG Export Plug-In . SVG Version: 6.00 Build 0)  -->
<svg version="1.1" id="Layer_1" xmlns="http://www.w3.org/2000/svg" xmlns:xlink="http://www.w3.org/1999/xlink" x="0px" y="0px"
	 viewBox="0 0 252 159.5" style="enable-background:new 0 0 252 159.5;" xml:space="preserve">
<g>
</g>
<g>
</g>
<g>
	<g>
	</g>
</g>
<g id="XMLID_133_">
	<path id="XMLID_134_" d="M183.4,29.6c0.6,0,1.1,0.1,1.4,0.4c0.4,0.3,0.5,0.7,0.5,1.1c0,0.7-0.4,1.2-1.2,1.6
		c0.5,0.3,0.9,0.5,1.1,0.8c0.2,0.3,0.3,0.6,0.3,0.9c0,0.5-0.2,1-0.6,1.3s-0.9,0.5-1.6,0.5c-0.7,0-1.2-0.1-1.6-0.4s-0.6-0.7-0.6-1.3
		c0-0.4,0.1-0.7,0.3-1c0.2-0.3,0.5-0.5,1-0.8c-0.4-0.2-0.7-0.5-0.8-0.7c-0.2-0.3-0.3-0.6-0.3-0.9c0-0.5,0.2-0.8,0.5-1.1
		C182.3,29.7,182.8,29.6,183.4,29.6z M182.2,34.4c0,0.3,0.1,0.5,0.3,0.7c0.2,0.2,0.5,0.3,0.9,0.3c0.4,0,0.7-0.1,0.9-0.3
		c0.2-0.2,0.3-0.4,0.3-0.7c0-0.2-0.1-0.5-0.3-0.7s-0.5-0.4-0.9-0.5l-0.1-0.1c-0.4,0.2-0.7,0.4-0.8,0.6
		C182.3,33.9,182.2,34.1,182.2,34.4z M183.4,30.4c-0.3,0-0.5,0.1-0.7,0.2c-0.2,0.1-0.3,0.3-0.3,0.6c0,0.2,0,0.3,0.1,0.4
		c0.1,0.1,0.2,0.2,0.3,0.3c0.1,0.1,0.3,0.2,0.6,0.4c0.4-0.2,0.6-0.3,0.7-0.5c0.1-0.2,0.2-0.4,0.2-0.6c0-0.2-0.1-0.4-0.3-0.6
		C183.9,30.4,183.7,30.4,183.4,30.4z"/>
	<path id="XMLID_138_" d="M186.6,35.5c0-0.2,0.1-0.4,0.2-0.5c0.1-0.1,0.3-0.2,0.5-0.2c0.2,0,0.4,0.1,0.5,0.2
		c0.1,0.1,0.2,0.3,0.2,0.5c0,0.2-0.1,0.4-0.2,0.5c-0.1,0.1-0.3,0.2-0.5,0.2s-0.4-0.1-0.5-0.2S186.6,35.7,186.6,35.5z"/>
	<path id="XMLID_140_" d="M191,32.1c0.6,0,1.2,0.2,1.5,0.5s0.6,0.8,0.6,1.4c0,0.7-0.2,1.2-0.6,1.6c-0.4,0.4-1,0.6-1.8,0.6
		c-0.7,0-1.3-0.1-1.7-0.3v-0.9c0.2,0.1,0.5,0.2,0.8,0.3s0.6,0.1,0.9,0.1c0.5,0,0.8-0.1,1.1-0.3c0.2-0.2,0.4-0.5,0.4-0.9
		c0-0.8-0.5-1.2-1.5-1.2c-0.1,0-0.3,0-0.5,0c-0.2,0-0.4,0.1-0.5,0.1l-0.5-0.3l0.2-3.1h3.3v0.9h-2.4l-0.1,1.6c0.1,0,0.2,0,0.4-0.1
		C190.6,32.1,190.8,32.1,191,32.1z"/>
	<path id="XMLID_142_" d="M195.2,29.7c-0.2,0.6-0.4,1.3-0.8,2.1h-0.7c0.2-0.8,0.3-1.6,0.4-2.2L195.2,29.7L195.2,29.7z M197,29.7
		c-0.2,0.6-0.4,1.3-0.8,2.1h-0.8c0.2-0.8,0.4-1.5,0.5-2.2L197,29.7L197,29.7z"/>
	<path id="XMLID_145_" d="M166.4,44.4c0-0.8,0.1-1.5,0.3-2.2c0.2-0.7,0.6-1.3,1-1.8h0.9c-0.4,0.6-0.7,1.2-0.9,1.9
		c-0.2,0.7-0.3,1.4-0.3,2.1c0,0.7,0.1,1.4,0.3,2.1s0.5,1.3,0.9,1.8h-0.9c-0.4-0.5-0.8-1.1-1-1.7C166.5,45.9,166.4,45.2,166.4,44.4z"
		/>
	<path id="XMLID_147_" d="M173.6,46.9h-4.4v-0.8l1.7-1.7c0.5-0.5,0.8-0.9,1-1.1c0.2-0.2,0.3-0.4,0.3-0.6s0.1-0.4,0.1-0.6
		c0-0.3-0.1-0.5-0.3-0.7c-0.2-0.2-0.4-0.3-0.7-0.3c-0.2,0-0.5,0-0.7,0.1c-0.2,0.1-0.5,0.3-0.8,0.5l-0.6-0.7c0.4-0.3,0.7-0.5,1-0.6
		s0.7-0.2,1.1-0.2c0.6,0,1.1,0.2,1.4,0.5c0.4,0.3,0.5,0.7,0.5,1.3c0,0.3-0.1,0.6-0.2,0.8c-0.1,0.3-0.3,0.5-0.5,0.8
		c-0.2,0.3-0.6,0.7-1.1,1.1l-1.1,1.1v0h3V46.9z"/>
	<path id="XMLID_149_" d="M177.4,46.9h-1v-4.1c0-0.5,0-0.9,0-1.2c-0.1,0.1-0.2,0.1-0.2,0.2c-0.1,0.1-0.4,0.4-1,0.8l-0.5-0.7l1.9-1.5
		h0.9V46.9z"/>
	<path id="XMLID_151_" d="M181.7,42.9c0.6,0,1.2,0.2,1.5,0.5s0.6,0.8,0.6,1.4c0,0.7-0.2,1.2-0.6,1.6c-0.4,0.4-1,0.6-1.8,0.6
		c-0.7,0-1.3-0.1-1.7-0.3v-0.9c0.2,0.1,0.5,0.2,0.8,0.3s0.6,0.1,0.9,0.1c0.5,0,0.8-0.1,1.1-0.3c0.2-0.2,0.4-0.5,0.4-0.9
		c0-0.8-0.5-1.2-1.5-1.2c-0.1,0-0.3,0-0.5,0c-0.2,0-0.4,0.1-0.5,0.1l-0.5-0.3l0.2-3.1h3.3v0.9H181l-0.1,1.6c0.1,0,0.2,0,0.4-0.1
		C181.3,42.9,181.5,42.9,181.7,42.9z"/>
	<path id="XMLID_153_" d="M184.9,46.3c0-0.2,0.1-0.4,0.2-0.5c0.1-0.1,0.3-0.2,0.5-0.2c0.2,0,0.4,0.1,0.5,0.2
		c0.1,0.1,0.2,0.3,0.2,0.5c0,0.2-0.1,0.4-0.2,0.5c-0.1,0.1-0.3,0.2-0.5,0.2s-0.4-0.1-0.5-0.2S184.9,46.5,184.9,46.3z"/>
	<path id="XMLID_155_" d="M191.5,43.2c0,1.3-0.3,2.2-0.8,2.8c-0.5,0.6-1.3,0.9-2.3,0.9c-0.4,0-0.7,0-0.8-0.1V46
		c0.3,0.1,0.5,0.1,0.8,0.1c0.7,0,1.2-0.2,1.6-0.6s0.5-1,0.6-1.8h-0.1c-0.2,0.3-0.4,0.5-0.6,0.6c-0.2,0.1-0.5,0.2-0.9,0.2
		c-0.6,0-1-0.2-1.3-0.5s-0.5-0.8-0.5-1.5c0-0.7,0.2-1.2,0.6-1.6c0.4-0.4,0.9-0.6,1.5-0.6c0.5,0,0.9,0.1,1.2,0.3s0.6,0.5,0.8,1
		C191.4,42.1,191.5,42.6,191.5,43.2z M189.3,41.2c-0.4,0-0.6,0.1-0.8,0.3c-0.2,0.2-0.3,0.6-0.3,1c0,0.4,0.1,0.7,0.3,0.9
		c0.2,0.2,0.4,0.3,0.8,0.3c0.3,0,0.6-0.1,0.9-0.3s0.4-0.5,0.4-0.7c0-0.3-0.1-0.5-0.2-0.7c-0.1-0.2-0.2-0.4-0.4-0.5
		C189.7,41.3,189.5,41.2,189.3,41.2z"/>
	<path id="XMLID_158_" d="M196.7,46.9h-1v-3c0-0.4-0.1-0.6-0.2-0.8c-0.1-0.2-0.4-0.3-0.7-0.3c-0.4,0-0.7,0.1-0.9,0.4
		c-0.2,0.3-0.3,0.7-0.3,1.3v2.4h-1V42h0.8l0.1,0.6h0.1c0.1-0.2,0.3-0.4,0.6-0.5c0.3-0.1,0.5-0.2,0.8-0.2c0.7,0,1.2,0.3,1.5,0.8h0.1
		c0.1-0.2,0.3-0.4,0.6-0.6s0.6-0.2,0.9-0.2c0.6,0,1,0.1,1.3,0.4c0.3,0.3,0.4,0.7,0.4,1.3v3.2h-1v-3c0-0.4-0.1-0.6-0.2-0.8
		c-0.1-0.2-0.4-0.3-0.7-0.3c-0.4,0-0.7,0.1-0.9,0.4c-0.2,0.3-0.3,0.6-0.3,1.2V46.9z"/>
	<path id="XMLID_160_" d="M205.3,46.9h-1v-3c0-0.4-0.1-0.6-0.2-0.8c-0.1-0.2-0.4-0.3-0.7-0.3c-0.4,0-0.7,0.1-0.9,0.4
		c-0.2,0.3-0.3,0.7-0.3,1.3v2.4h-1V42h0.8l0.1,0.6h0.1c0.1-0.2,0.3-0.4,0.6-0.5c0.3-0.1,0.5-0.2,0.8-0.2c0.7,0,1.2,0.3,1.5,0.8h0.1
		c0.1-0.2,0.3-0.4,0.6-0.6s0.6-0.2,0.9-0.2c0.6,0,1,0.1,1.3,0.4c0.3,0.3,0.4,0.7,0.4,1.3v3.2h-1v-3c0-0.4-0.1-0.6-0.2-0.8
		c-0.1-0.2-0.4-0.3-0.7-0.3c-0.4,0-0.7,0.1-0.9,0.4c-0.2,0.3-0.3,0.6-0.3,1.2V46.9z"/>
	<path id="XMLID_162_" d="M211.6,44.4c0,0.8-0.1,1.5-0.3,2.2c-0.2,0.7-0.6,1.2-1,1.7h-0.9c0.4-0.5,0.7-1.2,0.9-1.8
		c0.2-0.7,0.3-1.4,0.3-2.1c0-0.7-0.1-1.4-0.3-2.1c-0.2-0.7-0.5-1.3-0.9-1.9h0.9c0.4,0.5,0.8,1.1,1,1.8
		C211.5,42.9,211.6,43.6,211.6,44.4z"/>
</g>
<g>
	<line id="XMLID_131_" x1="117.2" y1="77.5" x2="189.6" y2="77.5"/>
	<rect id="XMLID_132_" x="117.2" y="77" width="72.4" height="1"/>
</g>
<g>
	<g>
		<path d="M188.3,51.9v26h1.3v-26C189.2,51.9,188.8,51.9,188.3,51.9z"/>
	</g>
	<g>
		<path d="M188.4,23.5c0.4,0,0.8,0,1.2,0v-23h-1.2V23.5z"/>
	</g>
</g>
<g>
	<line id="XMLID_2_" x1="99" y1="0.5" x2="189.6" y2="0.5"/>
	<rect id="XMLID_129_" x="99" y="0" width="90.6" height="1"/>
</g>
<g>
</g>
<g id="XMLID_84_">
	<path id="XMLID_85_" d="M65.6,99.7h-1v-4.1c0-0.5,0-0.9,0-1.2c-0.1,0.1-0.2,0.1-0.2,0.2c-0.1,0.1-0.4,0.4-1,0.8l-0.5-0.7l1.9-1.5
		h0.9V99.7z"/>
	<path id="XMLID_87_" d="M69.9,95.7c0.6,0,1.2,0.2,1.5,0.5c0.4,0.3,0.6,0.8,0.6,1.4c0,0.7-0.2,1.2-0.6,1.6c-0.4,0.4-1,0.6-1.8,0.6
		c-0.7,0-1.3-0.1-1.7-0.3v-0.9c0.2,0.1,0.5,0.2,0.8,0.3c0.3,0.1,0.6,0.1,0.9,0.1c0.5,0,0.8-0.1,1.1-0.3c0.2-0.2,0.4-0.5,0.4-0.9
		c0-0.8-0.5-1.2-1.5-1.2c-0.1,0-0.3,0-0.5,0c-0.2,0-0.4,0.1-0.5,0.1L68,96.4l0.2-3.1h3.3v0.9h-2.4L69,95.8c0.1,0,0.2,0,0.4-0.1
		C69.5,95.7,69.7,95.7,69.9,95.7z"/>
	<path id="XMLID_89_" d="M73.1,99.1c0-0.2,0.1-0.4,0.2-0.5c0.1-0.1,0.3-0.2,0.5-0.2c0.2,0,0.4,0.1,0.5,0.2c0.1,0.1,0.2,0.3,0.2,0.5
		c0,0.2-0.1,0.4-0.2,0.5c-0.1,0.1-0.3,0.2-0.5,0.2s-0.4-0.1-0.5-0.2S73.1,99.3,73.1,99.1z"/>
	<path id="XMLID_91_" d="M77.5,95.7c0.6,0,1.2,0.2,1.5,0.5c0.4,0.3,0.6,0.8,0.6,1.4c0,0.7-0.2,1.2-0.6,1.6c-0.4,0.4-1,0.6-1.8,0.6
		c-0.7,0-1.3-0.1-1.7-0.3v-0.9c0.2,0.1,0.5,0.2,0.8,0.3s0.6,0.1,0.9,0.1c0.5,0,0.8-0.1,1.1-0.3c0.2-0.2,0.4-0.5,0.4-0.9
		c0-0.8-0.5-1.2-1.5-1.2c-0.1,0-0.3,0-0.5,0c-0.2,0-0.4,0.1-0.5,0.1l-0.5-0.3l0.2-3.1h3.3v0.9h-2.4l-0.1,1.6c0.1,0,0.2,0,0.4-0.1
		C77.1,95.7,77.3,95.7,77.5,95.7z"/>
	<path id="XMLID_93_" d="M81.7,93.4c-0.2,0.6-0.4,1.3-0.8,2.1h-0.7c0.2-0.8,0.3-1.6,0.4-2.2L81.7,93.4L81.7,93.4z M83.6,93.4
		c-0.2,0.6-0.4,1.3-0.8,2.1H82c0.2-0.8,0.4-1.5,0.5-2.2L83.6,93.4L83.6,93.4z"/>
	<path id="XMLID_96_" d="M50.3,108c0-0.8,0.1-1.5,0.3-2.2c0.2-0.7,0.6-1.3,1-1.8h0.9c-0.4,0.6-0.7,1.2-0.9,1.9
		c-0.2,0.7-0.3,1.4-0.3,2.1c0,0.7,0.1,1.4,0.3,2.1s0.5,1.3,0.9,1.8h-0.9c-0.4-0.5-0.8-1.1-1-1.7C50.4,109.5,50.3,108.8,50.3,108z"/>
	<path id="XMLID_98_" d="M57.3,105.5c0,0.4-0.1,0.7-0.4,1c-0.2,0.3-0.6,0.5-1,0.5v0c0.5,0.1,0.9,0.2,1.2,0.5c0.3,0.3,0.4,0.6,0.4,1
		c0,0.6-0.2,1.1-0.7,1.4c-0.4,0.3-1.1,0.5-1.9,0.5c-0.7,0-1.3-0.1-1.8-0.3v-0.9c0.3,0.1,0.6,0.2,0.9,0.3s0.6,0.1,0.9,0.1
		c0.5,0,0.9-0.1,1.1-0.3c0.2-0.2,0.4-0.5,0.4-0.9c0-0.3-0.1-0.6-0.4-0.8s-0.7-0.2-1.3-0.2h-0.6v-0.8h0.6c1,0,1.5-0.4,1.5-1.1
		c0-0.3-0.1-0.5-0.3-0.6c-0.2-0.1-0.4-0.2-0.8-0.2c-0.2,0-0.5,0-0.7,0.1c-0.2,0.1-0.5,0.2-0.8,0.4l-0.5-0.7c0.6-0.4,1.3-0.7,2.1-0.7
		c0.6,0,1.2,0.1,1.5,0.4S57.3,105,57.3,105.5z"/>
	<path id="XMLID_100_" d="M62.7,106.8c0,1.3-0.3,2.2-0.8,2.8c-0.5,0.6-1.3,0.9-2.3,0.9c-0.4,0-0.7,0-0.8-0.1v-0.9
		c0.3,0.1,0.5,0.1,0.8,0.1c0.7,0,1.2-0.2,1.6-0.6c0.3-0.4,0.5-1,0.6-1.8h-0.1c-0.2,0.3-0.4,0.5-0.6,0.6c-0.2,0.1-0.5,0.2-0.9,0.2
		c-0.6,0-1-0.2-1.3-0.5s-0.5-0.8-0.5-1.5c0-0.7,0.2-1.2,0.6-1.6c0.4-0.4,0.9-0.6,1.5-0.6c0.5,0,0.9,0.1,1.2,0.3s0.6,0.5,0.8,1
		C62.6,105.7,62.7,106.2,62.7,106.8z M60.5,104.8c-0.4,0-0.6,0.1-0.8,0.3c-0.2,0.2-0.3,0.6-0.3,1c0,0.4,0.1,0.7,0.3,0.9
		c0.2,0.2,0.4,0.3,0.8,0.3c0.3,0,0.6-0.1,0.9-0.3s0.4-0.5,0.4-0.7c0-0.3-0.1-0.5-0.2-0.7c-0.1-0.2-0.2-0.4-0.4-0.5
		C60.9,104.9,60.7,104.8,60.5,104.8z"/>
	<path id="XMLID_117_" d="M67.6,105.5c0,0.4-0.1,0.7-0.4,1c-0.2,0.3-0.6,0.5-1,0.5v0c0.5,0.1,0.9,0.2,1.2,0.5c0.3,0.3,0.4,0.6,0.4,1
		c0,0.6-0.2,1.1-0.7,1.4c-0.4,0.3-1.1,0.5-1.9,0.5c-0.7,0-1.3-0.1-1.8-0.3v-0.9c0.3,0.1,0.6,0.2,0.9,0.3s0.6,0.1,0.9,0.1
		c0.5,0,0.9-0.1,1.1-0.3c0.2-0.2,0.4-0.5,0.4-0.9c0-0.3-0.1-0.6-0.4-0.8s-0.7-0.2-1.3-0.2h-0.6v-0.8H65c1,0,1.5-0.4,1.5-1.1
		c0-0.3-0.1-0.5-0.3-0.6c-0.2-0.1-0.4-0.2-0.8-0.2c-0.2,0-0.5,0-0.7,0.1c-0.2,0.1-0.5,0.2-0.8,0.4l-0.5-0.7c0.6-0.4,1.3-0.7,2.1-0.7
		c0.6,0,1.2,0.1,1.5,0.4S67.6,105,67.6,105.5z"/>
	<path id="XMLID_119_" d="M68.8,109.9c0-0.2,0.1-0.4,0.2-0.5c0.1-0.1,0.3-0.2,0.5-0.2c0.2,0,0.4,0.1,0.5,0.2
		c0.1,0.1,0.2,0.3,0.2,0.5c0,0.2-0.1,0.4-0.2,0.5c-0.1,0.1-0.3,0.2-0.5,0.2s-0.4-0.1-0.5-0.2S68.8,110.1,68.8,109.9z"/>
	<path id="XMLID_121_" d="M71.8,110.5l2.5-5.5H71v-0.9h4.4v0.7l-2.5,5.7H71.8z"/>
	<path id="XMLID_123_" d="M80.7,110.5h-1v-3c0-0.4-0.1-0.6-0.2-0.8c-0.1-0.2-0.4-0.3-0.7-0.3c-0.4,0-0.7,0.1-0.9,0.4
		c-0.2,0.3-0.3,0.7-0.3,1.3v2.4h-1v-4.9h0.8l0.1,0.6h0.1c0.1-0.2,0.3-0.4,0.6-0.5c0.3-0.1,0.5-0.2,0.8-0.2c0.7,0,1.2,0.3,1.5,0.8
		h0.1c0.1-0.2,0.3-0.4,0.6-0.6s0.6-0.2,0.9-0.2c0.6,0,1,0.1,1.3,0.4c0.3,0.3,0.4,0.7,0.4,1.3v3.2h-1v-3c0-0.4-0.1-0.6-0.2-0.8
		c-0.1-0.2-0.4-0.3-0.7-0.3c-0.4,0-0.7,0.1-0.9,0.4c-0.2,0.3-0.3,0.6-0.3,1.2V110.5z"/>
	<path id="XMLID_125_" d="M89.3,110.5h-1v-3c0-0.4-0.1-0.6-0.2-0.8c-0.1-0.2-0.4-0.3-0.7-0.3c-0.4,0-0.7,0.1-0.9,0.4
		c-0.2,0.3-0.3,0.7-0.3,1.3v2.4h-1v-4.9H86l0.1,0.6h0.1c0.1-0.2,0.3-0.4,0.6-0.5c0.3-0.1,0.5-0.2,0.8-0.2c0.7,0,1.2,0.3,1.5,0.8h0.1
		c0.1-0.2,0.3-0.4,0.6-0.6s0.6-0.2,0.9-0.2c0.6,0,1,0.1,1.3,0.4s0.4,0.7,0.4,1.3v3.2h-1v-3c0-0.4-0.1-0.6-0.2-0.8
		c-0.1-0.2-0.4-0.3-0.7-0.3c-0.4,0-0.7,0.1-0.9,0.4c-0.2,0.3-0.3,0.6-0.3,1.2V110.5z"/>
	<path id="XMLID_127_" d="M95.5,108c0,0.8-0.1,1.5-0.3,2.2c-0.2,0.7-0.6,1.2-1,1.7h-0.9c0.4-0.5,0.7-1.2,0.9-1.8
		c0.2-0.7,0.3-1.4,0.3-2.1c0-0.7-0.1-1.4-0.3-2.1c-0.2-0.7-0.5-1.3-0.9-1.9h0.9c0.4,0.5,0.8,1.1,1,1.8
		C95.4,106.5,95.5,107.2,95.5,108z"/>
</g>
<g>
	<g>
		<path d="M44.9,107.5c-15.3,0-29.3,0-44.1,0"/>
	</g>
	<g>
		<path d="M141.6,107.5c-13.2,0-26.4,0-39.5,0"/>
	</g>
	<g>
		<path d="M45.7,106.5H0.8v2h44.9C45.7,107.8,45.7,107.2,45.7,106.5z"/>
	</g>
	<g>
		<path d="M100.7,106.5c0,0.7,0,1.3,0,2h40.9v-2H100.7z"/>
	</g>
</g>
<g>
	<line id="XMLID_82_" x1="0.8" y1="95.5" x2="0.8" y2="117.5"/>
	<rect id="XMLID_83_" x="0.3" y="95.5" width="1" height="22"/>
</g>
<g>
	<line id="XMLID_1_" x1="141.8" y1="95.5" x2="141.8" y2="117.5"/>
	<rect id="XMLID_81_" x="141.3" y="95.5" width="1" height="22"/>
</g>
<g id="XMLID_45_">
	<path id="XMLID_52_" d="M61.4,126.5c-0.8,0-1.4,0.3-1.9,0.9s-0.7,1.4-0.7,2.4c0,1.1,0.2,1.8,0.7,2.4s1.1,0.8,1.9,0.8
		c0.4,0,0.7,0,1.1-0.1s0.7-0.2,1.1-0.3v1.2c-0.7,0.3-1.4,0.4-2.3,0.4c-1.3,0-2.2-0.4-2.9-1.1s-1-1.8-1-3.3c0-0.9,0.2-1.7,0.5-2.3
		c0.3-0.7,0.8-1.2,1.4-1.5s1.3-0.5,2.2-0.5c0.9,0,1.7,0.2,2.4,0.6l-0.5,1.2c-0.3-0.1-0.6-0.3-0.9-0.4S61.7,126.5,61.4,126.5z"/>
	<path id="XMLID_54_" d="M69,126.5c-0.8,0-1.4,0.3-1.9,0.9s-0.7,1.4-0.7,2.4c0,1.1,0.2,1.8,0.7,2.4s1.1,0.8,1.9,0.8
		c0.4,0,0.7,0,1.1-0.1s0.7-0.2,1.1-0.3v1.2c-0.7,0.3-1.4,0.4-2.3,0.4c-1.3,0-2.2-0.4-2.9-1.1s-1-1.8-1-3.3c0-0.9,0.2-1.7,0.5-2.3
		c0.3-0.7,0.8-1.2,1.4-1.5s1.3-0.5,2.2-0.5c0.9,0,1.7,0.2,2.4,0.6l-0.5,1.2c-0.3-0.1-0.6-0.3-0.9-0.4S69.3,126.5,69,126.5z"/>
	<path id="XMLID_56_" d="M76.4,129.3h3.2v4.3c-0.5,0.2-1,0.3-1.5,0.4s-1,0.1-1.5,0.1c-1.3,0-2.3-0.4-3-1.2s-1.1-1.9-1.1-3.2
		c0-1.4,0.4-2.5,1.2-3.2s1.9-1.2,3.3-1.2c0.9,0,1.7,0.2,2.5,0.5L79,127c-0.7-0.3-1.4-0.5-2.1-0.5c-0.9,0-1.6,0.3-2.2,0.9
		s-0.8,1.4-0.8,2.4c0,1,0.2,1.8,0.7,2.4s1.2,0.8,2.1,0.8c0.5,0,0.9-0.1,1.5-0.2v-2.2h-1.8V129.3z"/>
	<path id="XMLID_58_" d="M86.8,134H81v-1l2.2-2.2c0.7-0.7,1.1-1.1,1.3-1.4s0.4-0.5,0.5-0.8s0.1-0.5,0.1-0.8c0-0.4-0.1-0.7-0.3-0.9
		s-0.6-0.3-1-0.3c-0.3,0-0.6,0.1-1,0.2s-0.7,0.3-1.1,0.7l-0.7-0.9c0.5-0.4,0.9-0.7,1.4-0.9s0.9-0.3,1.4-0.3c0.8,0,1.4,0.2,1.9,0.6
		s0.7,1,0.7,1.7c0,0.4-0.1,0.8-0.2,1.1s-0.4,0.7-0.6,1.1s-0.8,0.9-1.4,1.5l-1.5,1.4v0.1h4.1V134z"/>
	<path id="XMLID_60_" d="M46,145.1c0-1,0.2-2,0.5-2.9s0.7-1.7,1.3-2.4H49c-0.5,0.7-1,1.6-1.2,2.5s-0.4,1.8-0.4,2.8s0.1,1.9,0.4,2.8
		s0.7,1.7,1.2,2.4h-1.2c-0.6-0.7-1-1.4-1.3-2.3S46,146.1,46,145.1z"/>
	<path id="XMLID_62_" d="M55.7,148.4h-5.8v-1l2.2-2.2c0.7-0.7,1.1-1.1,1.3-1.4s0.4-0.5,0.5-0.8s0.1-0.5,0.1-0.8
		c0-0.4-0.1-0.7-0.3-0.9s-0.6-0.3-1-0.3c-0.3,0-0.6,0.1-1,0.2s-0.7,0.3-1.1,0.7l-0.7-0.9c0.5-0.4,0.9-0.7,1.4-0.9s0.9-0.3,1.4-0.3
		c0.8,0,1.4,0.2,1.9,0.6s0.7,1,0.7,1.7c0,0.4-0.1,0.8-0.2,1.1s-0.4,0.7-0.6,1.1s-0.8,0.9-1.4,1.5l-1.5,1.4v0.1h4.1V148.4z"/>
	<path id="XMLID_64_" d="M59.6,143c0.9,0,1.5,0.2,2.1,0.7s0.8,1.1,0.8,1.9c0,0.9-0.3,1.6-0.9,2.1s-1.4,0.8-2.4,0.8
		c-1,0-1.7-0.2-2.3-0.5v-1.2c0.3,0.2,0.7,0.3,1.1,0.4s0.8,0.1,1.1,0.1c0.6,0,1.1-0.1,1.4-0.4s0.5-0.7,0.5-1.2c0-1-0.7-1.5-2-1.5
		c-0.2,0-0.4,0-0.7,0.1s-0.5,0.1-0.7,0.1l-0.6-0.4l0.3-4.2h4.5v1.2h-3.2l-0.2,2.1c0.1,0,0.3-0.1,0.5-0.1S59.3,143,59.6,143z"/>
	<path id="XMLID_66_" d="M65.4,148.4H64v-9.1h1.4V148.4z"/>
	<path id="XMLID_68_" d="M70.7,141.8c0.8,0,1.4,0.3,1.9,0.9s0.7,1.4,0.7,2.5c0,1.1-0.2,1.9-0.7,2.5s-1.1,0.9-1.9,0.9
		c-0.8,0-1.5-0.3-1.9-0.9h-0.1l-0.3,0.8h-1v-9.1h1.4v2.2c0,0.2,0,0.4,0,0.7s0,0.5,0,0.6h0.1C69.2,142.1,69.8,141.8,70.7,141.8z
		 M70.3,142.9c-0.6,0-1,0.2-1.2,0.5s-0.4,0.9-0.4,1.6v0.1c0,0.8,0.1,1.4,0.4,1.7s0.7,0.5,1.2,0.5c0.5,0,0.9-0.2,1.1-0.6
		s0.4-0.9,0.4-1.7C71.8,143.6,71.3,142.9,70.3,142.9z"/>
	<path id="XMLID_71_" d="M79.2,146.5c0,0.6-0.2,1.1-0.7,1.5s-1.1,0.5-2,0.5c-0.9,0-1.6-0.1-2.1-0.4v-1.2c0.8,0.4,1.5,0.5,2.1,0.5
		c0.8,0,1.3-0.3,1.3-0.8c0-0.2,0-0.3-0.1-0.4s-0.2-0.2-0.5-0.3s-0.5-0.3-0.9-0.4c-0.7-0.3-1.3-0.6-1.5-0.9s-0.4-0.7-0.4-1.1
		c0-0.6,0.2-1,0.7-1.3s1.1-0.5,1.8-0.5c0.8,0,1.5,0.2,2.2,0.5l-0.4,1c-0.7-0.3-1.3-0.4-1.8-0.4c-0.7,0-1.1,0.2-1.1,0.6
		c0,0.2,0.1,0.4,0.3,0.5s0.6,0.3,1.2,0.6c0.5,0.2,0.9,0.4,1.2,0.6s0.4,0.4,0.5,0.6S79.2,146.2,79.2,146.5z"/>
	<path id="XMLID_73_" d="M84.3,139.8l-3.2,8.6h-1.3l3.2-8.6H84.3z"/>
	<path id="XMLID_75_" d="M89.7,146.5c0,0.6-0.2,1.1-0.7,1.5s-1.1,0.5-2,0.5c-0.9,0-1.6-0.1-2.1-0.4v-1.2c0.8,0.4,1.5,0.5,2.1,0.5
		c0.8,0,1.3-0.3,1.3-0.8c0-0.2,0-0.3-0.1-0.4s-0.2-0.2-0.5-0.3s-0.5-0.3-0.9-0.4c-0.7-0.3-1.3-0.6-1.5-0.9S85,144,85,143.5
		c0-0.6,0.2-1,0.7-1.3s1.1-0.5,1.8-0.5c0.8,0,1.5,0.2,2.2,0.5l-0.4,1c-0.7-0.3-1.3-0.4-1.8-0.4c-0.7,0-1.1,0.2-1.1,0.6
		c0,0.2,0.1,0.4,0.3,0.5s0.6,0.3,1.2,0.6c0.5,0.2,0.9,0.4,1.2,0.6s0.4,0.4,0.5,0.6S89.7,146.2,89.7,146.5z"/>
	<path id="XMLID_77_" d="M94.5,142.9h-1.6v5.4h-1.4v-5.4h-1.1v-0.6l1.1-0.4v-0.4c0-0.8,0.2-1.3,0.5-1.7s0.9-0.6,1.6-0.6
		c0.5,0,1,0.1,1.4,0.2l-0.4,1c-0.3-0.1-0.7-0.2-1-0.2c-0.3,0-0.5,0.1-0.7,0.3s-0.2,0.5-0.2,0.9v0.4h1.6V142.9z"/>
	<path id="XMLID_79_" d="M97.9,145.1c0,1-0.2,2-0.5,2.9s-0.7,1.7-1.3,2.3H95c0.5-0.7,1-1.5,1.2-2.4s0.4-1.8,0.4-2.8
		c0-1-0.1-1.9-0.4-2.8s-0.7-1.7-1.2-2.5h1.2c0.6,0.7,1,1.5,1.3,2.4S97.9,144,97.9,145.1z"/>
</g>
<g>
	<path id="XMLID_49_" d="M94,36.4H35.4L5.1,16.3L35.5,0.4H94l0.2,0.1L128,17.4L94,36.4z M36,34.4h57.4l30.3-16.9L93.5,2.4H36L9,16.5
		L36,34.4z"/>
</g>
<g>
	<polygon id="XMLID_48_" points="105.1,82.4 27.4,82.4 0,59.8 6.1,16.3 8.1,16.5 2.1,59 28.1,80.4 104.4,80.4 134.8,57 124.9,16.7 
		126.8,16.2 137,57.8 	"/>
</g>
<g>
	
		<rect id="XMLID_47_" x="9.5" y="56.9" transform="matrix(0.1538 -0.9881 0.9881 0.1538 -29.9412 80.8526)" width="45.5" height="2"/>
</g>
<g>
	
		<rect id="XMLID_46_" x="97.7" y="34.9" transform="matrix(0.9762 -0.2169 0.2169 0.9762 -10.2107 22.7973)" width="2" height="46.1"/>
</g>
<g>
	<g>
		<path d="M67,70.8c-2.2,0-3.9-1.8-3.9-3.9c0-2.2,1.8-3.9,3.9-3.9s3.9,1.8,3.9,3.9C71,69,69.2,70.8,67,70.8z M67,64.9
			c-1.1,0-1.9,0.9-1.9,1.9s0.9,1.9,1.9,1.9s1.9-0.9,1.9-1.9S68.1,64.9,67,64.9z"/>
	</g>
</g>
</svg>
