<?xml version="1.0" encoding="utf-8"?>
<!-- Generator: Adobe Illustrator 19.2.1, SVG Export Plug-In . SVG Version: 6.00 Build 0)  -->
<svg version="1.1" id="Layer_1" xmlns="http://www.w3.org/2000/svg" xmlns:xlink="http://www.w3.org/1999/xlink" x="0px" y="0px"
	 viewBox="0 0 110 110" style="enable-background:new 0 0 110 110;" xml:space="preserve">
<style type="text/css">
	.st0{fill:#FFFFFF;}
</style>
<g>
	<path class="st0" d="M56,1.5h-1C26,1.5,2,25.1,1.5,54C1,83.5,24.5,108,54,108.5h1c29,0,52.9-23.6,53.5-52.5C109,26.5,85.5,2,56,1.5
		z M55,104.7h-0.9C26.7,104.2,4.9,81.5,5.4,54.1C5.8,27.2,28.1,5.3,55,5.3h0.9c27.4,0.5,49.2,23.2,48.7,50.5
		C104.2,82.8,81.9,104.7,55,104.7z"/>
	<g>
		<path class="st0" d="M51.4,63.5v-1.4c0-2.1,0.3-3.7,0.9-5.1c0.6-1.3,1.8-2.7,3.5-4.2c2.4-2,3.9-3.5,4.5-4.6c0.6-1,0.9-2.2,0.9-3.7
			c0-1.8-0.6-3.2-1.7-4.2c-1.2-1-2.8-1.5-5-1.5c-1.4,0-2.7,0.2-4.1,0.5c-1.3,0.3-2.8,0.9-4.5,1.8l-1.4-3.4c3.3-1.7,6.8-2.6,10.4-2.6
			c3.4,0,6,0.8,7.8,2.5c1.9,1.7,2.8,4,2.8,7c0,1.3-0.2,2.4-0.5,3.4s-0.8,1.9-1.5,2.8c-0.7,0.9-2.1,2.3-4.3,4.2
			c-1.8,1.5-2.9,2.8-3.5,3.8s-0.9,2.3-0.9,4v0.7H51.4z M50.1,71.4c0-2.4,1.1-3.6,3.2-3.6c1,0,1.8,0.3,2.4,0.9
			c0.6,0.6,0.8,1.5,0.8,2.7c0,1.1-0.3,2-0.8,2.6c-0.6,0.6-1.3,0.9-2.3,0.9c-0.9,0-1.7-0.3-2.3-0.8C50.4,73.5,50.1,72.6,50.1,71.4z"
			/>
	</g>
</g>
</svg>
