<?xml version="1.0" encoding="utf-8"?>
<!-- Generator: Adobe Illustrator 19.2.1, SVG Export Plug-In . SVG Version: 6.00 Build 0)  -->
<svg version="1.1" id="Layer_1" xmlns="http://www.w3.org/2000/svg" xmlns:xlink="http://www.w3.org/1999/xlink" x="0px" y="0px"
	 viewBox="0 0 1000 1000" style="enable-background:new 0 0 1000 1000;" xml:space="preserve">
<style type="text/css">
	.st0{fill:#FFFFFF;}
</style>
<g>
	<path class="st0" d="M499.9,23C236.9,23,23,236.9,23,499.9c0,262.9,213.9,476.9,476.8,476.9s476.9-213.9,476.9-476.9
		C976.7,236.9,762.8,23,499.9,23L499.9,23z M499.9,931.5c-238,0-431.7-193.7-431.7-431.7S261.9,68.1,499.9,68.1
		s431.7,193.7,431.7,431.7C931.6,738,738,931.5,499.9,931.5L499.9,931.5z"/>
	<path class="st0" d="M506.3,494.5"/>
	<path class="st0" d="M486.7,533.8"/>
</g>
<g>
	<path class="st0" d="M499.9,23C236.9,23,23,236.9,23,499.9c0,262.9,213.9,476.9,476.8,476.9s476.9-213.9,476.9-476.9
		C976.7,236.9,762.8,23,499.9,23L499.9,23z M499.9,931.5c-238,0-431.7-193.7-431.7-431.7S261.9,68.1,499.9,68.1
		s431.7,193.7,431.7,431.7C931.6,738,738,931.5,499.9,931.5L499.9,931.5z"/>
	<path class="st0" d="M506.3,494.5"/>
	<path class="st0" d="M486.7,533.8"/>
</g>
<path class="st0" d="M486.7,186c-10.9,0-19.7,8.8-19.7,19.7v19.6v288.9c0,10.8,8.8,19.6,19.7,19.6c10.8,0,19.6-8.8,19.6-19.6v-19.7
	V205.6C506.3,194.8,497.6,186,486.7,186z"/>
<path class="st0" d="M728.5,604.2l-0.4-0.2l-215-99.2l-18.2-8.4c-9.9-4.5-21.5-0.3-26.1,9.6c-4.6,9.8-0.3,21.5,9.6,26.1l0.4,0.2
	l215,99.2l18.2,8.4c9.9,4.5,21.5,0.3,26.1-9.6C742.7,620.4,738.4,608.7,728.5,604.2z"/>
</svg>
