<?xml version="1.0" encoding="utf-8"?>
<!-- Generator: Adobe Illustrator 21.0.2, SVG Export Plug-In . SVG Version: 6.00 Build 0)  -->
<svg version="1.1" id="all" xmlns="http://www.w3.org/2000/svg" xmlns:xlink="http://www.w3.org/1999/xlink" x="0px" y="0px"
	 viewBox="0 0 2000 1500" style="enable-background:new 0 0 2000 1500;" xml:space="preserve">
<style type="text/css">
	.st0{enable-background:new    ;}
	.st1{fill:#8B5E3C;}
	.st2{fill:#603E29;}
	.st3{fill:#A97C50;}
	.st4{fill:#93CB2F;}
	.st5{fill:#8ABF2C;}
	.st6{fill:#709C24;}
	.st7{fill:#A8A8A8;}
	.st8{fill:#898989;}
	.st9{fill:#545454;}
	.st10{opacity:0.79;fill:#1E9AAF;}
	.st11{opacity:0.8;fill:#24BECE;}
	.st12{fill:#7FBA19;}
	.st13{fill:#754C29;}
	.st14{fill:#93CC2E;}
	.st15{fill:#86BA2A;}
	.st16{fill:#888888;}
.st17 {font-family: 'Open Sans';font-weight: 700;}
.st18 {font-size: 40px;}
	.st19{letter-spacing:-1;}
	.st20{fill:none;stroke:#888888;stroke-width:6.6917;stroke-miterlimit:10;}
</style>
<g id="graphic">
	<g id="ground_1_">
		<g id="dirt">
			<g>
				<g>
					<g class="st0">
						<polygon class="st1" points="1006.1,1230 670.7,1031.6 670.7,1030.8 388,853.4 388,881.7 666.3,1051.8 666.3,1051.9
							671.5,1054.9 671.5,1054.9 671.5,1054.9 1006.1,1249.1 						"/>
						<polygon class="st2" points="1292.5,1043 1292.5,1005 1006.1,1224.2 1006.1,1249.4 1292.5,1073.3 1611.9,888.1 1612,857.9
													"/>
					</g>
				</g>
			</g>
			<polygon class="st3" points="1292.5,1005 973,806.9 667,626.9 388,853.4 661,1025.9 661,1025.9 1006.1,1230.3 			"/>
		</g>
		<g id="grass">
			<polygon id="ground" class="st4" points="1285.2,627.6 976.5,448.2 667,626.9 973.2,807.1 972.3,807.6 1292.5,1005 1611.9,819.8
							"/>
			<g id="grassSpots">
				<g>
					<g>
						<path class="st5" d="M999.7,722.4c-5.6,3.2-5.6,8.4-0.1,11.6c5.5,3.2,14.5,3.2,20,0c5.6-3.2,5.6-8.4,0.1-11.6
							C1014.2,719.2,1005.2,719.2,999.7,722.4z"/>
					</g>
					<g>
						<path class="st5" d="M762,614.3c-5.6,3.2-5.6,8.4-0.1,11.6c5.5,3.2,14.5,3.2,20,0c5.6-3.2,5.6-8.4,0.1-11.6
							C776.5,611.1,767.5,611.1,762,614.3z"/>
					</g>
					<g>
						<path class="st5" d="M836,631.4c-5.6,3.2-5.6,8.4-0.1,11.6c5.5,3.2,14.5,3.2,20,0c5.6-3.2,5.6-8.4,0.1-11.6
							C850.5,628.2,841.5,628.2,836,631.4z"/>
					</g>
					<g>
						<path class="st5" d="M1189,622.9c-5.6,3.2-5.6,8.4-0.1,11.6c5.5,3.2,14.5,3.2,20,0c5.6-3.2,5.6-8.4,0.1-11.6
							C1203.5,619.7,1194.5,619.7,1189,622.9z"/>
					</g>
					<g>
						<path class="st5" d="M1132.1,645.7c-5.6,3.2-5.6,8.4-0.1,11.6c5.5,3.2,14.5,3.2,20,0c5.6-3.2,5.6-8.4,0.1-11.6
							C1146.6,642.4,1137.6,642.4,1132.1,645.7z"/>
					</g>
					<g>
						<path class="st5" d="M1049.4,517.6c-5.6,3.2-5.6,8.4-0.1,11.6c5.5,3.2,14.5,3.2,20,0c5.6-3.2,5.6-8.4,0.1-11.6
							C1063.9,514.4,1055,514.4,1049.4,517.6z"/>
					</g>
					<g>
						<path class="st5" d="M901.4,531.8c-5.6,3.2-5.6,8.4-0.1,11.6c5.5,3.2,14.5,3.2,20,0c5.6-3.2,5.6-8.4,0.1-11.6
							C916,528.6,907,528.6,901.4,531.8z"/>
					</g>
					<g>
						<path class="st5" d="M930.1,736.5c-5.6,3.2-5.6,8.4-0.1,11.6c5.5,3.2,14.5,3.2,20,0c5.6-3.2,5.6-8.4,0.1-11.6
							C944.6,733.3,935.6,733.3,930.1,736.5z"/>
					</g>
				</g>
				<g>
					<g>
						<path class="st5" d="M1290.7,899.4c-5.6,3.2-5.6,8.4-0.1,11.6c5.5,3.2,14.5,3.2,20,0c5.6-3.2,5.6-8.4,0.1-11.6
							C1305.2,896.2,1296.2,896.2,1290.7,899.4z"/>
					</g>
					<g>
						<path class="st5" d="M1053,791.3c-5.6,3.2-5.6,8.4-0.1,11.6c5.5,3.2,14.5,3.2,20,0c5.6-3.2,5.6-8.4,0.1-11.6
							C1067.5,788.1,1058.5,788.1,1053,791.3z"/>
					</g>
					<g>
						<path class="st5" d="M1127,808.4c-5.6,3.2-5.6,8.4-0.1,11.6c5.5,3.2,14.5,3.2,20,0c5.6-3.2,5.6-8.4,0.1-11.6
							C1141.5,805.2,1132.5,805.2,1127,808.4z"/>
					</g>
					<g>
						<path class="st5" d="M1480,799.9c-5.6,3.2-5.6,8.4-0.1,11.6c5.5,3.2,14.5,3.2,20,0c5.6-3.2,5.6-8.4,0.1-11.6
							C1494.5,796.7,1485.5,796.7,1480,799.9z"/>
					</g>
					<g>
						<path class="st5" d="M1423.1,822.7c-5.6,3.2-5.6,8.4-0.1,11.6c5.5,3.2,14.5,3.2,20,0c5.6-3.2,5.6-8.4,0.1-11.6
							C1437.6,819.4,1428.6,819.4,1423.1,822.7z"/>
					</g>
					<g>
						<path class="st5" d="M1340.4,694.6c-5.6,3.2-5.6,8.4-0.1,11.6c5.5,3.2,14.5,3.2,20,0c5.6-3.2,5.6-8.4,0.1-11.6
							C1354.9,691.4,1346,691.4,1340.4,694.6z"/>
					</g>
					<g>
						<path class="st5" d="M1192.4,708.8c-5.6,3.2-5.6,8.4-0.1,11.6c5.5,3.2,14.5,3.2,20,0c5.6-3.2,5.6-8.4,0.1-11.6
							C1207,705.6,1198,705.6,1192.4,708.8z"/>
					</g>
					<g>
						<path class="st5" d="M1221.1,913.5c-5.6,3.2-5.6,8.4-0.1,11.6c5.5,3.2,14.5,3.2,20,0c5.6-3.2,5.6-8.4,0.1-11.6
							C1235.6,910.3,1226.6,910.3,1221.1,913.5z"/>
					</g>
				</g>
			</g>
			<g id="side">
				<g class="st0">
					<g id="XMLID_1283_">
						<polygon id="XMLID_1284_" class="st6" points="1292.5,1005 1292.5,1045.3 1611.9,860.1 1611.9,819.8 						"/>
					</g>
				</g>
			</g>
		</g>
		<g id="concrete">
			<g id="XMLID_193_">
				<g id="XMLID_3_">
					<g id="XMLID_4_">
						<g id="XMLID_5_" class="st0">
							<g id="XMLID_10_">
								<polygon id="XMLID_11_" class="st7" points="689.6,621.8 729.8,645.8 770.9,622.6 730.6,598.6 								"/>
							</g>
							<g id="XMLID_8_">
								<polygon id="XMLID_9_" class="st8" points="689.6,621.8 677.9,631.9 728,664.3 729.8,645.8 								"/>
							</g>
							<g id="XMLID_6_">
								<polygon id="XMLID_7_" class="st9" points="729.8,645.8 728,664.3 780.7,633 770.9,622.6 								"/>
							</g>
						</g>
					</g>
				</g>
				<g id="XMLID_12_">
					<g id="XMLID_13_">
						<g id="XMLID_14_" class="st0">
							<g id="XMLID_19_">
								<polygon id="XMLID_20_" class="st7" points="742.9,652.3 783.9,675 824.2,650.4 783.1,627.8 								"/>
							</g>
							<g id="XMLID_17_">
								<polygon id="XMLID_18_" class="st8" points="742.9,652.3 731.6,662.8 782.7,693.5 783.9,675 								"/>
							</g>
							<g id="XMLID_15_">
								<polygon id="XMLID_16_" class="st9" points="783.9,675 782.7,693.5 834.3,660.4 824.2,650.4 								"/>
							</g>
						</g>
					</g>
				</g>
				<g id="XMLID_30_">
					<g id="XMLID_31_">
						<g id="XMLID_32_" class="st0">
							<g id="XMLID_37_">
								<polygon id="XMLID_38_" class="st7" points="794.6,683.8 834.9,707.8 875.9,684.6 835.6,660.6 								"/>
							</g>
							<g id="XMLID_35_">
								<polygon id="XMLID_36_" class="st8" points="794.6,683.8 782.9,693.9 833,726.3 834.9,707.8 								"/>
							</g>
							<g id="XMLID_33_">
								<polygon id="XMLID_34_" class="st9" points="834.9,707.8 833,726.3 885.7,695 875.9,684.6 								"/>
							</g>
						</g>
					</g>
				</g>
				<g id="XMLID_21_">
					<g id="XMLID_22_">
						<g id="XMLID_23_" class="st0">
							<g id="XMLID_28_">
								<polygon id="XMLID_29_" class="st7" points="845.4,714.5 886.1,737.8 926.8,713.9 886,690.6 								"/>
							</g>
							<g id="XMLID_26_">
								<polygon id="XMLID_27_" class="st8" points="845.4,714.5 834,724.8 884.6,756.3 886.1,737.8 								"/>
							</g>
							<g id="XMLID_24_">
								<polygon id="XMLID_25_" class="st9" points="886.1,737.8 884.6,756.3 936.7,724.1 926.8,713.9 								"/>
							</g>
						</g>
					</g>
				</g>
				<g id="XMLID_48_">
					<g id="XMLID_49_">
						<g id="XMLID_50_" class="st0">
							<g id="XMLID_55_">
								<polygon id="XMLID_56_" class="st7" points="896.6,746.8 936.9,770.8 977.9,747.6 937.6,723.6 								"/>
							</g>
							<g id="XMLID_53_">
								<polygon id="XMLID_54_" class="st8" points="896.6,746.8 884.9,756.9 935,789.3 936.9,770.8 								"/>
							</g>
							<g id="XMLID_51_">
								<polygon id="XMLID_52_" class="st9" points="936.9,770.8 935,789.3 987.7,758 977.9,747.6 								"/>
							</g>
						</g>
					</g>
				</g>
				<g id="XMLID_39_">
					<g id="XMLID_40_">
						<g id="XMLID_41_" class="st0">
							<g id="XMLID_46_">
								<polygon id="XMLID_47_" class="st7" points="947.4,777.5 988.1,800.8 1028.8,776.9 988,753.6 								"/>
							</g>
							<g id="XMLID_44_">
								<polygon id="XMLID_45_" class="st8" points="947.4,777.5 936,787.8 986.6,819.3 988.1,800.8 								"/>
							</g>
							<g id="XMLID_42_">
								<polygon id="XMLID_43_" class="st9" points="988.1,800.8 986.6,819.3 1038.7,787.1 1028.8,776.9 								"/>
							</g>
						</g>
					</g>
				</g>
				<g id="XMLID_102_">
					<g id="XMLID_103_">
						<g id="XMLID_104_" class="st0">
							<g id="XMLID_109_">
								<polygon id="XMLID_110_" class="st7" points="998.6,809.8 1038.9,833.8 1079.9,810.6 1039.6,786.6 								"/>
							</g>
							<g id="XMLID_107_">
								<polygon id="XMLID_108_" class="st8" points="998.6,809.8 986.9,819.9 1037,852.3 1038.9,833.8 								"/>
							</g>
							<g id="XMLID_105_">
								<polygon id="XMLID_106_" class="st9" points="1038.9,833.8 1037,852.3 1089.7,821 1079.9,810.6 								"/>
							</g>
						</g>
					</g>
				</g>
				<g id="XMLID_93_">
					<g id="XMLID_94_">
						<g id="XMLID_95_" class="st0">
							<g id="XMLID_100_">
								<polygon id="XMLID_101_" class="st7" points="1049.4,840.5 1090.1,863.8 1130.8,839.9 1090,816.6 								"/>
							</g>
							<g id="XMLID_98_">
								<polygon id="XMLID_99_" class="st8" points="1049.4,840.5 1038,850.8 1088.6,882.3 1090.1,863.8 								"/>
							</g>
							<g id="XMLID_96_">
								<polygon id="XMLID_97_" class="st9" points="1090.1,863.8 1088.6,882.3 1140.7,850.1 1130.8,839.9 								"/>
							</g>
						</g>
					</g>
				</g>
				<g id="XMLID_84_">
					<g id="XMLID_85_">
						<g id="XMLID_86_" class="st0">
							<g id="XMLID_91_">
								<polygon id="XMLID_92_" class="st7" points="1100.6,872.8 1140.9,896.8 1181.9,873.6 1141.6,849.6 								"/>
							</g>
							<g id="XMLID_89_">
								<polygon id="XMLID_90_" class="st8" points="1100.6,872.8 1088.9,882.9 1139,915.3 1140.9,896.8 								"/>
							</g>
							<g id="XMLID_87_">
								<polygon id="XMLID_88_" class="st9" points="1140.9,896.8 1139,915.3 1191.7,884 1181.9,873.6 								"/>
							</g>
						</g>
					</g>
				</g>
				<g id="XMLID_75_">
					<g id="XMLID_76_">
						<g id="XMLID_77_" class="st0">
							<g id="XMLID_82_">
								<polygon id="XMLID_83_" class="st7" points="1151.4,903.5 1192.1,926.8 1232.8,902.9 1192,879.6 								"/>
							</g>
							<g id="XMLID_80_">
								<polygon id="XMLID_81_" class="st8" points="1151.4,903.5 1140,913.8 1190.6,945.3 1192.1,926.8 								"/>
							</g>
							<g id="XMLID_78_">
								<polygon id="XMLID_79_" class="st9" points="1192.1,926.8 1190.6,945.3 1242.7,913.1 1232.8,902.9 								"/>
							</g>
						</g>
					</g>
				</g>
				<g id="XMLID_66_">
					<g id="XMLID_67_">
						<g id="XMLID_68_" class="st0">
							<g id="XMLID_73_">
								<polygon id="XMLID_74_" class="st7" points="1202.6,932.8 1242.9,956.8 1283.9,933.6 1243.6,909.6 								"/>
							</g>
							<g id="XMLID_71_">
								<polygon id="XMLID_72_" class="st8" points="1202.6,932.8 1190.9,942.9 1241,975.3 1242.9,956.8 								"/>
							</g>
							<g id="XMLID_69_">
								<polygon id="XMLID_70_" class="st9" points="1242.9,956.8 1241,975.3 1293.7,944 1283.9,933.6 								"/>
							</g>
						</g>
					</g>
				</g>
				<g id="XMLID_1218_">
					<g id="XMLID_1219_">
						<g id="XMLID_1220_" class="st0">
							<g id="XMLID_1225_">
								<polygon id="XMLID_1281_" class="st7" points="1254,964 1294.2,988 1335.3,964.8 1295,940.8 								"/>
							</g>
							<g id="XMLID_1223_">
								<polygon id="XMLID_1224_" class="st8" points="1254,964 1242.3,974.1 1292.4,1006.5 1294.2,988 								"/>
							</g>
							<g id="XMLID_1221_">
								<polygon id="XMLID_1222_" class="st9" points="1294.2,988 1292.4,1006.5 1345.1,975.2 1335.3,964.8 								"/>
							</g>
						</g>
					</g>
				</g>
				<g id="XMLID_2_">
					<g id="XMLID_183_">
						<g id="XMLID_184_">
							<g id="XMLID_185_" class="st0">
								<g id="XMLID_190_">
									<polygon id="XMLID_191_" class="st7" points="1094.6,947.9 1134.6,971 1182.4,933.3 1142.9,911.3 									"/>
								</g>
								<g id="XMLID_188_">
									<polygon id="XMLID_189_" class="st8" points="1095.8,947.1 1086.2,955.6 1136.5,986.4 1134.5,969.5 									"/>
								</g>
								<g id="XMLID_186_">
									<polygon id="XMLID_187_" class="st9" points="1134.5,969.5 1136.5,986.4 1193.4,942.1 1182.4,933.3 									"/>
								</g>
							</g>
						</g>
					</g>
					<g id="XMLID_174_">
						<g id="XMLID_175_">
							<g id="XMLID_176_" class="st0">
								<g id="XMLID_181_">
									<polygon id="XMLID_182_" class="st7" points="1037.7,991 1077.7,1014.1 1125.5,976.3 1086,954.4 									"/>
								</g>
								<g id="XMLID_179_">
									<polygon id="XMLID_180_" class="st8" points="1038.9,990.1 1029.3,998.7 1079.6,1029.4 1077.6,1012.5 									"/>
								</g>
								<g id="XMLID_177_">
									<polygon id="XMLID_178_" class="st9" points="1077.6,1012.5 1079.6,1029.4 1136.5,985.2 1125.5,976.3 									"/>
								</g>
							</g>
						</g>
					</g>
					<g id="XMLID_165_">
						<g id="XMLID_166_">
							<g id="XMLID_167_" class="st0">
								<g id="XMLID_172_">
									<polygon id="XMLID_173_" class="st7" points="982,1034.4 1021.9,1057.5 1069.8,1019.7 1030.2,997.8 									"/>
								</g>
								<g id="XMLID_170_">
									<polygon id="XMLID_171_" class="st8" points="983.1,1033.5 973.5,1042.1 1023.8,1072.8 1021.9,1055.9 									"/>
								</g>
								<g id="XMLID_168_">
									<polygon id="XMLID_169_" class="st9" points="1021.9,1055.9 1023.8,1072.8 1080.7,1028.5 1069.8,1019.7 									"/>
								</g>
							</g>
						</g>
					</g>
					<g id="XMLID_156_">
						<g id="XMLID_157_">
							<g id="XMLID_158_" class="st0">
								<g id="XMLID_163_">
									<polygon id="XMLID_164_" class="st7" points="923.8,1079.5 963.7,1102.6 1011.6,1064.8 972,1042.9 									"/>
								</g>
								<g id="XMLID_161_">
									<polygon id="XMLID_162_" class="st8" points="925,1078.6 915.4,1087.2 965.6,1117.9 963.7,1101 									"/>
								</g>
								<g id="XMLID_159_">
									<polygon id="XMLID_160_" class="st9" points="963.7,1101 965.6,1117.9 1022.6,1073.7 1011.6,1064.8 									"/>
								</g>
							</g>
						</g>
					</g>
					<g id="XMLID_147_">
						<g id="XMLID_148_">
							<g id="XMLID_149_" class="st0">
								<g id="XMLID_154_">
									<polygon id="XMLID_155_" class="st7" points="866.6,1121.9 906.5,1145 954.4,1107.2 914.8,1085.3 									"/>
								</g>
								<g id="XMLID_152_">
									<polygon id="XMLID_153_" class="st8" points="867.7,1121 858.1,1129.6 908.4,1160.3 906.5,1143.4 									"/>
								</g>
								<g id="XMLID_150_">
									<polygon id="XMLID_151_" class="st9" points="906.5,1143.4 908.4,1160.3 965.4,1116.1 954.4,1107.2 									"/>
								</g>
							</g>
						</g>
					</g>
				</g>
				<g id="XMLID_194_">
					<g id="XMLID_231_">
						<g id="XMLID_232_">
							<g id="XMLID_233_" class="st0">
								<g id="XMLID_238_">
									<polygon id="XMLID_239_" class="st7" points="1044.1,918.7 1084,941.8 1131.9,904 1092.3,882.1 									"/>
								</g>
								<g id="XMLID_236_">
									<polygon id="XMLID_237_" class="st8" points="1045.2,917.8 1035.7,926.4 1085.9,957.1 1084,940.2 									"/>
								</g>
								<g id="XMLID_234_">
									<polygon id="XMLID_235_" class="st9" points="1084,940.2 1085.9,957.1 1142.9,912.9 1131.9,904 									"/>
								</g>
							</g>
						</g>
					</g>
					<g id="XMLID_222_">
						<g id="XMLID_223_">
							<g id="XMLID_224_" class="st0">
								<g id="XMLID_229_">
									<polygon id="XMLID_230_" class="st7" points="987.2,961.8 1027.1,984.9 1075,947.1 1035.4,925.2 									"/>
								</g>
								<g id="XMLID_227_">
									<polygon id="XMLID_228_" class="st8" points="988.3,960.9 978.8,969.5 1029,1000.2 1027.1,983.3 									"/>
								</g>
								<g id="XMLID_225_">
									<polygon id="XMLID_226_" class="st9" points="1027.1,983.3 1029,1000.2 1086,955.9 1075,947.1 									"/>
								</g>
							</g>
						</g>
					</g>
					<g id="XMLID_213_">
						<g id="XMLID_214_">
							<g id="XMLID_215_" class="st0">
								<g id="XMLID_220_">
									<polygon id="XMLID_221_" class="st7" points="931.4,1005.2 971.4,1028.3 1019.3,990.5 979.7,968.6 									"/>
								</g>
								<g id="XMLID_218_">
									<polygon id="XMLID_219_" class="st8" points="932.6,1004.3 923,1012.9 973.3,1043.6 971.3,1026.7 									"/>
								</g>
								<g id="XMLID_216_">
									<polygon id="XMLID_217_" class="st9" points="971.3,1026.7 973.3,1043.6 1030.2,999.3 1019.3,990.5 									"/>
								</g>
							</g>
						</g>
					</g>
					<g id="XMLID_204_">
						<g id="XMLID_205_">
							<g id="XMLID_206_" class="st0">
								<g id="XMLID_211_">
									<polygon id="XMLID_212_" class="st7" points="873.3,1050.3 913.2,1073.4 961.1,1035.6 921.5,1013.7 									"/>
								</g>
								<g id="XMLID_209_">
									<polygon id="XMLID_210_" class="st8" points="874.4,1049.4 864.8,1058 915.1,1088.7 913.2,1071.8 									"/>
								</g>
								<g id="XMLID_207_">
									<polygon id="XMLID_208_" class="st9" points="913.2,1071.8 915.1,1088.7 972,1044.4 961.1,1035.6 									"/>
								</g>
							</g>
						</g>
					</g>
					<g id="XMLID_195_">
						<g id="XMLID_196_">
							<g id="XMLID_197_" class="st0">
								<g id="XMLID_202_">
									<polygon id="XMLID_203_" class="st7" points="816,1092.7 856,1115.8 903.9,1078 864.3,1056.1 									"/>
								</g>
								<g id="XMLID_200_">
									<polygon id="XMLID_201_" class="st8" points="817.2,1091.8 807.6,1100.4 857.9,1131.1 855.9,1114.2 									"/>
								</g>
								<g id="XMLID_198_">
									<polygon id="XMLID_199_" class="st9" points="855.9,1114.2 857.9,1131.1 914.8,1086.8 903.9,1078 									"/>
								</g>
							</g>
						</g>
					</g>
				</g>
				<g id="XMLID_240_">
					<g id="XMLID_277_">
						<g id="XMLID_278_">
							<g id="XMLID_279_" class="st0">
								<g id="XMLID_284_">
									<polygon id="XMLID_285_" class="st7" points="991.8,887.4 1031.8,910.5 1079.7,872.7 1040.1,850.8 									"/>
								</g>
								<g id="XMLID_282_">
									<polygon id="XMLID_283_" class="st8" points="993,886.5 983.4,895.1 1033.7,925.8 1031.7,908.9 									"/>
								</g>
								<g id="XMLID_280_">
									<polygon id="XMLID_281_" class="st9" points="1031.7,908.9 1033.7,925.8 1090.6,881.5 1079.7,872.7 									"/>
								</g>
							</g>
						</g>
					</g>
					<g id="XMLID_268_">
						<g id="XMLID_269_">
							<g id="XMLID_270_" class="st0">
								<g id="XMLID_275_">
									<polygon id="XMLID_276_" class="st7" points="934.9,930.4 974.9,953.5 1022.8,915.8 983.2,893.8 									"/>
								</g>
								<g id="XMLID_273_">
									<polygon id="XMLID_274_" class="st8" points="936.1,929.6 926.5,938.1 976.8,968.9 974.8,951.9 									"/>
								</g>
								<g id="XMLID_271_">
									<polygon id="XMLID_272_" class="st9" points="974.8,951.9 976.8,968.9 1033.7,924.6 1022.8,915.8 									"/>
								</g>
							</g>
						</g>
					</g>
					<g id="XMLID_259_">
						<g id="XMLID_260_">
							<g id="XMLID_261_" class="st0">
								<g id="XMLID_266_">
									<polygon id="XMLID_267_" class="st7" points="879.2,973.8 919.1,996.9 967,959.1 927.4,937.2 									"/>
								</g>
								<g id="XMLID_264_">
									<polygon id="XMLID_265_" class="st8" points="880.3,972.9 870.8,981.5 921,1012.2 919.1,995.3 									"/>
								</g>
								<g id="XMLID_262_">
									<polygon id="XMLID_263_" class="st9" points="919.1,995.3 921,1012.2 978,968 967,959.1 									"/>
								</g>
							</g>
						</g>
					</g>
					<g id="XMLID_250_">
						<g id="XMLID_251_">
							<g id="XMLID_252_" class="st0">
								<g id="XMLID_257_">
									<polygon id="XMLID_258_" class="st7" points="821,1018.9 861,1042 908.9,1004.3 869.3,982.3 									"/>
								</g>
								<g id="XMLID_255_">
									<polygon id="XMLID_256_" class="st8" points="822.2,1018.1 812.6,1026.6 862.9,1057.4 860.9,1040.5 									"/>
								</g>
								<g id="XMLID_253_">
									<polygon id="XMLID_254_" class="st9" points="860.9,1040.5 862.9,1057.4 919.8,1013.1 908.9,1004.3 									"/>
								</g>
							</g>
						</g>
					</g>
					<g id="XMLID_241_">
						<g id="XMLID_242_">
							<g id="XMLID_243_" class="st0">
								<g id="XMLID_248_">
									<polygon id="XMLID_249_" class="st7" points="763.8,1061.3 803.8,1084.4 851.6,1046.7 812.1,1024.7 									"/>
								</g>
								<g id="XMLID_246_">
									<polygon id="XMLID_247_" class="st8" points="765,1060.5 755.4,1069 805.7,1099.8 803.7,1082.9 									"/>
								</g>
								<g id="XMLID_244_">
									<polygon id="XMLID_245_" class="st9" points="803.7,1082.9 805.7,1099.8 862.6,1055.5 851.6,1046.7 									"/>
								</g>
							</g>
						</g>
					</g>
				</g>
				<g id="XMLID_286_">
					<g id="XMLID_323_">
						<g id="XMLID_324_">
							<g id="XMLID_325_" class="st0">
								<g id="XMLID_330_">
									<polygon id="XMLID_331_" class="st7" points="939.6,855.5 979.6,878.6 1027.4,840.8 987.9,818.9 									"/>
								</g>
								<g id="XMLID_328_">
									<polygon id="XMLID_329_" class="st8" points="940.8,854.6 931.2,863.2 981.5,893.9 979.5,877 									"/>
								</g>
								<g id="XMLID_326_">
									<polygon id="XMLID_327_" class="st9" points="979.5,877 981.5,893.9 1038.4,849.7 1027.4,840.8 									"/>
								</g>
							</g>
						</g>
					</g>
					<g id="XMLID_314_">
						<g id="XMLID_315_">
							<g id="XMLID_316_" class="st0">
								<g id="XMLID_321_">
									<polygon id="XMLID_322_" class="st7" points="882.7,898.6 922.7,921.7 970.5,883.9 931,862 									"/>
								</g>
								<g id="XMLID_319_">
									<polygon id="XMLID_320_" class="st8" points="883.9,897.7 874.3,906.3 924.6,937 922.6,920.1 									"/>
								</g>
								<g id="XMLID_317_">
									<polygon id="XMLID_318_" class="st9" points="922.6,920.1 924.6,937 981.5,892.7 970.5,883.9 									"/>
								</g>
							</g>
						</g>
					</g>
					<g id="XMLID_305_">
						<g id="XMLID_306_">
							<g id="XMLID_307_" class="st0">
								<g id="XMLID_312_">
									<polygon id="XMLID_313_" class="st7" points="826.9,942 866.9,965.1 914.8,927.3 875.2,905.3 									"/>
								</g>
								<g id="XMLID_310_">
									<polygon id="XMLID_311_" class="st8" points="828.1,941.1 818.5,949.6 868.8,980.4 866.8,963.5 									"/>
								</g>
								<g id="XMLID_308_">
									<polygon id="XMLID_309_" class="st9" points="866.8,963.5 868.8,980.4 925.7,936.1 914.8,927.3 									"/>
								</g>
							</g>
						</g>
					</g>
					<g id="XMLID_296_">
						<g id="XMLID_297_">
							<g id="XMLID_298_" class="st0">
								<g id="XMLID_303_">
									<polygon id="XMLID_304_" class="st7" points="768.8,987.1 808.7,1010.2 856.6,972.4 817,950.5 									"/>
								</g>
								<g id="XMLID_301_">
									<polygon id="XMLID_302_" class="st8" points="769.9,986.2 760.3,994.8 810.6,1025.5 808.7,1008.6 									"/>
								</g>
								<g id="XMLID_299_">
									<polygon id="XMLID_300_" class="st9" points="808.7,1008.6 810.6,1025.5 867.6,981.2 856.6,972.4 									"/>
								</g>
							</g>
						</g>
					</g>
					<g id="XMLID_287_">
						<g id="XMLID_288_">
							<g id="XMLID_289_" class="st0">
								<g id="XMLID_294_">
									<polygon id="XMLID_295_" class="st7" points="711.6,1029.5 751.5,1052.6 799.4,1014.8 759.8,992.9 									"/>
								</g>
								<g id="XMLID_292_">
									<polygon id="XMLID_293_" class="st8" points="712.7,1028.6 703.1,1037.2 753.4,1067.9 751.5,1051 									"/>
								</g>
								<g id="XMLID_290_">
									<polygon id="XMLID_291_" class="st9" points="751.5,1051 753.4,1067.9 810.3,1023.6 799.4,1014.8 									"/>
								</g>
							</g>
						</g>
					</g>
				</g>
				<g id="XMLID_332_">
					<g id="XMLID_369_">
						<g id="XMLID_370_">
							<g id="XMLID_371_" class="st0">
								<g id="XMLID_376_">
									<polygon id="XMLID_377_" class="st7" points="889.2,825.5 929.2,848.6 977.1,810.8 937.5,788.9 									"/>
								</g>
								<g id="XMLID_374_">
									<polygon id="XMLID_375_" class="st8" points="890.4,824.6 880.8,833.2 931.1,863.9 929.2,847 									"/>
								</g>
								<g id="XMLID_372_">
									<polygon id="XMLID_373_" class="st9" points="929.2,847 931.1,863.9 988,819.7 977.1,810.8 									"/>
								</g>
							</g>
						</g>
					</g>
					<g id="XMLID_360_">
						<g id="XMLID_361_">
							<g id="XMLID_362_" class="st0">
								<g id="XMLID_367_">
									<polygon id="XMLID_368_" class="st7" points="832.4,868.6 872.3,891.7 920.2,853.9 880.6,832 									"/>
								</g>
								<g id="XMLID_365_">
									<polygon id="XMLID_366_" class="st8" points="833.5,867.7 823.9,876.3 874.2,907 872.3,890.1 									"/>
								</g>
								<g id="XMLID_363_">
									<polygon id="XMLID_364_" class="st9" points="872.3,890.1 874.2,907 931.1,862.7 920.2,853.9 									"/>
								</g>
							</g>
						</g>
					</g>
					<g id="XMLID_351_">
						<g id="XMLID_352_">
							<g id="XMLID_353_" class="st0">
								<g id="XMLID_358_">
									<polygon id="XMLID_359_" class="st7" points="776.6,912 816.6,935.1 864.4,897.3 824.8,875.3 									"/>
								</g>
								<g id="XMLID_356_">
									<polygon id="XMLID_357_" class="st8" points="777.8,911.1 768.2,919.6 818.4,950.4 816.5,933.5 									"/>
								</g>
								<g id="XMLID_354_">
									<polygon id="XMLID_355_" class="st9" points="816.5,933.5 818.4,950.4 875.4,906.1 864.4,897.3 									"/>
								</g>
							</g>
						</g>
					</g>
					<g id="XMLID_342_">
						<g id="XMLID_343_">
							<g id="XMLID_344_" class="st0">
								<g id="XMLID_349_">
									<polygon id="XMLID_350_" class="st7" points="718.4,957.1 758.4,980.2 806.3,942.4 766.7,920.5 									"/>
								</g>
								<g id="XMLID_347_">
									<polygon id="XMLID_348_" class="st8" points="719.6,956.2 710,964.8 760.3,995.5 758.3,978.6 									"/>
								</g>
								<g id="XMLID_345_">
									<polygon id="XMLID_346_" class="st9" points="758.3,978.6 760.3,995.5 817.2,951.2 806.3,942.4 									"/>
								</g>
							</g>
						</g>
					</g>
					<g id="XMLID_333_">
						<g id="XMLID_334_">
							<g id="XMLID_335_" class="st0">
								<g id="XMLID_340_">
									<polygon id="XMLID_341_" class="st7" points="661.2,999.5 701.2,1022.6 749,984.8 709.5,962.9 									"/>
								</g>
								<g id="XMLID_338_">
									<polygon id="XMLID_339_" class="st8" points="662.4,998.6 652.8,1007.2 703.1,1037.9 701.1,1021 									"/>
								</g>
								<g id="XMLID_336_">
									<polygon id="XMLID_337_" class="st9" points="701.1,1021 703.1,1037.9 760,993.6 749,984.8 									"/>
								</g>
							</g>
						</g>
					</g>
				</g>
				<g id="XMLID_378_">
					<g id="XMLID_415_">
						<g id="XMLID_416_">
							<g id="XMLID_417_" class="st0">
								<g id="XMLID_422_">
									<polygon id="XMLID_423_" class="st7" points="837.6,794.4 877.6,817.5 925.5,779.7 885.9,757.8 									"/>
								</g>
								<g id="XMLID_420_">
									<polygon id="XMLID_421_" class="st8" points="838.8,793.5 829.2,802.1 879.5,832.8 877.5,815.9 									"/>
								</g>
								<g id="XMLID_418_">
									<polygon id="XMLID_419_" class="st9" points="877.5,815.9 879.5,832.8 936.4,788.5 925.5,779.7 									"/>
								</g>
							</g>
						</g>
					</g>
					<g id="XMLID_406_">
						<g id="XMLID_407_">
							<g id="XMLID_408_" class="st0">
								<g id="XMLID_413_">
									<polygon id="XMLID_414_" class="st7" points="780.7,837.5 820.7,860.6 868.6,822.8 829,800.9 									"/>
								</g>
								<g id="XMLID_411_">
									<polygon id="XMLID_412_" class="st8" points="781.9,836.6 772.3,845.1 822.6,875.9 820.6,859 									"/>
								</g>
								<g id="XMLID_409_">
									<polygon id="XMLID_410_" class="st9" points="820.6,859 822.6,875.9 879.5,831.6 868.6,822.8 									"/>
								</g>
							</g>
						</g>
					</g>
					<g id="XMLID_397_">
						<g id="XMLID_398_">
							<g id="XMLID_399_" class="st0">
								<g id="XMLID_404_">
									<polygon id="XMLID_405_" class="st7" points="725,880.8 764.9,903.9 812.8,866.2 773.2,844.2 									"/>
								</g>
								<g id="XMLID_402_">
									<polygon id="XMLID_403_" class="st8" points="726.1,880 716.5,888.5 766.8,919.3 764.9,902.3 									"/>
								</g>
								<g id="XMLID_400_">
									<polygon id="XMLID_401_" class="st9" points="764.9,902.3 766.8,919.3 823.7,875 812.8,866.2 									"/>
								</g>
							</g>
						</g>
					</g>
					<g id="XMLID_388_">
						<g id="XMLID_389_">
							<g id="XMLID_390_" class="st0">
								<g id="XMLID_395_">
									<polygon id="XMLID_396_" class="st7" points="666.8,926 706.7,949.1 754.6,911.3 715,889.4 									"/>
								</g>
								<g id="XMLID_393_">
									<polygon id="XMLID_394_" class="st8" points="668,925.1 658.4,933.7 708.6,964.4 706.7,947.5 									"/>
								</g>
								<g id="XMLID_391_">
									<polygon id="XMLID_392_" class="st9" points="706.7,947.5 708.6,964.4 765.6,920.1 754.6,911.3 									"/>
								</g>
							</g>
						</g>
					</g>
					<g id="XMLID_379_">
						<g id="XMLID_380_">
							<g id="XMLID_381_" class="st0">
								<g id="XMLID_386_">
									<polygon id="XMLID_387_" class="st7" points="609.6,968.4 649.5,991.5 697.4,953.7 657.8,931.8 									"/>
								</g>
								<g id="XMLID_384_">
									<polygon id="XMLID_385_" class="st8" points="610.7,967.5 601.2,976.1 651.4,1006.8 649.5,989.9 									"/>
								</g>
								<g id="XMLID_382_">
									<polygon id="XMLID_383_" class="st9" points="649.5,989.9 651.4,1006.8 708.4,962.5 697.4,953.7 									"/>
								</g>
							</g>
						</g>
					</g>
				</g>
				<g id="XMLID_424_">
					<g id="XMLID_461_">
						<g id="XMLID_462_">
							<g id="XMLID_463_" class="st0">
								<g id="XMLID_468_">
									<polygon id="XMLID_469_" class="st7" points="787.3,762.4 827.2,785.5 875.1,747.7 835.5,725.8 									"/>
								</g>
								<g id="XMLID_466_">
									<polygon id="XMLID_467_" class="st8" points="788.4,761.5 778.8,770.1 829.1,800.8 827.2,783.9 									"/>
								</g>
								<g id="XMLID_464_">
									<polygon id="XMLID_465_" class="st9" points="827.2,783.9 829.1,800.8 886,756.5 875.1,747.7 									"/>
								</g>
							</g>
						</g>
					</g>
					<g id="XMLID_452_">
						<g id="XMLID_453_">
							<g id="XMLID_454_" class="st0">
								<g id="XMLID_459_">
									<polygon id="XMLID_460_" class="st7" points="730.4,805.5 770.3,828.6 818.2,790.8 778.6,768.8 									"/>
								</g>
								<g id="XMLID_457_">
									<polygon id="XMLID_458_" class="st8" points="731.5,804.6 721.9,813.1 772.2,843.9 770.3,827 									"/>
								</g>
								<g id="XMLID_455_">
									<polygon id="XMLID_456_" class="st9" points="770.3,827 772.2,843.9 829.1,799.6 818.2,790.8 									"/>
								</g>
							</g>
						</g>
					</g>
					<g id="XMLID_443_">
						<g id="XMLID_444_">
							<g id="XMLID_445_" class="st0">
								<g id="XMLID_450_">
									<polygon id="XMLID_451_" class="st7" points="674.6,848.8 714.6,871.9 762.4,834.1 722.9,812.2 									"/>
								</g>
								<g id="XMLID_448_">
									<polygon id="XMLID_449_" class="st8" points="675.8,847.9 666.2,856.5 716.5,887.2 714.5,870.3 									"/>
								</g>
								<g id="XMLID_446_">
									<polygon id="XMLID_447_" class="st9" points="714.5,870.3 716.5,887.2 773.4,843 762.4,834.1 									"/>
								</g>
							</g>
						</g>
					</g>
					<g id="XMLID_434_">
						<g id="XMLID_435_">
							<g id="XMLID_436_" class="st0">
								<g id="XMLID_441_">
									<polygon id="XMLID_442_" class="st7" points="616.4,894 656.4,917.1 704.3,879.3 664.7,857.4 									"/>
								</g>
								<g id="XMLID_439_">
									<polygon id="XMLID_440_" class="st8" points="617.6,893.1 608,901.6 658.3,932.4 656.3,915.5 									"/>
								</g>
								<g id="XMLID_437_">
									<polygon id="XMLID_438_" class="st9" points="656.3,915.5 658.3,932.4 715.2,888.1 704.3,879.3 									"/>
								</g>
							</g>
						</g>
					</g>
					<g id="XMLID_425_">
						<g id="XMLID_426_">
							<g id="XMLID_427_" class="st0">
								<g id="XMLID_432_">
									<polygon id="XMLID_433_" class="st7" points="559.2,936.4 599.2,959.5 647.1,921.7 607.5,899.7 									"/>
								</g>
								<g id="XMLID_430_">
									<polygon id="XMLID_431_" class="st8" points="560.4,935.5 550.8,944 601.1,974.8 599.1,957.9 									"/>
								</g>
								<g id="XMLID_428_">
									<polygon id="XMLID_429_" class="st9" points="599.1,957.9 601.1,974.8 658,930.5 647.1,921.7 									"/>
								</g>
							</g>
						</g>
					</g>
				</g>
				<g id="XMLID_470_">
					<g id="XMLID_507_">
						<g id="XMLID_508_">
							<g id="XMLID_509_" class="st0">
								<g id="XMLID_514_">
									<polygon id="XMLID_515_" class="st7" points="735.6,730.9 775.6,754 823.5,716.2 783.9,694.3 									"/>
								</g>
								<g id="XMLID_512_">
									<polygon id="XMLID_513_" class="st8" points="736.8,730 727.2,738.6 777.5,769.3 775.5,752.4 									"/>
								</g>
								<g id="XMLID_510_">
									<polygon id="XMLID_511_" class="st9" points="775.5,752.4 777.5,769.3 834.4,725 823.5,716.2 									"/>
								</g>
							</g>
						</g>
					</g>
					<g id="XMLID_498_">
						<g id="XMLID_499_">
							<g id="XMLID_500_" class="st0">
								<g id="XMLID_505_">
									<polygon id="XMLID_506_" class="st7" points="678.7,773.9 718.7,797 766.6,759.2 727,737.3 									"/>
								</g>
								<g id="XMLID_503_">
									<polygon id="XMLID_504_" class="st8" points="679.9,773 670.3,781.6 720.6,812.3 718.6,795.4 									"/>
								</g>
								<g id="XMLID_501_">
									<polygon id="XMLID_502_" class="st9" points="718.6,795.4 720.6,812.3 777.5,768.1 766.6,759.2 									"/>
								</g>
							</g>
						</g>
					</g>
					<g id="XMLID_489_">
						<g id="XMLID_490_">
							<g id="XMLID_491_" class="st0">
								<g id="XMLID_496_">
									<polygon id="XMLID_497_" class="st7" points="623,817.3 662.9,840.4 710.8,802.6 671.2,780.7 									"/>
								</g>
								<g id="XMLID_494_">
									<polygon id="XMLID_495_" class="st8" points="624.1,816.4 614.5,825 664.8,855.7 662.9,838.8 									"/>
								</g>
								<g id="XMLID_492_">
									<polygon id="XMLID_493_" class="st9" points="662.9,838.8 664.8,855.7 721.8,811.5 710.8,802.6 									"/>
								</g>
							</g>
						</g>
					</g>
					<g id="XMLID_480_">
						<g id="XMLID_481_">
							<g id="XMLID_482_" class="st0">
								<g id="XMLID_487_">
									<polygon id="XMLID_488_" class="st7" points="564.8,862.4 604.8,885.5 652.6,847.8 613.1,825.8 									"/>
								</g>
								<g id="XMLID_485_">
									<polygon id="XMLID_486_" class="st8" points="566,861.6 556.4,870.1 606.7,900.9 604.7,883.9 									"/>
								</g>
								<g id="XMLID_483_">
									<polygon id="XMLID_484_" class="st9" points="604.7,883.9 606.7,900.9 663.6,856.6 652.6,847.8 									"/>
								</g>
							</g>
						</g>
					</g>
					<g id="XMLID_471_">
						<g id="XMLID_472_">
							<g id="XMLID_473_" class="st0">
								<g id="XMLID_478_">
									<polygon id="XMLID_479_" class="st7" points="507.6,904.8 547.5,927.9 595.4,890.2 555.8,868.2 									"/>
								</g>
								<g id="XMLID_476_">
									<polygon id="XMLID_477_" class="st8" points="508.8,904 499.2,912.5 549.4,943.3 547.5,926.3 									"/>
								</g>
								<g id="XMLID_474_">
									<polygon id="XMLID_475_" class="st9" points="547.5,926.3 549.4,943.3 606.4,899 595.4,890.2 									"/>
								</g>
							</g>
						</g>
					</g>
				</g>
				<g id="XMLID_516_">
					<g id="XMLID_553_">
						<g id="XMLID_554_">
							<g id="XMLID_555_" class="st0">
								<g id="XMLID_560_">
									<polygon id="XMLID_561_" class="st7" points="685.3,697.9 725.2,721 773.1,683.2 733.5,661.3 									"/>
								</g>
								<g id="XMLID_558_">
									<polygon id="XMLID_559_" class="st8" points="686.4,697 676.9,705.6 727.1,736.3 725.2,719.4 									"/>
								</g>
								<g id="XMLID_556_">
									<polygon id="XMLID_557_" class="st9" points="725.2,719.4 727.1,736.3 784.1,692.1 773.1,683.2 									"/>
								</g>
							</g>
						</g>
					</g>
					<g id="XMLID_544_">
						<g id="XMLID_545_">
							<g id="XMLID_546_" class="st0">
								<g id="XMLID_551_">
									<polygon id="XMLID_552_" class="st7" points="628.4,741 668.3,764.1 716.2,726.3 676.6,704.4 									"/>
								</g>
								<g id="XMLID_549_">
									<polygon id="XMLID_550_" class="st8" points="629.5,740.1 620,748.7 670.2,779.4 668.3,762.5 									"/>
								</g>
								<g id="XMLID_547_">
									<polygon id="XMLID_548_" class="st9" points="668.3,762.5 670.2,779.4 727.2,735.1 716.2,726.3 									"/>
								</g>
							</g>
						</g>
					</g>
					<g id="XMLID_535_">
						<g id="XMLID_536_">
							<g id="XMLID_537_" class="st0">
								<g id="XMLID_542_">
									<polygon id="XMLID_543_" class="st7" points="572.6,784.3 612.6,807.5 660.5,769.7 620.9,747.7 									"/>
								</g>
								<g id="XMLID_540_">
									<polygon id="XMLID_541_" class="st8" points="573.8,783.5 564.2,792 614.5,822.8 612.5,805.9 									"/>
								</g>
								<g id="XMLID_538_">
									<polygon id="XMLID_539_" class="st9" points="612.5,805.9 614.5,822.8 671.4,778.5 660.5,769.7 									"/>
								</g>
							</g>
						</g>
					</g>
					<g id="XMLID_526_">
						<g id="XMLID_527_">
							<g id="XMLID_528_" class="st0">
								<g id="XMLID_533_">
									<polygon id="XMLID_534_" class="st7" points="514.5,829.5 554.4,852.6 602.3,814.8 562.7,792.9 									"/>
								</g>
								<g id="XMLID_531_">
									<polygon id="XMLID_532_" class="st8" points="515.6,828.6 506,837.2 556.3,867.9 554.4,851 									"/>
								</g>
								<g id="XMLID_529_">
									<polygon id="XMLID_530_" class="st9" points="554.4,851 556.3,867.9 613.2,823.6 602.3,814.8 									"/>
								</g>
							</g>
						</g>
					</g>
					<g id="XMLID_517_">
						<g id="XMLID_518_">
							<g id="XMLID_519_" class="st0">
								<g id="XMLID_524_">
									<polygon id="XMLID_525_" class="st7" points="457.2,871.9 497.2,895 545.1,857.2 505.5,835.3 									"/>
								</g>
								<g id="XMLID_522_">
									<polygon id="XMLID_523_" class="st8" points="458.4,871 448.8,879.6 499.1,910.3 497.1,893.4 									"/>
								</g>
								<g id="XMLID_520_">
									<polygon id="XMLID_521_" class="st9" points="497.1,893.4 499.1,910.3 556,866 545.1,857.2 									"/>
								</g>
							</g>
						</g>
					</g>
				</g>
				<g id="XMLID_562_">
					<g id="XMLID_599_">
						<g id="XMLID_600_">
							<g id="XMLID_601_" class="st0">
								<g id="XMLID_606_">
									<polygon id="XMLID_607_" class="st7" points="633.6,665.7 673.6,688.8 721.5,651 681.9,629.1 									"/>
								</g>
								<g id="XMLID_604_">
									<polygon id="XMLID_605_" class="st8" points="634.8,664.9 625.2,673.4 675.5,704.1 673.5,687.2 									"/>
								</g>
								<g id="XMLID_602_">
									<polygon id="XMLID_603_" class="st9" points="673.5,687.2 675.5,704.1 732.4,659.9 721.5,651 									"/>
								</g>
							</g>
						</g>
					</g>
					<g id="XMLID_590_">
						<g id="XMLID_591_">
							<g id="XMLID_592_" class="st0">
								<g id="XMLID_597_">
									<polygon id="XMLID_598_" class="st7" points="576.7,708.8 616.7,731.9 664.6,694.1 625,672.2 									"/>
								</g>
								<g id="XMLID_595_">
									<polygon id="XMLID_596_" class="st8" points="577.9,707.9 568.3,716.5 618.6,747.2 616.6,730.3 									"/>
								</g>
								<g id="XMLID_593_">
									<polygon id="XMLID_594_" class="st9" points="616.6,730.3 618.6,747.2 675.5,702.9 664.6,694.1 									"/>
								</g>
							</g>
						</g>
					</g>
					<g id="XMLID_581_">
						<g id="XMLID_582_">
							<g id="XMLID_583_" class="st0">
								<g id="XMLID_588_">
									<polygon id="XMLID_589_" class="st7" points="521,752.2 560.9,775.3 608.8,737.5 569.2,715.6 									"/>
								</g>
								<g id="XMLID_586_">
									<polygon id="XMLID_587_" class="st8" points="522.2,751.3 512.6,759.9 562.8,790.6 560.9,773.7 									"/>
								</g>
								<g id="XMLID_584_">
									<polygon id="XMLID_585_" class="st9" points="560.9,773.7 562.8,790.6 619.8,746.3 608.8,737.5 									"/>
								</g>
							</g>
						</g>
					</g>
					<g id="XMLID_572_">
						<g id="XMLID_573_">
							<g id="XMLID_574_" class="st0">
								<g id="XMLID_579_">
									<polygon id="XMLID_580_" class="st7" points="462.8,797.3 502.8,820.4 550.7,782.6 511.1,760.7 									"/>
								</g>
								<g id="XMLID_577_">
									<polygon id="XMLID_578_" class="st8" points="464,796.4 454.4,805 504.7,835.7 502.7,818.8 									"/>
								</g>
								<g id="XMLID_575_">
									<polygon id="XMLID_576_" class="st9" points="502.7,818.8 504.7,835.7 561.6,791.4 550.7,782.6 									"/>
								</g>
							</g>
						</g>
					</g>
					<g id="XMLID_563_">
						<g id="XMLID_564_">
							<g id="XMLID_565_" class="st0">
								<g id="XMLID_570_">
									<polygon id="XMLID_571_" class="st7" points="405.6,839.7 445.6,862.8 493.4,825 453.9,803.1 									"/>
								</g>
								<g id="XMLID_568_">
									<polygon id="XMLID_569_" class="st8" points="406.8,838.8 397.2,847.4 447.5,878.1 445.5,861.2 									"/>
								</g>
								<g id="XMLID_566_">
									<polygon id="XMLID_567_" class="st9" points="445.5,861.2 447.5,878.1 504.4,833.8 493.4,825 									"/>
								</g>
							</g>
						</g>
					</g>
				</g>
				<g id="XMLID_192_">
					<g id="XMLID_57_">
						<g id="XMLID_58_">
							<g id="XMLID_59_" class="st0">
								<g id="XMLID_64_">
									<polygon id="XMLID_65_" class="st7" points="1143.1,980 1183,1003.1 1230.9,965.3 1191.3,943.4 									"/>
								</g>
								<g id="XMLID_62_">
									<polygon id="XMLID_63_" class="st8" points="1144.2,979.1 1134.6,987.7 1184.9,1018.4 1183,1001.5 									"/>
								</g>
								<g id="XMLID_60_">
									<polygon id="XMLID_61_" class="st9" points="1183,1001.5 1184.9,1018.4 1241.8,974.2 1230.9,965.3 									"/>
								</g>
							</g>
						</g>
					</g>
					<g id="XMLID_111_">
						<g id="XMLID_112_">
							<g id="XMLID_113_" class="st0">
								<g id="XMLID_118_">
									<polygon id="XMLID_119_" class="st7" points="1086.2,1023.1 1126.1,1046.2 1174,1008.4 1134.4,986.5 									"/>
								</g>
								<g id="XMLID_116_">
									<polygon id="XMLID_117_" class="st8" points="1087.3,1022.2 1077.7,1030.8 1128,1061.5 1126.1,1044.6 									"/>
								</g>
								<g id="XMLID_114_">
									<polygon id="XMLID_115_" class="st9" points="1126.1,1044.6 1128,1061.5 1184.9,1017.2 1174,1008.4 									"/>
								</g>
							</g>
						</g>
					</g>
					<g id="XMLID_120_">
						<g id="XMLID_121_">
							<g id="XMLID_122_" class="st0">
								<g id="XMLID_127_">
									<polygon id="XMLID_128_" class="st7" points="1030.4,1066.4 1070.4,1089.5 1118.2,1051.8 1078.7,1029.8 									"/>
								</g>
								<g id="XMLID_125_">
									<polygon id="XMLID_126_" class="st8" points="1031.6,1065.6 1022,1074.1 1072.3,1104.9 1070.3,1088 									"/>
								</g>
								<g id="XMLID_123_">
									<polygon id="XMLID_124_" class="st9" points="1070.3,1088 1072.3,1104.9 1129.2,1060.6 1118.2,1051.8 									"/>
								</g>
							</g>
						</g>
					</g>
					<g id="XMLID_129_">
						<g id="XMLID_130_">
							<g id="XMLID_131_" class="st0">
								<g id="XMLID_136_">
									<polygon id="XMLID_137_" class="st7" points="972.2,1111.6 1012.2,1134.7 1060.1,1096.9 1020.5,1075 									"/>
								</g>
								<g id="XMLID_134_">
									<polygon id="XMLID_135_" class="st8" points="973.4,1110.7 963.8,1119.3 1014.1,1150 1012.1,1133.1 									"/>
								</g>
								<g id="XMLID_132_">
									<polygon id="XMLID_133_" class="st9" points="1012.1,1133.1 1014.1,1150 1071,1105.7 1060.1,1096.9 									"/>
								</g>
							</g>
						</g>
					</g>
					<g id="XMLID_138_">
						<g id="XMLID_139_">
							<g id="XMLID_140_" class="st0">
								<g id="XMLID_145_">
									<polygon id="XMLID_146_" class="st7" points="915,1154 955,1177.1 1002.9,1139.3 963.3,1117.4 									"/>
								</g>
								<g id="XMLID_143_">
									<polygon id="XMLID_144_" class="st8" points="916.2,1153.1 906.6,1161.7 956.9,1192.4 954.9,1175.5 									"/>
								</g>
								<g id="XMLID_141_">
									<polygon id="XMLID_142_" class="st9" points="954.9,1175.5 956.9,1192.4 1013.8,1148.1 1002.9,1139.3 									"/>
								</g>
							</g>
						</g>
					</g>
				</g>
			</g>
			<g id="XMLID_1232_">
				<g id="XMLID_1272_">
					<g id="XMLID_1273_">
						<g id="XMLID_1274_" class="st0">
							<g id="XMLID_1279_">
								<polygon id="XMLID_1280_" class="st7" points="1194.7,1011.6 1233.8,1036 1282,998.5 1243.2,975.3 								"/>
							</g>
							<g id="XMLID_1277_">
								<polygon id="XMLID_1278_" class="st8" points="1195.9,1010.7 1186.2,1019.3 1235.3,1051.1 1233.8,1034.4 								"/>
							</g>
							<g id="XMLID_1275_">
								<polygon id="XMLID_1276_" class="st9" points="1233.8,1034.4 1235.3,1051.1 1292.4,1006.5 1282,998.5 								"/>
							</g>
						</g>
					</g>
				</g>
				<g id="XMLID_1263_">
					<g id="XMLID_1264_">
						<g id="XMLID_1265_" class="st0">
							<g id="XMLID_1270_">
								<polygon id="XMLID_1271_" class="st7" points="1137.5,1054.3 1176.6,1078.7 1224.8,1041.2 1186,1018 								"/>
							</g>
							<g id="XMLID_1268_">
								<polygon id="XMLID_1269_" class="st8" points="1138.7,1053.4 1129,1062 1178.2,1094.4 1176.6,1077.1 								"/>
							</g>
							<g id="XMLID_1266_">
								<polygon id="XMLID_1267_" class="st9" points="1176.6,1077.1 1178.2,1094.4 1235.4,1050.4 1224.8,1041.2 								"/>
							</g>
						</g>
					</g>
				</g>
				<g id="XMLID_1254_">
					<g id="XMLID_1255_">
						<g id="XMLID_1256_" class="st0">
							<g id="XMLID_1261_">
								<polygon id="XMLID_1262_" class="st7" points="1081.4,1097.4 1120.5,1121.8 1168.7,1084.2 1129.9,1061 								"/>
							</g>
							<g id="XMLID_1259_">
								<polygon id="XMLID_1260_" class="st8" points="1082.6,1096.5 1072.9,1105 1122.1,1137.4 1120.5,1120.1 								"/>
							</g>
							<g id="XMLID_1257_">
								<polygon id="XMLID_1258_" class="st9" points="1120.5,1120.1 1122.1,1137.4 1179.3,1093.5 1168.7,1084.2 								"/>
							</g>
						</g>
					</g>
				</g>
				<g id="XMLID_1245_">
					<g id="XMLID_1246_">
						<g id="XMLID_1247_" class="st0">
							<g id="XMLID_1252_">
								<polygon id="XMLID_1253_" class="st7" points="1022.9,1142.1 1062,1166.6 1110.2,1129 1071.4,1105.8 								"/>
							</g>
							<g id="XMLID_1250_">
								<polygon id="XMLID_1251_" class="st8" points="1024.1,1141.3 1014.4,1149.8 1063.6,1182.2 1062,1164.9 								"/>
							</g>
							<g id="XMLID_1248_">
								<polygon id="XMLID_1249_" class="st9" points="1062,1164.9 1063.6,1182.2 1120.8,1138.3 1110.2,1129 								"/>
							</g>
						</g>
					</g>
				</g>
				<g id="XMLID_1233_">
					<g id="XMLID_1237_">
						<g id="XMLID_1238_" class="st0">
							<g id="XMLID_1243_">
								<polygon id="XMLID_1244_" class="st7" points="965.4,1184.2 1004.5,1208.6 1052.7,1171.1 1013.9,1147.9 								"/>
							</g>
							<g id="XMLID_1241_">
								<polygon id="XMLID_1242_" class="st8" points="966.6,1183.3 956.9,1191.8 1006.1,1224.2 1004.5,1206.9 								"/>
							</g>
							<g id="XMLID_1239_">
								<polygon id="XMLID_1240_" class="st9" points="1004.5,1206.9 1006.1,1224.2 1063.3,1180.3 1052.7,1171.1 								"/>
							</g>
						</g>
					</g>
				</g>
			</g>
		</g>
	</g>
	<g id="water">
		<polygon id="XMLID_1227_" class="st10" points="666.3,1030.9 666.3,981.8 388,818.1 388,866 		"/>
		<polygon id="XMLID_1235_" class="st10" points="1006.1,1230.5 1004.9,1179.6 666.3,981.8 666.3,1030.9 		"/>
		<polygon class="st11" points="1293.5,995.3 979.4,814.1 675.5,621 388,818.1 666.3,981.8 666.3,981.8 1004.9,1179.6 		"/>
		<polygon id="XMLID_1216_" class="st10" points="1293.5,995.3 1292.4,1006.5 1006.1,1230.5 1004.9,1179.6 		"/>
	</g>
	<g id="lTree">
		<g id="shadow_1_">
			<g id="XMLID_1314_">
				<g id="XMLID_1323_">
					<path id="XMLID_1324_" class="st12" d="M1007.2,565.5c29.8,17.2,30,45.2,0.4,62.4c-29.6,17.2-77.8,17.2-107.7,0
						c-29.8-17.2-30-45.2-0.4-62.4C929.2,548.2,977.4,548.2,1007.2,565.5z"/>
				</g>
				<g id="XMLID_1321_">
					<path id="XMLID_1322_" class="st12" d="M946.6,555.3c18.6,10.7,18.7,28.1,0.2,38.9c-18.5,10.7-48.5,10.7-67.1,0
						c-18.6-10.7-18.7-28.1-0.2-38.9C898,544.6,928,544.6,946.6,555.3z"/>
				</g>
				<g id="XMLID_1319_">
					<path id="XMLID_1320_" class="st12" d="M1029.7,565.9c13.2,7.6,13.2,19.9,0.2,27.5c-13.1,7.6-34.3,7.6-47.5,0
						c-13.2-7.6-13.2-19.9-0.2-27.5C995.2,558.3,1016.5,558.3,1029.7,565.9z"/>
				</g>
				<g id="XMLID_1317_">
					<path id="XMLID_1318_" class="st12" d="M920.2,594.7c13.2,7.6,13.2,19.9,0.2,27.5c-13.1,7.6-34.3,7.6-47.5,0
						c-13.2-7.6-13.2-19.9-0.2-27.5C885.7,587.1,907,587.1,920.2,594.7z"/>
				</g>
				<g id="XMLID_1315_">
					<path id="XMLID_1316_" class="st12" d="M946.7,610.6c13.2,7.6,13.2,19.9,0.2,27.5c-13.1,7.6-34.3,7.6-47.5,0
						c-13.2-7.6-13.2-19.9-0.2-27.5C912.3,603,933.6,603,946.7,610.6z"/>
				</g>
			</g>
		</g>
		<g id="trunk_1_">
			<g id="XMLID_1311_">
				<path id="XMLID_1313_" class="st13" d="M948.5,434.1c-1.4-1-13.8-11-16.2-11.9c-2.4-1-4.8-2.3-7-3.9c-2.2-1.6-4.2-3.5-5.9-5.6
					c-3.6-4.2-6.3-9.3-8.3-14.7c-1.9-5.4-3.2-11.3-3.7-17.1l0-0.1c0-0.6-0.5-1-1.1-1c-0.5,0-0.9,0.5-1,1c-0.3,6.2,0.3,12.2,1.7,18.3
					c1.4,6,3.6,11.9,7.1,17.2c-7.5-2.4-15.3-3.9-23.1-4.8l-4.2-0.5c-1.3-0.2-2.6-0.4-3.9-0.8c-2.6-0.6-5.1-1.6-7.5-2.7
					c-2.3-1.2-4.6-2.7-6.6-4.4c-2-1.8-3.8-3.8-5.5-6c-3.2-4.5-5.5-9.8-7-15.4c-1.5-5.6-2.3-11.5-2.2-17.3l0-0.1c0-0.6-0.5-1-1-1.1
					c-0.5,0-1,0.4-1,0.9c-0.8,6.1-0.7,12.2,0.1,18.4c0.9,6.1,2.6,12.3,5.7,17.9c1.6,2.8,3.4,5.5,5.6,8c2.2,2.4,4.8,4.6,7.5,6.5
					c2.8,1.8,5.8,3.3,8.9,4.5c1.5,0.6,3.1,1.1,4.7,1.5l4.6,1.1c11.1,2.6,21.7,6.7,31.1,12.7c4.8,2.9,9.3,6.2,13.4,9.8
					c2.1,1.8,4.1,3.7,6,5.6c0.9,1,1.9,2,2.7,3c0.4,0.5,0.9,1,1.3,1.5c0.2,0.2,0.4,0.5,0.6,0.7c0.2,0.2,0.4,0.5,0.4,0.6
					c1,2.1,2.5,3.6,4.4,4.6v-25.3C948.9,435.1,948.7,434.6,948.5,434.1z"/>
				<path id="XMLID_1312_" class="st1" d="M947.2,449.7c-0.2-0.2-0.4-0.5-0.6-0.7c-0.4-0.5-0.8-1-1.3-1.5c-0.8-1-1.8-2-2.7-3
					c-1.9-1.9-3.9-3.8-6-5.6c-4.1-3.6-8.6-6.9-13.4-9.8c-9.5-5.9-20.1-10.1-31.1-12.7l-4.6-1.1c-1.6-0.5-3.2-0.9-4.7-1.5
					c-3.1-1.2-6.1-2.7-8.9-4.5c-2.8-1.9-5.3-4.1-7.5-6.5c-2.2-2.5-4.1-5.2-5.6-8c-3.1-5.7-4.9-11.8-5.7-17.9c-0.3-2-0.4-4-0.6-6
					c-0.2-2.1-0.3-4.2-0.3-6.3l0-0.1c0-0.6-0.5-1-1-1.1c-0.5,0-1,0.4-1,0.9c-0.8,6.1-0.7,12.2,0.1,18.4c0.9,6.1,2.6,12.3,5.7,17.9
					c1.6,2.8,3.4,5.5,5.6,8c2.2,2.4,4.8,4.6,7.5,6.5c2.8,1.8,5.8,3.3,8.9,4.5c1.5,0.6,3.1,1.1,4.7,1.5l4.6,1.1
					c11.1,2.6,21.7,6.7,31.1,12.7c4.8,2.9,9.3,6.2,13.4,9.8c2.1,1.8,4.1,3.7,6,5.6c0.9,1,1.9,2,2.7,3c0.4,0.5,0.9,1,1.3,1.5
					c0.2,0.2,0.4,0.5,0.6,0.7c0.2,0.2,0.4,0.5,0.4,0.6c1,2.1,2.5,3.6,4.4,4.6v-8.1c-0.6-0.7-1.2-1.5-1.6-2.4
					C947.6,450.2,947.4,450,947.2,449.7z"/>
			</g>
			<g id="XMLID_1308_">
				<path id="XMLID_1310_" class="st13" d="M1051.2,420c-0.1-0.5-0.5-0.9-1-0.9c-0.6,0-1,0.5-1,1.1l0,0.1c0.1,5.8-0.7,11.7-2.2,17.3
					c-1.5,5.6-3.8,10.9-7,15.4c-1.6,2.2-3.4,4.3-5.5,6c-2,1.7-4.3,3.2-6.6,4.4c-2.4,1.1-4.9,2.1-7.5,2.7c-1.3,0.3-2.6,0.5-3.9,0.8
					l-3.5,0.4c0.3-0.4,0.6-0.8,0.9-1.3c1.7-2.9,3.1-5.9,4.1-9.1c1-3.2,1.5-6.4,1.8-9.6c0.5-6.4-0.6-12.8-2.3-18.7
					c-1.8-5.9-4.3-11.5-7.6-16.7c-0.3-0.4-0.8-0.6-1.3-0.4c-0.5,0.2-0.7,0.9-0.5,1.4l0,0.1c2.5,5.2,4.3,11,5.2,16.6
					c1,5.7,1.2,11.5,0.1,16.9c-0.5,2.7-1.3,5.3-2.4,7.8c-1.1,2.4-2.5,4.7-4.2,6.8c-1.7,2-3.6,3.9-5.6,5.6c-1,0.8-2.2,1.6-3.2,2.4
					l-1.9,1.1c-6.9,1.7-13.8,4.1-20.3,7.1c-5.8,2.6-11.4,5.8-16.8,9.4c-1.4,1-2.8,2-4.2,3c-0.2,0.5-0.4,0.9-0.7,1.4v25.3
					c1.9-1,3.5-2.5,4.4-4.6c0-0.1,0.2-0.4,0.4-0.6c0.2-0.2,0.4-0.5,0.6-0.7c0.4-0.5,0.8-1,1.3-1.5c0.8-1,1.8-2,2.7-3
					c1.9-1.9,3.9-3.8,6-5.6c4.1-3.6,8.6-6.9,13.4-9.8c9.5-5.9,20.1-10.1,31.1-12.7l4.6-1.1c1.6-0.5,3.2-0.9,4.7-1.5
					c3.1-1.2,6.1-2.7,8.9-4.5c2.8-1.9,5.3-4.1,7.5-6.5c2.2-2.5,4.1-5.2,5.6-8c3.1-5.7,4.9-11.8,5.7-17.9
					C1051.9,432.3,1052,426.2,1051.2,420z"/>
				<path id="XMLID_1309_" class="st1" d="M955.3,509c0.2-0.2,0.4-0.5,0.6-0.7c0.4-0.5,0.8-1,1.3-1.5c0.8-1,1.8-2,2.7-3
					c1.9-1.9,3.9-3.8,6-5.6c4.1-3.6,8.6-6.9,13.4-9.8c9.5-5.9,20.1-10.1,31.1-12.7l4.6-1.1c1.6-0.5,3.2-0.9,4.7-1.5
					c3.1-1.2,6.1-2.7,8.9-4.5c2.8-1.9,5.3-4.1,7.5-6.5c2.2-2.5,4.1-5.2,5.6-8c3.1-5.7,4.9-11.8,5.7-17.9c0.1-0.7,0.2-1.4,0.2-2.1
					c-0.3,1.2-0.5,2.5-0.8,3.7c-1.5,5.6-3.8,10.9-7,15.4c-1.6,2.2-3.4,4.3-5.5,6c-2,1.7-4.3,3.2-6.6,4.4c-2.4,1.1-4.9,2.1-7.5,2.7
					c-1.3,0.3-2.6,0.5-3.9,0.8l-3.5,0.4l-3.9-0.4c1.7-2.9,4.4-9.2,5.4-12.3c1-3.2,1.5-6.4,1.8-9.6c0.5-6.4-0.6-12.8-2.3-18.7
					c-1.5-4.9-3.5-9.5-5.9-13.9c0,0.2,0,0.4,0.1,0.6l0,0.1c2.5,5.2,4.3,11,5.2,16.6c1,5.7,1.2,11.5,0.1,16.9
					c-0.5,2.7-1.3,5.3-2.4,7.8c-1.1,2.4-2.5,4.7-4.2,6.8c-1.7,2-3.6,3.9-5.6,5.6c-1,0.8-2.2,1.6-3.2,2.4l-1.9,1.1
					c-6.9,1.7-13.8,4.1-20.3,7.1c-5.8,2.6-11.4,5.8-16.8,9.4c-1.4,1-2.8,2-4.2,3c-0.2,0.5-0.4,0.9-0.7,1.4V511
					c0.3-0.5,0.6-1,0.9-1.5C955,509.5,955.2,509.2,955.3,509z"/>
			</g>
			<g id="XMLID_1301_">
				<g id="XMLID_1302_">
					<g id="XMLID_1303_">
						<g id="XMLID_1305_" class="st0">
							<g id="XMLID_1306_">
								<path id="XMLID_1307_" class="st1" d="M956,294.2l4.6,306.2c0.1,1.5-0.8,3-2.8,4.2c-4.3,2.4-11.4,2.4-15.7,0
									c-2.1-1.2-3-2.7-2.9-4.2l5-306.1L956,294.2z"/>
							</g>
						</g>
						<path id="XMLID_1304_" class="st13" d="M960.6,600.4L956,294.2l-6,0v312.2c2.8,0,5.7-0.6,7.8-1.8
							C959.8,603.4,960.7,601.9,960.6,600.4z"/>
					</g>
				</g>
			</g>
		</g>
		<g id="leaves_1_">
			<path id="XMLID_1299_" class="st14" d="M951.2,357.7c0-6.3-7.4-11.5-16.4-11.5c-5.5,0-10.4,1.9-13.4,4.8
				c-7.1-8.4-32.6-14.7-63-14.7c-19.3,0-36.6,2.5-48.5,6.5c-2.8-1.7-6.5-2.7-10.5-2.7c-9.1,0-16.4,5.1-16.4,11.5
				c0,1.7,0.6,3.4,1.6,4.9c-6.8,2.7-11.2,7.5-11.2,12.9c0,5.1,4,9.6,10.2,12.4c-1.8,1.9-2.9,4.1-2.9,6.5c0,6.4,7.4,11.5,16.4,11.5
				c4.5,0,8.5-1.3,11.5-3.3c3.6,2.3,8.4,4,13.7,4.5c-0.2,1.2-0.2,2.4,0.1,3.5c1.6,6.1,10,9.3,18.8,6.9c7.4-1.9,12.7-7.1,13.2-12.3
				c3.5,0,6.7-0.5,9.7-1.4c3.9,4.8,9.8,7.9,16.5,7.9c9.8,0,18-6.6,20.5-15.6c3.9,4.2,9.4,6.9,15.6,6.9c11.7,0,21.3-9.5,21.3-21.3
				c0-1.9-0.3-3.8-0.8-5.6c0.1-0.4,0.2-0.8,0.3-1.2C945.3,368.1,951.2,363.4,951.2,357.7z"/>
			<path id="XMLID_1298_" class="st15" d="M928.8,368.4c-6.2,0-11.7-2.7-15.6-6.9c-2.5,9-10.7,15.6-20.5,15.6
				c-6.7,0-12.6-3.1-16.5-7.9c-3,0.8-6.3,1.3-9.7,1.4c-0.5,5.2-5.8,10.4-13.2,12.3c-8.8,2.3-17.2-0.8-18.8-6.9
				c-0.3-1.2-0.3-2.4-0.1-3.5c-5.4-0.6-10.1-2.2-13.7-4.5c-3,2-7,3.3-11.5,3.3c-9.1,0-16.4-5.1-16.4-11.5c0-2.4,1.1-4.7,2.9-6.5
				c-4.5-2-7.8-5-9.3-8.4c-2,1.9-3.3,4.3-3.3,6.9c0,1.7,0.6,3.4,1.6,4.9c-6.8,2.7-11.2,7.5-11.2,12.9c0,5.1,4,9.6,10.2,12.4
				c-1.8,1.9-2.9,4.1-2.9,6.5c0,6.4,7.4,11.5,16.4,11.5c4.5,0,8.5-1.3,11.5-3.3c3.6,2.3,8.4,4,13.7,4.5c-0.2,1.2-0.2,2.4,0.1,3.5
				c1.6,6.1,10,9.3,18.8,6.9c7.4-1.9,12.7-7.1,13.2-12.3c3.5,0,6.7-0.5,9.7-1.4c3.9,4.8,9.8,7.9,16.5,7.9c9.8,0,18-6.6,20.5-15.6
				c3.9,4.2,9.4,6.9,15.6,6.9c11.7,0,21.3-9.5,21.3-21.3c0-1.9-0.3-3.8-0.8-5.6c0.1-0.4,0.2-0.8,0.3-1.2c7.7-0.9,13.6-5.6,13.6-11.3
				c0-1.9-0.7-3.7-1.8-5.2C947,361.6,938.7,368.4,928.8,368.4z"/>
			<g id="XMLID_1295_">
				<path id="XMLID_1297_" class="st14" d="M1124.2,406.5c0-8.5-6.9-15.4-15.4-15.4c-3.7,0-7.1,1.3-9.7,3.5
					c-5.2-5.4-18.9-9.5-35.6-10.3c-7.3-1.1-15.1-1.6-23.2-1.6c-38.1,0-68.9,12.5-68.9,27.9c0,1.6,0.3,3.2,1,4.7
					c-0.6,1.7-1,3.5-1,5.4c0,8.5,6.9,15.4,15.4,15.4c0.3,0,0.6,0,0.9,0c2.6,8.9,10.9,15.4,20.6,15.4c5.5,0,10.5-2.1,14.3-5.5
					c2.8,4.1,7.5,6.9,12.8,6.9c7.2,0,13.2-4.9,14.9-11.6c3.3,2.3,7.3,3.6,11.6,3.6c6.9,0,12.9-3.4,16.6-8.6
					c3.3,4.5,8.6,7.4,14.6,7.4c10.1,0,18.2-8.2,18.2-18.2c0-1.2-0.1-2.5-0.4-3.6C1118.4,420.7,1124.2,414.2,1124.2,406.5z"/>
				<path id="XMLID_1296_" class="st15" d="M1118.6,394.6c-2.2,1.8-4.8,3-7.7,3.4c0.2,1.2,0.4,2.4,0.4,3.6
					c0,10.1-8.1,18.2-18.2,18.2c-6,0-11.3-2.9-14.6-7.4c-3.7,5.2-9.8,8.6-16.6,8.6c-4.3,0-8.3-1.3-11.6-3.6
					c-1.7,6.7-7.7,11.6-14.9,11.6c-5.3,0-10-2.7-12.8-6.9c-3.8,3.4-8.8,5.5-14.3,5.5c-9.8,0-18-6.5-20.6-15.4c-0.3,0-0.6,0-0.9,0
					c-5.9,0-11-3.3-13.5-8.1c-1.2,2-1.8,4.2-1.8,6.4c0,1.6,0.3,3.2,1,4.7c-0.6,1.7-1,3.5-1,5.4c0,8.5,6.9,15.4,15.4,15.4
					c0.3,0,0.6,0,0.9,0c2.6,8.9,10.9,15.4,20.6,15.4c5.5,0,10.5-2.1,14.3-5.5c2.8,4.1,7.5,6.9,12.8,6.9c7.2,0,13.2-4.9,14.9-11.6
					c3.3,2.3,7.3,3.6,11.6,3.6c6.9,0,12.9-3.4,16.6-8.6c3.3,4.5,8.6,7.4,14.6,7.4c10.1,0,18.2-8.2,18.2-18.2c0-1.2-0.1-2.5-0.4-3.6
					c7.5-1,13.3-7.4,13.3-15.2C1124.2,401.7,1122,397.5,1118.6,394.6z"/>
			</g>
			<g id="XMLID_1292_">
				<path id="XMLID_1294_" class="st15" d="M1068.1,319.2c0-5.5-2.6-10.4-6.6-13.5c1.5-2.5,2.3-5.5,2.3-8.6
					c0-9.4-7.6-17.1-17.1-17.1c-4.3,0-8.2,1.6-11.2,4.2c-2.2-15.4-15.3-27.2-31.3-27.2c-2.8,0-5.6,0.4-8.2,1.1
					c-7.2-9-18.3-14.7-30.7-14.7c-13.5,0-25.4,6.8-32.5,17.1c-4.3-2.2-9.2-3.5-14.4-3.5c-12.3,0-23,7-28.2,17.3
					c-3.7-1.5-7.7-2.3-11.9-2.3c-0.2,0-0.5,0-0.7,0c-3.1-3-7.3-4.8-11.9-4.8c-9.4,0-17.1,7.7-17.1,17.1c0,2,0.4,3.9,1,5.7
					c-0.2,0.3-0.3,0.7-0.5,1c-7.3,2-12.6,8.6-12.6,16.5c0,9.4,7.6,17.1,17.1,17.1c0.1,0,0.3,0,0.4,0c5.9,6.9,14.5,11.2,24.3,11.2
					c0.5,0,0.9-0.1,1.4-0.1c1.5,8,8.4,14,16.8,14c5.2,0,9.9-2.4,13.1-6.1c3,0.8,6.1,1.3,9.4,1.3c4.7,0,9.1-0.9,13.2-2.6
					c6,10.6,17.3,17.7,30.3,17.7c7.2,0,13.8-2.2,19.4-5.9c2.4,1.3,5.1,2,8,2c6.5,0,12.2-3.6,15.1-9c3.3,1.1,6.8,1.6,10.5,1.6
					c3.5,0,6.8-0.5,10-1.5c2.7,1.9,6.1,3,9.6,3c8.4,0,15.4-6.1,16.8-14.1C1060.8,335.8,1068.1,328.4,1068.1,319.2z"/>
				<path id="XMLID_1293_" class="st14" d="M1049.2,269.4c0.3-1.2,0.4-2.4,0.4-3.7c0-9.4-7.6-17.1-17.1-17.1c-3.6,0-6.9,1.1-9.6,2.9
					c-2.4-0.8-5-1.3-7.7-1.3c-5,0-9.6,1.6-13.4,4.3c-2.5-10.8-12.1-18.9-23.6-18.9c-6,0-11.4,2.3-15.7,5.9c-4-2.9-8.9-4.7-14.2-4.7
					c-5.4,0-10.4,1.8-14.4,4.8c-2.7-1.9-6-3-9.6-3c-6.2,0-11.6,3.3-14.6,8.3c-3.1-3.8-7.9-6.2-13.1-6.2c-5.7,0-10.8,2.8-13.9,7.2
					c-1.9-0.7-4-1.1-6.1-1.1c-9.4,0-17.1,7.7-17.1,17.1c0,9.4,7.6,17.1,17.1,17.1c3,0,5.9-0.8,8.3-2.2c2.7,3.2,6.6,5.4,11,6
					c4.1,6.5,11.4,10.8,19.6,10.8c4.4,0,8.4-1.3,11.9-3.4c3.3,11.5,13.9,20,26.5,20c12.4,0,22.8-8.1,26.4-19.3
					c2.5,1.6,5.4,2.5,8.5,2.5c4.3,0,8.1-1.7,11-4.4c4.1,3.7,9.5,6,15.4,6c4.1,0,8-1.1,11.4-3c3.1,4.4,8.2,7.4,14,7.4
					c9.4,0,17.1-7.7,17.1-17.1C1057.7,277.9,1054.3,272.4,1049.2,269.4z"/>
			</g>
		</g>
	</g>
	<g id="rTree">
		<g id="shadow_2_">
			<g>
				<path class="st12" d="M1203.8,770.5c-42.9,24.8-43.1,65-0.5,89.8c42.7,24.8,112,24.8,155,0c42.9-24.8,43.2-65,0.5-89.8
					C1316.1,745.7,1246.7,745.7,1203.8,770.5z"/>
			</g>
			<g>
				<path class="st12" d="M1291.1,755.9c-26.8,15.5-26.9,40.5-0.3,55.9c26.6,15.5,69.8,15.5,96.6,0c26.8-15.4,26.9-40.5,0.3-55.9
					C1361.1,740.5,1317.8,740.5,1291.1,755.9z"/>
			</g>
			<g>
				<path class="st12" d="M1171.5,771.1c-18.9,10.9-19,28.7-0.2,39.6c18.8,10.9,49.4,10.9,68.4,0c18.9-10.9,19-28.7,0.2-39.6
					C1221.1,760.1,1190.5,760.1,1171.5,771.1z"/>
			</g>
			<g>
				<path class="st12" d="M1329.1,812.5c-18.9,10.9-19,28.7-0.2,39.6c18.8,10.9,49.4,10.9,68.4,0c18.9-10.9,19-28.7,0.2-39.6
					C1378.7,801.6,1348.1,801.6,1329.1,812.5z"/>
			</g>
			<g>
				<path class="st12" d="M1290.9,835.4c-18.9,10.9-19,28.7-0.2,39.6c18.8,10.9,49.4,10.9,68.4,0c18.9-10.9,19-28.7,0.2-39.6
					C1340.5,824.4,1309.8,824.4,1290.9,835.4z"/>
			</g>
		</g>
		<g id="trunk_2_">
			<g>
				<path class="st13" d="M1288.3,581.5c2-1.5,19.8-15.8,23.4-17.2c3.5-1.5,6.9-3.3,10-5.5c3.1-2.3,6-5,8.6-8
					c5.2-6,9.1-13.4,11.9-21.2c2.8-7.8,4.7-16.2,5.3-24.5l0-0.1c0.1-0.8,0.8-1.4,1.6-1.4c0.8,0.1,1.4,0.7,1.4,1.4
					c0.4,8.9-0.5,17.6-2.4,26.3c-2,8.6-5.2,17.1-10.3,24.8c10.9-3.4,22-5.7,33.2-6.9l6-0.7c1.9-0.3,3.8-0.6,5.7-1.1
					c3.7-0.9,7.3-2.2,10.8-3.9c3.4-1.8,6.6-3.9,9.5-6.4c2.9-2.5,5.5-5.5,7.9-8.7c4.7-6.4,7.9-14.1,10.1-22.1
					c2.1-8,3.3-16.5,3.2-24.9l0-0.1c0-0.8,0.7-1.5,1.5-1.5c0.8,0,1.4,0.6,1.5,1.3c1.2,8.8,1,17.6-0.2,26.4
					c-1.3,8.8-3.8,17.6-8.2,25.8c-2.2,4.1-4.9,8-8.1,11.5c-3.2,3.5-6.9,6.6-10.8,9.3c-4,2.6-8.3,4.8-12.8,6.5
					c-2.2,0.9-4.5,1.5-6.8,2.2l-6.7,1.6c-15.9,3.7-31.2,9.7-44.8,18.3c-6.9,4.2-13.3,8.9-19.3,14.2c-3,2.6-5.8,5.3-8.6,8.1
					c-1.3,1.4-2.7,2.8-3.9,4.3c-0.6,0.7-1.2,1.4-1.8,2.1c-0.3,0.4-0.6,0.7-0.8,1c-0.2,0.3-0.6,0.7-0.6,0.8c-1.4,3-3.7,5.2-6.3,6.6
					v-36.3C1287.7,582.9,1288.1,582.2,1288.3,581.5z"/>
				<path class="st1" d="M1290.2,604c0.2-0.3,0.5-0.7,0.8-1c0.6-0.7,1.2-1.4,1.8-2.1c1.2-1.4,2.6-2.8,3.9-4.3
					c2.7-2.8,5.6-5.5,8.6-8.1c6-5.2,12.4-10,19.3-14.2c13.6-8.6,28.9-14.6,44.8-18.3l6.7-1.6c2.3-0.7,4.6-1.4,6.8-2.2
					c4.5-1.7,8.8-3.9,12.8-6.5c4-2.7,7.6-5.8,10.8-9.3c3.2-3.5,5.9-7.4,8.1-11.5c4.5-8.1,7-17,8.2-25.8c0.4-2.9,0.6-5.7,0.8-8.6
					c0.3-3,0.5-6,0.4-9l0-0.1c0-0.8,0.7-1.5,1.5-1.5c0.8,0,1.4,0.6,1.5,1.3c1.2,8.8,1,17.6-0.2,26.4c-1.3,8.8-3.8,17.6-8.2,25.8
					c-2.2,4.1-4.9,8-8.1,11.5c-3.2,3.5-6.9,6.6-10.8,9.3c-4,2.6-8.3,4.8-12.8,6.5c-2.2,0.9-4.5,1.5-6.8,2.2l-6.7,1.6
					c-15.9,3.7-31.2,9.7-44.8,18.3c-6.9,4.2-13.3,8.9-19.3,14.2c-3,2.6-5.8,5.3-8.6,8.1c-1.3,1.4-2.7,2.8-3.9,4.3
					c-0.6,0.7-1.2,1.4-1.8,2.1c-0.3,0.4-0.6,0.7-0.8,1c-0.2,0.3-0.6,0.7-0.6,0.8c-1.4,3-3.7,5.2-6.3,6.6v-11.6
					c0.9-1,1.7-2.1,2.3-3.5C1289.7,604.7,1290,604.3,1290.2,604z"/>
			</g>
			<g>
				<path class="st13" d="M1140.5,561.2c0.1-0.7,0.7-1.3,1.5-1.3c0.8,0,1.5,0.7,1.5,1.5l0,0.1c-0.1,8.4,1.1,16.9,3.2,24.9
					c2.2,8,5.4,15.7,10.1,22.1c2.3,3.2,4.9,6.2,7.9,8.7c2.9,2.5,6.2,4.6,9.5,6.4c3.4,1.6,7,3,10.8,3.9c1.9,0.5,3.8,0.8,5.7,1.1
					l5.1,0.6c-0.4-0.6-0.9-1.2-1.3-1.8c-2.5-4.1-4.5-8.5-5.9-13c-1.4-4.5-2.2-9.2-2.5-13.8c-0.7-9.3,0.8-18.4,3.3-26.9
					c2.6-8.5,6.2-16.6,10.9-24.1c0.4-0.6,1.2-0.9,1.9-0.6c0.7,0.4,1.1,1.3,0.7,2l0,0.1c-3.6,7.5-6.1,15.8-7.6,23.9
					c-1.4,8.2-1.7,16.5-0.1,24.3c0.8,3.9,1.9,7.7,3.5,11.2c1.6,3.5,3.6,6.8,6,9.8c2.4,2.9,5.1,5.7,8.1,8c1.5,1.2,3.1,2.3,4.7,3.4
					l2.7,1.6c10,2.5,19.8,5.8,29.2,10.3c8.4,3.8,16.4,8.4,24.1,13.6c2,1.4,4,2.8,6,4.3c0.3,0.7,0.6,1.4,1,2V700
					c-2.7-1.4-5-3.6-6.3-6.6c-0.1-0.1-0.4-0.5-0.6-0.8c-0.2-0.3-0.5-0.7-0.8-1c-0.6-0.7-1.2-1.4-1.8-2.1c-1.2-1.4-2.6-2.8-3.9-4.3
					c-2.7-2.8-5.6-5.5-8.6-8.1c-6-5.2-12.4-10-19.3-14.2c-13.6-8.6-28.9-14.6-44.8-18.3l-6.7-1.6c-2.3-0.7-4.6-1.4-6.8-2.2
					c-4.5-1.7-8.8-3.9-12.8-6.5c-4-2.7-7.6-5.8-10.8-9.3c-3.2-3.5-5.9-7.4-8.1-11.5c-4.5-8.1-7-17-8.2-25.8
					C1139.5,578.8,1139.4,570,1140.5,561.2z"/>
				<path class="st1" d="M1278.5,689.2c-0.2-0.3-0.5-0.7-0.8-1c-0.6-0.7-1.2-1.4-1.8-2.1c-1.2-1.4-2.6-2.8-3.9-4.3
					c-2.7-2.8-5.6-5.5-8.6-8.1c-6-5.2-12.4-10-19.3-14.2c-13.6-8.6-28.9-14.6-44.8-18.3l-6.7-1.6c-2.3-0.7-4.6-1.4-6.8-2.2
					c-4.5-1.7-8.8-3.9-12.8-6.5c-4-2.7-7.6-5.8-10.8-9.3c-3.2-3.5-5.9-7.4-8.1-11.5c-4.5-8.1-7-17-8.2-25.8c-0.1-1-0.2-2-0.3-3.1
					c0.4,1.8,0.8,3.5,1.2,5.3c2.2,8,5.4,15.7,10.1,22.1c2.3,3.2,4.9,6.2,7.9,8.7c2.9,2.5,6.2,4.6,9.5,6.4c3.4,1.6,7,3,10.8,3.9
					c1.9,0.5,3.8,0.8,5.7,1.1l5.1,0.6l5.7-0.5c-2.5-4.1-6.4-13.2-7.8-17.8c-1.4-4.5-2.2-9.2-2.5-13.8c-0.7-9.3,0.8-18.4,3.3-26.9
					c2.1-7,5-13.7,8.6-20c0,0.3,0,0.5-0.1,0.8l0,0.1c-3.6,7.5-6.1,15.8-7.6,23.9c-1.4,8.2-1.7,16.5-0.1,24.3
					c0.8,3.9,1.9,7.7,3.5,11.2c1.6,3.5,3.6,6.8,6,9.8c2.4,2.9,5.1,5.7,8.1,8c1.5,1.2,3.1,2.3,4.7,3.4l2.7,1.6
					c10,2.5,19.8,5.8,29.2,10.3c8.4,3.8,16.4,8.4,24.1,13.6c2,1.4,4,2.8,6,4.3c0.3,0.7,0.6,1.4,1,2v28.5c-0.5-0.7-0.9-1.4-1.2-2.1
					C1279.1,689.9,1278.7,689.5,1278.5,689.2z"/>
			</g>
			<g>
				<g>
					<g>
						<g class="st0">
							<g>
								<path class="st1" d="M1277.6,380.2l-6.6,440.5c-0.2,2.1,1.1,4.3,4.1,6c6.1,3.5,16.5,3.5,22.6,0c3-1.7,4.3-3.9,4.1-6.1
									l-7.2-440.5L1277.6,380.2z"/>
							</g>
						</g>
						<path class="st13" d="M1270.9,820.8l6.6-440.5l8.6,0v449.2c-4.1,0-8.2-0.9-11.2-2.6C1272.1,825,1270.8,822.9,1270.9,820.8z"/>
					</g>
				</g>
			</g>
		</g>
		<g id="leaves_2_">
			<path class="st14" d="M1284.5,471.5c0-9.1,10.6-16.5,23.7-16.5c7.9,0,14.9,2.7,19.2,6.9c10.3-12.2,47-21.2,90.7-21.2
				c27.7,0,52.6,3.6,69.8,9.4c4.1-2.4,9.4-3.8,15.1-3.8c13.1,0,23.7,7.4,23.7,16.5c0,2.5-0.8,4.9-2.3,7c9.7,3.9,16.2,10.8,16.2,18.5
				c0,7.3-5.8,13.8-14.7,17.8c2.6,2.7,4.2,5.9,4.2,9.4c0,9.1-10.6,16.5-23.7,16.5c-6.4,0-12.3-1.8-16.5-4.7
				c-5.2,3.4-12,5.7-19.8,6.5c0.3,1.7,0.2,3.4-0.2,5.1c-2.3,8.8-14.4,13.3-27.1,10c-10.6-2.8-18.2-10.2-19-17.8c-5-0.1-9.7-0.8-14-2
				c-5.6,6.9-14.2,11.3-23.8,11.3c-14.1,0-25.9-9.5-29.5-22.4c-5.6,6.1-13.6,9.9-22.5,9.9c-16.9,0-30.6-13.7-30.6-30.6
				c0-2.8,0.4-5.4,1.1-8c-0.2-0.6-0.3-1.1-0.4-1.7C1293,486.5,1284.5,479.7,1284.5,471.5z"/>
			<path class="st15" d="M1316.8,487c8.9,0,16.9-3.8,22.5-9.9c3.6,12.9,15.4,22.4,29.5,22.4c9.6,0,18.2-4.4,23.8-11.3
				c4.3,1.2,9,1.9,14,2c0.8,7.5,8.3,15,19,17.8c12.6,3.3,24.8-1.2,27.1-10c0.4-1.7,0.5-3.4,0.2-5.1c7.7-0.8,14.6-3.2,19.8-6.5
				c4.3,2.9,10.1,4.7,16.5,4.7c13.1,0,23.7-7.4,23.7-16.5c0-3.5-1.5-6.7-4.2-9.4c6.5-2.9,11.2-7.1,13.4-12c2.9,2.8,4.7,6.2,4.7,9.9
				c0,2.5-0.8,4.9-2.3,7c9.7,3.9,16.2,10.8,16.2,18.5c0,7.3-5.8,13.8-14.7,17.8c2.6,2.7,4.2,5.9,4.2,9.4c0,9.1-10.6,16.5-23.7,16.5
				c-6.4,0-12.3-1.8-16.5-4.7c-5.2,3.4-12,5.7-19.8,6.5c0.3,1.7,0.2,3.4-0.2,5.1c-2.3,8.8-14.4,13.3-27.1,10
				c-10.6-2.8-18.2-10.2-19-17.8c-5-0.1-9.7-0.8-14-2c-5.6,6.9-14.2,11.3-23.8,11.3c-14.1,0-25.9-9.5-29.5-22.4
				c-5.6,6.1-13.6,9.9-22.5,9.9c-16.9,0-30.6-13.7-30.6-30.6c0-2.8,0.4-5.4,1.1-8c-0.2-0.6-0.3-1.1-0.4-1.7
				c-11.1-1.3-19.6-8.1-19.6-16.3c0-2.7,1-5.3,2.6-7.5C1290.5,477.2,1302.5,487,1316.8,487z"/>
			<g>
				<path class="st14" d="M1035.5,541.7c0-12.2,9.9-22.1,22.1-22.1c5.3,0,10.2,1.9,14,5c7.5-7.8,27.2-13.6,51.3-14.9
					c10.4-1.5,21.7-2.3,33.4-2.3c54.8,0,99.2,18,99.2,40.2c0,2.3-0.5,4.5-1.4,6.7c0.9,2.4,1.4,5,1.4,7.7c0,12.2-9.9,22.1-22.1,22.1
					c-0.4,0-0.9,0-1.3-0.1c-3.8,12.8-15.6,22.2-29.7,22.2c-7.9,0-15.2-3-20.6-7.9c-4,5.9-10.7,9.9-18.4,9.9
					c-10.3,0-19-7.1-21.4-16.7c-4.7,3.3-10.5,5.2-16.7,5.2c-9.9,0-18.6-4.9-23.9-12.3c-4.8,6.4-12.4,10.6-21,10.6
					c-14.5,0-26.2-11.7-26.2-26.2c0-1.8,0.2-3.5,0.5-5.2C1043.9,562.1,1035.5,552.9,1035.5,541.7z"/>
				<path class="st15" d="M1043.5,524.7c3.1,2.6,6.9,4.3,11.1,4.9c-0.3,1.7-0.5,3.4-0.5,5.2c0,14.5,11.7,26.2,26.2,26.2
					c8.6,0,16.3-4.2,21-10.6c5.3,7.5,14,12.3,23.9,12.3c6.2,0,12-1.9,16.7-5.2c2.4,9.6,11.1,16.7,21.4,16.7c7.7,0,14.4-3.9,18.4-9.9
					c5.5,4.9,12.7,7.9,20.6,7.9c14,0,25.9-9.4,29.7-22.2c0.4,0,0.9,0.1,1.3,0.1c8.4,0,15.8-4.7,19.5-11.7c1.7,2.9,2.6,6,2.6,9.1
					c0,2.3-0.5,4.5-1.4,6.7c0.9,2.4,1.4,5,1.4,7.7c0,12.2-9.9,22.1-22.1,22.1c-0.4,0-0.9,0-1.3-0.1c-3.8,12.8-15.6,22.2-29.7,22.2
					c-7.9,0-15.2-3-20.6-7.9c-4,5.9-10.7,9.9-18.4,9.9c-10.3,0-19-7.1-21.4-16.7c-4.7,3.3-10.5,5.2-16.7,5.2
					c-9.9,0-18.6-4.9-23.9-12.3c-4.8,6.4-12.4,10.6-21,10.6c-14.5,0-26.2-11.7-26.2-26.2c0-1.8,0.2-3.5,0.5-5.2
					c-10.8-1.5-19.1-10.7-19.1-21.9C1035.5,534.9,1038.6,528.7,1043.5,524.7z"/>
			</g>
			<g>
				<path class="st15" d="M1116.2,416.1c0-7.9,3.7-14.9,9.5-19.4c-2.1-3.6-3.4-7.9-3.4-12.4c0-13.6,11-24.6,24.6-24.6
					c6.2,0,11.8,2.3,16.2,6.1c3.2-22.1,22.1-39.1,45.1-39.1c4.1,0,8,0.6,11.7,1.6c10.4-12.9,26.3-21.2,44.2-21.2
					c19.4,0,36.5,9.7,46.7,24.6c6.2-3.2,13.2-5,20.7-5c17.7,0,33.1,10.1,40.6,24.9c5.3-2.1,11.1-3.3,17.1-3.3c0.3,0,0.7,0,1,0
					c4.4-4.3,10.4-6.9,17.1-6.9c13.6,0,24.6,11,24.6,24.6c0,2.9-0.5,5.6-1.4,8.1c0.2,0.5,0.5,1,0.7,1.5
					c10.5,2.8,18.2,12.4,18.2,23.7c0,13.6-11,24.6-24.6,24.6c-0.2,0-0.4,0-0.6,0c-8.4,9.9-20.9,16.2-34.9,16.2c-0.7,0-1.3-0.1-2-0.1
					c-2.1,11.5-12.1,20.2-24.2,20.2c-7.5,0-14.3-3.4-18.8-8.8c-4.3,1.2-8.8,1.9-13.6,1.9c-6.7,0-13.1-1.3-18.9-3.7
					c-8.6,15.2-24.9,25.5-43.6,25.5c-10.3,0-19.9-3.2-27.9-8.5c-3.4,1.8-7.3,2.8-11.5,2.8c-9.4,0-17.5-5.3-21.7-13
					c-4.8,1.5-9.8,2.4-15.1,2.4c-5,0-9.8-0.8-14.4-2.1c-3.9,2.7-8.7,4.3-13.9,4.3c-12.1,0-22.2-8.8-24.2-20.3
					C1126.7,440.1,1116.2,429.3,1116.2,416.1z"/>
				<path class="st14" d="M1143.5,344.6c-0.4-1.7-0.6-3.5-0.6-5.3c0-13.6,11-24.6,24.6-24.6c5.1,0,9.9,1.6,13.8,4.2
					c3.5-1.2,7.2-1.9,11.1-1.9c7.2,0,13.8,2.3,19.3,6.1c3.5-15.5,17.4-27.1,34-27.1c8.6,0,16.5,3.3,22.6,8.5
					c5.8-4.2,12.8-6.8,20.5-6.8c7.8,0,15,2.6,20.8,6.9c3.9-2.7,8.7-4.2,13.8-4.2c8.9,0,16.8,4.8,21.1,11.9
					c4.5-5.4,11.3-8.9,18.9-8.9c8.2,0,15.5,4.1,20,10.3c2.7-1,5.7-1.6,8.8-1.6c13.6,0,24.6,11,24.6,24.6s-11,24.6-24.6,24.6
					c-4.3,0-8.4-1.1-12-3.1c-3.9,4.6-9.5,7.8-15.8,8.6c-6,9.3-16.4,15.5-28.3,15.5c-6.3,0-12.1-1.8-17.1-4.8
					c-4.8,16.6-20.1,28.7-38.2,28.7c-17.8,0-32.9-11.7-37.9-27.8c-3.6,2.2-7.7,3.6-12.3,3.6c-6.1,0-11.7-2.4-15.8-6.3
					c-5.9,5.3-13.6,8.6-22.2,8.6c-6,0-11.5-1.6-16.4-4.3c-4.4,6.4-11.8,10.6-20.2,10.6c-13.6,0-24.6-11-24.6-24.6
					C1131.2,356.7,1136.1,348.8,1143.5,344.6z"/>
			</g>
		</g>
	</g>
</g>
<g id="labels">
	<g id="flowwy">
		<text transform="matrix(1 0 0 1 1135.9131 1397.7061)" class="st16 st17 st18 st19">FLOW TYPE: SUB-CRITICAL</text>
		<line class="st20" x1="1497.1" y1="1328.6" x2="1174" y2="1018.4"/>
		<polyline class="st20" points="1929.5,1366.2 1929.5,1328.6 1100.5,1328.6 1100.5,1366.2 		"/>
	</g>
	<g id="sideSlope">
		<g>
			<text transform="matrix(1 0 0 1 178.2538 182.8759)" class="st16 st17 st18 st19">SIDE SLOPE: 00.00</text>
			<line class="st20" x1="410.9" y1="219.6" x2="574.9" y2="747.4"/>
			<polyline class="st20" points="148.7,182 148.7,219.6 707.4,219.6 707.4,182 			"/>
		</g>
	</g>
	<g id="bedSlope">
		<text transform="matrix(1 0 0 1 150.6751 1387.6981)" class="st16 st17 st18 st19">BED SLOPE: 00.00</text>
		<line class="st20" x1="379.9" y1="1318.6" x2="701.1" y2="1021"/>
		<polyline class="st20" points="682.1,1356.2 682.1,1318.6 123.4,1318.6 123.4,1356.2 		"/>
	</g>
</g>
</svg>
