<?xml version="1.0" encoding="utf-8"?>
<!-- Generator: Adobe Illustrator 16.0.4, SVG Export Plug-In . SVG Version: 6.00 Build 0)  -->
<!DOCTYPE svg PUBLIC "-//W3C//DTD SVG 1.1//EN" "http://www.w3.org/Graphics/SVG/1.1/DTD/svg11.dtd">
<svg version="1.1" id="Layer_1" xmlns="http://www.w3.org/2000/svg" xmlns:xlink="http://www.w3.org/1999/xlink" x="0px" y="0px"
	 width="865px" height="120.012px" viewBox="0 0 865 120.012" enable-background="new 0 0 865 120.012" xml:space="preserve">
<rect fill="#E6E7E8" width="865" height="120.012"/>
<rect x="21" y="42.352" fill="#841412" width="34" height="34"/>
<rect x="212" y="42.352" fill="#EDB20A" width="34" height="34"/>
<rect x="452" y="42.352" fill="#5D9100" width="34" height="34"/>
<rect x="653" y="42.352" fill="#487100" width="34" height="34"/>
<g>
	<path d="M76.888,48.027c1.596-0.266,3.686-0.494,6.345-0.494c3.268,0,5.661,0.76,7.182,2.128c1.405,1.216,2.241,3.078,2.241,5.357
		c0,2.318-0.684,4.142-1.976,5.471c-1.748,1.862-4.598,2.812-7.827,2.812c-0.987,0-1.899-0.038-2.659-0.228v10.258h-3.306V48.027z
		 M80.193,60.375c0.722,0.19,1.634,0.266,2.735,0.266c3.989,0,6.421-1.938,6.421-5.471c0-3.382-2.394-5.016-6.041-5.016
		c-1.443,0-2.546,0.114-3.115,0.266V60.375z"/>
	<path d="M112.681,63.984c0,6.801-4.711,9.765-9.156,9.765c-4.978,0-8.815-3.647-8.815-9.46c0-6.155,4.027-9.765,9.119-9.765
		C109.109,54.524,112.681,58.361,112.681,63.984z M98.091,64.174c0,4.027,2.317,7.067,5.585,7.067c3.191,0,5.586-3.001,5.586-7.143
		c0-3.116-1.559-7.067-5.51-7.067S98.091,60.679,98.091,64.174z"/>
	<path d="M133.543,63.984c0,6.801-4.711,9.765-9.156,9.765c-4.978,0-8.815-3.647-8.815-9.46c0-6.155,4.028-9.765,9.119-9.765
		C129.972,54.524,133.543,58.361,133.543,63.984z M118.953,64.174c0,4.027,2.317,7.067,5.585,7.067c3.191,0,5.586-3.001,5.586-7.143
		c0-3.116-1.559-7.067-5.51-7.067S118.953,60.679,118.953,64.174z"/>
	<path d="M137.764,60.679c0-2.166-0.038-4.027-0.151-5.737h2.925l0.114,3.609h0.152c0.836-2.47,2.85-4.027,5.091-4.027
		c0.38,0,0.646,0.038,0.95,0.114v3.154c-0.342-0.076-0.685-0.114-1.14-0.114c-2.356,0-4.027,1.786-4.483,4.293
		c-0.076,0.456-0.152,0.988-0.152,1.558v9.803h-3.306V60.679z"/>
	<path d="M280.979,72.495c-1.216,0.608-3.647,1.216-6.764,1.216c-7.219,0-12.651-4.559-12.651-12.956
		c0-8.017,5.433-13.45,13.374-13.45c3.191,0,5.205,0.684,6.079,1.14l-0.798,2.698c-1.254-0.608-3.04-1.064-5.168-1.064
		c-6.003,0-9.992,3.837-9.992,10.562c0,6.269,3.609,10.296,9.841,10.296c2.014,0,4.065-0.418,5.395-1.064L280.979,72.495z"/>
	<path d="M294.925,73.331l-0.266-2.318h-0.114c-1.025,1.444-3.002,2.736-5.623,2.736c-3.724,0-5.623-2.622-5.623-5.281
		c0-4.445,3.951-6.877,11.056-6.839v-0.38c0-1.52-0.418-4.255-4.179-4.255c-1.71,0-3.496,0.532-4.787,1.368l-0.761-2.204
		c1.521-0.988,3.724-1.634,6.042-1.634c5.623,0,6.99,3.837,6.99,7.523v6.877c0,1.596,0.076,3.153,0.305,4.407H294.925z
		 M294.431,63.946c-3.647-0.076-7.789,0.57-7.789,4.142c0,2.166,1.444,3.191,3.154,3.191c2.394,0,3.913-1.52,4.445-3.078
		c0.113-0.342,0.189-0.722,0.189-1.063V63.946z"/>
	<path d="M318.446,68.316c0,1.899,0.038,3.571,0.152,5.015h-2.964l-0.189-3.001h-0.076c-0.874,1.482-2.812,3.419-6.079,3.419
		c-2.888,0-6.346-1.596-6.346-8.055V54.942h3.344v10.182c0,3.496,1.064,5.852,4.104,5.852c2.242,0,3.8-1.558,4.407-3.04
		c0.19-0.494,0.304-1.102,0.304-1.71V54.942h3.344V68.316z"/>
	<path d="M328.023,49.661v5.281h4.787v2.545h-4.787v9.917c0,2.28,0.646,3.572,2.508,3.572c0.874,0,1.52-0.114,1.938-0.228
		l0.152,2.507c-0.646,0.266-1.672,0.456-2.964,0.456c-1.558,0-2.812-0.494-3.609-1.406c-0.95-0.988-1.292-2.622-1.292-4.787V57.487
		h-2.85v-2.545h2.85v-4.408L328.023,49.661z"/>
	<path d="M340.298,49.774c0.038,1.14-0.798,2.052-2.128,2.052c-1.178,0-2.014-0.912-2.014-2.052c0-1.178,0.874-2.089,2.09-2.089
		C339.5,47.685,340.298,48.597,340.298,49.774z M336.574,73.331V54.942h3.344v18.389H336.574z"/>
	<path d="M362.106,63.984c0,6.801-4.711,9.765-9.156,9.765c-4.978,0-8.815-3.647-8.815-9.46c0-6.155,4.027-9.765,9.119-9.765
		C358.535,54.524,362.106,58.361,362.106,63.984z M347.517,64.174c0,4.027,2.317,7.067,5.585,7.067c3.191,0,5.586-3.001,5.586-7.143
		c0-3.116-1.559-7.067-5.51-7.067S347.517,60.679,347.517,64.174z"/>
	<path d="M366.328,59.919c0-1.899-0.038-3.458-0.151-4.977h2.963l0.19,3.04h0.076c0.911-1.748,3.039-3.458,6.079-3.458
		c2.545,0,6.497,1.52,6.497,7.827v10.98h-3.344V62.73c0-2.963-1.102-5.433-4.256-5.433c-2.203,0-3.913,1.558-4.483,3.419
		c-0.151,0.418-0.228,0.988-0.228,1.558v11.056h-3.344V59.919z"/>
	<path d="M519.803,72.191c-1.482,0.532-4.407,1.406-7.865,1.406c-3.875,0-7.066-0.988-9.574-3.382
		c-2.204-2.127-3.571-5.547-3.571-9.537c0.038-7.637,5.281-13.222,13.867-13.222c2.964,0,5.281,0.646,6.384,1.178l-0.798,2.698
		c-1.368-0.608-3.078-1.102-5.661-1.102c-6.231,0-10.297,3.875-10.297,10.296c0,6.497,3.913,10.334,9.879,10.334
		c2.165,0,3.647-0.304,4.407-0.684v-7.637h-5.205v-2.66h8.435V72.191z"/>
	<path d="M541.576,63.984c0,6.801-4.711,9.765-9.156,9.765c-4.978,0-8.815-3.647-8.815-9.46c0-6.155,4.028-9.765,9.119-9.765
		C538.005,54.524,541.576,58.361,541.576,63.984z M526.986,64.174c0,4.027,2.317,7.067,5.585,7.067c3.191,0,5.586-3.001,5.586-7.143
		c0-3.116-1.559-7.067-5.51-7.067S526.986,60.679,526.986,64.174z"/>
	<path d="M562.438,63.984c0,6.801-4.711,9.765-9.156,9.765c-4.978,0-8.815-3.647-8.815-9.46c0-6.155,4.027-9.765,9.119-9.765
		C558.867,54.524,562.438,58.361,562.438,63.984z M547.849,64.174c0,4.027,2.317,7.067,5.585,7.067c3.191,0,5.586-3.001,5.586-7.143
		c0-3.116-1.559-7.067-5.51-7.067S547.849,60.679,547.849,64.174z"/>
	<path d="M582.541,46.355v22.227c0,1.634,0.038,3.496,0.152,4.75h-3.002l-0.152-3.191h-0.075c-1.026,2.052-3.268,3.609-6.27,3.609
		c-4.445,0-7.865-3.762-7.865-9.347c-0.037-6.117,3.762-9.878,8.245-9.878c2.812,0,4.711,1.33,5.547,2.812h0.076v-10.98H582.541z
		 M579.197,62.427c0-0.418-0.038-0.988-0.151-1.406c-0.494-2.128-2.318-3.875-4.825-3.875c-3.458,0-5.51,3.04-5.51,7.105
		c0,3.723,1.824,6.801,5.434,6.801c2.241,0,4.293-1.481,4.901-3.989c0.113-0.456,0.151-0.912,0.151-1.444V62.427z"/>
	<path d="M714.244,61.325h-9.954v9.233h11.094v2.773h-14.399V47.723h13.83v2.774H704.29v8.093h9.954V61.325z"/>
	<path d="M721.123,54.942l2.622,3.951c0.684,1.026,1.254,1.976,1.861,3.001h0.114c0.607-1.102,1.216-2.051,1.823-3.04l2.584-3.913
		h3.609l-6.269,8.891l6.459,9.499h-3.8l-2.697-4.142c-0.722-1.063-1.33-2.089-1.976-3.191h-0.076
		c-0.608,1.102-1.254,2.09-1.938,3.191l-2.66,4.142h-3.686l6.535-9.385l-6.23-9.004H721.123z"/>
	<path d="M749.697,72.647c-0.874,0.456-2.812,1.064-5.281,1.064c-5.547,0-9.157-3.761-9.157-9.385c0-5.661,3.876-9.764,9.879-9.764
		c1.976,0,3.724,0.494,4.636,0.95l-0.76,2.583c-0.799-0.456-2.052-0.874-3.876-0.874c-4.218,0-6.497,3.115-6.497,6.953
		c0,4.255,2.735,6.877,6.383,6.877c1.9,0,3.154-0.494,4.104-0.912L749.697,72.647z"/>
	<path d="M755.248,64.744c0.075,4.521,2.963,6.383,6.307,6.383c2.394,0,3.838-0.418,5.091-0.95l0.57,2.394
		c-1.178,0.532-3.191,1.14-6.117,1.14c-5.661,0-9.043-3.724-9.043-9.271c0-5.547,3.268-9.917,8.625-9.917
		c6.003,0,7.599,5.281,7.599,8.663c0,0.684-0.075,1.216-0.113,1.558H755.248z M765.05,62.351c0.038-2.127-0.873-5.433-4.635-5.433
		c-3.382,0-4.863,3.116-5.13,5.433H765.05z"/>
	<path d="M772.424,46.355h3.344v26.976h-3.344V46.355z"/>
	<path d="M781.392,46.355h3.344v26.976h-3.344V46.355z"/>
	<path d="M792.222,64.744c0.075,4.521,2.963,6.383,6.307,6.383c2.394,0,3.838-0.418,5.091-0.95l0.57,2.394
		c-1.178,0.532-3.191,1.14-6.117,1.14c-5.661,0-9.043-3.724-9.043-9.271c0-5.547,3.268-9.917,8.625-9.917
		c6.003,0,7.599,5.281,7.599,8.663c0,0.684-0.075,1.216-0.113,1.558H792.222z M802.023,62.351c0.038-2.127-0.873-5.433-4.635-5.433
		c-3.382,0-4.863,3.116-5.13,5.433H802.023z"/>
	<path d="M809.397,59.919c0-1.899-0.038-3.458-0.151-4.977h2.963l0.19,3.04h0.076c0.911-1.748,3.039-3.458,6.079-3.458
		c2.545,0,6.497,1.52,6.497,7.827v10.98h-3.344V62.73c0-2.963-1.103-5.433-4.256-5.433c-2.203,0-3.913,1.558-4.483,3.419
		c-0.151,0.418-0.228,0.988-0.228,1.558v11.056h-3.344V59.919z"/>
	<path d="M834.362,49.661v5.281h4.787v2.545h-4.787v9.917c0,2.28,0.646,3.572,2.508,3.572c0.874,0,1.52-0.114,1.938-0.228
		l0.152,2.507c-0.646,0.266-1.672,0.456-2.964,0.456c-1.558,0-2.812-0.494-3.609-1.406c-0.95-0.988-1.292-2.622-1.292-4.787V57.487
		h-2.85v-2.545h2.85v-4.408L834.362,49.661z"/>
</g>
</svg>
