<?xml version="1.0" encoding="utf-8"?>
<!-- Generator: Adobe Illustrator 16.0.4, SVG Export Plug-In . SVG Version: 6.00 Build 0)  -->
<!DOCTYPE svg PUBLIC "-//W3C//DTD SVG 1.1//EN" "http://www.w3.org/Graphics/SVG/1.1/DTD/svg11.dtd">
<svg version="1.1" id="Layer_1" xmlns="http://www.w3.org/2000/svg" xmlns:xlink="http://www.w3.org/1999/xlink" x="0px" y="0px"
	 width="190.723px" height="38.116px" viewBox="0 -5.464 190.723 38.116" enable-background="new 0 -5.464 190.723 38.116"
	 xml:space="preserve" style="
    margin: 0 auto;
    display: block;
">
<rect y="-5.464" fill="#E6E7E8" width="190.723" height="38.116"/>
<rect x="6.67" y="7.987" fill="#841412" width="10.798" height="10.798"/>
<rect x="67.331" y="7.987" fill="#EDB20A" width="10.798" height="10.798"/>
<rect x="143.555" y="7.987" fill="#5D9100" width="10.799" height="10.798"/>
<g>
	<path d="M24.42,9.789c0.506-0.084,1.171-0.156,2.015-0.156c1.038,0,1.798,0.241,2.281,0.676c0.447,0.386,0.712,0.977,0.712,1.701
		c0,0.736-0.218,1.316-0.627,1.738c-0.555,0.591-1.461,0.893-2.486,0.893c-0.313,0-0.604-0.012-0.844-0.072v3.258h-1.05V9.789z
		 M25.47,13.711c0.229,0.06,0.519,0.084,0.868,0.084c1.267,0,2.039-0.615,2.039-1.737c0-1.075-0.761-1.594-1.918-1.594
		c-0.459,0-0.809,0.036-0.989,0.084V13.711z"/>
	<path d="M35.787,14.857c0,2.16-1.496,3.101-2.907,3.101c-1.582,0-2.8-1.158-2.8-3.004c0-1.955,1.279-3.102,2.896-3.102
		C34.652,11.852,35.787,13.071,35.787,14.857z M31.154,14.918c0,1.279,0.736,2.244,1.773,2.244c1.014,0,1.774-0.953,1.774-2.269
		c0-0.99-0.496-2.244-1.75-2.244C31.697,12.649,31.154,13.808,31.154,14.918z"/>
	<path d="M42.413,14.857c0,2.16-1.497,3.101-2.908,3.101c-1.58,0-2.799-1.158-2.799-3.004c0-1.955,1.28-3.102,2.896-3.102
		C41.279,11.852,42.413,13.071,42.413,14.857z M37.779,14.918c0,1.279,0.736,2.244,1.774,2.244c1.014,0,1.774-0.953,1.774-2.269
		c0-0.99-0.495-2.244-1.75-2.244C38.323,12.649,37.779,13.808,37.779,14.918z"/>
	<path d="M43.754,13.808c0-0.688-0.013-1.279-0.049-1.823h0.929l0.036,1.146h0.048c0.265-0.785,0.905-1.279,1.617-1.279
		c0.121,0,0.205,0.012,0.302,0.037v1.001c-0.109-0.024-0.217-0.036-0.362-0.036c-0.748,0-1.279,0.567-1.424,1.363
		c-0.024,0.145-0.048,0.314-0.048,0.495v3.113h-1.049V13.808z"/>
	<path d="M89.238,17.56c-0.386,0.193-1.158,0.386-2.148,0.386c-2.293,0-4.018-1.448-4.018-4.115c0-2.546,1.726-4.272,4.248-4.272
		c1.013,0,1.653,0.218,1.93,0.363l-0.253,0.857c-0.398-0.193-0.965-0.338-1.641-0.338c-1.907,0-3.174,1.219-3.174,3.354
		c0,1.991,1.146,3.27,3.126,3.27c0.64,0,1.291-0.132,1.713-0.338L89.238,17.56z"/>
	<path d="M93.668,17.826l-0.084-0.736h-0.036c-0.326,0.458-0.954,0.869-1.786,0.869c-1.183,0-1.786-0.833-1.786-1.677
		c0-1.412,1.255-2.185,3.512-2.172v-0.121c0-0.483-0.133-1.352-1.327-1.352c-0.543,0-1.11,0.169-1.521,0.435l-0.242-0.7
		c0.483-0.313,1.183-0.52,1.919-0.52c1.786,0,2.22,1.218,2.22,2.39v2.184c0,0.507,0.024,1.002,0.097,1.4H93.668z M93.511,14.845
		c-1.158-0.024-2.474,0.181-2.474,1.315c0,0.688,0.458,1.014,1,1.014c0.761,0,1.244-0.482,1.413-0.978
		c0.036-0.109,0.06-0.229,0.06-0.338L93.511,14.845L93.511,14.845z"/>
	<path d="M101.138,16.233c0,0.604,0.012,1.134,0.048,1.593h-0.941l-0.06-0.954h-0.024c-0.278,0.471-0.893,1.086-1.931,1.086
		c-0.917,0-2.016-0.507-2.016-2.558v-3.415h1.062v3.234c0,1.11,0.337,1.858,1.304,1.858c0.711,0,1.207-0.494,1.399-0.965
		c0.061-0.157,0.097-0.35,0.097-0.543v-3.584h1.062L101.138,16.233L101.138,16.233z"/>
	<path d="M104.18,10.308v1.677h1.52v0.809h-1.52v3.149c0,0.724,0.205,1.134,0.796,1.134c0.278,0,0.483-0.036,0.616-0.072
		l0.048,0.796c-0.205,0.084-0.531,0.145-0.941,0.145c-0.495,0-0.894-0.157-1.146-0.447c-0.302-0.314-0.41-0.833-0.41-1.52v-3.186
		h-0.905v-0.809h0.905v-1.399L104.18,10.308z"/>
	<path d="M108.078,10.344c0.012,0.362-0.254,0.652-0.675,0.652c-0.375,0-0.64-0.29-0.64-0.652c0-0.374,0.277-0.664,0.663-0.664
		C107.824,9.68,108.078,9.97,108.078,10.344z M106.896,17.826v-5.841h1.061v5.841H106.896z"/>
	<path d="M115.005,14.857c0,2.16-1.497,3.101-2.908,3.101c-1.581,0-2.8-1.158-2.8-3.004c0-1.955,1.28-3.102,2.897-3.102
		C113.87,11.852,115.005,13.071,115.005,14.857z M110.371,14.918c0,1.279,0.737,2.244,1.774,2.244c1.014,0,1.774-0.953,1.774-2.269
		c0-0.99-0.495-2.244-1.75-2.244C110.914,12.649,110.371,13.808,110.371,14.918z"/>
	<path d="M116.346,13.566c0-0.603-0.013-1.098-0.049-1.581h0.94l0.061,0.966h0.025c0.289-0.555,0.965-1.099,1.931-1.099
		c0.808,0,2.063,0.483,2.063,2.486v3.488h-1.063v-3.368c0-0.94-0.349-1.725-1.351-1.725c-0.7,0-1.243,0.495-1.425,1.086
		c-0.047,0.133-0.072,0.313-0.072,0.495v3.512h-1.062v-4.26H116.346z"/>
	<path d="M165.089,17.463c-0.471,0.169-1.4,0.447-2.499,0.447c-1.23,0-2.243-0.314-3.041-1.074
		c-0.699-0.676-1.134-1.761-1.134-3.029c0.012-2.425,1.677-4.199,4.404-4.199c0.941,0,1.678,0.205,2.027,0.374l-0.253,0.857
		c-0.434-0.193-0.977-0.35-1.797-0.35c-1.979,0-3.271,1.23-3.271,3.27c0,2.064,1.243,3.282,3.137,3.282
		c0.687,0,1.158-0.096,1.4-0.217v-2.426h-1.653v-0.844h2.679V17.463L165.089,17.463z"/>
	<path d="M172.004,14.857c0,2.16-1.496,3.101-2.909,3.101c-1.581,0-2.799-1.158-2.799-3.004c0-1.955,1.279-3.102,2.896-3.102
		C170.87,11.852,172.004,13.071,172.004,14.857z M167.37,14.918c0,1.279,0.736,2.244,1.774,2.244c1.013,0,1.774-0.953,1.774-2.269
		c0-0.99-0.496-2.244-1.75-2.244S167.37,13.808,167.37,14.918z"/>
	<path d="M178.629,14.857c0,2.16-1.497,3.101-2.907,3.101c-1.582,0-2.801-1.158-2.801-3.004c0-1.955,1.28-3.102,2.897-3.102
		C177.495,11.852,178.629,13.071,178.629,14.857z M173.996,14.918c0,1.279,0.736,2.244,1.773,2.244c1.014,0,1.774-0.953,1.774-2.269
		c0-0.99-0.495-2.244-1.75-2.244C174.539,12.649,173.996,13.808,173.996,14.918z"/>
	<path d="M185.015,9.258v7.059c0,0.52,0.011,1.111,0.048,1.509h-0.954l-0.048-1.013h-0.024c-0.326,0.651-1.038,1.146-1.991,1.146
		c-1.412,0-2.498-1.195-2.498-2.968c-0.012-1.943,1.194-3.138,2.618-3.138c0.894,0,1.497,0.422,1.762,0.894h0.024V9.259
		L185.015,9.258L185.015,9.258z M183.953,14.363c0-0.132-0.013-0.313-0.048-0.447c-0.157-0.676-0.736-1.23-1.533-1.23
		c-1.098,0-1.75,0.965-1.75,2.257c0,1.183,0.58,2.16,1.726,2.16c0.712,0,1.364-0.471,1.557-1.267
		c0.036-0.146,0.048-0.29,0.048-0.459V14.363z"/>
</g>
</svg>
