<?xml version="1.0" encoding="utf-8"?>
<!-- Generator: Adobe Illustrator 19.2.1, SVG Export Plug-In . SVG Version: 6.00 Build 0)  -->
<svg version="1.1" id="Layer_1" xmlns="http://www.w3.org/2000/svg" xmlns:xlink="http://www.w3.org/1999/xlink" x="0px" y="0px"
	 viewBox="0 0 110 110" style="enable-background:new 0 0 110 110;" xml:space="preserve">
<style type="text/css">
	.st0{fill:#FFFFFF;}
</style>
<g>
	<path class="st0" d="M94,17.4l-0.7-0.7C72.5-4.1,38.5-4.4,17.3,16C-4.2,36.8-4.9,71.2,15.9,92.7l0.7,0.7
		c20.8,20.8,54.8,21.1,76,0.7c10.4-10.1,16.3-23.6,16.6-38.1C109.4,41.5,104,27.8,94,17.4z M19.3,90.6l-0.6-0.6
		C-0.6,69.9,0,38,20,18.8C39.6-0.1,71.2,0.2,90.5,19.4l0.7,0.7c9.3,9.7,14.3,22.4,14.1,35.9c-0.2,13.4-5.7,26-15.4,35.3
		C70.3,110.2,38.6,109.8,19.3,90.6z"/>
	<path class="st0" d="M81.1,53.5l-24.2-0.4l0.4-24.2c0-1.1-0.8-2-1.9-2c-1.1,0-2,0.8-2,1.9L53,53l-24.2-0.4c-1.1,0-2,0.8-2,1.9
		c0,0.6,0.2,1,0.6,1.4c0.3,0.3,0.8,0.6,1.3,0.6l24.2,0.4l-0.4,24.2c0,0.6,0.2,1.1,0.6,1.4c0.3,0.3,0.8,0.6,1.3,0.6
		c1.1,0,2-0.8,2-1.9L56.8,57L81,57.4c1.1,0,2-0.8,2-1.9C83,54.5,82.2,53.5,81.1,53.5z"/>
</g>
</svg>
