<?xml version="1.0" encoding="utf-8"?>
<!-- Generator: Adobe Illustrator 19.2.1, SVG Export Plug-In . SVG Version: 6.00 Build 0)  -->
<svg version="1.1" id="Layer_1" xmlns="http://www.w3.org/2000/svg" xmlns:xlink="http://www.w3.org/1999/xlink" x="0px" y="0px"
	 viewBox="0 0 110 110" style="enable-background:new 0 0 110 110;" xml:space="preserve">
<style type="text/css">
	.st0{fill:#6B1010;}
</style>
<g>
	<path class="st0" d="M55.8,1.5h-1.1C25.9,1.5,2.1,25,1.5,54c-0.6,29.4,23,53.9,52.5,54.5h1.1c29,0,52.8-23.6,53.5-52.5
		c0.3-14.3-5-27.8-14.9-38.1C83.5,7.5,70.2,1.8,55.8,1.5z M54.9,104.6H54C26.7,104,4.8,81.3,5.2,54C5.8,27.1,28,5.2,54.9,5.2h0.9
		c13.3,0.3,25.7,5.6,34.9,15.1s14.2,22,13.9,35.3C104,82.7,81.8,104.6,54.9,104.6z"/>
	<path class="st0" d="M72.1,35.7L54.9,52.4L38.3,35.1c-0.8-0.8-2-0.8-2.7,0c-0.8,0.8-0.8,2,0,2.7l16.6,17.2L35,71.7
		c-0.8,0.8-0.8,2,0,2.7c0.5,0.5,0.9,0.6,1.4,0.6s0.9-0.2,1.4-0.6l17.2-16.6L71.5,75c0.5,0.5,0.9,0.6,1.4,0.6s0.9-0.2,1.4-0.6
		c0.8-0.8,0.8-2,0-2.7L57.6,55.1l17.2-16.6c0.8-0.8,0.8-2,0-2.7C74.1,35,72.9,35,72.1,35.7z"/>
</g>
</svg>
