<?xml version="1.0" encoding="utf-8"?>
<!-- Generator: Adobe Illustrator 19.2.1, SVG Export Plug-In . SVG Version: 6.00 Build 0)  -->
<svg version="1.1" id="Layer_1" xmlns="http://www.w3.org/2000/svg" xmlns:xlink="http://www.w3.org/1999/xlink" x="0px" y="0px"
	 viewBox="0 0 110 110" style="enable-background:new 0 0 110 110;" xml:space="preserve">
<style type="text/css">
	.st0{fill:#FFFFFF;}
</style>
<g>
	<path class="st0" d="M93.1,27.6L93.1,27.6L67.1,1.7c-0.5-0.4-1-0.6-1.4-0.6H18.3c-1.1,0-1.9,0.9-1.9,1.9v103.9
		c0,1.1,0.9,1.9,1.9,1.9h73.4c1.1,0,1.9-0.9,1.9-1.9V29C93.6,28.5,93.4,28,93.1,27.6z M67.6,7.7L87,27.1H67.6V7.7z M89.8,105H20.2V5
		h43.6v24c0,1.1,0.9,1.9,1.9,1.9h24L89.8,105L89.8,105z"/>
	<path class="st0" d="M29.3,47c0,1.1,0.9,1.9,1.9,1.9h47.4c1.1,0,1.9-0.9,1.9-1.9c0-1.1-0.9-1.9-1.9-1.9H31.2
		C30.2,45.1,29.3,46,29.3,47z"/>
	<path class="st0" d="M78.7,59.1H31.2c-1.1,0-1.9,0.9-1.9,1.9c0,1.1,0.9,1.9,1.9,1.9h47.4c1.1,0,1.9-0.9,1.9-1.9
		C80.6,60,79.7,59.1,78.7,59.1z"/>
	<path class="st0" d="M78.7,73.1H31.2c-1.1,0-1.9,0.9-1.9,1.9s0.9,1.9,1.9,1.9h47.4c1.1,0,1.9-0.9,1.9-1.9S79.7,73.1,78.7,73.1z"/>
	<path class="st0" d="M78.7,87.2H31.2c-1.1,0-1.9,0.9-1.9,1.9s0.9,1.9,1.9,1.9h47.4c1.1,0,1.9-0.9,1.9-1.9S79.7,87.2,78.7,87.2z"/>
</g>
</svg>
