<?xml version="1.0" encoding="utf-8"?>
<!-- Generator: Adobe Illustrator 19.2.1, SVG Export Plug-In . SVG Version: 6.00 Build 0)  -->
<svg version="1.1" id="Layer_1" xmlns="http://www.w3.org/2000/svg" xmlns:xlink="http://www.w3.org/1999/xlink" x="0px" y="0px"
	 viewBox="0 0 214 216" style="enable-background:new 0 0 214 216;" xml:space="preserve">
<style type="text/css">
	.st0{clip-path:url(#SVGID_2_);}
	.st1{clip-path:url(#SVGID_4_);}
</style>
<g>
	<defs>
		<rect id="SVGID_1_" x="0.1" width="213.9" height="215.9"/>
	</defs>
	<clipPath id="SVGID_2_">
		<use xlink:href="#SVGID_1_"  style="overflow:visible;"/>
	</clipPath>
	<g class="st0">
		<defs>
			<rect id="SVGID_3_" width="214" height="216"/>
		</defs>
		<clipPath id="SVGID_4_">
			<use xlink:href="#SVGID_3_"  style="overflow:visible;"/>
		</clipPath>
		<path class="st1" d="M196.9,53.5l-13.9,13.9l-34.8-34.8l13.9-13.9c5.6-5.6,13.9-5.6,19.5,0L196.9,34
			C202.4,39.6,202.4,47.9,196.9,53.5z M57.7,192.7l-41.8,7l7-41.8l4.9-4.9l34.8,34.8L57.7,192.7z M72.3,178.1l-34.8-34.8L137.7,43.1
			l34.8,34.8L72.3,178.1z M205.2,24.3L189.9,9c-9.7-11.1-27.8-11.1-39,0l-18.1,18.1c0,0.6-0.3,1.3-0.6,2L10.3,151
			c0,1.4-1.4,2.8-1.4,4.2L0.6,208c-1.4,1.4,0,4.2,1.4,5.6c1.4,0,4.2,1.4,5.6,1.4l52.9-7c1.4,0,2.8,0,4.2-1.4L187.1,84.1
			c0-1,0.6-2.2,1-3.8l17.1-17.1C216.4,53.5,216.4,35.4,205.2,24.3z"/>
	</g>
</g>
</svg>
