<?xml version="1.0" encoding="utf-8"?>
<!-- Generator: Adobe Illustrator 19.2.1, SVG Export Plug-In . SVG Version: 6.00 Build 0)  -->
<svg version="1.1" id="Layer_1" xmlns="http://www.w3.org/2000/svg" xmlns:xlink="http://www.w3.org/1999/xlink" x="0px" y="0px"
	 viewBox="0 0 110 110" style="enable-background:new 0 0 110 110;" xml:space="preserve">
<style type="text/css">
	.st0{fill:#FFFFFF;}
</style>
<g>
	<path class="st0" d="M56,51.5c-12.7,0-23-10.3-23-23s10.3-23,23-23s23,10.3,23,23S68.7,51.5,56,51.5z M56,9.5c-10.5,0-19,8.5-19,19
		s8.5,19,19,19s19-8.5,19-19S66.5,9.5,56,9.5z"/>
</g>
<g>
	<path class="st0" d="M108.5,104.5H1.8V84.6l0.4-0.5C2.9,83.2,19.7,61,56.1,61s51.5,22.2,52.2,23.1l0.3,0.5v19.9H108.5z M5.8,100.5
		h98.8V85.9C102.3,82.8,87.4,65,56.1,65c-17.9,0-30.7,5.8-38.3,10.7C11,80.1,7,84.5,5.8,85.9V100.5z"/>
</g>
</svg>
