<?xml version="1.0" standalone="no"?>
<!DOCTYPE svg PUBLIC "-//W3C//DTD SVG 20010904//EN"
 "http://www.w3.org/TR/2001/REC-SVG-20010904/DTD/svg10.dtd">
<svg version="1.0" xmlns="http://www.w3.org/2000/svg"
 width="294.000000pt" height="294.000000pt" viewBox="0 0 294.000000 294.000000"
 preserveAspectRatio="xMidYMid meet">
<metadata>
Created by potrace 1.11, written by Peter Selinger 2001-2013
</metadata>
<g transform="translate(0.000000,294.000000) scale(0.100000,-0.100000)"
fill="#000000" stroke="none">
<path d="M758 2485 c-1 -1 -21 -5 -43 -8 -108 -15 -236 -56 -325 -105 -175
-95 -306 -270 -336 -447 -9 -51 -10 -177 -1 -231 18 -117 92 -251 195 -351
122 -120 303 -203 497 -229 84 -11 846 -11 859 1 10 8 54 63 99 123 8 10 -83
12 -459 12 -258 0 -485 2 -505 5 -119 16 -255 84 -345 173 -101 99 -144 203
-150 357 -4 113 8 175 52 255 75 138 260 249 464 278 30 4 266 7 523 7 l469
-1 64 83 64 84 -559 -1 c-307 -1 -561 -3 -563 -5z"/>
<path d="M798 2268 c-208 -20 -387 -128 -460 -276 -32 -64 -33 -72 -33 -182 1
-102 4 -122 28 -180 15 -36 39 -79 53 -95 14 -17 29 -35 32 -41 14 -21 125
-105 165 -124 140 -66 114 -63 664 -65 276 -1 505 1 510 4 4 3 34 39 66 79
l58 72 -528 2 c-290 0 -532 2 -538 3 -217 32 -347 170 -332 351 12 159 133
273 327 308 14 2 197 5 407 5 l383 1 50 65 c28 35 50 68 48 72 -4 10 -805 11
-900 1z"/>
<path d="M1589 1916 c-2 -2 -26 -6 -54 -10 -245 -29 -473 -167 -588 -354 -43
-71 -53 -64 92 -65 71 0 86 3 98 19 77 107 215 192 373 229 66 16 136 18 565
20 270 2 493 3 496 4 3 0 34 37 68 81 l62 80 -554 0 c-305 -1 -556 -2 -558 -4z"/>
<path d="M1580 1694 c-93 -16 -133 -30 -218 -75 -76 -40 -169 -118 -153 -128
5 -3 60 -5 123 -5 92 1 122 6 158 23 103 48 119 49 537 51 379 1 397 2 410 20
7 10 19 25 26 32 15 17 67 86 67 90 0 10 -889 2 -950 -8z"/>
<path d="M1921 1406 c-21 -28 -46 -63 -55 -78 l-18 -27 229 0 c125 0 240 0
256 0 22 -1 33 -10 55 -46 15 -25 30 -45 33 -45 10 0 119 150 119 164 0 6 -16
28 -36 47 l-35 34 -255 1 -254 1 -39 -51z"/>
<path d="M1963 1250 l-162 -5 -61 -79 c-33 -43 -60 -83 -60 -88 0 -5 -9 -28
-20 -50 -11 -23 -20 -45 -20 -50 0 -4 137 -8 305 -8 l304 0 58 78 c33 42 62
82 66 88 7 12 -36 99 -56 111 -13 8 -146 9 -354 3z"/>
<path d="M896 1046 c75 -258 365 -469 689 -503 74 -7 780 -10 817 -3 17 3 44
27 77 69 28 35 50 65 48 67 -2 2 -219 4 -483 5 -538 1 -543 1 -684 74 -101 52
-204 156 -245 246 l-30 65 -98 0 c-94 0 -97 0 -91 -20z"/>
<path d="M1160 1059 c0 -25 52 -101 101 -151 68 -66 161 -121 256 -150 64 -19
94 -20 565 -22 l496 -1 60 75 c33 41 57 76 53 77 -3 2 -249 4 -546 6 -461 3
-547 6 -586 19 -79 28 -128 57 -177 107 l-47 49 -87 -1 c-49 0 -88 -4 -88 -8z"/>
</g>
</svg>
