<?xml version="1.0" encoding="utf-8"?>
<!-- Generator: Adobe Illustrator 19.2.1, SVG Export Plug-In . SVG Version: 6.00 Build 0)  -->
<svg version="1.1" id="Layer_1" xmlns="http://www.w3.org/2000/svg" xmlns:xlink="http://www.w3.org/1999/xlink" x="0px" y="0px"
	 viewBox="0 0 110 110" style="enable-background:new 0 0 110 110;" xml:space="preserve">
<style type="text/css">
	.st0{fill:#FFFFFF;}
</style>
<g id="yNfsHj.tif">
	<g id="XMLID_1_">
		<path id="XMLID_41_" class="st0" d="M11.2,86.7c0.2-0.6,0.5-0.9,0.7-1.4c2.1-3.5,4.3-7,6.5-10.4c0.4-0.6,0.4-1.1,0.1-1.8
			c-0.8-1.7-1.4-3.5-2.2-5.1c-0.2-0.4-0.7-0.9-1.1-1c-4-1-8.1-2-12.2-2.8c-1.2-0.2-1.6-0.8-1.6-2.1c0.1-4.7,0-9.4,0-14.1
			c0-1.1,0.4-1.6,1.5-1.8c4.1-0.9,8.2-1.9,12.3-2.8c0.7-0.2,0.9-0.5,1.2-1.1c0.6-1.7,1.3-3.4,2.1-5.1c0.3-0.6,0.3-1.1-0.1-1.7
			c-2.2-3.5-4.3-7-6.6-10.5c-0.6-1-0.6-1.8,0.3-2.7c3.3-3.2,6.6-6.6,9.9-9.9c0.9-0.9,1.6-0.9,2.5-0.3c3.5,2.2,7,4.4,10.5,6.5
			c0.4,0.2,1.1,0.3,1.6,0.2c1.8-0.6,3.6-1.3,5.3-2.1c0.4-0.2,0.9-0.7,1-1.1c1-4.1,2-8.1,2.9-12.2c0.2-1.1,0.8-1.5,1.8-1.5
			c4.8,0,9.6,0,14.4,0c1.1,0,1.7,0.5,1.9,1.6c0.9,4,1.9,8.1,2.8,12.2c0.2,0.7,0.5,1,1.1,1.3c1.7,0.6,3.4,1.4,5.2,2.1
			c0.5,0.2,1.2,0.2,1.7-0.2c3.5-2.1,6.9-4.2,10.3-6.3c1.7-1,1.7-1,3.1,0.3c3.2,3.1,6.2,6.2,9.4,9.4c1.5,1.5,1.5,1.5,0.4,3.3
			c-2.1,3.4-4.2,6.9-6.3,10.3c-0.4,0.6-0.4,1.1-0.1,1.7c0.7,1.7,1.4,3.2,2,5c0.2,0.7,0.6,1,1.3,1.2c4,0.9,8.1,1.9,12.2,2.8
			c1.1,0.2,1.6,0.8,1.6,1.9c0,4.7,0,9.3,0,14c0,1.3-0.4,1.9-1.7,2.2c-4,0.9-8.1,1.9-12.1,2.8c-0.7,0.2-1,0.5-1.3,1.1
			c-0.6,1.7-1.3,3.3-2.1,4.9c-0.3,0.7-0.4,1.3,0.1,2c2.2,3.5,4.3,7,6.6,10.5c0.6,1,0.6,1.7-0.2,2.5c-3.4,3.3-6.7,6.6-10.1,10
			c-0.8,0.8-1.5,0.9-2.4,0.2c-3.4-2.1-6.8-4.2-10.2-6.4c-0.9-0.6-1.6-0.7-2.5-0.2c-1.5,0.8-3.1,1.3-4.7,2c-0.6,0.2-0.9,0.6-1.1,1.3
			c-0.9,4.1-1.9,8.2-2.8,12.3c-0.2,1-0.7,1.4-1.7,1.4c-4.9,0-9.7,0-14.6,0c-1,0-1.4-0.5-1.7-1.4c-0.9-4.1-1.9-8.2-2.9-12.2
			c-0.2-0.5-0.6-1-1-1.3c-1.7-0.8-3.5-1.5-5.3-2.2c-0.5-0.2-1.1-0.2-1.5,0.1c-3.6,2.1-7.1,4.3-10.7,6.6c-1,0.6-1.7,0.6-2.5-0.3
			c-3.3-3.4-6.6-6.6-10-10C11.8,87.5,11.5,87.1,11.2,86.7z M95.7,23.6c-0.2-0.2-0.4-0.5-0.6-0.7c-2.6-2.6-5.3-5.2-7.9-7.9
			c-0.6-0.7-1.1-0.6-1.8-0.2c-3.3,2.1-6.8,4.2-10.1,6.3c-0.8,0.6-1.5,0.5-2.4,0.1c-2.2-1-4.4-2-6.7-2.8c-0.9-0.3-1.3-0.8-1.6-1.7
			c-0.9-3.9-1.8-7.9-2.8-11.8c-0.2-0.7-0.4-0.9-1.1-0.9c-3.9,0-7.7,0-11.5,0c-0.7,0-0.9,0.2-1.1,0.9c-0.9,3.9-1.8,7.8-2.7,11.7
			c-0.2,1-0.7,1.6-1.7,1.9c-2.2,0.8-4.4,1.7-6.6,2.8c-0.9,0.4-1.6,0.5-2.4-0.1c-3.4-2.1-6.8-4.3-10.2-6.4c-0.6-0.4-1-0.4-1.5,0.2
			c-2.6,2.7-5.3,5.4-8,8c-0.6,0.6-0.6,0.9-0.2,1.5c2.1,3.3,4.1,6.7,6.2,10c0.6,1,0.7,1.8,0.2,2.9c-1,2.1-1.9,4.2-2.7,6.4
			c-0.4,1-0.9,1.5-1.9,1.7c-3.9,0.9-7.8,1.8-11.7,2.7c-0.7,0.2-0.9,0.4-0.9,1.1c0,3.8,0,7.7,0,11.5c0,0.7,0.2,1,0.9,1.2
			c3.9,0.9,7.7,1.8,11.6,2.7c1,0.2,1.7,0.7,2,1.8c0.8,2.2,1.7,4.3,2.7,6.5c0.5,0.9,0.4,1.7-0.2,2.5c-2.1,3.4-4.2,6.8-6.3,10.2
			c-0.4,0.6-0.3,0.9,0.2,1.4c2.7,2.7,5.4,5.4,8.1,8.1c0.6,0.6,0.9,0.6,1.6,0.2c3.4-2.1,6.9-4.3,10.3-6.4c0.8-0.5,1.4-0.6,2.2-0.2
			c2.3,1,4.6,2,7,2.8c0.8,0.3,1.2,0.7,1.3,1.5c0.9,4,1.9,8.1,2.8,12.1c0.2,0.7,0.4,0.9,1.1,0.9c3.9,0,7.7,0,11.5,0
			c0.7,0,0.9-0.2,1.1-0.9c0.9-3.9,1.9-8,2.8-11.9c0.2-0.9,0.7-1.3,1.5-1.7c2.3-0.9,4.5-1.7,6.7-2.8c0.9-0.4,1.6-0.4,2.4,0.2
			c3.4,2.1,6.9,4.3,10.3,6.4c0.6,0.4,1,0.4,1.6-0.2c2.6-2.7,5.3-5.4,8-8c0.6-0.6,0.6-0.9,0.2-1.7c-2.1-3.3-4.2-6.8-6.3-10.1
			c-0.6-0.9-0.6-1.7-0.2-2.7c1-2.1,1.9-4.1,2.6-6.2c0.4-1.1,0.9-1.7,2.1-2c3.9-0.9,7.7-1.8,11.5-2.6c0.7-0.2,1-0.4,1-1.2
			c-0.1-3.8,0-7.7,0-11.5c0-0.7-0.2-0.9-0.9-1.1c-4-0.9-8.1-1.9-12-2.8c-0.9-0.2-1.3-0.6-1.6-1.4c-0.9-2.3-1.7-4.5-2.8-6.7
			c-0.4-0.9-0.4-1.7,0.2-2.4c2.1-3.4,4.2-6.8,6.2-10.1C95.4,24.3,95.6,24,95.7,23.6z"/>
		<path id="XMLID_35_" class="st0" d="M55.1,32.6c12.3,0,22.4,10,22.4,22.3c0,12.6-10,22.5-22.5,22.5c-12.3,0-22.4-10-22.4-22.4
			C32.5,42.6,42.6,32.6,55.1,32.6z M35.1,55c0,10.9,8.8,19.9,19.8,20c11,0.1,20-8.8,20.1-19.9c0.1-10.9-8.8-19.9-19.8-20
			C44.1,35,35.1,44,35.1,55z"/>
	</g>
</g>
</svg>
