<?xml version="1.0" encoding="utf-8"?>
<!-- Generator: Adobe Illustrator 19.2.1, SVG Export Plug-In . SVG Version: 6.00 Build 0)  -->
<svg version="1.1" id="Layer_1" xmlns="http://www.w3.org/2000/svg" xmlns:xlink="http://www.w3.org/1999/xlink" x="0px" y="0px"
	 viewBox="0 0 110 110" style="enable-background:new 0 0 110 110;" xml:space="preserve">
<style type="text/css">
	.st0{fill:#FFFFFF;}
</style>
<g>
	<path class="st0" d="M54.3,24.4c-16.2,0-29.5,13.2-29.5,29.5c0,9.1,4.2,17.4,11.3,23.1c0.1,0.2,0.3,0.4,0.5,0.5
		c0,0,3.9,2.6,3.9,7.5c0,0.1,0.1,0.1,0.1,0.2c0,0.1-0.1,0.1,0,0.2l4.8,22.1c0.2,0.9,1,1.4,1.8,1.4h14.2c0.9,0,1.6-0.6,1.8-1.4
		l4.8-22.1c0-0.1-0.1-0.1,0-0.2c0-0.1,0.1-0.1,0.1-0.2c0-4.8,3.7-7.4,3.9-7.5c0.2-0.1,0.3-0.3,0.4-0.4c7.2-5.7,11.4-14.1,11.4-23.2
		C83.8,37.6,70.6,24.4,54.3,24.4z M59.9,105.2H48.7l-0.4-1.8h12L59.9,105.2z M61.2,99.7H47.6l-0.4-1.8h14.5L61.2,99.7z M62.3,94.1
		h-16l-1.6-7.3H64L62.3,94.1z M69.8,74.3c-0.2,0.1-0.3,0.3-0.4,0.4c-1.3,1-4.2,3.8-4.8,8.3h-8.4V57.3c0-2,1.6-3.7,3.7-3.7
		c1,0,1.8-0.9,1.8-1.8c0-1-0.9-1.8-1.8-1.8c-2.2,0-4.2,1.1-5.5,2.6c-0.1-0.2-0.2-0.3-0.3-0.5c-1.4-1.4-3.2-2.1-5.1-2.1l0,0
		c-1,0-1.8,0.9-1.8,1.8c0,1.1,0.9,1.8,1.8,1.8l0,0l0,0c1,0,1.8,0.4,2.6,1.1c0.7,0.7,1.1,1.6,1.1,2.6v25.8h-8.4
		c-0.7-4.5-3.6-7.3-4.8-8.3c-0.1-0.2-0.3-0.3-0.4-0.4c-6.7-5-10.3-12.5-10.3-20.6C28.6,39.6,40.2,28,54.4,28s25.8,11.6,25.8,25.8
		C80.1,62,76.4,69.4,69.8,74.3z"/>
	<path class="st0" d="M55,17.2c1,0,1.8-0.9,1.8-1.8V2.9c0-1.1-0.9-1.8-1.8-1.8c-1.1,0-1.8,0.9-1.8,1.8v12.4
		C53.2,16.4,53.9,17.2,55,17.2z"/>
	<path class="st0" d="M27.4,27.6c0.4,0.4,0.9,0.6,1.4,0.6s1-0.2,1.3-0.6c0.7-0.7,0.7-1.9,0-2.6l-8.8-8.8c-0.7-0.8-1.9-0.8-2.6,0
		c-0.7,0.7-0.7,1.9,0,2.6L27.4,27.6z"/>
	<path class="st0" d="M19.6,52.6c0-1.1-0.9-1.8-1.8-1.8H5.3c-1.1,0-1.8,0.9-1.8,1.8c0,1.1,0.9,1.8,1.8,1.8h12.5
		C18.8,54.4,19.6,53.6,19.6,52.6z"/>
	<path class="st0" d="M27.4,77.6l-8.8,8.8c-0.7,0.7-0.7,1.9,0,2.6c0.4,0.4,0.9,0.6,1.4,0.6s1-0.2,1.3-0.6l8.8-8.8
		c0.7-0.8,0.7-1.9,0-2.6C29.3,76.8,28.1,76.8,27.4,77.6z"/>
	<path class="st0" d="M82.6,79.2c-0.7-0.7-1.8-0.7-2.6,0c-0.8,0.8-0.8,1.9,0,2.6l8.8,8.8c0.4,0.4,0.9,0.6,1.4,0.6s1-0.2,1.3-0.6
		c0.7-0.7,0.7-1.9,0-2.6L82.6,79.2z"/>
	<path class="st0" d="M104.7,50.7H92.3c-1,0-1.8,0.9-1.8,1.8c0,1.1,0.9,1.8,1.8,1.8h12.4c1.1,0,1.8-0.9,1.8-1.8
		C106.5,51.5,105.6,50.7,104.7,50.7z"/>
	<path class="st0" d="M81.3,28c0.5,0,1-0.2,1.4-0.6l8.8-8.8c0.7-0.8,0.7-1.9,0-2.6c-0.7-0.7-1.8-0.8-2.6,0L80,24.9
		c-0.8,0.8-0.8,1.9,0,2.6C80.3,27.9,80.8,28,81.3,28z"/>
</g>
</svg>
