<?xml version="1.0" encoding="utf-8"?>
<!-- Generator: Adobe Illustrator 19.2.1, SVG Export Plug-In . SVG Version: 6.00 Build 0)  -->
<svg version="1.1" id="Layer_2" xmlns="http://www.w3.org/2000/svg" xmlns:xlink="http://www.w3.org/1999/xlink" x="0px" y="0px"
	 viewBox="0 0 1000 1000" style="enable-background:new 0 0 1000 1000;" xml:space="preserve">
<style type="text/css">
	.st0{fill:#EA2B0E;}
</style>
<path class="st0" d="M45,215.8h37.9l88.5,738.8c1.7,17.7,16.8,30.3,34.5,30.3h588c17.7,0,32-12.6,34.6-30.3l88.4-738.8h37.9
	c19.4,0,34.5-15.2,34.5-34.5c0-19.4-15.2-34.5-34.5-34.5H690.2V41.4c0-19.4-15.1-34.5-34.5-34.5H344c-19.4,0-34.6,15.2-34.6,34.5
	v105.3H45c-19.4,0-34.5,15.1-34.5,34.5C10.4,200.6,26.4,215.8,45,215.8L45,215.8z M378.6,75.9h242.6v70.8H378.6V75.9z M846.9,215.8
	l-83.4,700.9H236.2l-83.4-700.9H846.9z M846.9,215.8"/>
<path class="st0" d="M385.3,811.3c19.4,0,34.5-15.1,34.5-34.5V363.2c0-19.4-15.1-34.5-34.5-34.5c-19.4,0-34.6,15.2-34.6,34.5v413.6
	C350.8,796.2,365.9,811.3,385.3,811.3L385.3,811.3z M385.3,811.3"/>
<path class="st0" d="M614.4,811.3c19.4,0,34.6-15.1,34.6-34.5V363.2c0-19.4-15.2-34.5-34.6-34.5c-19.4,0-34.5,15.2-34.5,34.5v413.6
	C579.9,796.2,595.9,811.3,614.4,811.3L614.4,811.3z M614.4,811.3"/>
</svg>
